<svg id="Layer_1" data-name="Layer 1" xmlns="http://www.w3.org/2000/svg" viewBox="0 0 846.91 178.92"><title>adress</title><path d="M698,67.25c-0.24-1.05.12-1.52,1.29-1.41C709,66.43,721.9,63,728.46,62.91c4.92-.12,7.5,1.88,8.91,5.74,0.35,0.94.12,1.76-1.29,1.52-8.44-.12-16.64,2-23.79,3.17-4.69,7-10.43,17.23-16.17,27.66a66.51,66.51,0,0,1,8.32-.94c5.86-.23,8.44,1.64,9.61,5.27,0.35,1.05.35,1.76-1.17,1.76-6.33,0-15.12,1.64-21.68,3.28-3.4,6.56-6.56,13-9,18.52a85.92,85.92,0,0,1,18.17-3.63c5.74-.23,8.67,1.64,10,5.16,0.35,1.06.23,1.76-1.17,1.76-6.56-.12-19.34,2.93-25.9,4.69-2.23.59-3.52,0.59-4.92-1.17a24.85,24.85,0,0,1-2.46-4.34c-1.05-2-1.05-3.52.12-6.68,5.39-14.42,17.11-36.22,27-51.45C700,72.05,698.69,69.71,698,67.25Z" transform="translate(-15.06 -42.2)" fill="#e64d61"/><path d="M759.17,89.52q1.58-2.29,2.81-.7c1.76,2.11,2.7,7.15-.12,13-2.58,5.27-8.44,14.06-11.25,20.28-2.93,6.56-3,11.6.94,11.37,4.81-.23,11.25-8.2,15.35-16.29,0.59-1.05,1.41-1.17,1.88-.12s0.47,4-1.05,7.27c-3,6.45-10.43,12.89-16.88,12.54s-9.61-4.1-9.61-9.61c-3.75,4.81-9,9.14-14.65,9.14-10.9,0-13.13-14.88-3.4-29.07,9.49-13.83,18.75-19.1,24.61-19.1,5,0,7.38,3.87,7.15,8.44C756.47,93.85,757.88,91.39,759.17,89.52Zm-9.38,4.81C746,94,737.49,101.59,731,112c-6.21,10.08-7.74,20.39-3.17,20.51,4.81,0.12,10.9-7.38,16.88-17.7C752.14,101.94,753.19,94.67,749.79,94.32Z" transform="translate(-15.06 -42.2)" fill="#e64d61"/><path d="M782.72,95.38c0.59-4.57,1.76-6.8,4.22-9s5.27-2.81,6.33-1.76,0.59,2.46-.94,5.16c-0.47.7-.82,1.41-1.29,2.23-0.82,10.78,1.41,19.92,1.05,28-0.23,4.57-1.05,9.49-5.27,12.31,7.85-2.93,12.78-10,15.71-16.29,0.59-1.29,1.76-.94,2.23,0s0.35,4.1-1.64,7.74a24.69,24.69,0,0,1-20.74,12.89c-6.8.23-13.36-1.52-17.35-8.79-2.81-5.27-2.46-13,1.52-16.29,1.41-1.17,2.34-.7,2.46,1.17,0.12,0.94.12,1.88,0.23,2.81A231.93,231.93,0,0,0,782.72,95.38ZM770.3,121.86c1.76,6.8,5.16,11.6,9,10.43,5.39-1.64,3.63-20,3.16-29.42A205.73,205.73,0,0,1,770.3,121.86Z" transform="translate(-15.06 -42.2)" fill="#e64d61"/><path d="M807.1,86.12c-1.17-1.64-.47-2.46,1.29-2.34a66.83,66.83,0,0,0,9.73-.47A150.67,150.67,0,0,1,827,68.77c1.05-1.52,2.23-1.41,2.81,0,1.29,3.28,1.29,7.15-1.52,13.24,4.57-.12,6.33,2,7.27,3.52s0.35,2.23-1.41,2.23a35,35,0,0,0-9.14.47c-4.57,7.85-11.25,19.22-15.71,29.07-3.87,8.56-2.58,15.82,2.34,16.06,5.27,0.23,12-8.09,16.29-16.88,0.7-1.41,2-1.64,2.46,0,0.59,1.88,0,4-1.17,6.68-1.52,3.4-9.26,13.71-18.64,13.36-7.73-.23-13.95-8.91-8.32-22.39,2.46-5.86,7.38-15.71,12.42-25C810.73,89.16,808,87.41,807.1,86.12Z" transform="translate(-15.06 -42.2)" fill="#e64d61"/><path d="M52.69,123.46a2.19,2.19,0,0,1,.59-1.64l28-31.41c2.93-3.28,4.34-6.21,4.34-9.85,0-4.57-2.58-7.74-7.15-7.74s-7.38,2.7-8,8.91a1,1,0,0,1-1.29,1.05L53.75,80.44A1.13,1.13,0,0,1,52.81,79c0.7-12.66,11-22.39,26.49-22.39S105,66.61,105,79.86c0,8.32-3.28,14.42-8.67,20.16l-19,21.1v0.23h26.49a1.11,1.11,0,0,1,1.17,1.17v14.06a1.11,1.11,0,0,1-1.17,1.17H53.86a1.11,1.11,0,0,1-1.17-1.17V123.46Z" transform="translate(-15.06 -42.2)" fill="#e64d61" stroke="#e64d61" stroke-miterlimit="10" stroke-width="0.2"/><path d="M117.38,97.91c0-16.88.59-20.28,1.88-24.14,3.52-10.78,12.31-17.11,25.43-17.11S166.61,63,170.24,73.76C171.42,77.63,172,81,172,97.91s-0.59,20.28-1.76,24.14c-3.63,10.78-12.31,17.11-25.55,17.11s-21.92-6.33-25.43-17.11C118,118.18,117.38,114.78,117.38,97.91ZM144.69,123c3.4,0,5.63-1.41,6.56-4.34,0.59-1.87.82-3.63,0.82-20.74s-0.23-18.87-.82-20.75c-0.94-2.93-3.16-4.34-6.56-4.34s-5.51,1.41-6.45,4.34c-0.7,1.88-.94,3.63-0.94,20.75s0.23,18.87.94,20.74C139.18,121.58,141.29,123,144.69,123Z" transform="translate(-15.06 -42.2)" fill="#e64d61" stroke="#e64d61" stroke-miterlimit="10" stroke-width="0.2"/><path d="M205.52,79.39h-0.23L191.81,88.3c-0.7.47-1.41,0.23-1.41-.7V70.48a1.9,1.9,0,0,1,.82-1.64l14.3-10.08a3.27,3.27,0,0,1,2.11-.7h16.29a1.11,1.11,0,0,1,1.17,1.17v77.35a1.11,1.11,0,0,1-1.17,1.17H206.69a1.11,1.11,0,0,1-1.17-1.17V79.39Z" transform="translate(-15.06 -42.2)" fill="#e64d61" stroke="#e64d61" stroke-miterlimit="10" stroke-width="0.2"/><path d="M299.28,79.39H299L285.56,88.3c-0.7.47-1.41,0.23-1.41-.7V70.48a1.9,1.9,0,0,1,.82-1.64l14.3-10.08a3.27,3.27,0,0,1,2.11-.7h16.29a1.11,1.11,0,0,1,1.17,1.17v77.35a1.11,1.11,0,0,1-1.17,1.17H300.45a1.11,1.11,0,0,1-1.17-1.17V79.39Z" transform="translate(-15.06 -42.2)" fill="#e64d61" stroke="#e64d61" stroke-miterlimit="10" stroke-width="0.2"/><path d="M376.74,75.4V75.05H363a0.62,0.62,0,0,0-.7.7v7.5a1.11,1.11,0,0,1-1.17,1.17H345.22A1.11,1.11,0,0,1,344,83.26v-24a1.11,1.11,0,0,1,1.17-1.17H396a1.11,1.11,0,0,1,1.17,1.17V74.7a3.47,3.47,0,0,1-.23,1.17l-24.26,60.71a1.43,1.43,0,0,1-1.64,1.17H353.07a0.94,0.94,0,0,1-.94-1.29Z" transform="translate(-15.06 -42.2)" fill="#e64d61" stroke="#e64d61" stroke-miterlimit="10" stroke-width="0.2"/><path d="M461.59,60.73a1.52,1.52,0,0,1,1.52-1.17h19.1a1.52,1.52,0,0,1,1.52,1.17l27,77.35a0.8,0.8,0,0,1-.82,1.17H490.54a1.52,1.52,0,0,1-1.52-1.17l-3.75-12.31h-25.9l-3.75,12.31a1.52,1.52,0,0,1-1.52,1.17H434.87a0.8,0.8,0,0,1-.82-1.17Zm18.52,47.94-7.38-24.85h-0.35l-7.74,24.85h15.47Z" transform="translate(-15.06 -42.2)" fill="#e64d61" stroke="#e64d61" stroke-miterlimit="10" stroke-width="0.2"/><path d="M533.55,139.26a1.41,1.41,0,0,1-1.52-1.17L506.59,60.85a1,1,0,0,1,1.06-1.29h19.22a1.41,1.41,0,0,1,1.52,1.17l14.18,48.05h0.35l13.71-48.05a1.41,1.41,0,0,1,1.52-1.17h19.1a0.91,0.91,0,0,1,.94,1.29l-25.43,77.24a1.41,1.41,0,0,1-1.52,1.17h-17.7Z" transform="translate(-15.06 -42.2)" fill="#e64d61" stroke="#e64d61" stroke-miterlimit="10" stroke-width="0.2"/><path d="M585.7,60.73a1.11,1.11,0,0,1,1.17-1.17H639a1.11,1.11,0,0,1,1.17,1.17V75.85A1.11,1.11,0,0,1,639,77H607a0.62,0.62,0,0,0-.7.7V89.8a0.62,0.62,0,0,0,.7.7h26.25a1.11,1.11,0,0,1,1.17,1.17v14.77a1.11,1.11,0,0,1-1.17,1.17H607a0.62,0.62,0,0,0-.7.7v12.77a0.62,0.62,0,0,0,.7.7h32A1.11,1.11,0,0,1,640.2,123v15.12a1.11,1.11,0,0,1-1.17,1.17H586.87a1.11,1.11,0,0,1-1.17-1.17V60.73Z" transform="translate(-15.06 -42.2)" fill="#e64d61" stroke="#e64d61" stroke-miterlimit="10" stroke-width="0.2"/><path d="M83.83,47.39c-2.75-1.23-5.68-2.14-8.6-.92-1.37.57-1.7,1.32-3,2-2.59,1.46-4.25.43-6.8,0.83-4.42.7-6,4.11-8,7.27a11.2,11.2,0,0,0-4.83,5.36C51.73,64,53,66.84,55,67.3c0,0.11,0,.21,0,0.32,0.33,2,2.61,2.69,4.31,2.44a6.2,6.2,0,0,0,4.75-3.67,7.69,7.69,0,0,0,.69-1.81c0.85,0.33,2,.69,1.85.67,2.51,0.38,4.4-1.29,6.79-1.31,1.07,0,2.26.37,3.36,0.4,2.32,0.07,4.62-1.43,5.68,1.79a3.53,3.53,0,0,0,6.75,0c0.22-.66.4-1.3,0.54-1.94a4.51,4.51,0,0,0,3.72.43A6.69,6.69,0,0,0,98,58.86C98.66,51.4,88.79,49.61,83.83,47.39Z" transform="translate(-15.06 -42.2)" fill="#fef0ed"/><path d="M163.4,59.12c-0.75-2.23-2.57-3-4.29-4.27-2.19-1.66-2.9-4.27-5.09-5.93-5.2-4-8.83,2.32-13.45,3.61-3.43,1-6.47,1-9.6,2.9l-0.41.27a10,10,0,0,0-5,4c-3.87,2-7.51,5.51-7.07,9.88,0.52,5.26,6.91,5.69,10.71,3.68,2.61-1.38,4.46-3.65,6.49-5.71,1.83-1.85,3-3,5.67-2.39a13.06,13.06,0,0,0,2.74.82,6.37,6.37,0,0,0,2.36-.67,6,6,0,0,0,2.87.4,10.61,10.61,0,0,0,1.17.7c2.36,1.17,4.23.15,6.56,0,2.14-.12,3.67.5,5.32-1.35A6.22,6.22,0,0,0,163.4,59.12Z" transform="translate(-15.06 -42.2)" fill="#fef0ed"/><path d="M224.1,54.64c-1.05-.42-2.32-0.11-3.32-0.5L220.34,54a3.85,3.85,0,0,0-.59-0.64c-1.94-1.82-3.8-2.57-6.4-1.33-1.42.68-2,1.22-3.63,1.34s-2.81,0-4.2.81A5.65,5.65,0,0,0,203.06,57l-1.12.07c-4.47.28-4.51,7.29,0,7,4.28-.27,8.74-1,13-0.83,2.76,0.08,5.45,1.82,8.27,1.08C228.13,63.07,228.9,56.56,224.1,54.64Z" transform="translate(-15.06 -42.2)" fill="#fef0ed"/><path d="M320.45,56.76c-0.39-3.31-2.94-3.47-4.79-5.49-1.69-1.84-2-4.23-4.88-4.77a6.18,6.18,0,0,0-6.68,4.21,3.68,3.68,0,0,1-.38.81,3.9,3.9,0,0,0-.77-0.24,4.75,4.75,0,0,0-4,1.17c-2.45,2.13-3.28,6-3.15,9.06a3.53,3.53,0,0,0,4.34,3.3,3.6,3.6,0,0,0,1.17.2,3.48,3.48,0,0,0,1.57-.36,6.05,6.05,0,0,0,3.08-.41c0.78-.31,1.51-1.07,2.29-1.3a8,8,0,0,1,3.44.23,9,9,0,0,0,4.15-.14C318.56,62.2,320.79,59.73,320.45,56.76Z" transform="translate(-15.06 -42.2)" fill="#fef0ed"/><path d="M395.57,50.75c-2-1.83-4.61-2-7.12-2.31a60.06,60.06,0,0,1-11.6-2.73c-6.06-2-13.09-5.12-19.39-2.52C351.65,45.58,347,50.75,343.87,56a3.16,3.16,0,0,0-.42,1.28,2.8,2.8,0,0,0-1.4,3.77c3.53,8.93,12.45,1.75,18.68,1.2a68.34,68.34,0,0,1,16.91.8,13.33,13.33,0,0,0,6.1-.34c2.17-.68,5.14-3.33,7.42-1.9a3.47,3.47,0,0,0,3.53,0A6.32,6.32,0,0,0,395.57,50.75Z" transform="translate(-15.06 -42.2)" fill="#fef0ed"/><path d="M406.8,59.92c-0.47-.66-0.19-1,0.52-0.95a27.08,27.08,0,0,0,3.94-.19,60.79,60.79,0,0,1,3.61-5.88c0.43-.62.9-0.57,1.14,0,0.52,1.33.52,2.89-.62,5.36a3,3,0,0,1,2.94,1.42c0.33,0.57.14,0.9-.57,0.9a14.16,14.16,0,0,0-3.7.19c-1.85,3.18-4.55,7.78-6.36,11.77-1.57,3.46-1,6.4.95,6.5s4.84-3.27,6.59-6.83c0.28-.57.81-0.66,1,0a4,4,0,0,1-.47,2.7c-0.62,1.38-3.75,5.55-7.54,5.41-3.13-.09-5.65-3.61-3.37-9.06,1-2.37,3-6.36,5-10.1A3.92,3.92,0,0,1,406.8,59.92Z" transform="translate(-15.06 -42.2)" fill="#e64d61"/><path d="M426,80.37c-4,0-5-2.89-3.56-7,1.57-4.6,5.69-9.54,4.93-10s-5.83,2.85-8.59,7.35a62.15,62.15,0,0,0-4.6,9c-0.19.43-.52,0.52-0.81,0.19-0.76-.85-1.19-2.18-0.19-5,1.66-4.74,11.53-21.44,15.37-26.23,0.43-.57.9-0.52,1.14,0,0.62,1.38.47,3.75-1.33,6.74-1.14,1.9-3.65,5.74-5.69,8.92,1.95-1.9,4.41-3.46,5.69-3.32,1.61,0.19,3.08,2.56,1.85,5-1,2.09-3.32,5.55-4.41,8-1.19,2.75-.95,5,0.81,4.89,1.95-.09,4.55-3.51,6-6.55a0.45,0.45,0,0,1,.85,0,3.64,3.64,0,0,1-.47,2.94C431.7,78,428.81,80.37,426,80.37Z" transform="translate(-15.06 -42.2)" fill="#e64d61"/><path d="M485.43,58.21c-1.45-2.95-3.54-7.66-6.81-9-1.91-.76-3.27-0.07-4.87,1a9.4,9.4,0,0,1-5,1.56c-3.29.36-6.67,1.5-8.05,4.79a6.35,6.35,0,0,0,2.46,8c0.09,0.06.18,0.09,0.28,0.14a5.72,5.72,0,0,0,1.51,1.15c3.29,1.73,6.45.22,9.46-1.21,3.61-1.73,7.21,1,10.51-2.21A3.6,3.6,0,0,0,485.43,58.21Z" transform="translate(-15.06 -42.2)" fill="#fef0ed"/><path d="M526.93,53a5.55,5.55,0,0,0-4.39-.27c0-2.08-1.72-4.19-4.32-3.46-3.29.92-6.54,2.27-8.26,5.31a6.76,6.76,0,0,0-1.9,1.07c-2.54,2-2.8,5.72.1,7.48a3.12,3.12,0,0,0,3,.25,7.31,7.31,0,0,0,.61.54c4.88,3.63,15.44,3.9,18.17-2.54A6.52,6.52,0,0,0,526.93,53Z" transform="translate(-15.06 -42.2)" fill="#fef0ed"/><path d="M577.93,53a7.77,7.77,0,0,0-5.65-2.21c-2.67,0-4.22,1.86-6.53,2.4q0.81,0.7-.51-0.33a3.68,3.68,0,0,0-1.36-.46,5.44,5.44,0,0,0-3.43.19c-2.68,1-3.38,3.77-5.64,5.14-3.19,1.94-1.31,6.43,1.63,6.56a2.7,2.7,0,0,0,3.1,1.89c5.17-.67,12.4-0.3,17-3.07A6.42,6.42,0,0,0,577.93,53Z" transform="translate(-15.06 -42.2)" fill="#fef0ed"/><path d="M641.61,58c-0.54-4.46-3.66-9.19-8.3-9.79-1.93-.25-3.49.53-5.36,0.66-2.13.16-3.62-.62-5.44-1.62-3-1.63-5.52-3.18-9-3.7a18.56,18.56,0,0,0-9.17,1,21.87,21.87,0,0,0-3.47,1.73,10.09,10.09,0,0,1-5.65,1.69A12.8,12.8,0,0,0,583.52,58a3.56,3.56,0,0,0,3.68,4.35,6.47,6.47,0,0,0,6.39,3.23c4-.36,7.42-1.2,11.52-0.81a100,100,0,0,0,11.88.65,115.59,115.59,0,0,0,12.61-1.14c2.71,2.42,6.36,4.29,9.81,2.11A6.23,6.23,0,0,0,641.61,58Zm-32.32-6.61a6.83,6.83,0,0,0-2.07-.18,10,10,0,0,1,3.14-.85A3.37,3.37,0,0,0,609.28,51.37Z" transform="translate(-15.06 -42.2)" fill="#fef0ed"/><path d="M733.4,59a7.71,7.71,0,0,0-5.9-2.24,10.27,10.27,0,0,0-2.92.67,3.18,3.18,0,0,0-.43-0.08,11.54,11.54,0,0,0-4.59.65l-0.43.17L718.8,58c-2.29-1-3.53-1.73-6.09-1a38.09,38.09,0,0,0-4.66,2.14,3,3,0,0,0-2.41.6,7.68,7.68,0,0,1-2.75-.39c-4.31-1.35-6.15,5.4-1.86,6.75a15.08,15.08,0,0,0,5.61.74c2.87,1.85,6.66,1.53,9.89.19,1.13-.47,2.05-0.91,2.9-1.29a7,7,0,0,0,.69.05A16.67,16.67,0,0,0,724,64.78a13.14,13.14,0,0,1,2.07.23c2.62,0.48,4.11.58,6.62-.51C734.71,63.63,735,60.37,733.4,59Z" transform="translate(-15.06 -42.2)" fill="#fef0ed"/><path d="M761,89.51a3.65,3.65,0,0,0-1-2.17c-0.22-2.45-3.19-4.51-5.49-2.71-1.46-3.06-3.54-5-8-3.18-2.82,1.19-5.81-.11-8.66,1.22a5.59,5.59,0,0,0-3.39,5.94,5.33,5.33,0,0,0,4.28,4.54,4.78,4.78,0,0,0,3.26-.78c0.94-.61,1.53-2.45,2.41-2.85s3.23,0.75,5.09,1.65l0.25,0.64A3.52,3.52,0,0,0,753,94.18a2.53,2.53,0,0,0,.32.79,3.06,3.06,0,0,0,4.1,1.08A7,7,0,0,0,761,89.51Z" transform="translate(-15.06 -42.2)" fill="#fef0ed"/><path d="M793.78,82.36c0.22,0.27,0-.09-0.09-0.19l-0.1-.19a0.35,0.35,0,0,0,0-.17s-0.06-.33-0.09-0.45,0-.64,0-0.63c0.22-3.58-4.82-4.6-6.52-1.77l-0.08.14a0.21,0.21,0,0,0-.11.08l-0.07.08-0.18.12a16.11,16.11,0,0,0-1.83,1.39,6.12,6.12,0,0,0-2.11,4.65,5.06,5.06,0,0,0,2.65,4.19,4.67,4.67,0,0,0,5.45-.72,2.75,2.75,0,0,0,.5-0.58,3.74,3.74,0,0,0,2.63-1A3.58,3.58,0,0,0,793.78,82.36Z" transform="translate(-15.06 -42.2)" fill="#fef0ed"/><path d="M831.21,66.57L831,66.35l-0.12-.21-0.06-.22c0-.09,0-0.18,0-0.27a3.54,3.54,0,0,0-2.57-3.37c-1.38-.31-3.34.16-4,1.61l-1.36,3.2a3.85,3.85,0,0,0-.35,2.7,3.57,3.57,0,0,0,1.61,2.09,4.13,4.13,0,0,0,2.89.28c0.16,0.12.31,0.24,0.47,0.35a3.52,3.52,0,0,0,4.79-1.26A3.56,3.56,0,0,0,831.21,66.57Z" transform="translate(-15.06 -42.2)" fill="#fef0ed"/><path d="M818,78.23a10.7,10.7,0,0,0-7,1.83,2.91,2.91,0,0,0-1.08-.21h-0.67a3,3,0,0,0,0,6h0.67a2.83,2.83,0,0,0,.87-0.15,3.27,3.27,0,0,0,3.35-.61,5.18,5.18,0,0,1,3.82-.86,3,3,0,0,0,3-3A3.07,3.07,0,0,0,818,78.23Z" transform="translate(-15.06 -42.2)" fill="#fef0ed"/><path d="M836.18,82.05a3.5,3.5,0,0,0-1.38-1.79l-2.67-2a3,3,0,0,0-2.31-.3A3.06,3.06,0,0,0,828,79.33a3,3,0,0,0-.3,2.31,3.5,3.5,0,0,0,1.38,1.79l2.67,2a3,3,0,0,0,2.31.3A3,3,0,0,0,836.18,82.05Z" transform="translate(-15.06 -42.2)" fill="#fef0ed"/><path d="M32.58,180.37c0.67-.45,1.12-0.56,1.51-0.12,1.07,1.17,2.42,3.62.81,5.47-2.5,2.86-5.23,6.39-6.11,9.31s-0.2,5.09,1.42,5.13c2.18,0.1,4.85-3.37,6.62-7.41,0.22-.45.56-0.51,0.78-0.06a4.87,4.87,0,0,1-.26,3.47c-1.27,3.25-4.5,5.61-7.47,5.51-4-.15-5.66-3.83-4.28-8C26.81,190,30,186,32.26,183.39a12.15,12.15,0,0,1-6.53,2.15c-2.11,3.92-7.44,11.88-8.48,17-0.11.5-.44,0.78-0.95,0.28-1.63-1.67-1.64-4.24-.14-7.1,1.27-2.46,5-7.73,7.05-10.71-3.2-2.05,1.64-8.67,3.71-8.73,1.73-.06,1.3,3.18-0.08,6.71A13.21,13.21,0,0,0,32.58,180.37Z" transform="translate(-15.06 -42.2)" fill="#e64d61"/><path d="M36.21,193.27a69,69,0,0,1,7.09-13.61c0.5-.67.89-0.84,1.34-0.34,0.84,0.89,1.3,3.29,0,6.09-1.16,2.46-3.49,6.28-4.66,9.08-1.33,3.25-1.21,5.43.58,5.31,2.51-.12,5.57-3.83,7.23-7.69,0.28-.5.67-0.45,0.89,0,0.45,0.89.29,2.07-.38,3.47-1.66,3.47-5.17,5.84-8.3,5.85C35.74,201.43,34.67,197.86,36.21,193.27Zm12.4-14.64c-0.72.79-2.29,0.63-3.13-.82a3.47,3.47,0,0,1,.26-4.14c0.89-1,2.51-.29,3.25,1.21A3.38,3.38,0,0,1,48.61,178.62Z" transform="translate(-15.06 -42.2)" fill="#e64d61"/><path d="M64.37,178.55c1.85,0.27,3.59,3,2.21,5.92-1.16,2.46-3.88,6.61-5.16,9.52-1.44,3.25-1.09,5.87.92,5.75,2.29-.12,5-3.82,7.12-7.74,0.28-.5.67-0.51,0.95-0.06,0.39,0.61.29,1.9-.49,3.52-1.5,3.14-5,6-8.25,6-4.75,0-5.88-3.44-4.28-8.31,1.82-5.49,6.71-11.43,5.71-11.87-0.56-.22-3.79,1.36-7.35,5.29-3.28,3.59-5.72,9-8.1,14.23-0.22.5-.56,0.73-1.06,0.23-1.12-1.11-1.47-3-.58-5.75,1.1-3.53,5.37-11.31,8.87-16.53,0.39-.62.84-0.56,1.17,0,0.84,1.39.8,3.29,0.19,5.31C58.74,181.37,62.52,178.28,64.37,178.55Z" transform="translate(-15.06 -42.2)" fill="#e64d61"/><path d="M81.07,202.68c-3,7.5-7,16.41-11.49,18.22-1.12.45-2.23,0.29-3.25-1.16a7,7,0,0,1-1.15-6.93c1.6-5,6.39-8.47,11.92-10.62,0.55-1.23,1.05-2.58,1.6-3.86a8.31,8.31,0,0,1-5.63,2.82c-5.14,0-6.18-7-1.68-13.69,4.33-6.5,8.85-9,11.7-9,2.24,0,3.36,1.72,3.31,3.67C87.07,181,87.68,180,88.24,179c0.44-.78,1-0.84,1.4-0.34,0.84,1,1.3,3.4-.08,6.15-1.66,3.36-5.15,10.14-7.48,15.57A27.89,27.89,0,0,0,92,192c0.33-.45.84-0.45,1,0.11a5.48,5.48,0,0,1-1.1,3.25C89.72,198.73,85.71,201,81.07,202.68Zm-13.63,15.1c0.73,1.06,5.12-4.77,8.72-13.29C68.92,208.77,66.49,216.44,67.45,217.78Zm16.5-36.52c-1.73-.1-5.8,3.49-8.85,8.37s-3.59,9.74-1.35,9.79,5-3.49,7.84-8.42C85.08,184.84,85.56,181.37,83.94,181.26Z" transform="translate(-15.06 -42.2)" fill="#e64d61"/><path d="M123.45,178.63q0.75-1.09,1.34-.34c0.84,1,1.3,3.4,0,6.2-1.22,2.52-4,6.72-5.32,9.69-1.38,3.14-1.43,5.54.47,5.42,2.29-.12,5.35-3.94,7.29-7.8,0.28-.5.67-0.56,0.89-0.06a5,5,0,0,1-.49,3.47c-1.44,3.08-4.95,6.17-8,6s-4.59-1.94-4.6-4.56c-1.78,2.3-4.29,4.38-7,4.39-5.2,0-6.29-7.07-1.68-13.85,4.5-6.61,8.9-9.15,11.7-9.16,2.4,0,3.53,1.83,3.43,4A39.24,39.24,0,0,1,123.45,178.63ZM119,180.94c-1.79-.16-5.85,3.49-8.91,8.48-2.94,4.82-3.65,9.74-1.47,9.79s5.18-3.54,8-8.48C120.12,184.57,120.61,181.1,119,180.94Z" transform="translate(-15.06 -42.2)" fill="#e64d61"/><path d="M148.43,191.71c0.33-.78.95-0.56,1.06,0a5.57,5.57,0,0,1-.71,3.69,11.86,11.86,0,0,1-9.92,6c-3.58.24-5.93-.25-7.89-2a5.8,5.8,0,0,1-1.92-3.74c-2.61,4.82-5.43,10.53-8.09,16.75-0.22.5-.61,0.62-0.95,0.12-0.84-1.17-1.13-2.73-.08-6.15,1.65-5.43,11-23.19,14.47-27.9,0.56-.73,1.06-0.62,1.34,0a6,6,0,0,1,.35,2.51c2.45-2.13,5.74-3.71,8.16-1.21,2.7,2.84,1.49,7.82-.56,12.41-1.66,3.7-3.72,6.39-5.83,7.68C143.32,199.56,146.66,195.52,148.43,191.71Zm-16.35,6.5c1.79,1.45,5.41-2.65,8-8,2.16-4.48,2.75-9.12,1.35-9.79s-4.8,2.15-7.41,6.46c-0.61,1-1.22,2-1.89,3.19C130.78,193.58,130.51,196.94,132.08,198.21Z" transform="translate(-15.06 -42.2)" fill="#e64d61"/><path d="M152.21,200.7c-5.14,0-6.29-7.07-1.68-13.8,4.44-6.45,8.85-9,11.7-9,2.18,0,3.31,1.72,3.31,3.67,0.83-1.4,1.55-2.52,1.94-3.08s0.89-.84,1.34-0.34c0.9,1,1.3,3.35.08,6.15-1.11,2.52-4.05,6.89-5.27,9.75-1.33,3.19-1.1,5.26.64,5.08,3.58-.35,8.58-7.25,11.17-15.48-4.53-1.6.74-9.23,3-9.4,1.73-.12,1.19,3.18,0,7a14,14,0,0,0,6.19-2.65c0.78-.56,1.17-0.68,1.68-0.12,1.07,1.17,2.42,3.73.81,5.64-2.61,3-5.45,7-6.33,9.75-0.94,3.08-.31,5.25,1.42,5.36,2.35,0.16,5.13-3.54,6.9-7.74,0.22-.45.61-0.56,0.84,0a4.94,4.94,0,0,1-.21,3.63c-1.44,3.36-4.73,5.83-7.8,5.74-4.25-.15-5.94-4-4.62-8.48,1.1-3.69,4.49-7.84,6.88-10.54a13.65,13.65,0,0,1-6.59,2.1c-2.7,7.89-7.7,16.35-13.68,16.83-3.07.24-4.76-1.71-4.71-4.56C157.46,198.49,155,200.69,152.21,200.7Zm2-11.58c-3,4.82-3.59,9.69-1.41,9.73s5.13-3.38,8-8.42c3.44-6.11,3.93-9.63,2.3-9.74S157.28,184.19,154.23,189.12Z" transform="translate(-15.06 -42.2)" fill="#e64d61"/><path d="M191.51,176.72c-0.56-.78-0.23-1.17.61-1.12a31.82,31.82,0,0,0,4.64-.24A71.76,71.76,0,0,1,201,168.4c0.5-.73,1.06-0.67,1.34,0,0.62,1.56.63,3.41-.7,6.32a3.5,3.5,0,0,1,3.47,1.66c0.39,0.67.17,1.06-.67,1.06a16.65,16.65,0,0,0-4.36.24c-2.16,3.75-5.33,9.19-7.43,13.89-1.83,4.09-1.2,7.55,1.15,7.65,2.52,0.1,5.68-3.88,7.73-8.08,0.33-.67.95-0.79,1.17,0a4.68,4.68,0,0,1-.54,3.19c-0.72,1.62-4.39,6.56-8.86,6.41-3.69-.1-6.67-4.22-4-10.66,1.16-2.8,3.49-7.51,5.87-11.93A4.61,4.61,0,0,1,191.51,176.72Z" transform="translate(-15.06 -42.2)" fill="#e64d61"/><path d="M217.62,177.83c1.9,0,2.92,3,2.2,5.47,2.67-2.64,6.4-5.28,8.25-5.23,2,0,2.47,3.34,1.37,6.14-1,2.52-3.72,6.22-5.1,9-1.55,3.19-.76,5.76,1.25,5.69,2.29-.07,4.79-3.76,7-7.69a0.55,0.55,0,0,1,1-.12c0.28,0.39.12,2.24-.49,3.52-1.55,3.19-5.12,6-8.36,6-4.86,0-6.67-3.83-4.62-8.42s7-10.93,6.16-11.21c-0.45-.17-2.35.46-6,4.11-4.62,4.66-7.33,10-9.66,15.3-0.33.67-.78,0.84-1.28,0.29-1-.83-1.75-3-0.14-7C211,189,217,181.3,215.9,180.91c-0.67-.28-3.4,1.24-7,5.17-3.28,3.59-5.94,8.8-8.15,14.07-0.22.5-.56,0.73-1.06,0.28-1.23-1.06-1.52-2.9-.58-5.75,1.16-3.53,5.2-11.42,8.7-16.69,0.39-.62.84-0.56,1.17,0,1,1.56.8,3.74,0,6C211.43,181.1,215.6,177.78,217.62,177.83Z" transform="translate(-15.06 -42.2)" fill="#e64d61"/><path d="M239.45,199c4.64,0.2,8.7-4.29,11.09-8a0.5,0.5,0,0,1,1,.05,4.53,4.53,0,0,1-.94,3.47,14.16,14.16,0,0,1-10.93,6.08c-7.1.14-9.59-6.83-6-14.06s9.29-10.16,12.09-8.55a10.4,10.4,0,0,1,3.31,2.89c1,1.34.58,4.75-1.76,7.61-2.72,3.37-6.46,4.83-10.39,1.67C235.13,195.3,236.49,198.82,239.45,199ZM244,186.1c1.78-2.36,3-5.27,2.21-5.88-1.18-.95-5.8,2.43-8.41,7.75-0.17.34-.33,0.67-0.44,1C240.14,190.64,242.42,188.23,244,186.1Z" transform="translate(-15.06 -42.2)" fill="#e64d61"/><path d="M266.69,177.67c1.85,0.27,3.59,3,2.21,5.92-1.16,2.46-3.88,6.61-5.16,9.53-1.44,3.25-1.09,5.87.92,5.75,2.29-.12,5-3.82,7.12-7.74,0.28-.5.67-0.51,0.95-0.06,0.39,0.61.29,1.9-.49,3.52-1.5,3.14-5,6-8.25,6-4.75,0-5.88-3.44-4.28-8.31,1.82-5.49,6.71-11.43,5.71-11.87-0.56-.22-3.79,1.36-7.35,5.29-3.28,3.59-5.72,9-8.1,14.23-0.22.5-.56,0.73-1.06,0.23-1.12-1.11-1.47-3-.58-5.75,1.1-3.53,5.37-11.31,8.87-16.53,0.39-.62.84-0.56,1.17,0,0.84,1.39.8,3.29,0.19,5.31C261.05,180.49,264.84,177.4,266.69,177.67Z" transform="translate(-15.06 -42.2)" fill="#e64d61"/><path d="M274.17,176.36c-0.56-.78-0.23-1.17.61-1.12a31.8,31.8,0,0,0,4.64-.24,72,72,0,0,1,4.22-6.95c0.5-.73,1.06-0.67,1.34,0,0.62,1.56.63,3.41-.7,6.32a3.5,3.5,0,0,1,3.47,1.66c0.39,0.67.17,1.06-.67,1.06a16.65,16.65,0,0,0-4.36.24c-2.16,3.75-5.33,9.19-7.43,13.89-1.83,4.09-1.2,7.55,1.15,7.65,2.52,0.1,5.68-3.88,7.73-8.08,0.33-.67.95-0.79,1.17,0a4.68,4.68,0,0,1-.55,3.19c-0.72,1.62-4.39,6.56-8.86,6.41-3.69-.1-6.67-4.22-4-10.66,1.16-2.8,3.49-7.51,5.87-11.93A4.62,4.62,0,0,1,274.17,176.36Z" transform="translate(-15.06 -42.2)" fill="#e64d61"/><path d="M301.4,180.37c-0.56.06-.78-0.33-0.45-0.72,0.56-.73,1.67-1.35,4.58-1.81,0.78-.12,1.79-0.23,3-0.35,1.88-3.53,3.72-6.72,4.83-8.52,0.39-.67.84-0.73,1.06-0.12,0.51,1.34-.37,3.86-1.48,6.32-0.28.67-.66,1.4-1,2.13,1.68-.12,3.46-0.18,5.2-0.19a91,91,0,0,1,5.11-8.46c0.44-.62.89-0.62,1.06,0.05,0.4,1.34-.43,3.8-1.59,6.16-0.39.73-.78,1.46-1.16,2.24a44,44,0,0,1,5.09.2q1.17,0.16.51,0.84c-1.28,1.35-3.74,1.69-6.31,1.7H319c-1.33,2.41-2.83,5.1-4.38,8,2.35-.07,4.53,0,6.09.09,0.78,0.05,1,.39.51,0.84-1.22,1.24-3.74,1.75-6.25,1.76h-1.79c-1.39,2.58-2.77,5.27-4,8-0.22.45-.5,0.45-0.78,0s-0.51-2.12.54-4.87c0.33-.84.77-1.9,1.33-3.08-1.79,0-3.52.07-5.2,0.13-1.11,2.24-2.27,4.65-3.43,7.17-0.22.5-.5,0.45-0.78,0s-0.57-2,.43-4.86c0.22-.62.5-1.34,0.83-2.13-1.79.12-3.63,0.24-5.48,0.42-0.67.06-.73-0.22-0.45-0.61,0.5-.78,1.61-1.52,4.52-2q1-.17,2.51-0.35c1.11-2.58,2.55-5.49,4-8.35C305.26,180.08,303.36,180.2,301.4,180.37Zm9.16-.49c-1.27,2.58-2.72,5.27-4.27,8.24,1.62-.12,3.41-0.18,5.2-0.25,1.22-2.52,2.66-5.32,4.1-8Z" transform="translate(-15.06 -42.2)" fill="#e64d61"/><path d="M341.26,181.65a6.33,6.33,0,0,1,2.58,1.11c2.86,2.39,2.1,7.2-2,12.3-4.73,5.83-11.43,6-15,3.64a7.12,7.12,0,0,1-2.89-8.65,5.35,5.35,0,0,1,4.57-3.65c0.56,0,.73.33,0.45,0.78-2.77,4.48-2.81,8.45-.8,9.73,2.8,1.72,7.43-.54,10.43-4.35,2.67-3.37,4.33-7.34,2.53-8.56-2.3-1.56-5.86,1.87-8.78-1.64-0.34-.39-0.23-0.84.5-1.06,11.89-3.57,17.05-11.31,14.64-13.81-2.08-2.17-5.47,1-8.09,4.34-1.78,2.24-3.73,3.59-6,3.16-0.73-.11-0.84-0.44-0.56-1,1.66-3.36,5.39-7.29,8.12-8.64s6.31-1,8.22.91c2.41,2.45,2.76,5.69-.29,9.78A19.61,19.61,0,0,1,341.26,181.65Z" transform="translate(-15.06 -42.2)" fill="#e64d61"/><path d="M355.52,171.25c1.67-1.63,3.67-3.59,5.34-5.39a0.92,0.92,0,0,1,1.45,0c1.63,1.45,1.75,3.57-.36,7.6-3.21,6.22-9.37,16.59-13.74,27.17-0.22.56-.61,0.67-1,0.23-0.9-1-1.35-2.73-.31-6.2s6.48-14.62,10.63-22.24C354.69,172.59,355,171.75,355.52,171.25Z" transform="translate(-15.06 -42.2)" fill="#e64d61"/><path d="M384.88,186.88c-3.93,8.23-10.33,14.91-17.5,12.65-4.31-1.38-6.28-5.23-6.36-9.53-0.22-11.46,9.29-22,15.1-24.49,3-1.3,5.64-.81,7.1.7C389.77,168.64,388.53,179.27,384.88,186.88Zm-2.66-19.44c-2.58-.88-9.1,3.28-13.81,11.46s-4.68,17.29-1,18.67c3.42,1.33,9.6-3.4,13.64-11.85C385.5,176.37,385.13,168.44,382.22,167.44Z" transform="translate(-15.06 -42.2)" fill="#e64d61"/><path d="M418.37,177.35q0.75-1.09,1.34-.34c0.84,1,1.3,3.4,0,6.2-1.22,2.52-4,6.72-5.32,9.69-1.38,3.14-1.43,5.54.47,5.42,2.29-.12,5.35-3.94,7.29-7.8,0.28-.5.67-0.56,0.89-0.06a5,5,0,0,1-.49,3.47c-1.44,3.08-4.95,6.17-8,6s-4.59-1.94-4.6-4.56c-1.78,2.3-4.29,4.38-7,4.39-5.2,0-6.29-7.07-1.68-13.85,4.5-6.62,8.9-9.15,11.7-9.16,2.4,0,3.53,1.83,3.43,4A39.54,39.54,0,0,1,418.37,177.35Zm-4.46,2.31c-1.79-.16-5.85,3.49-8.91,8.48-2.94,4.82-3.65,9.74-1.47,9.79s5.18-3.54,8-8.48C415,183.29,415.53,179.82,413.91,179.66Z" transform="translate(-15.06 -42.2)" fill="#e64d61"/><path d="M438.1,176.93c1.85,0.27,3.59,3,2.21,5.92-1.16,2.46-3.88,6.61-5.16,9.52-1.44,3.25-1.09,5.87.92,5.75,2.29-.12,5-3.82,7.12-7.74,0.28-.5.67-0.51,1-0.06,0.39,0.61.29,1.9-.49,3.52-1.5,3.14-5,6-8.25,6-4.75,0-5.88-3.44-4.28-8.31,1.82-5.49,6.71-11.43,5.71-11.87-0.56-.22-3.79,1.36-7.35,5.29-3.28,3.59-5.72,9-8.1,14.23-0.22.5-.56,0.73-1.06,0.23-1.12-1.11-1.47-3-.58-5.75,1.1-3.53,5.37-11.31,8.87-16.53,0.39-.62.84-0.56,1.17,0,0.84,1.39.8,3.29,0.19,5.31C432.46,179.74,436.25,176.65,438.1,176.93Z" transform="translate(-15.06 -42.2)" fill="#e64d61"/><path d="M458.36,198.13c2.29-.12,5.29-3.88,7.23-7.75,0.28-.5.67-0.51,0.89-0.06a4.88,4.88,0,0,1-.43,3.47c-1.5,3.08-4.95,6.06-8,5.9s-4.54-1.82-4.55-4.45c-1.78,2.24-4.28,4.32-6.91,4.33-5.2,0-6.23-7.07-1.68-13.8,4.39-6.5,8.85-9,11.64-9,2.29,0,3.42,1.72,3.37,3.79,3-5.77,7.21-13.39,9.21-16.25,0.56-.79,1.06-0.73,1.34,0,0.79,1.84.63,4.24-1.7,8.45-2.66,4.82-8,14.06-10.76,20C456.51,196,456.47,198.25,458.36,198.13ZM448.6,188c-3,4.82-3.59,9.68-1.41,9.73s5.24-3.27,7.84-8.36c3.21-6.22,4-9.74,2.42-9.79S451.65,183.07,448.6,188Z" transform="translate(-15.06 -42.2)" fill="#e64d61"/><path d="M491.29,199.5c-4.69,0-5.88-3.38-4.23-8.25,1.82-5.43,6.66-11.26,5.76-11.76s-6.86,3.38-10.08,8.71a73.23,73.23,0,0,0-5.37,10.64c-0.22.5-.61,0.62-0.95,0.23-0.9-1-1.41-2.57-.25-5.92,1.93-5.6,13.47-25.32,18-31,0.5-.67,1.06-0.62,1.34,0,0.73,1.62.58,4.41-1.53,7.94-1.33,2.24-4.27,6.78-6.66,10.54,2.28-2.25,5.18-4.1,6.69-3.94,1.9,0.22,3.65,3,2.21,5.86-1.22,2.46-3.88,6.56-5.16,9.47-1.38,3.25-1.09,5.87,1,5.75,2.29-.12,5.35-4.16,7.07-7.75a0.53,0.53,0,0,1,1-.06c0.28,0.61.29,1.79-.54,3.47C498,196.67,494.59,199.48,491.29,199.5Z" transform="translate(-15.06 -42.2)" fill="#e64d61"/><path d="M506,197.81c4.64,0.2,8.7-4.29,11.09-8a0.5,0.5,0,0,1,1,.05,4.54,4.54,0,0,1-.93,3.47,14.17,14.17,0,0,1-10.93,6.08c-7.1.14-9.59-6.83-6-14.06s9.29-10.16,12.09-8.55a10.42,10.42,0,0,1,3.31,2.89c1,1.34.58,4.75-1.76,7.61-2.72,3.37-6.46,4.83-10.39,1.67C501.66,194.14,503,197.66,506,197.81Zm4.58-12.87c1.78-2.36,3-5.27,2.21-5.88-1.18-.95-5.8,2.43-8.41,7.75-0.17.34-.33,0.67-0.44,1C506.67,189.48,509,187.07,510.56,184.94Z" transform="translate(-15.06 -42.2)" fill="#e64d61"/><path d="M536.24,176.83q0.75-1.09,1.34-.34c0.84,1,1.3,3.4,0,6.2-1.22,2.52-4,6.72-5.32,9.69-1.38,3.14-1.43,5.54.47,5.42,2.29-.12,5.35-3.94,7.29-7.8,0.28-.5.67-0.56,0.89-0.06a5,5,0,0,1-.49,3.47c-1.44,3.08-4.95,6.17-8,6s-4.59-1.94-4.6-4.56c-1.78,2.3-4.29,4.38-7,4.39-5.2,0-6.29-7.07-1.68-13.85,4.5-6.61,8.9-9.15,11.7-9.16,2.4,0,3.53,1.83,3.43,4A39.51,39.51,0,0,1,536.24,176.83Zm-4.46,2.31c-1.79-.16-5.85,3.49-8.91,8.48-2.94,4.82-3.65,9.74-1.47,9.79s5.18-3.54,8-8.48C532.91,182.77,533.4,179.3,531.78,179.14Z" transform="translate(-15.06 -42.2)" fill="#e64d61"/><path d="M554.77,197.71c2.29-.12,5.29-3.88,7.23-7.74,0.28-.5.67-0.51,0.89-0.06a4.89,4.89,0,0,1-.43,3.47c-1.5,3.08-4.95,6.06-8,5.9s-4.54-1.83-4.55-4.45c-1.78,2.24-4.29,4.32-6.91,4.33-5.2,0-6.24-7.07-1.68-13.8,4.39-6.5,8.85-9,11.64-9,2.29,0,3.42,1.72,3.37,3.79,3-5.77,7.21-13.39,9.21-16.25,0.56-.79,1.06-0.73,1.34,0,0.79,1.84.63,4.24-1.7,8.45-2.66,4.82-8,14.06-10.76,20C552.92,195.54,552.87,197.83,554.77,197.71ZM545,187.58c-3,4.82-3.59,9.68-1.41,9.73s5.24-3.26,7.84-8.36c3.21-6.22,4-9.74,2.42-9.79S548.06,182.65,545,187.58Z" transform="translate(-15.06 -42.2)" fill="#e64d61"/><path d="M576.92,175c-0.56-.78-0.23-1.17.61-1.12a32,32,0,0,0,4.64-.24,71.51,71.51,0,0,1,4.22-6.95c0.5-.73,1.06-0.68,1.34,0,0.62,1.56.63,3.41-.7,6.32a3.5,3.5,0,0,1,3.47,1.66c0.39,0.67.17,1.06-.67,1.06a16.7,16.7,0,0,0-4.36.24c-2.16,3.75-5.33,9.19-7.43,13.89-1.83,4.09-1.2,7.55,1.15,7.65,2.52,0.1,5.68-3.88,7.73-8.08,0.33-.67.95-0.79,1.17,0a4.68,4.68,0,0,1-.54,3.19c-0.72,1.62-4.39,6.56-8.86,6.41-3.69-.1-6.67-4.22-4-10.66,1.16-2.8,3.49-7.5,5.87-11.93A4.62,4.62,0,0,1,576.92,175Z" transform="translate(-15.06 -42.2)" fill="#e64d61"/><path d="M603.18,186.83c-1.15,4.76-4.65,10.42-8.78,11.83a6.15,6.15,0,0,1-7.05-2.43c-2.47-3.23-1.66-8.1.84-12.58,2.11-3.81,5.5-7.07,8.86-7.3a3.81,3.81,0,0,1,3.81,1.88c1.29,1.73,3,2.11,2.65,6.14-0.05.45-.05,0.84-0.11,1.29,0.33,0,.67-0.12,1.12-0.12s0.39,0.28.17,0.56A2.28,2.28,0,0,1,603.18,186.83Zm-4.76-1.38a6.94,6.94,0,0,1-2.59-4.91,19.55,19.55,0,0,0-4.28,5.27c-2.33,4.26-3.14,9.4-1.69,10.63s5-.69,7.69-5.85a29.41,29.41,0,0,0,1.94-4.48A4.29,4.29,0,0,1,598.42,185.45Zm1.88-5c-0.29-1.79-1.4-1.45-1.68.17a4.59,4.59,0,0,0,1.25,4A10.69,10.69,0,0,0,600.3,180.47Z" transform="translate(-15.06 -42.2)" fill="#e64d61"/><path d="M619.73,174.85c-0.56-.78-0.23-1.17.61-1.12a31.94,31.94,0,0,0,4.64-.24,71.91,71.91,0,0,1,4.22-6.95c0.5-.73,1.06-0.68,1.34,0,0.62,1.56.63,3.41-.7,6.32a3.5,3.5,0,0,1,3.47,1.66c0.39,0.67.17,1.06-.67,1.06a16.69,16.69,0,0,0-4.36.24c-2.16,3.75-5.33,9.19-7.43,13.89-1.83,4.09-1.2,7.55,1.15,7.65,2.52,0.1,5.68-3.88,7.73-8.08,0.33-.67.95-0.79,1.17,0a4.68,4.68,0,0,1-.54,3.19c-0.72,1.62-4.39,6.56-8.86,6.41-3.69-.1-6.67-4.22-4-10.66,1.16-2.8,3.49-7.51,5.87-11.93A4.61,4.61,0,0,1,619.73,174.85Z" transform="translate(-15.06 -42.2)" fill="#e64d61"/><path d="M642.47,198.84c-4.7,0-5.88-3.38-4.23-8.25,1.82-5.43,6.66-11.26,5.76-11.76s-6.86,3.38-10.08,8.71a73.23,73.23,0,0,0-5.38,10.64c-0.22.5-.61,0.62-0.95,0.23-0.9-1-1.41-2.56-.25-5.92,1.93-5.6,13.47-25.32,18-31,0.5-.67,1.06-0.62,1.34,0,0.73,1.62.58,4.41-1.53,7.94-1.33,2.24-4.27,6.78-6.66,10.54,2.28-2.25,5.18-4.1,6.69-3.94,1.9,0.22,3.65,3,2.21,5.86-1.22,2.46-3.88,6.56-5.16,9.47-1.38,3.25-1.09,5.87,1,5.75,2.29-.12,5.35-4.16,7.06-7.75a0.53,0.53,0,0,1,1-.06c0.28,0.61.29,1.79-.54,3.47C649.16,196,645.76,198.83,642.47,198.84Z" transform="translate(-15.06 -42.2)" fill="#e64d61"/><path d="M657.16,197.15c4.64,0.2,8.7-4.29,11.09-8a0.5,0.5,0,0,1,1,.05,4.53,4.53,0,0,1-.93,3.47,14.17,14.17,0,0,1-10.93,6.08c-7.1.14-9.59-6.83-6-14.06s9.29-10.16,12.09-8.55a10.4,10.4,0,0,1,3.31,2.89c1,1.34.58,4.75-1.76,7.61-2.72,3.37-6.46,4.83-10.39,1.67C652.84,193.48,654.19,197,657.16,197.15Zm4.58-12.87c1.78-2.36,3-5.27,2.21-5.88-1.18-.95-5.8,2.43-8.41,7.75-0.17.34-.33,0.67-0.44,1C657.85,188.82,660.13,186.41,661.74,184.28Z" transform="translate(-15.06 -42.2)" fill="#e64d61"/><path d="M698.39,180.09A6.33,6.33,0,0,1,701,181.2c2.86,2.39,2.1,7.2-2,12.31-4.72,5.83-11.43,6-15,3.64A7.12,7.12,0,0,1,681,188.5a5.35,5.35,0,0,1,4.57-3.65c0.56,0,.73.33,0.45,0.78-2.78,4.48-2.81,8.45-.8,9.73,2.8,1.72,7.43-.54,10.43-4.35,2.67-3.37,4.33-7.34,2.53-8.56-2.3-1.56-5.86,1.87-8.78-1.64-0.34-.39-0.23-0.84.5-1.06,11.89-3.57,17.05-11.31,14.64-13.81-2.08-2.17-5.47,1-8.08,4.34-1.78,2.24-3.73,3.59-6,3.16-0.73-.11-0.84-0.44-0.56-1,1.66-3.36,5.39-7.29,8.12-8.64s6.31-1,8.22.91c2.41,2.45,2.76,5.69-.29,9.78A19.62,19.62,0,0,1,698.39,180.09Z" transform="translate(-15.06 -42.2)" fill="#e64d61"/><path d="M718.55,177.38c0.67-.45,1.12-0.56,1.51-0.12,1.07,1.17,2.42,3.62.81,5.47-2.5,2.86-5.23,6.39-6.11,9.3s-0.2,5.09,1.42,5.14c2.18,0.1,4.85-3.37,6.62-7.41,0.22-.45.56-0.5,0.78-0.06a4.87,4.87,0,0,1-.26,3.47c-1.27,3.25-4.5,5.61-7.47,5.51-4-.15-5.66-3.83-4.28-8,1.21-3.69,4.44-7.68,6.66-10.26a12.15,12.15,0,0,1-6.53,2.15c-2.11,3.92-7.44,11.88-8.48,17-0.11.5-.44,0.78-0.95,0.28-1.63-1.67-1.64-4.24-.14-7.1,1.27-2.46,5-7.73,7.05-10.71-3.19-2.05,1.64-8.67,3.71-8.74,1.73-.06,1.3,3.18-0.08,6.71A13.23,13.23,0,0,0,718.55,177.38Z" transform="translate(-15.06 -42.2)" fill="#e64d61"/><path d="M737.92,196.91c2.29-.12,5.29-3.88,7.23-7.75,0.28-.5.67-0.51,0.89-0.06a4.88,4.88,0,0,1-.43,3.47c-1.5,3.08-4.95,6.06-8,5.9s-4.54-1.83-4.55-4.45c-1.78,2.24-4.29,4.32-6.91,4.33-5.2,0-6.23-7.07-1.68-13.8,4.39-6.5,8.85-9,11.64-9,2.29,0,3.42,1.72,3.37,3.79,3-5.77,7.21-13.39,9.21-16.25,0.56-.79,1.06-0.73,1.34,0,0.79,1.84.63,4.24-1.7,8.45-2.66,4.82-8,14.06-10.76,20C736.06,194.74,736,197,737.92,196.91Zm-9.77-10.13c-3,4.82-3.59,9.68-1.41,9.73s5.24-3.27,7.84-8.36c3.21-6.22,4-9.74,2.42-9.79S731.2,181.85,728.15,186.78Z" transform="translate(-15.06 -42.2)" fill="#e64d61"/><path d="M765.62,193.61c0,0.62-.05,1.23-0.1,1.9a19.23,19.23,0,0,0,5.78-7.12c0.33-.67.89-0.73,1.17,0a5.57,5.57,0,0,1-.54,3.36,13.43,13.43,0,0,1-6.68,5.84c-0.87,5.65-3.3,11.86-6,15.23-1.89,2.36-3.29,2.58-5,1.14-1.4-1.17-3.09-3.34-2.49-8.09,1.51-12.47,14.27-33.93,20.44-43.24,0.44-.67,1.17-0.62,1.4.05,0.68,1.9.52,4.3-1.86,8.39-2.27,3.81-6.1,10.14-9.1,16C764.81,187.8,765.66,189.92,765.62,193.61Zm-10.71,18.21c1.24,1.62,5.4-6.12,7.21-13.78a4,4,0,0,1-3.42-2.22C755.6,203.26,753.62,210.2,754.91,211.82Zm8-19.43c0-2.07-.52-3.8-0.91-3.63-0.56.23-1,3.19-1.1,4.48,0,1.79.46,3,1.52,3.18A25.63,25.63,0,0,0,762.93,192.39Z" transform="translate(-15.06 -42.2)" fill="#e64d61"/><path d="M775.64,196.53c2.68,0.21,6.58-3.83,8.74-8.14,0.39-.73,1-0.79,1.23,0a5.13,5.13,0,0,1-.54,3.47c-0.77,1.68-4.83,6.34-9.31,6.25-3.86-.09-5.94-2.77-4.68-8.81,2-9.74,8.35-19.88,14-25.83,0.83-.9,1.62-1,2.4-0.29,1.63,1.45,2,3.51,1.31,6.14-1.7,6.88-7.93,13.62-12.89,16.88C773.72,191.67,773.12,196.31,775.64,196.53Zm11.28-28.39c-0.73-.44-4.84,5.78-8.66,12.95q-0.75,1.35-1.33,2.69C784.55,177.54,787.65,168.58,786.92,168.14Z" transform="translate(-15.06 -42.2)" fill="#e64d61"/><path d="M820.42,185.82c-1.15,4.76-4.59,10.42-8.67,11.78a6.05,6.05,0,0,1-7.05-2.32c-2-2.67-1.87-6.42-.38-10.17a8,8,0,0,1-3.46.74c-1.15,4.81-4.59,10.47-8.72,11.83a6,6,0,0,1-7-2.32c-2.53-3.29-1.66-8.21.78-12.58,2.16-3.81,5.56-7,8.91-7.3,1.68-.17,2.63.27,3.75,1.83,1.29,1.78,3,2.11,2.71,6.14,0,0.28-.05.56-0.05,0.84,2.23-.35,4.35-2.2,6-4.27,2.06-2.58,4.56-4.44,7.13-4.61a3.73,3.73,0,0,1,3.75,1.83c1.35,1.78,3,2.11,2.71,6.14a10,10,0,0,1-.16,1.29,6.3,6.3,0,0,0,1.06-.06c0.5-.11.5,0.28,0.23,0.56A2.26,2.26,0,0,1,820.42,185.82Zm-31.14-.93c-2.38,4.2-3.2,9.4-1.63,10.63s4.86-.75,7.58-5.79a24.28,24.28,0,0,0,2-4.65c-1.79-.94-3.65-3.06-3.66-5.41A18.59,18.59,0,0,0,789.28,184.9Zm7-5.12a4,4,0,0,0,1.36,3.85,12.39,12.39,0,0,0,.32-4.08C797.75,177.76,796.52,178.1,796.3,179.78Zm19.47,4.67a6.42,6.42,0,0,1-2.65-4.85,18.56,18.56,0,0,0-4.28,5.22c-2.38,4.2-3,9.4-1.63,10.63s4.86-.75,7.58-5.79a26.06,26.06,0,0,0,2-4.59A2.32,2.32,0,0,1,815.77,184.45Zm1.77-5c-0.23-1.79-1.35-1.45-1.62.17a4.62,4.62,0,0,0,1.3,4A12.8,12.8,0,0,0,817.54,179.46Z" transform="translate(-15.06 -42.2)" fill="#e64d61"/><path d="M836.86,176.86c0.67-.45,1.12-0.56,1.51-0.12,1.07,1.17,2.42,3.62.81,5.47-2.5,2.86-5.23,6.39-6.11,9.31s-0.2,5.09,1.42,5.14c2.18,0.1,4.85-3.37,6.62-7.41,0.22-.45.56-0.51,0.78-0.06a4.87,4.87,0,0,1-.26,3.47c-1.27,3.25-4.5,5.61-7.46,5.51-4-.15-5.66-3.83-4.28-8,1.21-3.69,4.44-7.68,6.66-10.26A12.15,12.15,0,0,1,830,182c-2.11,3.92-7.44,11.88-8.48,17-0.11.5-.44,0.78-0.95,0.28-1.63-1.67-1.64-4.24-.14-7.1,1.28-2.46,5-7.73,7.05-10.71-3.2-2.05,1.64-8.67,3.71-8.74,1.73-.06,1.3,3.18-0.08,6.71A13.22,13.22,0,0,0,836.86,176.86Z" transform="translate(-15.06 -42.2)" fill="#e64d61"/><path d="M847.35,197.72c-0.67.84-2.29,0.51-3.08-.77a3.4,3.4,0,0,1,.26-4.08c0.83-.9,2.46-0.29,3.19,1.27A3.6,3.6,0,0,1,847.35,197.72Zm14.21-35c0.73,1.56.63,4.3-1.64,8.45-3,5.55-7.71,14.34-10.53,20.56-0.28.56-.5,0.67-0.95,0.23-0.84-.89-1.41-2.73-0.19-6.09a137.15,137.15,0,0,1,11.92-23.25C860.61,161.95,861.22,161.95,861.56,162.73Z" transform="translate(-15.06 -42.2)" fill="#e64d61"/></svg>