<svg xmlns="http://www.w3.org/2000/svg" viewBox="0 0 897.85 32.89"><title>border</title><g style="isolation:isolate"><g id="border"><g id="border-group"><path d="M871.13,3.93A2.79,2.79,0,0,0,868.53,1c-8.14-1.38-16.79-.75-25-0.75h-26l-52,0Q673.2,0.21,580.84,0c-60.7-.17-183.2-1.26-184-1.26Q314.56-.85,232.28-0.6q-82,.25-163.92.31l-46.1,0H-0.79c-7.33,0-15-.63-22.23.75a2.71,2.71,0,0,0-2.3,2.89,11.33,11.33,0,0,0-.42,6,2.39,2.39,0,0,0,.82,1.39,2.77,2.77,0,0,0,.46,1.5c3.73,6,11.58,6.75,18.22,5.25,4.32-1,8.21-3.14,12.45-4.36,4.86-1.41,8.42-.6,12.72,1.73,3.59,1.95,7.13,3.64,11.36,3.82a31.23,31.23,0,0,0,11.24-2.07c7.51-2.55,14.84-6.24,22.67-2.52,7.16,3.4,13.19,7.62,21.67,6.22,7.2-1.19,13.18-5.45,19.88-7.89,3.3-1.2,6.84-1.95,10.34-1,3.73,1,6.91,3.24,10.17,5.09,6.48,3.7,13.27,5.19,20.24,1.57,6-3.14,11-9.58,18.6-9.06,7.08,0.49,13.36,5,19.86,7.27,7.15,2.51,13.69,1.81,19.81-2.47,3-2.09,6-4.62,9.92-4.47,3.34,0.13,6.39,1.83,9.16,3.42,6,3.44,11.48,4.51,18.74,5.14s14.07,0.38,20.14-2.74,12.8-6.47,19.76-3.2c6.68,3.14,11.9,5.65,19.95,5.52,7.25-.12,13.18-1.43,19.09-4.71,2.78-1.54,5.92-3,9.26-2.67,4.32,0.46,9.22,1.81,12.63,4,6.91,4.52,14.71,6.9,23.1,5.66s11.8-5.62,18-10.73a19.39,19.39,0,0,1,10.06-4c0.12,0,9.1.62,12.35,3,6.94,5.11,13.13,11,22.7,12.26s18.24-1.14,26-5.66c3.85-2.24,9.37-3.59,14.23-4,3.76-.36,7.3,1.13,10.43,2.67,6.67,3.28,13.34,4.59,21.52,4.71,9.06,0.13,14.95-2.38,22.48-5.52,7.84-3.27,15.29,0,22.27,3.2s14.58,3.36,22.7,2.74,14.38-1.7,21.12-5.14c3.12-1.59,6.56-3.29,10.32-3.42,4.47-.15,7.83,2.39,11.18,4.47,6.89,4.29,14.26,5,22.32,2.47,7.32-2.28,14.39-6.78,22.37-7.27,8.53-.52,14.15,5.92,21,9.06,7.85,3.62,15.5,2.13,22.8-1.57,3.67-1.86,7.25-4.13,11.46-5.09,3.94-.9,7.93-0.15,11.65,1,7.55,2.44,14.28,6.7,22.4,7.89,9.56,1.4,16.35-2.81,24.42-6.22,8.82-3.72,17.09,0,25.55,2.52a39.18,39.18,0,0,0,12.67,2.07c4.77-.18,8.76-1.88,12.81-3.82,4.84-2.33,8.86-3.13,14.33-1.73,4.77,1.23,9.16,3.39,14,4.36,7.48,1.5,16.33.71,20.53-5.25a2.55,2.55,0,0,0,.52-1.5,2.35,2.35,0,0,0,.93-1.39A10.13,10.13,0,0,0,871.13,3.93Z" transform="translate(26 1.3)" fill="#57d7ca"/><path d="M868.34,6.61c-4.72,15.84-27.49,3.08-37.66,2-12-1.27-16.18,7.75-27.47,6.49-12.73-4.84-16.63-5.94-23.66-5.74-10.44.3-18.43,5.46-28.12,7.67-10.14,2.3-18.65-6-28-8.56-9.81-2.69-17.35,2.88-26.27,6.28-18.35,7-28-15.06-51.93-7a112.62,112.62,0,0,0-11.44,4.9c-6.47,3-11.14,2.82-17.49-.46-7.92-4.1-14.82-5.73-23.64-3.38-10.74,2.86-20.15,8-31.64,5.43-10.81-2.41-20.58-7.85-32-7.65-1.52,0-5.47,1.56-5.65,2.27C499.91,23.71,485,6.39,466,7.75a31.85,31.85,0,0,0-12.44,3.33,75.19,75.19,0,0,1-16.78,6c-8.66,1.77-13.75-2.68-21-6.57C409.15,7,402.24,2.33,394.51,2.38c-8.67.06-16.06,6-23.54,9.75-4.7,2.33-9.59,4-14.86,2.78-5.47-1.29-11.21-5.66-16.63-7.15-9.43-2.59-17.84,1.35-27.13,3a44.44,44.44,0,0,1-19-.68c-5.08-1.21-11.51-4.33-16.76-3.92-9.7.76-17.23,6.77-26.75,8.46-5.29.94-10.6,1-15.74-.75-4.71-1.62-9-4.37-13.72-5.88a20.06,20.06,0,0,0-12.43-.19c-4.63,1.5-8.65,4.82-13.46,5.76-9.23,1.8-17.32-7-26.54-7.38-8.58-.32-15.79,5-23.56,7.7-5.48,1.91-9.6,1.6-14.63-1.35-3.65-2.14-6.83-4.26-11.13-4.76-7.74-.89-15.54,2-22.38,5-4.44,2-9.56,3.89-14.52,3.94-5.73.07-9.57-2-14.45-4.54-3.84-2-7.94-3.75-12.36-3.33-5.55.52-10.6,3-15.68,4.64C29.45,16.61,20.47,11,10.89,9.72A25.21,25.21,0,0,0-2.32,11.63c-3.61,1.47-17.3,6-18-2.44-0.27-3.43-5.83-4-5.56-.54,0.58,7.33,10,10.75,16.67,9.5C-4.15,17.22-1.1,15,3.91,14s7.72-2.56,12.19-.36c12.73,6.27,16.47,5.25,25.28,2.87C48,14.75,52.88,10.79,59.3,12.6c4.61,1.3,10.69,4.71,15.06,6.63,7.92,3.49,14,1.44,21.69-1.79,8.09-3.39,14.61-9.71,23.48-5.38,4.17,2,10.61,7.57,15.35,8.31A16.66,16.66,0,0,0,146.78,18c7.33-4.85,13.6-11.81,24-7.53,8.33,3.42,18.68,10,27.78,6.27,5-2.06,10.43-7.87,16.13-7.35,5.46,0.49,11.11,5.74,17.93,7,9.95,1.83,13.8,2.69,26.17.54,5.09-.89,9.07-5.38,14.16-6.27,6.69-1.17,14.08,4.18,20.61,5.74,11.18,2.66,18.1.54,30.83-4.84,6.14-2.6,10.48-1.63,16.67,1.08,4.65,2,9.75,6.1,14.88,6.81,15.6,2.15,19.63-3.87,27.07-9.5,6.63-5,15.9-7.31,24.74-1.08,6.08,4.29,12.89,11.83,28,11.83,14,0,19.8-8.61,31.19-9.68,17.21-1.61,24.9,17.45,61.66,0,4.12,0.38,3.09.07,4.12,0,9.39,0.5,13.8,6.45,23.48,7,8.6,0.48,18.35,1,26.35-1.79,9.72-3.42,15.6-9.14,26-3.41,7.44,4.11,10.78,5.51,19.9,5.2,5.57-.19,13-4.16,16.85-5.74,5-2,10.77-4,15.77-2.33,8.36,2.81,16.46,10.42,24.74,10.76,9.43,0.38,17.74-6,26.35-8.6,7.71-2.33,16,3.64,25.1,7C747.78,22.92,755,21.74,765,16.72c7.93-4,17.09-5.39,24.38-1.43,17,5.38,21.86,4.31,25.81,2.69,4.14-1.7,7-4.09,11.47-4.48a29.4,29.4,0,0,1,12,1.43c11.68,3.6,31.55,7.89,33-7.53C872,3.95,869.33,3.3,868.34,6.61Z" transform="translate(26 1.3)" fill="#00cdbd" style="mix-blend-mode:multiply"/><path d="M869.72,17.44c-15.15,13.52-32.33-9.79-47.5,1.25-9.55,7-19.52,4.6-30.11.54-5.8-2.23-12.36-4.39-18.46-1.61-0.34.06-15,7.9-23.48,7.35a51.76,51.76,0,0,1-18.91-5c-8.41-3.76-14.94-7.13-23-3.05s-15.57,7.7-24.92,5.56c-7-1.61-14.07-5.79-20.61-8.6s-15.42-.36-21.15,3.18c-8.93,5.5-17.36,6.33-26.22,1.64-4.73-2.5-9.56-5.59-15.13-5.18-6,.44-11,3.27-16.19,5.74-7.83,3.73-16.22,4-24.56,2.33-7.35-1.51-13.73-3.73-20.89-5.7-5.77-1.59-10.93-.07-16.25,2.28-8.66,3.82-16,5.3-25.6,3.78-8.85-1.41-16.66-7.78-25.56-7.74-6.17,0-12.39,3.11-17.41,5.93s-10.51,3.78-16.37,4a38.83,38.83,0,0,1-16.67-3.23c-7.56-3.28-14-9.49-21.87-11.83-5.74-1.71-10.06,1-14.34,4.66-9.26,7.84-19.51,12.91-31.39,8.14-6.22-2.5-12.49-7.24-19.34-7.78-7.5-.6-14.47,4.07-21.33,6.09-11.85,3.49-19.67-1.44-30.48-5-7.13-2.32-13.3.72-19.71,3.35-11.86,4.87-23.66,2.33-36.21-1.08-6.27-3.59-9.65-5.92-15.59-3.47a29.11,29.11,0,0,0-7.53,4.19c-8,6.39-16.62,3.19-24.38-1.08-5.55-3.05-10.28-6-16.87-4.49-6.87,1.54-12.23,6.62-18.44,9.51-10.74,5-18-5.39-27.78-7.53-6-1.31-11.07,1.53-16.13,4.48C92.91,22.76,86.48,24.46,79,23.17c-5.43-.94-11.23-4-16.31-5.92-7.37-2.8-11.28-1.15-18.28,1.79a28.81,28.81,0,0,1-22.59,0,30,30,0,0,0-11.21-2.63A23.23,23.23,0,0,0,0,18.51c-8.31,4.25-16.65,4.79-24.38-.9-0.52-.38-1.56,1.63-1.13,2a22.67,22.67,0,0,0,19,3.95A25.75,25.75,0,0,0-2.13,22C1.5,20.35,2.12,19,6.42,18.33c5.11-.83,8-0.49,12.19,1.43a38.9,38.9,0,0,0,7.71,2.51,29.85,29.85,0,0,0,19.79-1.94c6.91-3,12.79-2.44,19.45.47,4.05,1.78,8,3.72,12.44,4.47a31.78,31.78,0,0,0,20.85-3.9c5.7-3.19,11.21-7.17,18-4.66,4.18,1.55,7.86,4.74,11.92,6.56a18.09,18.09,0,0,0,15.85,0C153.78,19,160,9.95,171.18,15.24c8,3.77,14.79,9.08,24.17,7.94a16.9,16.9,0,0,0,8.43-3.41c3.72-3,7-6.68,13.8-4.66,2.73,0.81,8,4,8.25,3.94,14.63,5.59,28.53,5.53,42.61-1,3.58-1.65,7.27-2.87,11.16-1.84A54.84,54.84,0,0,1,287,19.09a54.52,54.52,0,0,0,12.48,3.73,34.27,34.27,0,0,0,20.09-2.64c5.15-2.35,9.92-5,15.84-3.86,4.63,0.91,8.83,3.31,13.08,5.25,6,2.74,12,4.41,18.6,3.31,7.3-1.21,13.62-5.1,19.24-9.73,1.19-1,2.48-2.53,3.79-3.14,2.34-1.1,7.2-1.24,9.57-.5a25.09,25.09,0,0,1,5.91,3.28A102.5,102.5,0,0,0,418,22.15c7.64,3.61,16.12,5.16,24.55,3.35,9.42-2,18.28-9,28.33-9.45,9.14-.95,24.91,13.21,43.94,7,3.48-1.13,6.66-3,10-4.35,6.08-2.49,11.13-2.12,17.29.33,7.13,2.84,14.1,3.62,21.77,4.46A40.63,40.63,0,0,0,582,21.92a47.94,47.94,0,0,0,9.5-4.3c5.49-3.43,10.32-3.44,16.52-.68s11.6,7,18.81,7.09c6,0.12,16.25-6.14,16.31-6.22,8.78-5.6,17.46-3.2,26,1.06,4.66,2.33,9.32,5.77,14.7,6.45a29,29,0,0,0,13.09-.9c5.19-1.68,10.05-4.67,15.24-6.27C721.37,15.3,729,20.93,737,24.32a37.23,37.23,0,0,0,13.69,3c8.32,0.18,23.24-8,23.63-8.24,5.54-2.86,12.61.07,17.75,2,3.83,1.42,7.4,3.47,11.47,3.94,7.93,0.92,12.78-.16,19.18-4.48,9.86-6.65,20.12,1,30.29,2.33,6.39,0.85,13.06.58,17.93-3.76C871.92,18.21,870.36,16.86,869.72,17.44Z" transform="translate(26 1.3)" fill="#f0747d"/><path d="M869.36,21.74C854.2,35.26,837,11.95,821.86,23c-9.55,7-19.52,4.6-30.11.54-5.8-2.23-12.36-4.39-18.46-1.61-0.34.06-15,7.9-23.48,7.35a51.76,51.76,0,0,1-18.91-5c-8.41-3.76-14.94-7.13-23-3.05s-15.57,7.7-24.92,5.56c-7-1.61-14.07-5.79-20.61-8.6s-15.42-.36-21.15,3.18c-8.93,5.5-17.36,6.33-26.22,1.64-4.73-2.5-9.56-5.59-15.13-5.18-6,.44-11,3.27-16.19,5.74-7.83,3.73-16.22,4-24.56,2.33-7.35-1.51-13.73-3.73-20.89-5.7-5.77-1.59-10.93-.07-16.25,2.28-8.66,3.82-16,5.3-25.6,3.78-8.85-1.41-16.66-7.78-25.56-7.74-6.17,0-12.39,3.11-17.41,5.93s-10.51,3.78-16.37,4a38.83,38.83,0,0,1-16.67-3.23c-7.56-3.28-14-9.49-21.87-11.83-5.74-1.71-10.06,1-14.34,4.66-9.26,7.84-19.51,12.91-31.39,8.14-6.22-2.5-12.49-7.24-19.34-7.78-7.5-.6-14.47,4.07-21.33,6.09-11.85,3.49-19.67-1.44-30.48-5-7.13-2.32-13.3.72-19.71,3.35-11.86,4.87-23.66,2.33-36.21-1.08-6.27-3.59-9.65-5.92-15.59-3.47a29.11,29.11,0,0,0-7.53,4.19c-8,6.39-16.62,3.19-24.38-1.08-5.55-3.05-10.28-6-16.87-4.49-6.87,1.54-12.23,6.62-18.44,9.51-10.74,5-18-5.39-27.78-7.53-6-1.31-11.07,1.53-16.13,4.48-6.37,3.71-12.79,5.41-20.26,4.12-5.43-.94-11.23-4-16.31-5.92-7.37-2.8-11.28-1.15-18.28,1.79a28.81,28.81,0,0,1-22.59,0,30,30,0,0,0-11.21-2.63A23.23,23.23,0,0,0-.39,22.82c-8.31,4.25-16.65,4.79-24.38-.9-0.52-.38-1.56,1.63-1.13,2a22.67,22.67,0,0,0,19,3.95,25.75,25.75,0,0,0,4.36-1.55c3.62-1.62,4.24-2.94,8.55-3.64,5.11-.83,8-0.49,12.19,1.43A38.9,38.9,0,0,0,26,26.58a29.85,29.85,0,0,0,19.79-1.94c6.91-3,12.79-2.44,19.45.47,4.05,1.78,8,3.72,12.44,4.47a31.78,31.78,0,0,0,20.85-3.9c5.7-3.19,11.21-7.17,18-4.66,4.18,1.55,7.86,4.74,11.92,6.56a18.09,18.09,0,0,0,15.85,0c9.17-4.32,15.38-13.34,26.57-8.05,8,3.77,14.79,9.08,24.17,7.94a16.9,16.9,0,0,0,8.43-3.41c3.72-3,7-6.68,13.8-4.66,2.73,0.81,8,4,8.25,3.94,14.63,5.59,28.53,5.53,42.61-1,3.58-1.65,7.27-2.87,11.16-1.84a54.84,54.84,0,0,1,7.38,2.85,54.52,54.52,0,0,0,12.48,3.73,34.27,34.27,0,0,0,20.09-2.64c5.15-2.35,9.92-5,15.84-3.86,4.63,0.91,8.83,3.31,13.08,5.25,6,2.74,12,4.41,18.6,3.31C374,28,380.33,24.07,386,19.44c1.19-1,2.48-2.53,3.79-3.14,2.34-1.1,7.2-1.24,9.57-.5a25.09,25.09,0,0,1,5.91,3.28,102.5,102.5,0,0,0,12.43,7.37c7.64,3.61,16.12,5.16,24.55,3.35,9.42-2,18.28-9,28.33-9.45,9.14-.95,24.91,13.21,43.94,7,3.48-1.13,6.66-3,10-4.35,6.08-2.49,11.13-2.12,17.29.33,7.13,2.84,14.1,3.62,21.77,4.46a40.63,40.63,0,0,0,18.1-1.61,47.94,47.94,0,0,0,9.5-4.3c5.49-3.43,10.32-3.44,16.52-.68s11.6,7,18.81,7.09c6,0.12,16.25-6.14,16.31-6.22,8.78-5.6,17.46-3.2,26,1.06,4.66,2.33,9.32,5.77,14.7,6.45a29,29,0,0,0,13.09-.9c5.19-1.68,10.05-4.67,15.24-6.27,9.22-2.86,16.82,2.78,24.88,6.16a37.23,37.23,0,0,0,13.69,3c8.32,0.18,23.24-8,23.63-8.24,5.54-2.86,12.61.07,17.75,2,3.83,1.42,7.4,3.47,11.47,3.94,7.93,0.92,12.78-.16,19.18-4.48,9.86-6.65,20.12,1,30.29,2.33,6.39,0.85,13.06.58,17.93-3.76C871.56,22.51,870,21.17,869.36,21.74Z" transform="translate(26 1.3)" fill="#f0747d"/></g></g></g></svg>