<svg xmlns="http://www.w3.org/2000/svg" viewBox="0 0 677.92 2444.13"><title>date-time</title><g style="isolation:isolate"><g id="Layer_1" data-name="Layer 1"><path d="M283.57,1551.25v-0.83H259.29a1.46,1.46,0,0,0-1.66,1.66v15.17a2.61,2.61,0,0,1-2.76,2.76H209.36a2.61,2.61,0,0,1-2.76-2.76v-61.52a2.61,2.61,0,0,1,2.76-2.76h128a2.61,2.61,0,0,1,2.76,2.76v44.42a8.15,8.15,0,0,1-.55,2.76L285.5,1687.82c-0.83,2.21-1.93,2.76-3.86,2.76H229.77a2.22,2.22,0,0,1-2.21-3Z" transform="translate(-52.58 751.99)" fill="#00cdbd" stroke="#fff" stroke-miterlimit="10" stroke-width="1.42"/><path d="M363.78,1640.88c-4.92,2.55-8.06-2.29-9.28-7.57s-1.8-13.87-1.18-22.56a1.17,1.17,0,0,1,1.69-1.12c2.8,1.3,4.3,4.5,4.22,9.75a79.67,79.67,0,0,0,.78,12.94c0.59,4.11,2.25,6.38,3.86,5.58,2.71-1.38,3.53-8.27,3.59-16.25,0-9.34-.83-15.11-0.44-19.26,0.1-1.34.48-1.75,1.42-1.42,1.73,0.59,4,3.19,4.48,7.49,0.36,3.89.08,10.9,0.63,15.23,0.58,4.85,2.56,7.48,4.87,5.88,2.71-1.84,3.42-8.3,3.18-14.54,0-.8.53-1.23,1.16-0.8a6.78,6.78,0,0,1,2,4.55c0.34,4.9-1.71,10.81-5.63,13.21-4.32,2.64-7.72,1-9.54-3.21C369.12,1633.33,367.66,1638.87,363.78,1640.88Z" transform="translate(-52.58 751.99)" fill="#f4868b"/><path d="M391.09,1587.23c2.4-1,6.45,1,6.9,5.47,0.39,3.78.14,10.69,0.72,15.08,0.63,4.91,2.93,7.79,5.25,6.2,2.65-1.8,3.22-8.18,2.91-14.37,0-.8.43-1.09,1.09-0.76,0.91,0.45,1.71,2.06,2,4.55,0.48,4.82-1.64,10.77-5.5,13.12-5.65,3.45-9.5.14-11.1-6.82-1.78-7.86-.24-18.48-1.76-18.28-0.83.14-3.55,4.36-5,11.61-1.33,6.65-.35,14.82.6,22.82,0.1,0.76-.14,1.27-1.1,1-2.14-.52-3.88-2.47-4.85-6.44-1.23-5-1.75-17.37-1.34-26.11,0-1,.59-1.27,1.4-0.85,2,1.05,3.33,3.36,4.06,6.2C386.4,1594.66,388.69,1588.24,391.09,1587.23Z" transform="translate(-52.58 751.99)" fill="#f4868b"/><path d="M399.07,1580.26c-1.23-.52-1.12-1.23-0.08-1.78a44.52,44.52,0,0,0,5.36-3.64,100,100,0,0,1,0-11.33c0.07-1.23.78-1.57,1.6-1,1.87,1.42,3.21,3.61,3.72,8,2.55-1.65,4.28-1.06,5.34-.52s1,1.14,0,1.75a23.2,23.2,0,0,0-5,3.43c0.13,6,.27,14.8,1.16,21.93,0.77,6.19,4,9.87,6.89,8.3,3.07-1.69,4-8.73,3.4-15.22-0.09-1,.56-1.62,1.4-0.85s1.38,2.26,1.65,4.2c0.31,2.46-.5,11-5.95,14-4.47,2.55-11-.22-12.48-9.82-0.63-4.18-1.25-11.47-1.6-18.47A6.43,6.43,0,0,1,399.07,1580.26Z" transform="translate(-52.58 751.99)" fill="#f4868b"/><path d="M425.2,1566.41c-0.3,1.46-2.28,2.4-4.33,1.28a4.84,4.84,0,0,1-2.67-5.12c0.37-1.78,2.79-2.16,4.75-.89A4.71,4.71,0,0,1,425.2,1566.41ZM421,1592.82c-1.3-5.87-1.7-16.4-1.35-21.36,0.11-1.16.46-1.65,1.35-1.37,1.65,0.46,3.92,3,4.36,7.29,0.39,3.78.36,10,1,14.18,0.76,4.83,2.48,7.34,4.52,5.91,2.91-2,3.89-8.58,3.08-14.39,0-.8.47-1,1.06-0.65,1.18,0.74,1.83,2.26,2.05,4.41,0.52,5.34-2,10.69-5.69,13C426.3,1602.89,422.44,1599.41,421,1592.82Z" transform="translate(-52.58 751.99)" fill="#f4868b"/><path d="M444.83,1588.84c3.35-1.68,5.09-9.31,4.55-16-0.06-1.15.63-1.66,1.46-.89a7.15,7.15,0,0,1,1.85,4.53c0.29,2.56-1.2,11-6.6,14.16-4.67,2.67-9.08,1-11.93-7.14-4.6-13.07-4.37-29.74-1.89-40.93,0.35-1.67,1.2-2.37,2.66-2.08,3,0.55,4.88,2.77,6,6.38,2.93,9.44.36,22-3.21,29.43C439,1584.43,441.67,1590.4,444.83,1588.84Zm-7-42c-1.19,0-1.6,10.38-1,21.7q0.08,2.14.35,4.17C441.77,1559.76,439,1546.85,437.81,1546.84Z" transform="translate(-52.58 751.99)" fill="#f4868b"/><path d="M365.78,1640.88c-4.92,2.55-8.06-2.29-9.28-7.57s-1.8-13.87-1.18-22.56a1.17,1.17,0,0,1,1.69-1.12c2.8,1.3,4.3,4.5,4.22,9.75a79.67,79.67,0,0,0,.78,12.94c0.59,4.11,2.25,6.38,3.86,5.58,2.71-1.38,3.53-8.27,3.59-16.25,0-9.34-.83-15.11-0.44-19.26,0.1-1.34.48-1.75,1.42-1.42,1.73,0.59,4,3.19,4.48,7.49,0.36,3.89.08,10.9,0.63,15.23,0.58,4.85,2.56,7.48,4.87,5.88,2.71-1.84,3.42-8.3,3.18-14.54,0-.8.53-1.23,1.16-0.8a6.78,6.78,0,0,1,2,4.55c0.34,4.9-1.71,10.81-5.63,13.21-4.32,2.64-7.72,1-9.54-3.21C371.12,1633.33,369.66,1638.87,365.78,1640.88Z" transform="translate(-52.58 751.99)" fill="#e64d61"/><path d="M393.09,1587.23c2.4-1,6.45,1,6.9,5.47,0.39,3.78.14,10.69,0.72,15.08,0.63,4.91,2.93,7.79,5.25,6.2,2.65-1.8,3.22-8.18,2.91-14.37,0-.8.43-1.09,1.09-0.76,0.91,0.45,1.71,2.06,2,4.55,0.48,4.82-1.64,10.77-5.5,13.12-5.65,3.45-9.5.14-11.1-6.82-1.78-7.86-.24-18.48-1.76-18.28-0.83.14-3.55,4.36-5,11.61-1.33,6.65-.35,14.82.6,22.82,0.1,0.76-.14,1.27-1.1,1-2.14-.52-3.88-2.47-4.85-6.44-1.23-5-1.75-17.37-1.34-26.11,0-1,.59-1.27,1.4-0.85,2,1.05,3.33,3.36,4.06,6.2C388.4,1594.66,390.69,1588.24,393.09,1587.23Z" transform="translate(-52.58 751.99)" fill="#e64d61"/><path d="M401.07,1580.26c-1.23-.52-1.12-1.23-0.08-1.78a44.52,44.52,0,0,0,5.36-3.64,100,100,0,0,1,0-11.33c0.07-1.23.78-1.57,1.6-1,1.87,1.42,3.21,3.61,3.72,8,2.55-1.65,4.28-1.06,5.34-.52s1,1.14,0,1.75a23.2,23.2,0,0,0-5,3.43c0.13,6,.27,14.8,1.16,21.93,0.77,6.19,4,9.87,6.89,8.3,3.07-1.69,4-8.73,3.4-15.22-0.09-1,.56-1.62,1.4-0.85s1.38,2.26,1.65,4.2c0.31,2.46-.5,11-5.95,14-4.47,2.55-11-.22-12.48-9.82-0.63-4.18-1.25-11.47-1.6-18.47A6.43,6.43,0,0,1,401.07,1580.26Z" transform="translate(-52.58 751.99)" fill="#e64d61"/><path d="M427.2,1566.41c-0.3,1.46-2.28,2.4-4.33,1.28a4.84,4.84,0,0,1-2.67-5.12c0.37-1.78,2.79-2.16,4.75-.89A4.71,4.71,0,0,1,427.2,1566.41ZM423,1592.82c-1.3-5.87-1.7-16.4-1.35-21.36,0.11-1.16.46-1.65,1.35-1.37,1.65,0.46,3.92,3,4.36,7.29,0.39,3.78.36,10,1,14.18,0.76,4.83,2.48,7.34,4.52,5.91,2.91-2,3.89-8.58,3.08-14.39,0-.8.47-1,1.06-0.65,1.18,0.74,1.83,2.26,2.05,4.41,0.52,5.34-2,10.69-5.69,13C428.3,1602.89,424.44,1599.41,423,1592.82Z" transform="translate(-52.58 751.99)" fill="#e64d61"/><path d="M446.83,1588.84c3.35-1.68,5.09-9.31,4.55-16-0.06-1.15.63-1.66,1.46-.89a7.15,7.15,0,0,1,1.85,4.53c0.29,2.56-1.2,11-6.6,14.16-4.67,2.67-9.08,1-11.93-7.14-4.6-13.07-4.37-29.74-1.89-40.93,0.35-1.67,1.2-2.37,2.66-2.08,3,0.55,4.88,2.77,6,6.38,2.93,9.44.36,22-3.21,29.43C441,1584.43,443.67,1590.4,446.83,1588.84Zm-7-42c-1.19,0-1.6,10.38-1,21.7q0.08,2.14.35,4.17C443.77,1559.76,441,1546.85,439.81,1546.84Z" transform="translate(-52.58 751.99)" fill="#e64d61"/><path d="M518.73,1558.45h-0.55l-33.38,21.79c-1.66,1.1-3.59.55-3.59-1.66v-47.73a4.47,4.47,0,0,1,1.93-3.86L519,1502.17a9.08,9.08,0,0,1,5.24-1.66h46.9a2.61,2.61,0,0,1,2.76,2.76v182.09a2.61,2.61,0,0,1-2.76,2.76H521.49a2.61,2.61,0,0,1-2.76-2.76V1558.45Z" transform="translate(-52.58 751.99)" fill="#00cdbd" stroke="#fff" stroke-miterlimit="10" stroke-width="1.42"/><path d="M592.94,1594.32c0-37.25,1.38-45,4.69-54.9,8.83-26.49,30.9-42.21,63.73-42.21s54.9,15.73,63.73,42.21c3.31,9.93,4.69,17.66,4.69,54.9s-1.38,45-4.69,54.9c-8.83,26.49-30.9,42.21-63.73,42.21s-54.9-15.73-63.73-42.21C594.32,1639.29,592.94,1631.56,592.94,1594.32Zm68.42,53c6.07,0,9.38-2.48,11-7.45,1.1-3.31,1.66-6.62,1.66-45.52s-0.55-42.21-1.66-45.52c-1.66-5-5-7.45-11-7.45s-9.38,2.48-11,7.45c-1.1,3.31-1.66,6.62-1.66,45.52s0.55,42.21,1.66,45.52C652,1644.81,655.29,1647.29,661.36,1647.29Z" transform="translate(-52.58 751.99)" fill="#00cdbd" stroke="#fff" stroke-miterlimit="10" stroke-width="1.42"/><circle cx="177.83" cy="2302.66" r="7.2" fill="#fef0ed"/><circle cx="178.83" cy="2274.66" r="7.2" fill="#fef0ed"/><circle cx="445.83" cy="2299.66" r="7.2" fill="#fef0ed"/><circle cx="467.83" cy="2282.66" r="7.2" fill="#fef0ed"/><circle cx="495.11" cy="2270.66" r="7.2" fill="#fef0ed"/><circle cx="608.83" cy="2269.66" r="7.2" fill="#fef0ed"/><circle cx="635.83" cy="2277.66" r="7.2" fill="#fef0ed"/><circle cx="647.2" cy="2302.75" r="7.2" fill="#fef0ed"/><circle cx="651.2" cy="2330.95" r="7.2" fill="#fef0ed"/><circle cx="652.2" cy="2358.75" r="7.2" fill="#fef0ed"/><circle cx="651.2" cy="2386.75" r="7.2" fill="#fef0ed"/><circle cx="636.13" cy="2412.89" r="7.2" fill="#fef0ed"/><circle cx="578.83" cy="2276.66" r="7.2" fill="#fef0ed"/><circle cx="569.83" cy="2300.66" r="7.2" fill="#fef0ed"/><circle cx="565.83" cy="2329.3" r="7.2" fill="#fef0ed"/><circle cx="565.83" cy="2357.66" r="7.2" fill="#fef0ed"/><circle cx="568.83" cy="2388.66" r="7.2" fill="#fef0ed"/><circle cx="582.83" cy="2411.66" r="7.2" fill="#fef0ed"/><circle cx="611" cy="2422.81" r="7.2" fill="#fef0ed"/><circle cx="495.11" cy="2302.3" r="7.2" fill="#fef0ed"/><circle cx="495.11" cy="2330.12" r="7.2" fill="#fef0ed"/><circle cx="495.11" cy="2359.6" r="7.2" fill="#fef0ed"/><circle cx="495.11" cy="2390.59" r="7.2" fill="#fef0ed"/><circle cx="495.11" cy="2420.03" r="7.2" fill="#fef0ed"/><circle cx="208.65" cy="2274.66" r="7.2" fill="#fef0ed"/><circle cx="238.21" cy="2275.71" r="7.2" fill="#fef0ed"/><circle cx="265.87" cy="2275.71" r="7.2" fill="#fef0ed"/><circle cx="258.49" cy="2304.18" r="7.2" fill="#fef0ed"/><circle cx="247.85" cy="2334.7" r="7.2" fill="#fef0ed"/><circle cx="236.74" cy="2361.01" r="7.2" fill="#fef0ed"/><circle cx="226.32" cy="2389.06" r="7.2" fill="#fef0ed"/><circle cx="214.47" cy="2418.28" r="7.2" fill="#fef0ed"/><circle cx="179.83" cy="2302.66" r="7.2" fill="#fef0ed"/><circle cx="180.83" cy="2274.66" r="7.2" fill="#fef0ed"/><circle cx="447.83" cy="2299.66" r="7.2" fill="#fef0ed"/><circle cx="469.83" cy="2282.66" r="7.2" fill="#fef0ed"/><circle cx="497.11" cy="2270.66" r="7.2" fill="#fef0ed"/><circle cx="610.83" cy="2269.66" r="7.2" fill="#fef0ed"/><circle cx="637.83" cy="2277.66" r="7.2" fill="#fef0ed"/><circle cx="649.2" cy="2302.75" r="7.2" fill="#fef0ed"/><circle cx="653.2" cy="2330.95" r="7.2" fill="#fef0ed"/><circle cx="654.2" cy="2358.75" r="7.2" fill="#fef0ed"/><circle cx="653.2" cy="2386.75" r="7.2" fill="#fef0ed"/><circle cx="638.13" cy="2412.89" r="7.2" fill="#fef0ed"/><circle cx="580.83" cy="2276.66" r="7.2" fill="#fef0ed"/><circle cx="571.83" cy="2300.66" r="7.2" fill="#fef0ed"/><circle cx="567.83" cy="2329.3" r="7.2" fill="#fef0ed"/><circle cx="567.83" cy="2357.66" r="7.2" fill="#fef0ed"/><circle cx="570.83" cy="2388.66" r="7.2" fill="#fef0ed"/><circle cx="584.83" cy="2411.66" r="7.2" fill="#fef0ed"/><circle cx="613" cy="2422.81" r="7.2" fill="#fef0ed"/><circle cx="497.11" cy="2302.3" r="7.2" fill="#fef0ed"/><circle cx="497.11" cy="2330.12" r="7.2" fill="#fef0ed"/><circle cx="497.11" cy="2359.6" r="7.2" fill="#fef0ed"/><circle cx="497.11" cy="2390.59" r="7.2" fill="#fef0ed"/><circle cx="497.11" cy="2420.03" r="7.2" fill="#fef0ed"/><circle cx="210.65" cy="2274.66" r="7.2" fill="#fef0ed"/><circle cx="240.21" cy="2275.71" r="7.2" fill="#fef0ed"/><circle cx="267.87" cy="2275.71" r="7.2" fill="#fef0ed"/><circle cx="260.49" cy="2304.18" r="7.2" fill="#fef0ed"/><circle cx="249.85" cy="2334.7" r="7.2" fill="#fef0ed"/><circle cx="238.74" cy="2361.01" r="7.2" fill="#fef0ed"/><circle cx="228.32" cy="2389.06" r="7.2" fill="#fef0ed"/><circle cx="216.47" cy="2418.28" r="7.2" fill="#fef0ed"/><path d="M226.06,1410.45c-0.39-1.06-.29-1.65,1-1.84,6.68-.87,11.51-4.74,17.8-5.71s11,2.23,14.61,8.51c8.9,15.48-8.32,43.73-34.25,52.35-2.81,1-4.55.68-6.19-.68a20.85,20.85,0,0,1-4.06-4.16c-1.84-2.52-2.32-4-.29-10.26,3-9.09,11-24.19,17.71-34.15A7,7,0,0,1,226.06,1410.45Zm8.9,13.25c-4.84,8.61-12.67,21.48-15.48,30.38-1.26,4.06-.58,5.42,2.32,4.35,26.41-10.06,38.61-37.73,32.9-46.83-3.39-5.42-10.45-.29-17.22,1.93C238,1416,237.38,1419.45,235,1423.7Z" transform="translate(-52.58 751.99)" fill="#fef0ed"/><path d="M274.82,1407.25c-0.19-.87.1-1.26,1.06-1.16,8,0.48,18.67-2.32,24.09-2.42,4.06-.1,6.19,1.55,7.35,4.74,0.29,0.77.1,1.45-1.06,1.26-7-.1-13.74,1.64-19.64,2.61-3.87,5.81-8.61,14.22-13.35,22.83a54.88,54.88,0,0,1,6.87-.77c4.84-.19,7,1.35,7.93,4.35,0.29,0.87.29,1.45-1,1.45-5.22,0-12.48,1.35-17.9,2.71-2.81,5.42-5.42,10.74-7.45,15.29a70.91,70.91,0,0,1,15-3c4.74-.19,7.16,1.35,8.22,4.26,0.29,0.87.19,1.45-1,1.45-5.42-.1-16,2.42-21.38,3.87-1.84.48-2.9,0.48-4.06-1a20.54,20.54,0,0,1-2-3.58c-0.87-1.65-.87-2.9.1-5.52,4.45-11.9,14.13-29.9,22.25-42.48A6.88,6.88,0,0,1,274.82,1407.25Z" transform="translate(-52.58 751.99)" fill="#fef0ed"/><path d="M332,1443.25c2.42,6.48-3.77,13.74-7.84,16.64-6.87,4.93-15,4.84-20.22,2-4.35-2.32-8.13-8.32-8.32-16.25-0.39-20.51,16.84-38,27.67-42.19,5.22-2,10-2.42,13.06.29a17.93,17.93,0,0,1,5.13,7.06,11.08,11.08,0,0,1-.87,8.51c-1.45,3-2.81,6.77-3.87,9.58a1.26,1.26,0,0,1-2.13.58c-2.23-1.45-3.77-4.45-2.32-9.29,1.55-5.13,5-10.64,2.81-13-2.71-2.9-17.42,4.93-26.12,19.35-8.51,14.13-7.55,28.45-2.81,32.32,6.19,5,16.45-1.45,23.8-15.87C330.46,1442,331.52,1442,332,1443.25Z" transform="translate(-52.58 751.99)" fill="#fef0ed"/><path d="M354.16,1407.25c-0.19-.87.1-1.26,1.06-1.16,8,0.48,18.67-2.32,24.09-2.42,4.06-.1,6.19,1.55,7.35,4.74,0.29,0.77.1,1.45-1.06,1.26-7-.1-13.74,1.64-19.64,2.61-3.87,5.81-8.61,14.22-13.35,22.83a54.88,54.88,0,0,1,6.87-.77c4.84-.19,7,1.35,7.93,4.35,0.29,0.87.29,1.45-1,1.45-5.22,0-12.48,1.35-17.9,2.71-2.81,5.42-5.42,10.74-7.45,15.29a70.91,70.91,0,0,1,15-3c4.74-.19,7.16,1.35,8.22,4.26,0.29,0.87.19,1.45-1,1.45-5.42-.1-16,2.42-21.38,3.87-1.84.48-2.9,0.48-4.06-1a20.54,20.54,0,0,1-2-3.58c-0.87-1.65-.87-2.9.1-5.52,4.45-11.9,14.13-29.9,22.25-42.48A6.88,6.88,0,0,1,354.16,1407.25Z" transform="translate(-52.58 751.99)" fill="#fef0ed"/><path d="M372.64,1464.15c-0.39,1-1,1-1.64.19-1.35-1.45-2.42-4.74-.19-10.55,3.58-9.19,19.25-35,29.7-49.25,0.87-1.26,1.84-1.65,3.1-.58,3.77,3.29,4.84,6.68,2.32,14.32-3.1,9.29-6.58,20.61-10.26,34.15,10.55-17.22,24.67-31.64,35.32-48.18,0.87-1.36,1.64-1.45,2.81-.29,3.87,4,2.9,9.29.29,14.13-6.77,12.58-16.45,32.12-21.29,46.06-0.39,1-.77,1-1.55.29-1.55-1.26-2.71-4.16-1.06-10.55,1.45-5.71,7.64-19.25,13.93-31.35-11,13.35-22.25,28.16-29.22,41.12-0.48,1-1,1.26-1.74.68-3.19-2.32-4.64-5.71-3.68-11.71a246.08,246.08,0,0,1,8.32-31.74C389.18,1433.86,378.35,1451.18,372.64,1464.15Z" transform="translate(-52.58 751.99)" fill="#fef0ed"/><path d="M440.27,1409.67c-0.48-1.06-.19-1.55,1-1.64,6.77-.58,15.48-5.32,22-5.71,4.93-.29,9.68,1.26,11.42,7.84a17.85,17.85,0,0,1-3.39,16.16,39.68,39.68,0,0,1-15.09,11.51,11.62,11.62,0,0,1,4.64,4.06c2,3,1.93,8.71-2.23,13.26s-11.51,8-16.93,9c-3.68.68-6,.58-8.13-0.48a13.59,13.59,0,0,1-4.93-4.45c-1.45-2.13-2.42-3.68-.19-9.87,3.87-10.84,11.22-25,18.48-35.8C443,1413.35,440.95,1411.22,440.27,1409.67Zm5.52,31a10.87,10.87,0,0,1-6-.68,90.12,90.12,0,0,0-6.48,15c-1.06,3.39,0,4.55,3.1,4.16,6.19-.77,14.51-4.74,18.67-9.87,3.58-4.45,3.58-8.8-5.23-9.29C448.49,1440.25,447.14,1440.44,445.79,1440.64ZM471,1411c-1.93-5-11.51-.58-18.19,1.55,0.19,2.13-.48,5-2.9,9.48-1.94,3.58-4.74,8.13-7.55,13.06C461.56,1430.67,473.46,1417.61,471,1411Z" transform="translate(-52.58 751.99)" fill="#fef0ed"/><path d="M484.29,1407.25c-0.19-.87.1-1.26,1.06-1.16,8,0.48,18.67-2.32,24.09-2.42,4.06-.1,6.19,1.55,7.35,4.74,0.29,0.77.1,1.45-1.06,1.26-7-.1-13.74,1.64-19.64,2.61-3.87,5.81-8.61,14.22-13.35,22.83a54.88,54.88,0,0,1,6.87-.77c4.84-.19,7,1.35,7.93,4.35,0.29,0.87.29,1.45-1,1.45-5.22,0-12.48,1.35-17.9,2.71-2.81,5.42-5.42,10.74-7.45,15.29a70.92,70.92,0,0,1,15-3c4.74-.19,7.16,1.35,8.22,4.26,0.29,0.87.19,1.45-1,1.45-5.42-.1-16,2.42-21.38,3.87-1.84.48-2.9,0.48-4.06-1a20.54,20.54,0,0,1-2-3.58c-0.87-1.65-.87-2.9.1-5.52,4.45-11.9,14.13-29.9,22.25-42.48A6.88,6.88,0,0,1,484.29,1407.25Z" transform="translate(-52.58 751.99)" fill="#fef0ed"/><path d="M507.7,1463.28c-0.39,1-.87,1.06-1.55.39-1.35-1.45-2.32-4.35-.87-9.58,2.42-8.8,11.51-27.19,20-40.54a7.08,7.08,0,0,1-6.19-3.87c-0.48-1-.19-1.45,1.06-1.64,8.13-1,15.38-4.93,21.87-5.23,4.93-.19,9.19,1.26,11.51,7.84,2,5.8.68,11.71-3,16.64-5.22,7-15.67,13.06-26.41,15.58,3.68,4.55,7.16,9.19,9.19,13.25,1.35,2.61,1.74,5.9.48,7.84-0.48.77-1,1.06-1.55,0.19a252.49,252.49,0,0,0-16-20C513.7,1449.25,510.9,1455.34,507.7,1463.28Zm19.83-39.38c-2.61,4.64-5,8.71-7.64,13.45,21.38-4.74,32.32-18.87,29.51-25.74-2.13-5.42-11.8-.39-18.19,1.35C531.22,1415.67,530.15,1419.06,527.54,1423.9Z" transform="translate(-52.58 751.99)" fill="#fef0ed"/><path d="M590.72,1455.63c4.74-.1,7.55,1.64,8.61,4.64,0.29,0.87.29,1.45-1,1.45-5.61-.19-18.29,2.13-23.9,3.77-2.52.77-3.77,0.48-4.84-.68a11.91,11.91,0,0,1-2.42-4.06c-0.77-1.93-.48-2.61,1.55-3.87,25.93-15.48,48.76-39.77,42.09-47.22-4.45-4.93-12.48,5.51-15.67,10.35-3,4.55-5.42,6.68-9.68,6.48-1.26-.1-1.36-0.39-1-1.55,1.65-4.64,7.55-15,15.19-18.87,4.55-2.32,10.26-2.13,14,1.64,3.58,3.58,5.13,8.71,1.06,16.93-3.77,7.55-18.29,23.22-37.25,33.28A54.75,54.75,0,0,1,590.72,1455.63Z" transform="translate(-52.58 751.99)" fill="#fef0ed"/><path d="M625.16,1414.61c2.9-2.81,6.39-6.19,9.29-9.29a1.59,1.59,0,0,1,2.52,0c2.81,2.52,3,6.19-.68,13.16-5.61,10.74-16.35,28.64-24,46.93-0.39,1-1.06,1.16-1.74.39-1.55-1.74-2.32-4.74-.48-10.74s11.32-25.25,18.58-38.41C623.71,1416.93,624.29,1415.48,625.16,1414.61Z" transform="translate(-52.58 751.99)" fill="#fef0ed"/><path d="M645.38,1430.48c0.48-3.77,1.45-5.61,3.48-7.45s4.35-2.32,5.22-1.45,0.48,2-.77,4.26c-0.39.58-.68,1.16-1.06,1.84-0.68,8.9,1.16,16.45.87,23.13-0.19,3.77-.87,7.84-4.35,10.16,6.48-2.42,10.55-8.22,13-13.45a1,1,0,0,1,1.84,0c0.39,0.87.29,3.39-1.35,6.39a20.39,20.39,0,0,1-17.12,10.64c-5.61.19-11-1.26-14.32-7.26-2.32-4.35-2-10.74,1.26-13.45,1.16-1,1.94-.58,2,1,0.1,0.77.1,1.55,0.19,2.32A191.17,191.17,0,0,0,645.38,1430.48Zm-10.26,21.87c1.45,5.61,4.26,9.58,7.45,8.61,4.45-1.35,3-16.54,2.61-24.29A169.9,169.9,0,0,1,635.12,1452.34Z" transform="translate(-52.58 751.99)" fill="#fef0ed"/><path d="M665.5,1422.83c-1-1.36-.39-2,1.06-1.94a55.2,55.2,0,0,0,8-.39,124.07,124.07,0,0,1,7.35-12c0.87-1.26,1.84-1.16,2.32,0,1.06,2.71,1.06,5.9-1.26,10.93,3.77-.1,5.22,1.64,6,2.9s0.29,1.84-1.16,1.84a28.85,28.85,0,0,0-7.55.39c-3.77,6.48-9.29,15.87-13,24-3.19,7.06-2.13,13.06,1.94,13.26,4.35,0.19,9.87-6.68,13.45-13.93,0.58-1.16,1.64-1.35,2,0,0.48,1.55,0,3.29-1,5.51-1.26,2.81-7.64,11.32-15.38,11-6.38-.19-11.51-7.35-6.87-18.48,2-4.84,6.1-13,10.26-20.61C668.5,1425.35,666.28,1423.9,665.5,1422.83Z" transform="translate(-52.58 751.99)" fill="#fef0ed"/><path d="M230.06,1411.45c-0.39-1.06-.29-1.65,1-1.84,6.68-.87,11.51-4.74,17.8-5.71s11,2.23,14.61,8.51c8.9,15.48-8.32,43.73-34.25,52.35-2.81,1-4.55.68-6.19-.68a20.85,20.85,0,0,1-4.06-4.16c-1.84-2.52-2.32-4-.29-10.26,3-9.09,11-24.19,17.71-34.15A7,7,0,0,1,230.06,1411.45Zm8.9,13.25c-4.84,8.61-12.67,21.48-15.48,30.38-1.26,4.06-.58,5.42,2.32,4.35,26.41-10.06,38.61-37.73,32.9-46.83-3.39-5.42-10.45-.29-17.22,1.93C242,1417,241.38,1420.45,239,1424.7Z" transform="translate(-52.58 751.99)" fill="#e64d61"/><path d="M278.82,1408.25c-0.19-.87.1-1.26,1.06-1.16,8,0.48,18.67-2.32,24.09-2.42,4.06-.1,6.19,1.55,7.35,4.74,0.29,0.77.1,1.45-1.06,1.26-7-.1-13.74,1.64-19.64,2.61-3.87,5.81-8.61,14.22-13.35,22.83a54.88,54.88,0,0,1,6.87-.77c4.84-.19,7,1.35,7.93,4.35,0.29,0.87.29,1.45-1,1.45-5.22,0-12.48,1.35-17.9,2.71-2.81,5.42-5.42,10.74-7.45,15.29a70.91,70.91,0,0,1,15-3c4.74-.19,7.16,1.35,8.22,4.26,0.29,0.87.19,1.45-1,1.45-5.42-.1-16,2.42-21.38,3.87-1.84.48-2.9,0.48-4.06-1a20.54,20.54,0,0,1-2-3.58c-0.87-1.65-.87-2.9.1-5.52,4.45-11.9,14.13-29.9,22.25-42.48A6.88,6.88,0,0,1,278.82,1408.25Z" transform="translate(-52.58 751.99)" fill="#e64d61"/><path d="M336,1444.25c2.42,6.48-3.77,13.74-7.84,16.64-6.87,4.93-15,4.84-20.22,2-4.35-2.32-8.13-8.32-8.32-16.25-0.39-20.51,16.84-38,27.67-42.19,5.22-2,10-2.42,13.06.29a17.93,17.93,0,0,1,5.13,7.06,11.08,11.08,0,0,1-.87,8.51c-1.45,3-2.81,6.77-3.87,9.58a1.26,1.26,0,0,1-2.13.58c-2.23-1.45-3.77-4.45-2.32-9.29,1.55-5.13,5-10.64,2.81-13-2.71-2.9-17.42,4.93-26.12,19.35-8.51,14.13-7.55,28.45-2.81,32.32,6.19,5,16.45-1.45,23.8-15.87C334.46,1443,335.52,1443,336,1444.25Z" transform="translate(-52.58 751.99)" fill="#e64d61"/><path d="M358.16,1408.25c-0.19-.87.1-1.26,1.06-1.16,8,0.48,18.67-2.32,24.09-2.42,4.06-.1,6.19,1.55,7.35,4.74,0.29,0.77.1,1.45-1.06,1.26-7-.1-13.74,1.64-19.64,2.61-3.87,5.81-8.61,14.22-13.35,22.83a54.88,54.88,0,0,1,6.87-.77c4.84-.19,7,1.35,7.93,4.35,0.29,0.87.29,1.45-1,1.45-5.22,0-12.48,1.35-17.9,2.71-2.81,5.42-5.42,10.74-7.45,15.29a70.91,70.91,0,0,1,15-3c4.74-.19,7.16,1.35,8.22,4.26,0.29,0.87.19,1.45-1,1.45-5.42-.1-16,2.42-21.38,3.87-1.84.48-2.9,0.48-4.06-1a20.54,20.54,0,0,1-2-3.58c-0.87-1.65-.87-2.9.1-5.52,4.45-11.9,14.13-29.9,22.25-42.48A6.88,6.88,0,0,1,358.16,1408.25Z" transform="translate(-52.58 751.99)" fill="#e64d61"/><path d="M376.64,1465.15c-0.39,1-1,1-1.64.19-1.35-1.45-2.42-4.74-.19-10.55,3.58-9.19,19.25-35,29.7-49.25,0.87-1.26,1.84-1.65,3.1-.58,3.77,3.29,4.84,6.68,2.32,14.32-3.1,9.29-6.58,20.61-10.26,34.15,10.55-17.22,24.67-31.64,35.32-48.18,0.87-1.36,1.64-1.45,2.81-.29,3.87,4,2.9,9.29.29,14.13-6.77,12.58-16.45,32.12-21.29,46.06-0.39,1-.77,1-1.55.29-1.55-1.26-2.71-4.16-1.06-10.55,1.45-5.71,7.64-19.25,13.93-31.35-11,13.35-22.25,28.16-29.22,41.12-0.48,1-1,1.26-1.74.68-3.19-2.32-4.64-5.71-3.68-11.71a246.08,246.08,0,0,1,8.32-31.74C393.18,1434.86,382.35,1452.18,376.64,1465.15Z" transform="translate(-52.58 751.99)" fill="#e64d61"/><path d="M444.27,1410.67c-0.48-1.06-.19-1.55,1-1.64,6.77-.58,15.48-5.32,22-5.71,4.93-.29,9.68,1.26,11.42,7.84a17.85,17.85,0,0,1-3.39,16.16,39.68,39.68,0,0,1-15.09,11.51,11.62,11.62,0,0,1,4.64,4.06c2,3,1.93,8.71-2.23,13.26s-11.51,8-16.93,9c-3.68.68-6,.58-8.13-0.48a13.59,13.59,0,0,1-4.93-4.45c-1.45-2.13-2.42-3.68-.19-9.87,3.87-10.84,11.22-25,18.48-35.8C447,1414.35,444.95,1412.22,444.27,1410.67Zm5.52,31a10.87,10.87,0,0,1-6-.68,90.12,90.12,0,0,0-6.48,15c-1.06,3.39,0,4.55,3.1,4.16,6.19-.77,14.51-4.74,18.67-9.87,3.58-4.45,3.58-8.8-5.23-9.29C452.49,1441.25,451.14,1441.44,449.79,1441.64ZM475,1412c-1.93-5-11.51-.58-18.19,1.55,0.19,2.13-.48,5-2.9,9.48-1.94,3.58-4.74,8.13-7.55,13.06C465.56,1431.67,477.46,1418.61,475,1412Z" transform="translate(-52.58 751.99)" fill="#e64d61"/><path d="M488.29,1408.25c-0.19-.87.1-1.26,1.06-1.16,8,0.48,18.67-2.32,24.09-2.42,4.06-.1,6.19,1.55,7.35,4.74,0.29,0.77.1,1.45-1.06,1.26-7-.1-13.74,1.64-19.64,2.61-3.87,5.81-8.61,14.22-13.35,22.83a54.88,54.88,0,0,1,6.87-.77c4.84-.19,7,1.35,7.93,4.35,0.29,0.87.29,1.45-1,1.45-5.22,0-12.48,1.35-17.9,2.71-2.81,5.42-5.42,10.74-7.45,15.29a70.92,70.92,0,0,1,15-3c4.74-.19,7.16,1.35,8.22,4.26,0.29,0.87.19,1.45-1,1.45-5.42-.1-16,2.42-21.38,3.87-1.84.48-2.9,0.48-4.06-1a20.54,20.54,0,0,1-2-3.58c-0.87-1.65-.87-2.9.1-5.52,4.45-11.9,14.13-29.9,22.25-42.48A6.88,6.88,0,0,1,488.29,1408.25Z" transform="translate(-52.58 751.99)" fill="#e64d61"/><path d="M511.7,1464.28c-0.39,1-.87,1.06-1.55.39-1.35-1.45-2.32-4.35-.87-9.58,2.42-8.8,11.51-27.19,20-40.54a7.08,7.08,0,0,1-6.19-3.87c-0.48-1-.19-1.45,1.06-1.64,8.13-1,15.38-4.93,21.87-5.23,4.93-.19,9.19,1.26,11.51,7.84,2,5.8.68,11.71-3,16.64-5.22,7-15.67,13.06-26.41,15.58,3.68,4.55,7.16,9.19,9.19,13.25,1.35,2.61,1.74,5.9.48,7.84-0.48.77-1,1.06-1.55,0.19a252.49,252.49,0,0,0-16-20C517.7,1450.25,514.9,1456.34,511.7,1464.28Zm19.83-39.38c-2.61,4.64-5,8.71-7.64,13.45,21.38-4.74,32.32-18.87,29.51-25.74-2.13-5.42-11.8-.39-18.19,1.35C535.22,1416.67,534.15,1420.06,531.54,1424.9Z" transform="translate(-52.58 751.99)" fill="#e64d61"/><path d="M594.72,1456.63c4.74-.1,7.55,1.64,8.61,4.64,0.29,0.87.29,1.45-1,1.45-5.61-.19-18.29,2.13-23.9,3.77-2.52.77-3.77,0.48-4.84-.68a11.91,11.91,0,0,1-2.42-4.06c-0.77-1.93-.48-2.61,1.55-3.87,25.93-15.48,48.76-39.77,42.09-47.22-4.45-4.93-12.48,5.51-15.67,10.35-3,4.55-5.42,6.68-9.68,6.48-1.26-.1-1.36-0.39-1-1.55,1.65-4.64,7.55-15,15.19-18.87,4.55-2.32,10.26-2.13,14,1.64,3.58,3.58,5.13,8.71,1.06,16.93-3.77,7.55-18.29,23.22-37.25,33.28A54.75,54.75,0,0,1,594.72,1456.63Z" transform="translate(-52.58 751.99)" fill="#e64d61"/><path d="M629.16,1415.61c2.9-2.81,6.39-6.19,9.29-9.29a1.59,1.59,0,0,1,2.52,0c2.81,2.52,3,6.19-.68,13.16-5.61,10.74-16.35,28.64-24,46.93-0.39,1-1.06,1.16-1.74.39-1.55-1.74-2.32-4.74-.48-10.74s11.32-25.25,18.58-38.41C627.71,1417.93,628.29,1416.48,629.16,1415.61Z" transform="translate(-52.58 751.99)" fill="#e64d61"/><path d="M649.38,1431.48c0.48-3.77,1.45-5.61,3.48-7.45s4.35-2.32,5.22-1.45,0.48,2-.77,4.26c-0.39.58-.68,1.16-1.06,1.84-0.68,8.9,1.16,16.45.87,23.13-0.19,3.77-.87,7.84-4.35,10.16,6.48-2.42,10.55-8.22,13-13.45a1,1,0,0,1,1.84,0c0.39,0.87.29,3.39-1.35,6.39a20.39,20.39,0,0,1-17.12,10.64c-5.61.19-11-1.26-14.32-7.26-2.32-4.35-2-10.74,1.26-13.45,1.16-1,1.94-.58,2,1,0.1,0.77.1,1.55,0.19,2.32A191.17,191.17,0,0,0,649.38,1431.48Zm-10.26,21.87c1.45,5.61,4.26,9.58,7.45,8.61,4.45-1.35,3-16.54,2.61-24.29A169.9,169.9,0,0,1,639.12,1453.34Z" transform="translate(-52.58 751.99)" fill="#e64d61"/><path d="M669.5,1423.83c-1-1.36-.39-2,1.06-1.94a55.2,55.2,0,0,0,8-.39,124.07,124.07,0,0,1,7.35-12c0.87-1.26,1.84-1.16,2.32,0,1.06,2.71,1.06,5.9-1.26,10.93,3.77-.1,5.22,1.64,6,2.9s0.29,1.84-1.16,1.84a28.85,28.85,0,0,0-7.55.39c-3.77,6.48-9.29,15.87-13,24-3.19,7.06-2.13,13.06,1.94,13.26,4.35,0.19,9.87-6.68,13.45-13.93,0.58-1.16,1.64-1.35,2,0,0.48,1.55,0,3.29-1,5.51-1.26,2.81-7.64,11.32-15.38,11-6.38-.19-11.51-7.35-6.87-18.48,2-4.84,6.1-13,10.26-20.61C672.5,1426.35,670.28,1424.9,669.5,1423.83Z" transform="translate(-52.58 751.99)" fill="#e64d61"/><g id="orn-date"><circle cx="69.01" cy="2324.02" r="69.01" fill="#e64d61" style="mix-blend-mode:multiply"/><circle cx="73.01" cy="2323.02" r="69.01" fill="#e64d61"/><path d="M136.83,1476.46c-0.08,0-45.75,2.83-45.5,3.25,2.77,4.61-1.93,17.91-1.75,17.5l4.84-6.2c1.53,2,4.7,6.77,4.8,6.37a50.8,50.8,0,0,1,2.87-8.11c1.21,2.43,4.3,7.6,4.48,7.28a42.69,42.69,0,0,0,3.17-7,59.83,59.83,0,0,0,4.31,6.12c-0.07-.13,3.41-5.9,4.11-7.61,1.33,1.64,5.43,7,5.82,6.86,0.1,0,1.47-6.61,2.35-8.19,1.33,1.59,4.86,8.36,5,8a48.9,48.9,0,0,0,2.27-7.17c1.58,1.52,7.39,7.75,6,5.92C136.33,1489.21,136.94,1476.46,136.83,1476.46Z" transform="translate(-52.58 751.99)" fill="none" stroke="#00cdbd" stroke-miterlimit="10"/><path d="M124.05,1450.28a64.6,64.6,0,0,0-8.42,4.29,93.46,93.46,0,0,0-9-5.36c-1-.48-2.61-0.93-2.61-0.55,0,1.45-.27,5.28-0.19,6.56a28.18,28.18,0,0,0,1.19,7,0.5,0.5,0,0,0,.73.3c3.23-2.16,6.45-4.53,9.77-6.71,0.85,0.83,1.91,1.41,2.74,2.3,1,1.07,6.24,6.07,6.25,5.7C124.69,1459.81,124.31,1450.17,124.05,1450.28Zm-18.3,11a29.74,29.74,0,0,1-1.19-9.6c0.18-3.2-.25-2.53,1.36-1.76,0,0,8.47,4.7,8.87,5.14C111.73,1457.13,108.75,1459.3,105.76,1461.32Zm14.17-2.79a45.3,45.3,0,0,1-3.58-3.24,58.45,58.45,0,0,1,6.89-3.85,59.9,59.9,0,0,1,.52,10.21C122.41,1460.63,121.27,1459.54,119.93,1458.53Z" transform="translate(-52.58 751.99)" fill="#00cdbd"/><path d="M113.35,1477.29s-3-2125.28-4-2229.28" transform="translate(-52.58 751.99)" fill="none" stroke="#00cdbd" stroke-miterlimit="10"/><text transform="matrix(0.99, -0.13, 0.13, 0.99, 11.38, 2348.63)" font-size="55.81" fill="none" stroke="#ffd2d1" stroke-miterlimit="10" stroke-width="2" font-family="DIN Next LT Pro" font-style="italic"><tspan letter-spacing="1">WE</tspan><tspan x="80.81" y="0">D</tspan><tspan x="115.19" y="0">.</tspan></text><path d="M159.87,1514.85c-7,4.84-16.82-4.1-24.87-1.32-3.06,1.06-4.82,3.29-7.1,5.09a18.39,18.39,0,0,1-14.44,3.38c-6.15-1.15-10.28-5.61-16.53-2-3.54,2.06-5.53,5.28-9.66,6.76a16.16,16.16,0,0,1-14.64-2.07c-1.41-1-3.53.63-2.12,1.68a19.94,19.94,0,0,0,19.9,1.8c3.58-1.77,5.58-5.43,9.38-6.84,4.4-1.64,10,2.7,14.63,3.18a23.22,23.22,0,0,0,10.86-1.46c4.15-1.66,6-5.07,9.84-6.91,5.74-2.77,12.43,1.72,18.21,2.3a12.28,12.28,0,0,0,8.66-1.93C163.44,1515.52,161.31,1513.85,159.87,1514.85Z" transform="translate(-52.58 751.99)" fill="#ffd2d1"/><path d="M179,1611.79c-5.81-4.85-13.27-.35-18.05,3.34-2.37,1.83-5.17,4.13-8.57,4.29-3.08.15-5.55-1.71-8-3-3.38-1.84-6.82-2.84-10.77-1.68s-6.85,3.8-9.72,6.18a19.55,19.55,0,0,1-7.26,4.27c-4.65,1.24-6.4-1.11-9.72-3.25-7.41-4.79-15.62.8-20.82,5.33-1.35,1.18.77,3,2.12,1.82,3.75-3.27,8.51-7.41,14.35-6,4.11,1,5.72,4.82,10.29,5.19,7.69,0.62,12.48-5.7,17.87-9.17s9.26-1.87,14.48.9c2.68,1.42,5.46,2.41,8.68,1.87,6.81-1.15,16.05-14,23-8.21C178.3,1614.76,180.43,1612.94,179,1611.79Z" transform="translate(-52.58 751.99)" fill="#ffd2d1"/><path d="M85.32,1522.29a1.5,1.5,0,0,0,0,3A1.5,1.5,0,0,0,85.32,1522.29Z" transform="translate(-52.58 751.99)" fill="#ffd2d1"/><path d="M103.32,1530.29a1.5,1.5,0,0,0,0,3A1.5,1.5,0,0,0,103.32,1530.29Z" transform="translate(-52.58 751.99)" fill="#ffd2d1"/><path d="M117.32,1513.29a1.5,1.5,0,0,0,0,3A1.5,1.5,0,0,0,117.32,1513.29Z" transform="translate(-52.58 751.99)" fill="#ffd2d1"/><path d="M141.32,1521.29a1.5,1.5,0,0,0,0,3A1.5,1.5,0,0,0,141.32,1521.29Z" transform="translate(-52.58 751.99)" fill="#ffd2d1"/><path d="M114.32,1618.29a1.5,1.5,0,0,0,0,3A1.5,1.5,0,0,0,114.32,1618.29Z" transform="translate(-52.58 751.99)" fill="#ffd2d1"/><path d="M133.32,1629.29a1.5,1.5,0,0,0,0,3A1.5,1.5,0,0,0,133.32,1629.29Z" transform="translate(-52.58 751.99)" fill="#ffd2d1"/><path d="M151.32,1612.29a1.5,1.5,0,0,0,0,3A1.5,1.5,0,0,0,151.32,1612.29Z" transform="translate(-52.58 751.99)" fill="#ffd2d1"/></g></g></g></svg>