<svg id="Layer_1" data-name="Layer 1" xmlns="http://www.w3.org/2000/svg" viewBox="0 0 758.95 97.16"><title>holiday_land_fun_time_address-large</title><path d="M678.71,67.25c-0.24-1.05.12-1.52,1.29-1.41,9.73,0.59,22.62-2.81,29.18-2.93,4.92-.12,7.5,1.88,8.91,5.74,0.35,0.94.12,1.76-1.29,1.52-8.44-.12-16.64,2-23.79,3.17-4.69,7-10.43,17.23-16.17,27.66a66.51,66.51,0,0,1,8.32-.94c5.86-.23,8.44,1.64,9.61,5.27,0.35,1.05.35,1.76-1.17,1.76-6.33,0-15.12,1.64-21.68,3.28-3.4,6.56-6.56,13-9,18.52a85.92,85.92,0,0,1,18.17-3.63c5.74-.23,8.67,1.64,10,5.16,0.35,1.06.23,1.76-1.17,1.76-6.56-.12-19.34,2.93-25.9,4.69-2.23.59-3.52,0.59-4.92-1.17a24.85,24.85,0,0,1-2.46-4.34c-1.05-2-1.05-3.52.12-6.68,5.39-14.42,17.11-36.22,27-51.45C680.71,72.05,679.42,69.71,678.71,67.25Z" transform="translate(-58.07 -42.2)" fill="#e64d61"/><path d="M739.89,89.52q1.58-2.29,2.81-.7c1.76,2.11,2.7,7.15-.12,13-2.58,5.27-8.44,14.06-11.25,20.28-2.93,6.56-3,11.6.94,11.37,4.81-.23,11.25-8.2,15.35-16.29,0.59-1.05,1.41-1.17,1.88-.12s0.47,4-1.05,7.27c-3,6.45-10.43,12.89-16.88,12.54s-9.61-4.1-9.61-9.61c-3.75,4.81-9,9.14-14.65,9.14-10.9,0-13.13-14.88-3.4-29.07,9.49-13.83,18.75-19.1,24.61-19.1,5,0,7.38,3.87,7.15,8.44C737.2,93.85,738.6,91.39,739.89,89.52Zm-9.38,4.81c-3.75-.35-12.31,7.27-18.75,17.7-6.21,10.08-7.74,20.39-3.17,20.51,4.81,0.12,10.9-7.38,16.88-17.7C732.86,101.94,733.91,94.67,730.52,94.32Z" transform="translate(-58.07 -42.2)" fill="#e64d61"/><path d="M763.45,95.38c0.59-4.57,1.76-6.8,4.22-9s5.27-2.81,6.33-1.76,0.59,2.46-.94,5.16c-0.47.7-.82,1.41-1.29,2.23-0.82,10.78,1.41,19.92,1.05,28-0.23,4.57-1.05,9.49-5.27,12.31,7.85-2.93,12.78-10,15.71-16.29,0.59-1.29,1.76-.94,2.23,0s0.35,4.1-1.64,7.74a24.69,24.69,0,0,1-20.74,12.89c-6.8.23-13.36-1.52-17.35-8.79-2.81-5.27-2.46-13,1.52-16.29,1.41-1.17,2.34-.7,2.46,1.17,0.12,0.94.12,1.88,0.23,2.81A231.93,231.93,0,0,0,763.45,95.38ZM751,121.86c1.76,6.8,5.16,11.6,9,10.43,5.39-1.64,3.63-20,3.16-29.42A205.73,205.73,0,0,1,751,121.86Z" transform="translate(-58.07 -42.2)" fill="#e64d61"/><path d="M787.82,86.12c-1.17-1.64-.47-2.46,1.29-2.34a66.83,66.83,0,0,0,9.73-.47,150.67,150.67,0,0,1,8.91-14.53c1.05-1.52,2.23-1.41,2.81,0,1.29,3.28,1.29,7.15-1.52,13.24,4.57-.12,6.33,2,7.27,3.52s0.35,2.23-1.41,2.23a35,35,0,0,0-9.14.47c-4.57,7.85-11.25,19.22-15.71,29.07-3.87,8.56-2.58,15.82,2.34,16.06,5.27,0.23,12-8.09,16.29-16.88,0.7-1.41,2-1.64,2.46,0,0.59,1.88,0,4-1.17,6.68-1.52,3.4-9.26,13.71-18.64,13.36-7.73-.23-13.95-8.91-8.32-22.39,2.46-5.86,7.38-15.71,12.42-25C791.45,89.16,788.76,87.41,787.82,86.12Z" transform="translate(-58.07 -42.2)" fill="#e64d61"/><path d="M58.42,123.46a2.19,2.19,0,0,1,.59-1.64L87,90.41c2.93-3.28,4.34-6.21,4.34-9.85,0-4.57-2.58-7.74-7.15-7.74s-7.38,2.7-8,8.91a1,1,0,0,1-1.29,1.05L59.47,80.44A1.13,1.13,0,0,1,58.53,79c0.7-12.66,11-22.39,26.49-22.39s25.67,10,25.67,23.21c0,8.32-3.28,14.42-8.67,20.16l-19,21.1v0.23h26.49a1.11,1.11,0,0,1,1.17,1.17v14.06a1.11,1.11,0,0,1-1.17,1.17H59.59a1.11,1.11,0,0,1-1.17-1.17V123.46Z" transform="translate(-58.07 -42.2)" fill="#e64d61" stroke="#e64d61" stroke-miterlimit="10" stroke-width="0.2"/><path d="M122.11,97.91c0-16.88.59-20.28,1.88-24.14C127.5,63,136.29,56.65,149.42,56.65S171.33,63,175,73.76c1.17,3.87,1.76,7.27,1.76,24.14s-0.59,20.28-1.76,24.14c-3.63,10.78-12.31,17.11-25.55,17.11S127.5,132.83,124,122.05C122.69,118.18,122.11,114.78,122.11,97.91ZM149.42,123c3.4,0,5.63-1.41,6.56-4.34,0.59-1.87.82-3.63,0.82-20.74S156.57,79,156,77.16c-0.94-2.93-3.16-4.34-6.56-4.34s-5.51,1.41-6.45,4.34C142.27,79,142,80.8,142,97.91s0.23,18.87.94,20.74C143.91,121.58,146,123,149.42,123Z" transform="translate(-58.07 -42.2)" fill="#e64d61" stroke="#e64d61" stroke-miterlimit="10" stroke-width="0.2"/><path d="M203.24,79.39H203L189.53,88.3c-0.7.47-1.41,0.23-1.41-.7V70.48a1.9,1.9,0,0,1,.82-1.64l14.3-10.08a3.27,3.27,0,0,1,2.11-.7h16.29a1.11,1.11,0,0,1,1.17,1.17v77.35a1.11,1.11,0,0,1-1.17,1.17H204.41a1.11,1.11,0,0,1-1.17-1.17V79.39Z" transform="translate(-58.07 -42.2)" fill="#e64d61" stroke="#e64d61" stroke-miterlimit="10" stroke-width="0.2"/><path d="M283,79.39h-0.23L269.29,88.3c-0.7.47-1.41,0.23-1.41-.7V70.48a1.9,1.9,0,0,1,.82-1.64L283,58.76a3.27,3.27,0,0,1,2.11-.7H301.4a1.11,1.11,0,0,1,1.17,1.17v77.35a1.11,1.11,0,0,1-1.17,1.17H284.17a1.11,1.11,0,0,1-1.17-1.17V79.39Z" transform="translate(-58.07 -42.2)" fill="#e64d61" stroke="#e64d61" stroke-miterlimit="10" stroke-width="0.2"/><path d="M355.47,75.4V75.05H341.75a0.62,0.62,0,0,0-.7.7v7.5a1.11,1.11,0,0,1-1.17,1.17H323.94a1.11,1.11,0,0,1-1.17-1.17v-24a1.11,1.11,0,0,1,1.17-1.17h50.75a1.11,1.11,0,0,1,1.17,1.17V74.7a3.47,3.47,0,0,1-.23,1.17l-24.26,60.71a1.43,1.43,0,0,1-1.64,1.17H331.79a0.94,0.94,0,0,1-.94-1.29Z" transform="translate(-58.07 -42.2)" fill="#e64d61" stroke="#e64d61" stroke-miterlimit="10" stroke-width="0.2"/><path d="M448.31,60.73a1.52,1.52,0,0,1,1.52-1.17h19.1a1.52,1.52,0,0,1,1.52,1.17l27,77.35a0.8,0.8,0,0,1-.82,1.17H477.26a1.52,1.52,0,0,1-1.52-1.17L472,125.78h-25.9l-3.75,12.31a1.52,1.52,0,0,1-1.52,1.17H421.59a0.8,0.8,0,0,1-.82-1.17Zm18.52,47.94-7.38-24.85H459.1l-7.74,24.85h15.47Z" transform="translate(-58.07 -42.2)" fill="#e64d61" stroke="#e64d61" stroke-miterlimit="10" stroke-width="0.2"/><path d="M515.27,139.26a1.41,1.41,0,0,1-1.52-1.17L488.32,60.85a1,1,0,0,1,1.06-1.29h19.22a1.41,1.41,0,0,1,1.52,1.17l14.18,48.05h0.35l13.71-48.05a1.41,1.41,0,0,1,1.52-1.17H559a0.91,0.91,0,0,1,.94,1.29l-25.43,77.24a1.41,1.41,0,0,1-1.52,1.17h-17.7Z" transform="translate(-58.07 -42.2)" fill="#e64d61" stroke="#e64d61" stroke-miterlimit="10" stroke-width="0.2"/><path d="M567.43,60.73a1.11,1.11,0,0,1,1.17-1.17h52.16a1.11,1.11,0,0,1,1.17,1.17V75.85A1.11,1.11,0,0,1,620.75,77h-32a0.62,0.62,0,0,0-.7.7V89.8a0.62,0.62,0,0,0,.7.7H615a1.11,1.11,0,0,1,1.17,1.17v14.77a1.11,1.11,0,0,1-1.17,1.17H588.76a0.62,0.62,0,0,0-.7.7v12.77a0.62,0.62,0,0,0,.7.7h32a1.11,1.11,0,0,1,1.17,1.17v15.12a1.11,1.11,0,0,1-1.17,1.17H568.6a1.11,1.11,0,0,1-1.17-1.17V60.73Z" transform="translate(-58.07 -42.2)" fill="#e64d61" stroke="#e64d61" stroke-miterlimit="10" stroke-width="0.2"/><path d="M89.55,47.39c-2.75-1.23-5.68-2.14-8.6-.92-1.37.57-1.7,1.32-3,2-2.59,1.46-4.25.43-6.8,0.83-4.42.7-6,4.11-8,7.27a11.2,11.2,0,0,0-4.83,5.36c-0.91,2.08.37,4.89,2.39,5.35,0,0.11,0,.21,0,0.32,0.33,2,2.61,2.69,4.31,2.44a6.2,6.2,0,0,0,4.75-3.67,7.69,7.69,0,0,0,.69-1.81c0.85,0.33,2,.69,1.85.67,2.51,0.38,4.4-1.29,6.79-1.31,1.07,0,2.26.37,3.36,0.4,2.32,0.07,4.62-1.43,5.68,1.79a3.53,3.53,0,0,0,6.75,0c0.22-.66.4-1.3,0.54-1.94a4.51,4.51,0,0,0,3.72.43,6.69,6.69,0,0,0,4.45-5.76C104.39,51.4,94.52,49.61,89.55,47.39Z" transform="translate(-58.07 -42.2)" fill="#fef0ed"/><path d="M168.12,59.12c-0.75-2.23-2.57-3-4.29-4.27-2.19-1.66-2.9-4.27-5.09-5.93-5.2-4-8.83,2.32-13.45,3.61-3.43,1-6.47,1-9.6,2.9l-0.41.27a10,10,0,0,0-5,4c-3.87,2-7.51,5.51-7.07,9.88,0.52,5.26,6.91,5.69,10.71,3.68,2.61-1.38,4.46-3.65,6.49-5.71,1.83-1.85,3-3,5.67-2.39a13.06,13.06,0,0,0,2.74.82,6.37,6.37,0,0,0,2.36-.67,6,6,0,0,0,2.87.4,10.61,10.61,0,0,0,1.17.7c2.36,1.17,4.23.15,6.56,0,2.14-.12,3.67.5,5.32-1.35A6.22,6.22,0,0,0,168.12,59.12Z" transform="translate(-58.07 -42.2)" fill="#fef0ed"/><path d="M221.82,54.64c-1.05-.42-2.32-0.11-3.32-0.5L218.06,54a3.85,3.85,0,0,0-.59-0.64c-1.94-1.82-3.8-2.57-6.4-1.33-1.42.68-2,1.22-3.63,1.34s-2.81,0-4.2.81A5.65,5.65,0,0,0,200.79,57l-1.12.07c-4.47.28-4.51,7.29,0,7,4.28-.27,8.74-1,13-0.83,2.76,0.08,5.45,1.82,8.27,1.08C225.86,63.07,226.62,56.56,221.82,54.64Z" transform="translate(-58.07 -42.2)" fill="#fef0ed"/><path d="M304.17,56.76c-0.39-3.31-2.94-3.47-4.79-5.49-1.69-1.84-2-4.23-4.88-4.77a6.18,6.18,0,0,0-6.68,4.21,3.68,3.68,0,0,1-.38.81,3.9,3.9,0,0,0-.77-0.24,4.75,4.75,0,0,0-4,1.17c-2.45,2.13-3.28,6-3.15,9.06a3.53,3.53,0,0,0,4.34,3.3A3.6,3.6,0,0,0,285,65a3.48,3.48,0,0,0,1.57-.36,6.05,6.05,0,0,0,3.08-.41c0.78-.31,1.51-1.07,2.29-1.3a8,8,0,0,1,3.44.23,9,9,0,0,0,4.15-.14C302.29,62.2,304.52,59.73,304.17,56.76Z" transform="translate(-58.07 -42.2)" fill="#fef0ed"/><path d="M374.29,50.75c-2-1.83-4.61-2-7.12-2.31a60.06,60.06,0,0,1-11.6-2.73c-6.06-2-13.09-5.12-19.39-2.52-5.8,2.39-10.42,7.56-13.59,12.83a3.16,3.16,0,0,0-.42,1.28,2.8,2.8,0,0,0-1.4,3.77c3.53,8.93,12.45,1.75,18.68,1.2a68.34,68.34,0,0,1,16.91.8,13.33,13.33,0,0,0,6.1-.34c2.17-.68,5.14-3.33,7.42-1.9a3.47,3.47,0,0,0,3.53,0A6.32,6.32,0,0,0,374.29,50.75Z" transform="translate(-58.07 -42.2)" fill="#fef0ed"/><path d="M385.52,59.92c-0.47-.66-0.19-1,0.52-0.95a27.08,27.08,0,0,0,3.94-.19,60.79,60.79,0,0,1,3.61-5.88c0.43-.62.9-0.57,1.14,0,0.52,1.33.52,2.89-.62,5.36A3,3,0,0,1,397,59.68c0.33,0.57.14,0.9-.57,0.9a14.16,14.16,0,0,0-3.7.19c-1.85,3.18-4.55,7.78-6.36,11.77-1.57,3.46-1,6.4.95,6.5s4.84-3.27,6.59-6.83c0.28-.57.81-0.66,1,0a4,4,0,0,1-.47,2.7c-0.62,1.38-3.75,5.55-7.54,5.41-3.13-.09-5.65-3.61-3.37-9.06,1-2.37,3-6.36,5-10.1A3.92,3.92,0,0,1,385.52,59.92Z" transform="translate(-58.07 -42.2)" fill="#e64d61"/><path d="M404.73,80.37c-4,0-5-2.89-3.56-7,1.57-4.6,5.69-9.54,4.93-10s-5.83,2.85-8.59,7.35a62.15,62.15,0,0,0-4.6,9c-0.19.43-.52,0.52-0.81,0.19-0.76-.85-1.19-2.18-0.19-5,1.66-4.74,11.53-21.44,15.37-26.23,0.43-.57.9-0.52,1.14,0,0.62,1.38.47,3.75-1.33,6.74-1.14,1.9-3.65,5.74-5.69,8.92,1.95-1.9,4.41-3.46,5.69-3.32,1.61,0.19,3.08,2.56,1.85,5-1,2.09-3.32,5.55-4.41,8-1.19,2.75-.95,5,0.81,4.89,1.95-.09,4.55-3.51,6-6.55a0.45,0.45,0,0,1,.85,0,3.64,3.64,0,0,1-.47,2.94C410.42,78,407.53,80.37,404.73,80.37Z" transform="translate(-58.07 -42.2)" fill="#e64d61"/><path d="M472.15,58.21c-1.45-2.95-3.54-7.66-6.81-9-1.91-.76-3.27-0.07-4.87,1a9.4,9.4,0,0,1-5,1.56c-3.29.36-6.67,1.5-8.05,4.79a6.35,6.35,0,0,0,2.46,8c0.09,0.06.18,0.09,0.28,0.14a5.72,5.72,0,0,0,1.51,1.15c3.29,1.73,6.45.22,9.46-1.21,3.61-1.73,7.21,1,10.51-2.21A3.6,3.6,0,0,0,472.15,58.21Z" transform="translate(-58.07 -42.2)" fill="#fef0ed"/><path d="M507.66,53a5.55,5.55,0,0,0-4.39-.27c0-2.08-1.72-4.19-4.32-3.46-3.29.92-6.54,2.27-8.26,5.31a6.76,6.76,0,0,0-1.9,1.07c-2.54,2-2.8,5.72.1,7.48a3.12,3.12,0,0,0,3,.25,7.31,7.31,0,0,0,.61.54c4.88,3.63,15.44,3.9,18.17-2.54A6.52,6.52,0,0,0,507.66,53Z" transform="translate(-58.07 -42.2)" fill="#fef0ed"/><path d="M558.65,53A7.77,7.77,0,0,0,553,50.82c-2.67,0-4.22,1.86-6.53,2.4q0.81,0.7-.51-0.33a3.68,3.68,0,0,0-1.36-.46,5.44,5.44,0,0,0-3.43.19c-2.68,1-3.38,3.77-5.64,5.14-3.19,1.94-1.31,6.43,1.63,6.56a2.7,2.7,0,0,0,3.1,1.89c5.17-.67,12.4-0.3,17-3.07A6.42,6.42,0,0,0,558.65,53Z" transform="translate(-58.07 -42.2)" fill="#fef0ed"/><path d="M622.33,58c-0.54-4.46-3.66-9.19-8.3-9.79-1.93-.25-3.49.53-5.36,0.66-2.13.16-3.62-.62-5.44-1.62-3-1.63-5.52-3.18-9-3.7a18.56,18.56,0,0,0-9.17,1,21.87,21.87,0,0,0-3.47,1.73A10.09,10.09,0,0,1,576,47.9,12.8,12.8,0,0,0,564.25,58a3.56,3.56,0,0,0,3.68,4.35,6.47,6.47,0,0,0,6.39,3.23c4-.36,7.42-1.2,11.52-0.81a100,100,0,0,0,11.88.65,115.59,115.59,0,0,0,12.61-1.14c2.71,2.42,6.36,4.29,9.81,2.11A6.23,6.23,0,0,0,622.33,58ZM590,51.37a6.83,6.83,0,0,0-2.07-.18,10,10,0,0,1,3.14-.85A3.37,3.37,0,0,0,590,51.37Z" transform="translate(-58.07 -42.2)" fill="#fef0ed"/><path d="M714.13,59a7.71,7.71,0,0,0-5.9-2.24,10.27,10.27,0,0,0-2.92.67,3.18,3.18,0,0,0-.43-0.08,11.54,11.54,0,0,0-4.59.65l-0.43.17L699.53,58c-2.29-1-3.53-1.73-6.09-1a38.09,38.09,0,0,0-4.66,2.14,3,3,0,0,0-2.41.6,7.68,7.68,0,0,1-2.75-.39c-4.31-1.35-6.15,5.4-1.86,6.75a15.08,15.08,0,0,0,5.61.74c2.87,1.85,6.66,1.53,9.89.19,1.13-.47,2.05-0.91,2.9-1.29a7,7,0,0,0,.69.05,16.67,16.67,0,0,0,3.87-1.11,13.14,13.14,0,0,1,2.07.23c2.62,0.48,4.11.58,6.62-.51C715.43,63.63,715.68,60.37,714.13,59Z" transform="translate(-58.07 -42.2)" fill="#fef0ed"/><path d="M741.69,89.51a3.65,3.65,0,0,0-1-2.17c-0.22-2.45-3.19-4.51-5.49-2.71-1.46-3.06-3.54-5-8-3.18-2.82,1.19-5.81-.11-8.66,1.22a5.59,5.59,0,0,0-3.39,5.94,5.33,5.33,0,0,0,4.28,4.54,4.78,4.78,0,0,0,3.26-.78c0.94-.61,1.53-2.45,2.41-2.85s3.23,0.75,5.09,1.65l0.25,0.64a3.52,3.52,0,0,0,3.22,2.37,2.53,2.53,0,0,0,.32.79,3.06,3.06,0,0,0,4.1,1.08A7,7,0,0,0,741.69,89.51Z" transform="translate(-58.07 -42.2)" fill="#fef0ed"/><path d="M774.5,82.36c0.22,0.27,0-.09-0.09-0.19l-0.1-.19a0.35,0.35,0,0,0,0-.17s-0.06-.33-0.09-0.45,0-.64,0-0.63c0.22-3.58-4.82-4.6-6.52-1.77l-0.08.14a0.21,0.21,0,0,0-.11.08l-0.07.08-0.18.12a16.11,16.11,0,0,0-1.83,1.39,6.12,6.12,0,0,0-2.11,4.65,5.06,5.06,0,0,0,2.65,4.19,4.67,4.67,0,0,0,5.45-.72,2.75,2.75,0,0,0,.5-0.58,3.74,3.74,0,0,0,2.63-1A3.58,3.58,0,0,0,774.5,82.36Z" transform="translate(-58.07 -42.2)" fill="#fef0ed"/><path d="M811.94,66.57l-0.22-.22-0.12-.21-0.06-.22c0-.09,0-0.18,0-0.27A3.54,3.54,0,0,0,809,62.28c-1.38-.31-3.34.16-4,1.61l-1.36,3.2a3.85,3.85,0,0,0-.35,2.7,3.57,3.57,0,0,0,1.61,2.09,4.13,4.13,0,0,0,2.89.28c0.16,0.12.31,0.24,0.47,0.35a3.52,3.52,0,0,0,4.79-1.26A3.56,3.56,0,0,0,811.94,66.57Z" transform="translate(-58.07 -42.2)" fill="#fef0ed"/><path d="M798.71,78.23a10.7,10.7,0,0,0-7,1.83,2.91,2.91,0,0,0-1.08-.21H790a3,3,0,0,0,0,6h0.67a2.83,2.83,0,0,0,.87-0.15,3.27,3.27,0,0,0,3.35-.61,5.18,5.18,0,0,1,3.82-.86,3,3,0,0,0,3-3A3.07,3.07,0,0,0,798.71,78.23Z" transform="translate(-58.07 -42.2)" fill="#fef0ed"/><path d="M816.9,82.05a3.5,3.5,0,0,0-1.38-1.79l-2.67-2a3,3,0,0,0-2.31-.3,3.06,3.06,0,0,0-1.79,1.38,3,3,0,0,0-.3,2.31,3.5,3.5,0,0,0,1.38,1.79l2.67,2a3,3,0,0,0,2.31.3A3,3,0,0,0,816.9,82.05Z" transform="translate(-58.07 -42.2)" fill="#fef0ed"/></svg>