<svg id="Layer_1" data-name="Layer 1" xmlns="http://www.w3.org/2000/svg" viewBox="0 0 1251.13 519.57"><title>lights-on</title><polygon points="361.83 454.25 309.43 389.07 327.97 470.62 291.5 394.86 290.67 477.19 272.43 395.59 252.29 473.54 253.42 391.23 215.24 459.89 235.66 382.05 181.83 437.12 220.28 368.63 154.18 406.64 208.23 351.81 134.02 370.37 200.28 332.65 122.62 330.6 196.92 312.36 120.69 289.81 198.37 292.19 128.36 250.59 204.52 273.43 145.13 215.37 215.01 257.26 169.97 186.39 229.16 244.68 201.31 165.46 246.1 236.49 237.17 153.9 264.75 233.21 275.31 152.43 283.94 235.04 313.33 161.15 302.46 241.86 348.84 179.5 319.17 253.25 379.6 206.34 332.99 268.49 403.7 239.98 343.07 286.62 419.61 278.3 348.77 306.5 426.32 318.9 349.74 326.9 423.43 359.23 345.9 346.51 411.12 396.74 337.51 364.12 390.14 429.09 325.1 378.61 361.83 454.25" fill="#fef0ed"/><polygon points="848.67 454.76 796.26 389.58 814.8 471.13 778.33 395.37 777.51 477.7 759.26 396.1 739.12 474.05 740.25 391.74 702.07 460.41 722.5 382.56 668.67 437.63 707.11 369.15 641.02 407.15 695.07 352.33 620.86 370.88 687.11 333.17 609.46 331.11 683.75 312.87 607.53 290.33 685.2 292.7 615.19 251.1 691.36 273.94 631.97 215.88 701.84 257.77 656.8 186.9 716 245.19 688.14 165.97 732.93 237 724 154.41 751.58 233.72 762.14 152.94 770.77 235.55 800.16 161.66 789.3 242.37 835.67 180.01 806 253.76 866.44 206.85 819.82 269 890.53 240.49 829.9 287.13 906.44 278.81 835.6 307.02 913.16 319.41 836.57 327.41 910.27 359.74 832.74 347.02 897.95 397.25 824.35 364.63 876.98 429.61 811.93 379.12 848.67 454.76" fill="#fef0ed"/><path d="M1104.8,43.66c-27,55.55-81.44,92.67-140.26,107.91-69.45,18-143.05,4.18-208.41-22.38-33.81-13.74-64.86-32.85-98.08-47.79-31-13.93-63.42-21.57-97.28-15.09-32.18,6.15-61.46,22.25-90,37.67-29.87,16.15-59.76,31.16-92.93,39.29-65.34,16-136.37,9.24-197.24-19.56-7.41-3.51-14.65-7.35-21.73-11.47-3.9-2.27-7.43,3.78-3.53,6,58.12,33.8,127.3,46.68,193.81,37.54,33.56-4.61,65.5-15.15,95.74-30.28,30.88-15.46,60.34-34.38,93.11-45.77,15.83-5.5,32.35-9.07,49.16-9.07,17.95,0,35.49,4.22,52.23,10.49,34.36,12.87,65.46,33.14,99,48,65.66,29.1,139.57,46.35,211.25,32.89,59.31-11.14,116.57-43.75,150-94.94a182.51,182.51,0,0,0,11.25-19.93C1112.81,43.16,1106.78,39.61,1104.8,43.66Z" fill="#e64d61"/><path d="M263.09,221.88c-4.94-.88-8.42-5.76-8.28-11.56,0.45-17.92,11.58-49.39,18.91-54.31,7.74-5.2,31.56.3,42.53,6.63,5.48,3.17,9,67.38-2,67C306.2,229.39,277.53,224.45,263.09,221.88Z" fill="#00cfbf"/><polygon points="238.35 228.6 258.61 221.18 318.01 230.24 331.81 243.18 238.35 228.6" fill="#00cfbf"/><path d="M257.77,232.54s-75,64.63-6.15,139.75c0,0,13.41,19.06,30.66,5.11C308.66,356.08,349,320.18,309,240.08,309,240.08,284.25,235.33,257.77,232.54Z" fill="#e64d61"/><path d="M490.81,191.17s-26.64,95.34,72.28,119.76c0,0,21.72,8.44,28.36-12.73,10.16-32.36,23.84-84.57-53.84-129.11C537.6,169.1,514.4,178.83,490.81,191.17Z" fill="none" stroke="#e64d61" stroke-miterlimit="10" stroke-width="5"/><path d="M489.33,182.34c-4.6,2-10.2-.13-13.29-5-9.55-15.17-17.71-47.54-14.33-55.7,3.57-8.62,26.44-17.23,39.09-18,6.32-.4,44.78,51.14,35.47,56.9C529.39,164.73,502.77,176.49,489.33,182.34Z" fill="#00cfbf"/><polygon points="472.45 201.64 485.21 184.24 539.69 158.89 558.35 162.02 472.45 201.64" fill="#00cfbf"/><path d="M757.51,211.72c-4.87-1.19-8-6.29-7.52-12.07,1.59-17.86,14.73-48.54,22.36-53,8.06-4.69,31.47,2.32,42,9.35,5.27,3.51,4.62,67.81-6.27,66.75C800.06,222,771.76,215.21,757.51,211.72Z" fill="#00cfbf"/><polygon points="732.4 216.84 753.09 210.73 811.79 223.59 824.73 237.38 732.4 216.84" fill="#00cfbf"/><path d="M751.52,222s-79,59.69-15.1,139.07c0,0,12.16,19.88,30.27,7.06,27.69-19.59,70.22-52.82,35.42-135.33C802.11,232.82,777.76,226.5,751.52,222Z" fill="#e64d61"/><path d="M258.09,255.73a65.68,65.68,0,0,0-18.34,47.73c0.4,9.77,2.58,19.57,5,29,1.92,7.64,4.78,15.14,10.87,20.43,2.9,2.52,7.16-1.7,4.24-4.24-5.75-5-8-12-9.68-19.23-2-8.51-4-17.22-4.38-26A59.59,59.59,0,0,1,262.33,260C265,257.18,260.76,252.93,258.09,255.73Z" fill="#fef0ed"/><path d="M751.86,247.8a65.68,65.68,0,0,0-18.34,47.73c0.4,9.77,2.58,19.57,5,29,1.92,7.64,4.78,15.14,10.87,20.43,2.9,2.52,7.16-1.7,4.24-4.24-5.75-5-8-12-9.68-19.23-2-8.51-4-17.22-4.38-26A59.59,59.59,0,0,1,756.1,252C758.77,249.25,754.53,245,751.86,247.8Z" fill="#fef0ed"/><path d="M502.78,208.94a65.68,65.68,0,0,0,15,48.89c6.33,7.45,14.09,13.82,21.79,19.81,6.22,4.84,13.09,9,21.14,9.39,3.84,0.2,4.59-5.76.73-6-7.62-.4-13.68-4.57-19.47-9.18-6.84-5.45-13.78-11.08-19.46-17.76a59.59,59.59,0,0,1-13.73-44.47C509.11,205.82,503.16,205.09,502.78,208.94Z" fill="#e64d61"/><path d="M1023,221.62s-28.31,94.86,70.17,121c0,0,21.57,8.82,28.58-12.23,10.72-32.18,25.31-84.14-51.58-130C1070.19,200.37,1046.82,209.69,1023,221.62Z" fill="none" stroke="#e64d61" stroke-miterlimit="10" stroke-width="5"/><path d="M1021.86,211.76c-4.63,1.92-10.2-.31-13.2-5.27-9.29-15.33-16.87-47.84-13.35-55.94,3.72-8.55,26.74-16.76,39.4-17.34,6.33-.29,43.88,51.91,34.47,57.51C1062.22,194.85,1035.4,206.14,1021.86,211.76Z" fill="#00cfbf"/><polygon points="1004.65 230.76 1017.71 213.59 1072.63 189.19 1091.22 192.65 1004.65 230.76" fill="#00cfbf"/><path d="M1036.38,239a65.68,65.68,0,0,0,9,50.33c5.4,8.15,12.34,15.4,19.27,22.27,5.6,5.55,11.93,10.47,19.88,11.84,3.79,0.66,5.25-5.17,1.43-5.83-7.51-1.3-13-6.17-18.24-11.44-6.15-6.23-12.36-12.64-17.21-20a59.59,59.59,0,0,1-8.34-45.79C1043,236.7,1037.21,235.25,1036.38,239Z" fill="#e64d61"/><rect width="1251.13" height="519.57" fill="none"/></svg>