<svg id="Layer_2" data-name="Layer 2" xmlns="http://www.w3.org/2000/svg" viewBox="0 0 1251.13 519.57"><title>lights-off</title><polygon points="640.28 401.25 587.87 336.08 606.41 417.63 569.94 341.86 569.12 424.19 550.87 342.59 530.74 420.54 531.86 338.24 493.68 406.9 514.11 329.06 460.28 384.12 498.72 315.64 432.63 353.64 486.68 298.82 412.47 317.38 478.72 279.66 401.07 277.6 475.36 259.36 399.14 236.82 476.81 239.2 406.8 197.59 482.97 220.44 423.58 162.38 493.45 204.26 448.42 133.4 507.61 191.69 479.75 112.47 524.54 183.5 515.61 100.9 543.19 180.21 553.75 99.44 562.38 182.04 591.77 108.15 580.91 188.86 627.28 126.51 597.61 200.25 658.05 153.34 611.43 215.49 682.14 186.98 621.51 233.62 698.05 225.31 627.22 253.51 704.77 265.9 628.18 273.9 701.88 306.23 624.35 293.52 689.56 343.75 615.96 311.12 668.59 376.1 603.54 325.61 640.28 401.25" fill="#fef0ed"/><polygon points="1174.55 432.67 1122.14 367.5 1140.68 449.05 1104.21 373.28 1103.39 455.62 1085.14 374.01 1065 451.96 1066.13 369.66 1027.95 438.32 1048.38 360.48 994.55 415.54 1032.99 347.06 966.9 385.06 1020.95 330.24 946.74 348.8 1012.99 311.08 935.34 309.02 1009.63 290.78 933.41 268.24 1011.08 270.62 941.07 229.01 1017.24 251.86 957.85 193.8 1027.72 235.68 982.68 164.82 1041.88 223.11 1014.02 143.89 1058.81 214.92 1049.88 132.32 1077.46 211.63 1088.02 130.86 1096.65 213.46 1126.04 139.57 1115.18 220.28 1161.55 157.93 1131.88 231.67 1192.32 184.77 1145.7 246.91 1216.41 218.4 1155.78 265.04 1232.32 256.73 1161.48 284.93 1239.04 297.33 1162.45 305.32 1236.15 337.65 1158.62 324.94 1223.83 375.17 1150.23 342.54 1202.86 407.52 1137.81 357.04 1174.55 432.67" fill="#fef0ed"/><path d="M1104.8,43.66c-27,55.55-81.44,92.67-140.26,107.91-69.45,18-143.05,4.18-208.41-22.38-33.81-13.74-64.86-32.85-98.08-47.79-31-13.93-63.42-21.57-97.28-15.09-32.18,6.15-61.46,22.25-90,37.67-29.87,16.15-59.76,31.16-92.93,39.29-65.34,16-136.37,9.24-197.24-19.56-7.41-3.51-14.65-7.35-21.73-11.47-3.9-2.27-7.43,3.78-3.53,6,58.12,33.8,127.3,46.68,193.81,37.54,33.56-4.61,65.5-15.15,95.74-30.28,30.88-15.46,60.34-34.38,93.11-45.77,15.83-5.5,32.35-9.07,49.16-9.07,17.95,0,35.49,4.22,52.23,10.49,34.36,12.87,65.46,33.14,99,48,65.66,29.1,139.57,46.35,211.25,32.89,59.31-11.14,116.57-43.75,150-94.94a182.51,182.51,0,0,0,11.25-19.93C1112.81,43.16,1106.78,39.61,1104.8,43.66Z" fill="#e64d61"/><path d="M263.09,221.88c-4.94-.88-8.42-5.76-8.28-11.56,0.45-17.92,11.58-49.39,18.91-54.31,7.74-5.2,31.56.3,42.53,6.63,5.48,3.17,9,67.38-2,67C306.2,229.39,277.53,224.45,263.09,221.88Z" fill="#00cfbf"/><path d="M258.77,229.54s-75,64.63-6.15,139.75c0,0,13.41,19.06,30.66,5.11C309.66,353.08,350,317.18,310,237.08,310,237.08,285.25,232.33,258.77,229.54Z" fill="none" stroke="#e64d61" stroke-miterlimit="10" stroke-width="6"/><polygon points="238.35 228.6 258.61 221.18 318.01 230.24 331.81 243.18 238.35 228.6" fill="#00cfbf"/><path d="M490.81,191.17s-26.64,95.34,72.28,119.76c0,0,21.72,8.44,28.36-12.73,10.16-32.36,23.84-84.57-53.84-129.11C537.6,169.1,514.4,178.83,490.81,191.17Z" fill="#e64d61"/><path d="M489.33,182.34c-4.6,2-10.2-.13-13.29-5-9.55-15.17-17.71-47.54-14.33-55.7,3.57-8.62,26.44-17.23,39.09-18,6.32-.4,44.78,51.14,35.47,56.9C529.39,164.73,502.77,176.49,489.33,182.34Z" fill="#00cfbf"/><polygon points="472.45 201.64 485.21 184.24 539.69 158.89 558.35 162.02 472.45 201.64" fill="#00cfbf"/><path d="M757.51,211.72c-4.87-1.19-8-6.29-7.52-12.07,1.59-17.86,14.73-48.54,22.36-53,8.06-4.69,31.47,2.32,42,9.35,5.27,3.51,4.62,67.81-6.27,66.75C800.06,222,771.76,215.21,757.51,211.72Z" fill="#00cfbf"/><path d="M752.52,219s-79,59.69-15.1,139.07c0,0,12.16,19.88,30.27,7.06,27.69-19.59,70.22-52.82,35.42-135.33C803.11,229.82,778.76,223.5,752.52,219Z" fill="none" stroke="#e64d61" stroke-miterlimit="10" stroke-width="6"/><polygon points="732.4 216.84 753.09 210.73 811.79 223.59 824.73 237.38 732.4 216.84" fill="#00cfbf"/><path d="M258.09,255.73a65.68,65.68,0,0,0-18.34,47.73c0.4,9.77,2.58,19.57,5,29,1.92,7.64,4.78,15.14,10.87,20.43,2.9,2.52,7.16-1.7,4.24-4.24-5.75-5-8-12-9.68-19.23-2-8.51-4-17.22-4.38-26A59.59,59.59,0,0,1,262.33,260C265,257.18,260.76,252.93,258.09,255.73Z" fill="#e64d61"/><path d="M751.86,247.8a65.68,65.68,0,0,0-18.34,47.73c0.4,9.77,2.58,19.57,5,29,1.92,7.64,4.78,15.14,10.87,20.43,2.9,2.52,7.16-1.7,4.24-4.24-5.75-5-8-12-9.68-19.23-2-8.51-4-17.22-4.38-26A59.59,59.59,0,0,1,756.1,252C758.77,249.25,754.53,245,751.86,247.8Z" fill="#e64d61"/><path d="M502.78,208.94a65.68,65.68,0,0,0,15,48.89c6.33,7.45,14.09,13.82,21.79,19.81,6.22,4.84,13.09,9,21.14,9.39,3.84,0.2,4.59-5.76.73-6-7.62-.4-13.68-4.57-19.47-9.18-6.84-5.45-13.78-11.08-19.46-17.76a59.59,59.59,0,0,1-13.73-44.47C509.11,205.82,503.16,205.09,502.78,208.94Z" fill="#fef0ed"/><path d="M1023,221.62s-28.31,94.86,70.17,121c0,0,21.57,8.82,28.58-12.23,10.72-32.18,25.31-84.14-51.58-130C1070.19,200.37,1046.82,209.69,1023,221.62Z" fill="#e64d61"/><path d="M1021.86,211.76c-4.63,1.92-10.2-.31-13.2-5.27-9.29-15.33-16.87-47.84-13.35-55.94,3.72-8.55,26.74-16.76,39.4-17.34,6.33-.29,43.88,51.91,34.47,57.51C1062.22,194.85,1035.4,206.14,1021.86,211.76Z" fill="#00cfbf"/><polygon points="1004.65 230.76 1017.71 213.59 1072.63 189.19 1091.22 192.65 1004.65 230.76" fill="#00cfbf"/><path d="M1036.38,239a65.68,65.68,0,0,0,9,50.33c5.4,8.15,12.34,15.4,19.27,22.27,5.6,5.55,11.93,10.47,19.88,11.84,3.79,0.66,5.25-5.17,1.43-5.83-7.51-1.3-13-6.17-18.24-11.44-6.15-6.23-12.36-12.64-17.21-20a59.59,59.59,0,0,1-8.34-45.79C1043,236.7,1037.21,235.25,1036.38,239Z" fill="#fef0ed"/><rect width="1251.13" height="519.57" fill="none"/></svg>