<svg id="Layer_1" data-name="Layer 1" xmlns="http://www.w3.org/2000/svg" viewBox="0 0 1250.93 519.85"><title>lights-off</title><polygon points="361.79 454.52 309.38 389.35 327.92 470.9 291.45 395.13 290.63 477.47 272.38 395.87 252.24 473.81 253.37 391.51 215.19 460.17 235.62 382.33 181.79 437.39 220.23 368.91 154.14 406.92 208.19 352.09 133.98 370.65 200.23 332.93 122.58 330.88 196.87 312.63 120.65 290.09 198.32 292.47 128.31 250.86 204.48 273.71 145.09 215.65 214.96 257.54 169.93 186.67 229.12 244.96 201.26 165.74 246.05 236.77 237.12 154.18 264.7 233.49 275.26 152.71 283.89 235.31 313.28 161.42 302.42 242.13 348.79 179.78 319.12 253.52 379.56 206.62 332.94 268.76 403.65 240.26 343.02 286.89 419.56 278.58 348.72 306.78 426.28 319.18 349.69 327.17 423.39 359.5 345.86 346.79 411.07 397.02 337.47 364.39 390.1 429.37 325.05 378.89 361.79 454.52" fill="#fef0ed"/><polygon points="848.62 455.04 796.22 389.86 814.75 471.41 778.28 395.64 777.46 477.98 759.21 396.38 739.08 474.33 740.2 392.02 702.02 460.68 722.45 382.84 668.62 437.91 707.07 369.42 640.97 407.43 695.02 352.6 620.81 371.16 687.07 333.44 609.41 331.39 683.71 313.14 607.48 290.6 685.15 292.98 615.14 251.37 691.31 274.22 631.92 216.16 701.8 258.05 656.76 187.18 715.95 245.47 688.09 166.25 732.88 237.28 723.96 154.69 751.53 234 762.1 153.22 770.72 235.82 800.11 161.94 789.25 242.65 835.62 180.29 805.95 254.03 866.39 207.13 819.78 269.27 890.49 240.77 829.86 287.41 906.39 279.09 835.56 307.29 913.11 319.69 836.52 327.69 910.22 360.01 832.69 347.3 897.9 397.53 824.3 364.91 876.93 429.88 811.88 379.4 848.62 455.04" fill="#fef0ed"/><path d="M263.09,221.88c-4.94-.88-8.42-5.76-8.28-11.56,0.45-17.92,11.58-49.39,18.91-54.31,7.74-5.2,31.56.3,42.53,6.63,5.48,3.17,9,67.38-2,67C306.2,229.39,277.53,224.45,263.09,221.88Z" transform="translate(-0.05 0.28)" fill="#00cfbf"/><polygon points="238.31 228.88 258.56 221.46 317.97 230.52 331.77 243.46 238.31 228.88" fill="#00cfbf"/><path d="M257.77,232.54s-75,64.63-6.15,139.75c0,0,13.41,19.06,30.66,5.11C308.66,356.08,349,320.18,309,240.08,309,240.08,284.25,235.33,257.77,232.54Z" transform="translate(-0.05 0.28)" fill="#e64d61"/><path d="M490.81,191.17s-26.64,95.34,72.28,119.76c0,0,21.72,8.44,28.36-12.73,10.16-32.36,23.84-84.57-53.84-129.11C537.6,169.1,514.4,178.83,490.81,191.17Z" transform="translate(-0.05 0.28)" fill="none" stroke="#e64d61" stroke-miterlimit="10" stroke-width="5"/><path d="M489.33,182.34c-4.6,2-10.2-.13-13.29-5-9.55-15.17-17.71-47.54-14.33-55.7,3.57-8.62,26.44-17.23,39.09-18,6.32-.4,44.78,51.14,35.47,56.9C529.39,164.73,502.77,176.49,489.33,182.34Z" transform="translate(-0.05 0.28)" fill="#00cfbf"/><polygon points="472.41 201.92 485.16 184.52 539.65 159.17 558.3 162.3 472.41 201.92" fill="#00cfbf"/><path d="M757.51,211.72c-4.87-1.19-8-6.29-7.52-12.07,1.59-17.86,14.73-48.54,22.36-53,8.06-4.69,31.47,2.32,42,9.35,5.27,3.51,4.62,67.81-6.27,66.75C800.06,222,771.76,215.21,757.51,211.72Z" transform="translate(-0.05 0.28)" fill="#00cfbf"/><polygon points="732.35 217.12 753.04 211.01 811.74 223.86 824.68 237.66 732.35 217.12" fill="#00cfbf"/><path d="M751.52,222s-79,59.69-15.1,139.07c0,0,12.16,19.88,30.27,7.06,27.69-19.59,70.22-52.82,35.42-135.33C802.11,232.82,777.76,226.5,751.52,222Z" transform="translate(-0.05 0.28)" fill="#e64d61"/><path d="M258.09,255.73a65.68,65.68,0,0,0-18.34,47.73c0.4,9.77,2.58,19.57,5,29,1.92,7.64,4.78,15.14,10.87,20.43,2.9,2.52,7.16-1.7,4.24-4.24-5.75-5-8-12-9.68-19.23-2-8.51-4-17.22-4.38-26A59.59,59.59,0,0,1,262.33,260C265,257.18,260.76,252.93,258.09,255.73Z" transform="translate(-0.05 0.28)" fill="#fef0ed"/><path d="M751.86,247.8a65.68,65.68,0,0,0-18.34,47.73c0.4,9.77,2.58,19.57,5,29,1.92,7.64,4.78,15.14,10.87,20.43,2.9,2.52,7.16-1.7,4.24-4.24-5.75-5-8-12-9.68-19.23-2-8.51-4-17.22-4.38-26A59.59,59.59,0,0,1,756.1,252C758.77,249.25,754.53,245,751.86,247.8Z" transform="translate(-0.05 0.28)" fill="#fef0ed"/><path d="M502.78,208.94a65.68,65.68,0,0,0,15,48.89c6.33,7.45,14.09,13.82,21.79,19.81,6.22,4.84,13.09,9,21.14,9.39,3.84,0.2,4.59-5.76.73-6-7.62-.4-13.68-4.57-19.47-9.18-6.84-5.45-13.78-11.08-19.46-17.76a59.59,59.59,0,0,1-13.73-44.47C509.11,205.82,503.16,205.09,502.78,208.94Z" transform="translate(-0.05 0.28)" fill="#e64d61"/><path d="M1023,221.62s-28.31,94.86,70.17,121c0,0,21.57,8.82,28.58-12.23,10.72-32.18,25.31-84.14-51.58-130C1070.19,200.37,1046.82,209.69,1023,221.62Z" transform="translate(-0.05 0.28)" fill="none" stroke="#e64d61" stroke-miterlimit="10" stroke-width="5"/><path d="M1021.86,211.76c-4.63,1.92-10.2-.31-13.2-5.27-9.29-15.33-16.87-47.84-13.35-55.94,3.72-8.55,26.74-16.76,39.4-17.34,6.33-.29,43.88,51.91,34.47,57.51C1062.22,194.85,1035.4,206.14,1021.86,211.76Z" transform="translate(-0.05 0.28)" fill="#00cfbf"/><polygon points="1004.6 231.04 1017.66 213.87 1072.58 189.47 1091.18 192.93 1004.6 231.04" fill="#00cfbf"/><path d="M1036.38,239a65.68,65.68,0,0,0,9,50.33c5.4,8.15,12.34,15.4,19.27,22.27,5.6,5.55,11.93,10.47,19.88,11.84,3.79,0.66,5.25-5.17,1.43-5.83-7.51-1.3-13-6.17-18.24-11.44-6.15-6.23-12.36-12.64-17.21-20a59.59,59.59,0,0,1-8.34-45.79C1043,236.7,1037.21,235.25,1036.38,239Z" transform="translate(-0.05 0.28)" fill="#e64d61"/><path d="M1104.8,43.66c-27,55.55-81.44,92.67-140.26,107.91-69.45,18-143.05,4.18-208.41-22.38-33.81-13.74-64.86-32.85-98.08-47.79-31-13.93-63.42-21.57-97.28-15.09-32.18,6.15-61.46,22.25-90,37.67-29.87,16.15-59.76,31.16-92.93,39.29-65.34,16-136.37,9.24-197.24-19.56-7.41-3.51-14.65-7.35-21.73-11.47-3.9-2.27-7.43,3.78-3.53,6,58.12,33.8,127.3,46.68,193.81,37.54,33.56-4.61,65.5-15.15,95.74-30.28,30.88-15.46,60.34-34.38,93.11-45.77,15.83-5.5,32.35-9.07,49.16-9.07,17.95,0,35.49,4.22,52.23,10.49,34.36,12.87,65.46,33.14,99,48,65.66,29.1,139.57,46.35,211.25,32.89,59.31-11.14,116.57-43.75,150-94.94a182.51,182.51,0,0,0,11.25-19.93C1112.81,43.16,1106.78,39.61,1104.8,43.66Z" transform="translate(-0.05 0.28)" fill="#e64d61"/><path d="M164.4,115.54L65.71,49.66c-7.42-5-15-9.75-21.77-15.62A217.75,217.75,0,0,1,28.31,18.25c-6.17-6.59-12.58-13-20-18a5.55,5.55,0,0,1-1.06.1H0c0,1,0,2.08.06,3.12C10.42,8.93,18.46,18,26.41,26.48c11.26,12,23.75,21.21,37.43,30.34l97,64.76C164.62,124.09,168.13,118,164.4,115.54Z" transform="translate(-0.05 0.28)" fill="#e64d61"/><path d="M1249.07-.28a163,163,0,0,1-25,9.57c-19.81,5.61-40.14,4-60.44,5.5-16.13,1.16-32.83,4.61-45.89,14.68-14.56,11.23-23,29.11-32.25,44.56-2.32,3.88,3.73,7.4,6,3.53,9.2-15.39,17.68-34.21,33.07-44.45,14.81-9.85,33.24-11.36,50.52-11.85,19-.54,37.62-0.81,55.88-6.77a180.3,180.3,0,0,0,19.93-8q-0.05-3.41-.07-6.81h-1.83Z" transform="translate(-0.05 0.28)" fill="#e64d61"/><rect width="1249.02" height="519.85" fill="none"/></svg>