<svg id="Layer_1" data-name="Layer 1" xmlns="http://www.w3.org/2000/svg" viewBox="0 0 100.91 1146.02"><title>orn-5</title><g id="orn-2"><circle cx="50.2" cy="1095.83" r="50.01" fill="#e75063" stroke="#fff" stroke-miterlimit="10" stroke-width="0.38"/><path d="M2903.76,1596.54l-1.11,3-6.55-6.51c-1-1-2.25-2.77-3.8-2.76-1.71,0-2.42,1.81-3.15,3.05-1.62,2.79-3.17,5.63-4.73,8.46l-5.64-6.95c-1.19-1.46-2.51-3.82-4.66-3.83s-2.73,1.69-3.67,3.21c-1.71,2.77-3.34,5.6-5,8.4l-6.28-7.84c-0.88-1.1-1.93-3.14-3.55-3.09s-2.73,2.51-3.48,3.66l-5.14,7.89q-5.83-5.53-11.11-11.58a1.1,1.1,0,0,0-1.71.22l-5.93,8.9-1.48,2.23a5.71,5.71,0,0,1-3.46-1.86c-1.44-1.07-2.75-2.43-4.09-3.62-1-.92-2.59.61-1.54,1.54,1.92,1.7,6.7,8,9.83,6.23,1.47-.82,2.48-3.21,3.36-4.53l4.37-6.57q5.31,6,11.17,11.5a1.1,1.1,0,0,0,1.71-.22l3.68-5.64c0.52-.8,3-5.69,4-5.76,0.73-.06,3.5,4.37,4,5l4.94,6.17a1.09,1.09,0,0,0,1.71-.22l3.62-6.1c1.11-1.88,2.5-6.37,5.44-4.63,1.42,0.84,2.66,3.28,3.7,4.56l4.52,5.57a1.09,1.09,0,0,0,1.71-.22l3.09-5.53,1.72-3.07c0.7-1.25.76-2.45,2.31-2.25,1.81,0.23,3.58,2.83,4.82,4.06l4.85,4.82a1.1,1.1,0,0,0,1.82-.48l1.73-4.69C2906.34,1595.8,2904.24,1595.24,2903.76,1596.54Z" transform="translate(-2812.52 -525.04)" fill="#fff"/><path d="M2905.49,1646l-1.11,3-6.55-6.51c-1-1-2.25-2.77-3.8-2.76-1.71,0-2.42,1.81-3.15,3.05-1.62,2.79-3.17,5.63-4.73,8.46l-5.64-6.95c-1.19-1.46-2.51-3.82-4.66-3.83s-2.73,1.69-3.67,3.21c-1.71,2.77-3.34,5.6-5,8.4l-6.28-7.84c-0.88-1.1-1.93-3.14-3.55-3.09s-2.73,2.51-3.48,3.66l-5.14,7.89q-5.83-5.53-11.11-11.58a1.1,1.1,0,0,0-1.71.22l-5.93,8.9-1.48,2.23a5.71,5.71,0,0,1-3.46-1.86c-1.44-1.07-2.75-2.43-4.09-3.62-1-.92-2.59.61-1.54,1.54,1.92,1.7,6.7,8,9.83,6.23,1.47-.82,2.48-3.21,3.36-4.53l4.37-6.57q5.31,6,11.17,11.5a1.1,1.1,0,0,0,1.71-.22l3.68-5.64c0.52-.8,3-5.69,4-5.76,0.73-.06,3.5,4.37,4,5l4.94,6.17a1.09,1.09,0,0,0,1.71-.22l3.62-6.1c1.11-1.88,2.5-6.37,5.44-4.63,1.42,0.84,2.66,3.28,3.7,4.56l4.52,5.57a1.09,1.09,0,0,0,1.71-.22l3.09-5.53,1.72-3.07c0.7-1.25.76-2.45,2.31-2.25,1.81,0.23,3.58,2.83,4.82,4.06l4.85,4.82a1.1,1.1,0,0,0,1.82-.48l1.73-4.69C2908.07,1645.27,2906,1644.7,2905.49,1646Z" transform="translate(-2812.52 -525.04)" fill="#fff"/><path d="M2909.64,1602.46a180.3,180.3,0,0,1-92.27,3.38c-1.36-.31-1.94,1.79-0.58,2.1a182.6,182.6,0,0,0,93.42-3.38A1.09,1.09,0,0,0,2909.64,1602.46Z" transform="translate(-2812.52 -525.04)" fill="#fff"/><path d="M2909,1628.68a180.3,180.3,0,0,1-92.32,1.67c-1.36-.33-2,1.75-0.62,2.09a182.6,182.6,0,0,0,93.47-1.65A1.09,1.09,0,0,0,2909,1628.68Z" transform="translate(-2812.52 -525.04)" fill="#fff"/><path d="M2911.31,1620.34c-3.4,2.28-6.38-2.79-8.72-4.43a7.14,7.14,0,0,0-4.93-1.5c-3.52.37-5.79,3.53-7.93,6-1.28,1.47-2.79,3.38-4.82,3.76-2.89.53-5-2.35-6.91-4-2.9-2.5-6.27-3.72-9.83-1.72-4.77,2.68-7.63,9.25-14,6-4.6-2.33-8.43-7.53-14.2-6.54-2.36.4-3.39,1.86-5.1,3.34-3.68,3.2-6.84,1-9.14-2.42-1.08-1.62-1.8-3-4-2.67-2.46.38-5.13,2.59-7.28,3.8a1.45,1.45,0,0,0,1.46,2.5c1.32-.74,5.4-4,6.87-3,0.53,0.34,1,1.9,1.47,2.46a11.1,11.1,0,0,0,1.86,1.89c2.4,1.92,5.74,2.87,8.58,1.35,1.93-1,2.9-3.05,5-3.88,3-1.2,5.81.6,8.24,2.37,3.29,2.4,6.9,5.46,11.3,4.59,3.23-.64,5.48-3.15,7.83-5.24,1.67-1.48,3.6-3.16,6-2.56,2.09,0.51,3.64,2.53,5.19,3.89,5.35,4.67,9.9,2.43,14.06-2.41A18.66,18.66,0,0,1,2896,1618c2.58-1.64,4.78,0,6.69,1.86,2.7,2.62,6.32,5.43,10,2.94C2914.31,1621.81,2912.86,1619.3,2911.31,1620.34Z" transform="translate(-2812.52 -525.04)" fill="#fff"/><path d="M2822.25,1624.56a1.45,1.45,0,0,0,0,2.9A1.45,1.45,0,0,0,2822.25,1624.56Z" transform="translate(-2812.52 -525.04)" fill="#fff"/><path d="M2832.4,1613.69a1.45,1.45,0,0,0,0,2.9A1.45,1.45,0,0,0,2832.4,1613.69Z" transform="translate(-2812.52 -525.04)" fill="#fff"/><path d="M2842.54,1627.46a1.45,1.45,0,0,0,0,2.9A1.45,1.45,0,0,0,2842.54,1627.46Z" transform="translate(-2812.52 -525.04)" fill="#fff"/><path d="M2855.59,1617.32a1.45,1.45,0,0,0,0,2.9A1.45,1.45,0,0,0,2855.59,1617.32Z" transform="translate(-2812.52 -525.04)" fill="#fff"/><path d="M2871.53,1626a1.45,1.45,0,0,0,0,2.9A1.45,1.45,0,0,0,2871.53,1626Z" transform="translate(-2812.52 -525.04)" fill="#fff"/><path d="M2885.3,1615.14a1.45,1.45,0,0,0,0,2.9A1.45,1.45,0,0,0,2885.3,1615.14Z" transform="translate(-2812.52 -525.04)" fill="#fff"/><path d="M2900.52,1623.84a1.45,1.45,0,0,0,0,2.9A1.45,1.45,0,0,0,2900.52,1623.84Z" transform="translate(-2812.52 -525.04)" fill="#fff"/><path d="M2906.31,1611.52a1.45,1.45,0,0,0,0,2.9A1.45,1.45,0,0,0,2906.31,1611.52Z" transform="translate(-2812.52 -525.04)" fill="#fff"/><path d="M2873.7,1584.71a1.45,1.45,0,0,0,0,2.9A1.45,1.45,0,0,0,2873.7,1584.71Z" transform="translate(-2812.52 -525.04)" fill="#fff"/><path d="M2889.65,1584a1.45,1.45,0,0,0,0,2.9A1.45,1.45,0,0,0,2889.65,1584Z" transform="translate(-2812.52 -525.04)" fill="#fff"/><path d="M2855.59,1585.43a1.45,1.45,0,0,0,0,2.9A1.45,1.45,0,0,0,2855.59,1585.43Z" transform="translate(-2812.52 -525.04)" fill="#fff"/><path d="M2833.85,1584.71a1.45,1.45,0,0,0,0,2.9A1.45,1.45,0,0,0,2833.85,1584.71Z" transform="translate(-2812.52 -525.04)" fill="#fff"/><path d="M2846.89,1659.35a1.45,1.45,0,0,0,0,2.9A1.45,1.45,0,0,0,2846.89,1659.35Z" transform="translate(-2812.52 -525.04)" fill="#fff"/><path d="M2867.91,1658.62a1.45,1.45,0,0,0,0,2.9A1.45,1.45,0,0,0,2867.91,1658.62Z" transform="translate(-2812.52 -525.04)" fill="#fff"/><path d="M2887.47,1657.17a1.45,1.45,0,0,0,0,2.9A1.45,1.45,0,0,0,2887.47,1657.17Z" transform="translate(-2812.52 -525.04)" fill="#fff"/><path d="M2876.32,1551.79c-0.06,0-35,2.17-34.85,2.49,2.12,3.53-1.47,13.71-1.34,13.4l3.71-4.75c1.17,1.55,3.6,5.18,3.68,4.88a38.9,38.9,0,0,1,2.2-6.21c0.92,1.86,3.3,5.82,3.43,5.58a32.69,32.69,0,0,0,2.43-5.37,45.82,45.82,0,0,0,3.3,4.68c-0.05-.1,2.61-4.52,3.15-5.83,1,1.25,4.16,5.33,4.46,5.25,0.07,0,1.13-5.06,1.8-6.27,1,1.22,3.72,6.4,3.83,6.13a37.45,37.45,0,0,0,1.74-5.49c1.21,1.16,5.66,5.94,4.58,4.53C2875.93,1561.56,2876.41,1551.79,2876.32,1551.79Z" transform="translate(-2812.52 -525.04)" fill="none" stroke="#00cdbd" stroke-miterlimit="10" stroke-width="0.77"/><path d="M2870.2,1520.71a64.6,64.6,0,0,0-8.42,4.29,93.46,93.46,0,0,0-9-5.36c-1-.48-2.61-0.93-2.61-0.55,0,1.45-.27,5.28-0.19,6.56a28.18,28.18,0,0,0,1.19,7,0.5,0.5,0,0,0,.73.3c3.23-2.16,6.45-4.53,9.77-6.71,0.85,0.83,1.91,1.41,2.74,2.3,1,1.07,6.24,6.07,6.25,5.7C2870.83,1530.24,2870.45,1520.6,2870.2,1520.71Zm-18.3,11a29.74,29.74,0,0,1-1.19-9.6c0.18-3.2-.25-2.53,1.36-1.76,0,0,8.47,4.7,8.87,5.14C2857.87,1527.56,2854.89,1529.74,2851.9,1531.76Zm14.17-2.79a45.3,45.3,0,0,1-3.58-3.24,58.45,58.45,0,0,1,6.89-3.85,59.9,59.9,0,0,1,.52,10.21C2868.55,1531.07,2867.41,1530,2866.07,1529Z" transform="translate(-2812.52 -525.04)" fill="#00cdbd"/><path d="M2860.88,1554S2856.27,629,2855.27,525" transform="translate(-2812.52 -525.04)" fill="none" stroke="#00cdbd" stroke-miterlimit="10"/></g></svg>