<svg xmlns="http://www.w3.org/2000/svg" viewBox="0 0 149.4 1114.33"><title>orn-4</title><g style="isolation:isolate"><g id="Layer_1" data-name="Layer 1"><g id="orn-3"><path d="M2331.56,1484c0,26.4-15.19,51.21-39.8,68.63-25.27,17.88-31.44,66.47-32.12,84.49-0.1,2.77-5,3.11-5.83,0-5-18.65-6.38-70.93-22.9-84-21.18-16.8-44.74-43.08-44.74-66.77,0-16.74,6.86-38.43,32.94-54.9,32-20.19,36.46-62.1,36.46-59.8,0,0.41,6-3.15,7.5,1.5,4.48,14,12.07,45.92,27.78,55.52C2315.54,1443.78,2331.56,1458.42,2331.56,1484Z" transform="translate(-2182.16 -525.04)" fill="#fef0ed"/><path d="M2327.56,1482c0,26.4-15.19,51.21-39.8,68.63-25.27,17.88-31.44,66.47-32.12,84.49-0.1,2.77-5,3.11-5.83,0-5-18.65-6.38-70.93-22.9-84-21.18-16.8-44.74-43.08-44.74-66.77,0-16.74,6.86-38.43,32.94-54.9,32-20.19,36.46-62.1,36.46-59.8,0,0.41,6-3.15,7.5,1.5,4.48,14,12.07,45.92,27.78,55.52C2311.54,1441.78,2327.56,1456.42,2327.56,1482Z" transform="translate(-2182.16 -525.04)" fill="#00cdbd" opacity="0.96" style="mix-blend-mode:multiply"/><path d="M2300.15,1442.06a1.8,1.8,0,0,0-1.07,2.23c0.65,2.21-4.41.1-4.92-.22-1.17-.72-2.08-1.85-3.22-2.64a9.84,9.84,0,0,0-5-2.1c-5-.29-6.73,3.9-9,7.16-1.59,2.3-3.64,3.06-5.51.89-0.59-.68-0.77-1.67-1.39-2.38a5.61,5.61,0,0,0-4.14-2.18c-5.48-.17-7.07,7.35-12.67,3-2.61-2-4.81-5.25-8.61-5.21-5.62.07-5.15,5.77-8.49,8.31-5.89,4.49-7.08-5.49-12.65-5.68-2.09-.07-3.51,1-5.13,2.09-3.34,2.28-8.67,2.31-9.62-2a38.23,38.23,0,0,1-3.34,2.85,10,10,0,0,0,7.51,4.93c3.19,0.44,4.57-.83,7.22-2q1.78-2.24,4.63-.83,0.63,1,1.23,2a10,10,0,0,0,1.92,2.16,9.22,9.22,0,0,0,12.48-1.48c1-1.35,1.21-3.28,2.26-4.57,2.45-3,3.87-1,5.63.5s3.27,3.26,5.47,4.15a7.23,7.23,0,0,0,5.71,0c3.24-1.35,4.87-5.71,8-2.08,1.63,1.87,1.91,3.94,4.88,4.46,2.55,0.45,4.9-1,6.56-2.65,2.79-2.77,4.55-9.85,10.09-5.6,2.1,1.61,3.71,3.49,6.49,4,3.72,0.67,8.13-1.12,7.92-4.74C2302.3,1443.62,2301.2,1442.87,2300.15,1442.06Z" transform="translate(-2182.16 -525.04)" fill="#fef0ed"/><path d="M2313.43,1455.39c-0.84-2.48-5.61-1.43-4.77,1.06,0.75,2.21-5.08.1-5.68-.22-1.35-.72-2.4-1.85-3.71-2.64a12.31,12.31,0,0,0-5.79-2.1c-5.78-.29-7.76,3.9-10.36,7.16-1.84,2.3-4.19,3.06-6.36.89-0.68-.68-0.89-1.67-1.6-2.38a6.8,6.8,0,0,0-4.78-2.18c-6.32-.17-8.16,7.35-14.61,3-3-2-5.54-5.25-9.93-5.21-6.49.07-5.94,5.77-9.79,8.31-6.79,4.49-8.17-5.49-14.59-5.68-2.41-.07-4.05,1-5.91,2.09-4.23,2.51-11.27,2.31-11.27-3.37,0-2.57-4.95-2.58-4.95,0,0,4.65,4.2,8.49,9.94,9.17,3.67,0.44,5.27-.83,8.33-2q2.06-2.24,5.34-.83,0.72,1,1.42,2a10.6,10.6,0,0,0,2.21,2.16c4.31,2.88,11.13,2.16,14.39-1.48,1.21-1.35,1.4-3.28,2.6-4.57,2.82-3,4.46-1,6.49.5s3.77,3.26,6.31,4.15a9.52,9.52,0,0,0,6.59,0c3.73-1.35,5.62-5.71,9.26-2.08,1.88,1.87,2.2,3.94,5.63,4.46,2.94,0.45,5.65-1,7.56-2.65,3.22-2.77,5.24-9.85,11.63-5.6,2.42,1.61,4.28,3.49,7.48,4C2309.23,1462,2314.91,1459.77,2313.43,1455.39Z" transform="translate(-2182.16 -525.04)" fill="#fef0ed"/><path d="M2311.52,1531.8c-0.86-2.83-5.77-1.63-4.9,1.21,0.77,2.52-5.22.12-5.83-.25-1.39-.83-2.47-2.11-3.82-3a11.89,11.89,0,0,0-5.95-2.4c-5.94-.33-8,4.45-10.65,8.17-1.89,2.63-4.31,3.49-6.53,1-0.7-.78-0.92-1.91-1.64-2.72a6.72,6.72,0,0,0-4.91-2.49c-6.49-.2-8.38,8.39-15,3.38-3.09-2.33-5.69-6-10.2-5.94-6.66.08-6.1,6.58-10.06,9.48-7,5.12-8.39-6.26-15-6.47-2.48-.08-4.16,1.12-6.07,2.38a10.38,10.38,0,0,1-7.06,1.63q1,1.36,2,2.78a1.88,1.88,0,0,1-.14,2.3c2.93,0.06,4.54-1.2,7.31-2.41q2.11-2.55,5.48-.95,0.74,1.12,1.46,2.26a11.53,11.53,0,0,0,2.27,2.47c4.43,3.29,11.44,2.47,14.78-1.69,1.24-1.54,1.44-3.74,2.68-5.22,2.9-3.45,4.58-1.19,6.67.57s3.87,3.72,6.48,4.74a8.87,8.87,0,0,0,6.77,0c3.83-1.55,5.77-6.51,9.51-2.37,1.93,2.14,2.26,4.49,5.78,5.09,3,0.51,5.81-1.15,7.77-3,3.31-3.16,5.38-11.23,12-6.39,2.49,1.83,4.39,4,7.68,4.55C2307.2,1539.33,2313,1536.79,2311.52,1531.8Z" transform="translate(-2182.16 -525.04)" fill="#fef0ed"/><path d="M2301.29,1550.15c1.28-.92,2.61-1.79,4-2.63a30.09,30.09,0,0,0-2.57-1.73,14.37,14.37,0,0,0-6.36-2.1c-6.35-.29-8.52,3.9-11.38,7.16-2,2.3-4.61,3.06-7,.89-0.74-.68-1-1.67-1.76-2.38a7.8,7.8,0,0,0-5.25-2.18c-6.94-.17-9,7.35-16.05,3-3.3-2-6.09-5.25-10.91-5.21-7.12.07-6.52,5.77-10.75,8.31-7.46,4.49-9-5.49-16-5.68a8.69,8.69,0,0,0-2.07.2,25.81,25.81,0,0,1,3.16,4.65c0.18,0.06.35,0.11,0.54,0.18q0.79,1,1.56,2a11.21,11.21,0,0,0,2.43,2.16c4.73,2.88,12.23,2.16,15.8-1.48,1.33-1.35,1.54-3.28,2.86-4.57,3.1-3,4.9-1,7.13.5s4.14,3.26,6.92,4.15a11.42,11.42,0,0,0,7.24,0c4.1-1.35,6.17-5.71,10.17-2.08,2.06,1.87,2.42,3.94,6.18,4.46a11.29,11.29,0,0,0,8.3-2.65c3.54-2.77,5.76-9.85,12.78-5.6C2300.58,1549.69,2300.94,1549.92,2301.29,1550.15Z" transform="translate(-2182.16 -525.04)" fill="#fef0ed"/><path d="M2269.66,1502.89l-8.63-1.58a16,16,0,0,0,2.27-10.46c-0.28-2.53-4.28-2.56-4,0a13.17,13.17,0,0,1-2.59,9.67l-2.06-.38V1482.2c0-2.57-4-2.58-4,0v15.26l-8.54-10.71c-1.6-2-4.42.83-2.83,2.83l7.23,9.06-9.84-1.8c-2.52-.46-3.6,3.39-1.06,3.86l14.68,2.69,0.36,0.45v2a60.66,60.66,0,0,1-11.38,5.08c-2.41.85-1.37,4.72,1.06,3.86a72.9,72.9,0,0,0,10.32-4.43v9.4c0,2.57,4,2.58,4,0v-10.84l5.22,6.55c1.6,2,4.42-.83,2.83-2.83l-5.44-6.82c0.33-.3.64-0.6,1-0.91l10.38,1.9C2271.12,1507.21,2272.19,1503.35,2269.66,1502.89Z" transform="translate(-2182.16 -525.04)" fill="#fef0ed"/><path d="M2209.18,1489.7a45.47,45.47,0,0,1-6.06,4.07l2.06-9.53c0.54-2.51-3.31-3.58-3.86-1.06l-2.12,9.8-5.24-6.1c-1.68-2-4.5.88-2.83,2.83l5.93,6.9a48.8,48.8,0,0,1-6.36,2c-2.5.59-1.44,4.45,1.06,3.86a50.39,50.39,0,0,0,5.76-1.73l-0.75,3.46c-0.54,2.51,3.31,3.58,3.86,1.06l0.77-3.56,1.49,1.74c1.68,2,4.5-.88,2.83-2.83l-2.18-2.54a52.76,52.76,0,0,0,8.46-5.51C2214,1490.93,2211.17,1488.11,2209.18,1489.7Z" transform="translate(-2182.16 -525.04)" fill="#fef0ed"/><path d="M2318.15,1500c-1.34-.65-2.63-1.35-3.9-2.09-0.06-.16-0.12-0.31-0.17-0.46a12.74,12.74,0,0,0,4.38-3.41c1.63-2-1.18-4.81-2.83-2.83a10.08,10.08,0,0,1-2.7,2.29c-0.11-.44-0.19-0.89-0.29-1.34,1.13-1.94,2.2-3.93,3.18-6,1.1-2.31-2.34-4.34-3.45-2-0.22.47-.46,0.93-0.69,1.39-0.08-1.11-.14-2.23-0.15-3.36,0-2.57-4-2.58-4,0a51.24,51.24,0,0,0,.9,9.24c-0.35.57-.72,1.13-1.09,1.69a55.29,55.29,0,0,1-5.26-4.86c-1.78-1.87-4.6,1-2.83,2.83,1,1.1,2.13,2.14,3.24,3.15-1,.82-1.38,2.5.14,3.19a14.1,14.1,0,0,0,1.37.53q-1.51,2-3.15,3.92c-1.67,1.94,1.15,4.78,2.83,2.83s3.16-3.85,4.61-5.86c0.9,0.63,1.82,1.23,2.76,1.81,0.45,1.18.93,2.34,1.47,3.5,0.88,1.87,3.26.93,3.62-.71C2318.45,1504.55,2320.47,1501.11,2318.15,1500Z" transform="translate(-2182.16 -525.04)" fill="#fef0ed"/><path d="M2222.05,1474.33c-2.57,0-2.58,4,0,4S2224.63,1474.33,2222.05,1474.33Z" transform="translate(-2182.16 -525.04)" fill="#fef0ed"/><path d="M2215.39,1513c-2.57,0-2.58,4,0,4S2218,1513,2215.39,1513Z" transform="translate(-2182.16 -525.04)" fill="#fef0ed"/><path d="M2278.05,1475c-2.57,0-2.58,4,0,4S2280.63,1475,2278.05,1475Z" transform="translate(-2182.16 -525.04)" fill="#fef0ed"/><path d="M2285.39,1511.66c-2.57,0-2.58,4,0,4S2288,1511.66,2285.39,1511.66Z" transform="translate(-2182.16 -525.04)" fill="#fef0ed"/><path d="M2308.72,1465c-2.57,0-2.58,4,0,4S2311.3,1465,2308.72,1465Z" transform="translate(-2182.16 -525.04)" fill="#fef0ed"/><path d="M2196.05,1468.33c-2.57,0-2.58,4,0,4S2198.63,1468.33,2196.05,1468.33Z" transform="translate(-2182.16 -525.04)" fill="#fef0ed"/><path d="M2318.05,1517.66c-2.57,0-2.58,4,0,4S2320.63,1517.66,2318.05,1517.66Z" transform="translate(-2182.16 -525.04)" fill="#fef0ed"/><path d="M2266.37,1327.93a64.6,64.6,0,0,0-8.42,4.29,93.46,93.46,0,0,0-9-5.36c-1-.48-2.61-0.93-2.61-0.55,0,1.45-.27,5.28-0.19,6.56a28.18,28.18,0,0,0,1.19,7,0.5,0.5,0,0,0,.73.3c3.23-2.16,6.45-4.53,9.77-6.71,0.85,0.83,1.91,1.41,2.74,2.3,1,1.07,6.24,6.07,6.25,5.7C2267,1337.45,2266.63,1327.81,2266.37,1327.93Zm-18.3,11a29.74,29.74,0,0,1-1.19-9.6c0.18-3.2-.25-2.53,1.36-1.76,0,0,8.47,4.7,8.87,5.14C2254,1334.78,2251.07,1336.95,2248.08,1339Zm14.17-2.79a45.3,45.3,0,0,1-3.58-3.24,58.45,58.45,0,0,1,6.89-3.85,59.9,59.9,0,0,1,.52,10.21C2264.73,1338.28,2263.58,1337.18,2262.25,1336.18Z" transform="translate(-2182.16 -525.04)" fill="#00cdbd"/><path d="M2255.67,1354.94s-3-725.89-4-829.89" transform="translate(-2182.16 -525.04)" fill="none" stroke="#00cdbd" stroke-miterlimit="10"/><path d="M2267.21,1355s-25.08,1.47-24.94,1.68c1.52,2.38-1.06,9.26-1,9l2.65-3.21a32.16,32.16,0,0,0,2.63,3.3,25.3,25.3,0,0,1,1.57-4.19,21.06,21.06,0,0,0,2.46,3.77,21.48,21.48,0,0,0,1.74-3.63,31,31,0,0,0,2.36,3.16c0-.07,1.87-3.05,2.25-3.94,0.73,0.85,3,3.6,3.19,3.55a36.62,36.62,0,0,1,1.29-4.24c0.73,0.82,2.66,4.32,2.74,4.14a24.26,24.26,0,0,0,1.24-3.71c0.87,0.78,4,4,3.28,3.06C2266.93,1361.57,2267.27,1355,2267.21,1355Z" transform="translate(-2182.16 -525.04)" fill="none" stroke="#00cdbd" stroke-miterlimit="10" stroke-width="0.91"/></g></g></g></svg>