<svg id="Layer_1" data-name="Layer 1" xmlns="http://www.w3.org/2000/svg" viewBox="0 0 93.4 1205.57"><title>orn-1</title><g id="orn-1"><path d="M93.4,1620.54c0,17-9.76,32.9-25.57,44.08-16.24,11.48-20.2,42.7-20.63,54.27-0.07,1.78-3.21,2-3.75,0-3.21-12-4.1-45.56-14.71-54C15.13,1654.12,0,1637.24,0,1622c0-10.76,4.41-24.69,21.16-35.27,20.53-13,23.42-39.89,23.42-38.41,0,0.26,3.86-2,4.82,1,2.88,9,7.75,29.5,17.85,35.66C83.11,1594.67,93.4,1604.08,93.4,1620.54Z" transform="translate(0 -514.74)" fill="#e64e61"/><path d="M55.62,1571.38a50.14,50.14,0,0,1-18.15-.37c-1.61-.33-2.31,2.15-0.68,2.48a53.84,53.84,0,0,0,19.52.37C57.93,1573.6,57.24,1571.12,55.62,1571.38Z" transform="translate(0 -514.74)" fill="#00cdbd"/><path d="M59.48,1578.65a47.23,47.23,0,0,1-27.75-2c-1.54-.59-2.21,1.89-0.68,2.48a49.66,49.66,0,0,0,29.11,2C61.77,1580.76,61.09,1578.28,59.48,1578.65Z" transform="translate(0 -514.74)" fill="#fef0ed"/><path d="M59.92,1668.21a45,45,0,0,1-28.22-2.6c-1.5-.66-2.81,1.56-1.3,2.22a47.94,47.94,0,0,0,30.2,2.86C62.22,1670.32,61.53,1667.84,59.92,1668.21Z" transform="translate(0 -514.74)" fill="#fef0ed"/><path d="M56.84,1677.28a37.57,37.57,0,0,1-20.77-1.87c-1.55-.59-2.21,1.89-0.68,2.48a40,40,0,0,0,22.14,1.87C59.15,1679.45,58.46,1677,56.84,1677.28Z" transform="translate(0 -514.74)" fill="#00cdbd"/><path d="M45.48,1616.19a4.86,4.86,0,0,0-1.29,1.19,6.63,6.63,0,0,0-2.46,5.88c0.42,2.87,3.25,5.49,6.27,4.78C55.29,1626.31,51.74,1612.38,45.48,1616.19Zm3.9,7.4a3.37,3.37,0,0,1-.77,1.2,1.37,1.37,0,0,0-.2-0.75,7.28,7.28,0,0,0,1.18-2.36A4.63,4.63,0,0,1,49.38,1623.59Z" transform="translate(0 -514.74)" fill="#00cdbd"/><path d="M39.93,1612a87.47,87.47,0,0,0-6.07-8.94c-1-1.29-3.23,0-2.22,1.3a87.47,87.47,0,0,1,6.07,8.94A1.29,1.29,0,0,0,39.93,1612Z" transform="translate(0 -514.74)" fill="#fef0ed"/><path d="M48.57,1607.65a32.18,32.18,0,0,1-.76-13.88c0.27-1.62-2.21-2.31-2.48-.68a35.25,35.25,0,0,0,.76,15.24A1.29,1.29,0,0,0,48.57,1607.65Z" transform="translate(0 -514.74)" fill="#00cdbd"/><path d="M32.8,1621.7a17.69,17.69,0,0,1-11.3-2.9c-1.39-.91-2.68,1.32-1.3,2.22a20,20,0,0,0,12.6,3.25C34.44,1624.14,34.45,1621.57,32.8,1621.7Z" transform="translate(0 -514.74)" fill="#00cdbd"/><path d="M66.77,1605.59a25.7,25.7,0,0,0-11.4,8.28c-1,1.29.8,3.12,1.82,1.82a23.33,23.33,0,0,1,10.26-7.62C69,1607.49,68.32,1605,66.77,1605.59Z" transform="translate(0 -514.74)" fill="#fef0ed"/><path d="M75.63,1622.49q-8.6-.15-17.15-1.09c-1.64-.18-1.63,2.39,0,2.57q8.55,0.94,17.15,1.09A1.29,1.29,0,0,0,75.63,1622.49Z" transform="translate(0 -514.74)" fill="#00cdbd"/><path d="M38.95,1630.76a117.68,117.68,0,0,1-12.37,6.92c-1.49.72-.19,2.94,1.3,2.22A117.67,117.67,0,0,0,40.25,1633C41.63,1632.09,40.35,1629.87,38.95,1630.76Z" transform="translate(0 -514.74)" fill="#fef0ed"/><path d="M44.41,1635.39l-0.88,13.7c-0.11,1.65,2.46,1.64,2.57,0l0.88-13.7C47.08,1633.74,44.51,1633.74,44.41,1635.39Z" transform="translate(0 -514.74)" fill="#00cdbd"/><path d="M70.72,1642a100.53,100.53,0,0,1-14.33-9.61c-1.28-1-3.11.78-1.82,1.82a104.31,104.31,0,0,0,14.85,10A1.29,1.29,0,0,0,70.72,1642Z" transform="translate(0 -514.74)" fill="#fef0ed"/><path d="M25.52,1595.56a1.29,1.29,0,0,0,0,2.57A1.29,1.29,0,0,0,25.52,1595.56Z" transform="translate(0 -514.74)" fill="#fef0ed"/><path d="M8.39,1613.55a1.29,1.29,0,0,0,0,2.57A1.29,1.29,0,0,0,8.39,1613.55Z" transform="translate(0 -514.74)" fill="#fef0ed"/><path d="M18.24,1642.67a1.29,1.29,0,0,0,0,2.57A1.29,1.29,0,0,0,18.24,1642.67Z" transform="translate(0 -514.74)" fill="#fef0ed"/><path d="M45.22,1660.65a1.29,1.29,0,0,0,0,2.57A1.29,1.29,0,0,0,45.22,1660.65Z" transform="translate(0 -514.74)" fill="#fef0ed"/><path d="M76.91,1648.23a1.29,1.29,0,0,0,0,2.57A1.29,1.29,0,0,0,76.91,1648.23Z" transform="translate(0 -514.74)" fill="#fef0ed"/><path d="M76.91,1599a1.29,1.29,0,0,0,0,2.57A1.29,1.29,0,0,0,76.91,1599Z" transform="translate(0 -514.74)" fill="#fef0ed"/><path d="M57.54,1531.59s-22.74,1.9-22.61,2.18c1.37,3.09-1,12-.87,11.73l2.41-4.16c0.76,1.36,2.34,4.54,2.39,4.27a42.49,42.49,0,0,1,1.43-5.43,30.2,30.2,0,0,0,2.23,4.88,34.24,34.24,0,0,0,1.58-4.7,42.29,42.29,0,0,0,2.14,4.1c0-.09,1.7-4,2-5.1,0.66,1.1,2.7,4.67,2.89,4.6s0.73-4.43,1.17-5.49c0.66,1.07,2.41,5.6,2.49,5.36a41.49,41.49,0,0,0,1.13-4.8c0.79,1,3.67,5.2,3,4C57.29,1540.14,57.6,1531.59,57.54,1531.59Z" transform="translate(0 -514.74)" fill="none" stroke="#00cdbd" stroke-miterlimit="10" stroke-width="0.91"/><path d="M55.12,1498.51a64.6,64.6,0,0,0-8.42,4.29,93.46,93.46,0,0,0-9-5.36c-1-.48-2.61-0.93-2.61-0.55,0,1.45-.27,5.28-0.19,6.56a28.18,28.18,0,0,0,1.19,7,0.5,0.5,0,0,0,.73.3c3.23-2.16,6.45-4.53,9.77-6.71,0.85,0.83,1.91,1.41,2.74,2.3,1,1.07,6.24,6.07,6.25,5.7C55.75,1508,55.38,1498.4,55.12,1498.51Zm-18.3,11a29.74,29.74,0,0,1-1.19-9.6c0.18-3.2-.25-2.53,1.36-1.76,0,0,8.47,4.7,8.87,5.14C42.8,1505.37,39.82,1507.54,36.83,1509.56ZM51,1506.76a45.3,45.3,0,0,1-3.58-3.24,58.45,58.45,0,0,1,6.89-3.85,59.9,59.9,0,0,1,.52,10.21C53.48,1508.87,52.33,1507.77,51,1506.76Z" transform="translate(0 -514.74)" fill="#00cdbd"/><path d="M45.81,1531.77s-4.61-913-5.61-1017" transform="translate(0 -514.74)" fill="none" stroke="#00cdbd" stroke-miterlimit="10"/></g></svg>