<svg id="Layer_1" data-name="Layer 1" xmlns="http://www.w3.org/2000/svg" viewBox="0 0 107.01 920.25"><title>orn-3</title><g id="orn-4"><circle cx="53.51" cy="866.75" r="53.51" fill="#00cebf"/><path d="M1160.58,1575.35c-0.44-1.76-2.61-1.72-3.54-.46a35,35,0,0,0-5.91,28.66,4.23,4.23,0,0,0,1.42,2,16.88,16.88,0,0,0,1.51,2.22c0.85,1.06,2.4.51,3-.39C1163.68,1598.21,1163.2,1585.85,1160.58,1575.35Z" transform="translate(-1103.18 -750.38)" fill="#fff"/><path d="M1154.06,1614c-5.79.29-7.43,8.36-2.1,10.77a5.16,5.16,0,0,0,6.25-1.6C1161.88,1620.16,1158.83,1613.73,1154.06,1614Z" transform="translate(-1103.18 -750.38)" fill="#fff"/><path d="M1155.29,1630.6c-0.56-1.34-2.76-2.16-3.54-.46-0.15.32-.26,0.64-0.39,1a1.56,1.56,0,0,0-1.33,1.37c-1.11,6.15-2.28,12.68-1.54,18.94,0.35,2.93,1.86,10.35,6,10.42,4.77,0.08,4.43-9.07,4.5-12A47,47,0,0,0,1155.29,1630.6Z" transform="translate(-1103.18 -750.38)" fill="#fff"/><path d="M1196.48,1613.95c-3.28-2.53-7.79-2.62-11.8-2.74a57.4,57.4,0,0,0-15.46,1.75,1.69,1.69,0,0,0-1.34,1.36c-1.81.15-3.46,0.66-4.43,2.11a1.94,1.94,0,0,0,.7,2.65,34.64,34.64,0,0,0,31.94-2.09C1197,1616.41,1197.51,1614.74,1196.48,1613.95Z" transform="translate(-1103.18 -750.38)" fill="#fff"/><path d="M1145,1616.74l-1.82-.36a1.94,1.94,0,0,0-1-.31l-0.63,0c-4.16-.89-8.42-1.85-12.6-1.73a34.19,34.19,0,0,0-8.34,1.49c-1.57.45-3.62,0.74-4.7,2.07a2.24,2.24,0,0,0-.21,3.05,3.78,3.78,0,0,0,1.09,2c2.82,3.07,9.85,3.11,13.61,2.76a33.29,33.29,0,0,0,15.05-5.39C1146.74,1619.45,1146.72,1617.06,1145,1616.74Z" transform="translate(-1103.18 -750.38)" fill="#fff"/><path d="M1147.36,1606.47a38.57,38.57,0,0,0-17-15.27,2,2,0,0,0-2.85,1.16c-3.1,11,8.82,15.89,17.23,17.8a1.93,1.93,0,0,0,2.33-1.42A2,2,0,0,0,1147.36,1606.47Z" transform="translate(-1103.18 -750.38)" fill="#fff"/><path d="M1180.6,1590.27c-2.24-3-6.75.87-8.64,2.49a22.35,22.35,0,0,0-6.93,11.09c-0.51.81-1,1.63-1.41,2.46-0.73,1.41.49,3.4,2.19,2.85a24.18,24.18,0,0,0,11.84-8.27C1179.52,1598.45,1182.91,1593.38,1180.6,1590.27Z" transform="translate(-1103.18 -750.38)" fill="#fff"/><path d="M1144.56,1627.26a2,2,0,0,0-2.09-1c-8.63,1.25-13.28,8.93-16.64,16.18a2,2,0,0,0,.7,2.65c3.66,1.64,7.85-1.91,10.6-4.08a35.7,35.7,0,0,0,9.1-10.84A2,2,0,0,0,1144.56,1627.26Z" transform="translate(-1103.18 -750.38)" fill="#fff"/><path d="M1179,1634.19a30.93,30.93,0,0,0-13.6-8.13,1.79,1.79,0,0,0-2.05.76,1.88,1.88,0,0,0-2.15,2.37c1.51,5.08,3.64,9.86,8.41,12.63a27.75,27.75,0,0,0,8.37,2.85c1.52,0.32,3.77,1.11,5.17,0C1186.59,1641.94,1180.91,1636.15,1179,1634.19Z" transform="translate(-1103.18 -750.38)" fill="#fff"/><path d="M1143.91,1584a17.56,17.56,0,0,1-3.5-4.71c-1.14-2.22-4.49-.26-3.35,2a20.84,20.84,0,0,0,4.1,5.49C1143,1588.43,1145.72,1585.69,1143.91,1584Z" transform="translate(-1103.18 -750.38)" fill="#fff"/><path d="M1121.41,1605.44l-3.95-1.34a1.94,1.94,0,0,0-1,3.74l3.95,1.34A1.94,1.94,0,0,0,1121.41,1605.44Z" transform="translate(-1103.18 -750.38)" fill="#fff"/><path d="M1176.91,1578.58a2,2,0,0,0-2.65.7c-0.12.21-.25,0.4-0.38,0.59l-0.2.25-0.29.31-0.31.29-0.06.06h0c-0.26.18-.51,0.34-0.79,0.49a2,2,0,0,0-.7,2.65,2,2,0,0,0,2.65.7,8.81,8.81,0,0,0,3.43-3.39A2,2,0,0,0,1176.91,1578.58Z" transform="translate(-1103.18 -750.38)" fill="#fff"/><path d="M1198.34,1603a2,2,0,0,0-2.38-1.35,9.18,9.18,0,0,1-3.75.72c-2.5-.05-2.5,3.82,0,3.88a12,12,0,0,0,4.78-.86A2,2,0,0,0,1198.34,1603Z" transform="translate(-1103.18 -750.38)" fill="#fff"/><path d="M1123,1633.54a2,2,0,0,0-2.74,0,6.56,6.56,0,0,1-1.19,1.1,5.83,5.83,0,0,1-1.45.72,2,2,0,0,0-1.35,2.38,2,2,0,0,0,2.38,1.35,9.85,9.85,0,0,0,4.35-2.82A2,2,0,0,0,1123,1633.54Z" transform="translate(-1103.18 -750.38)" fill="#fff"/><path d="M1141.19,1652.82a2,2,0,0,0-2.38,1.35,5.25,5.25,0,0,1-1.1,2.62,2,2,0,0,0,0,2.74,2,2,0,0,0,2.74,0,9,9,0,0,0,2.1-4.33A2,2,0,0,0,1141.19,1652.82Z" transform="translate(-1103.18 -750.38)" fill="#fff"/><path d="M1176,1656.44l-2.19-4c-1.21-2.18-4.56-.23-3.35,2l2.19,4C1173.87,1660.58,1177.22,1658.62,1176,1656.44Z" transform="translate(-1103.18 -750.38)" fill="#fff"/><path d="M1198.55,1632.22l-4.29-1.47a1.94,1.94,0,1,0-1,3.74l4.29,1.47A1.94,1.94,0,0,0,1198.55,1632.22Z" transform="translate(-1103.18 -750.38)" fill="#fff"/><path d="M1169.7,1542.77c-0.06,0-35.47,2.2-35.28,2.52,2.14,3.57-1.49,13.88-1.36,13.57l3.75-4.81c1.18,1.57,3.65,5.25,3.72,4.94a39.39,39.39,0,0,1,2.22-6.29c0.93,1.88,3.34,5.89,3.47,5.65a33.1,33.1,0,0,0,2.46-5.44,46.39,46.39,0,0,0,3.34,4.74c-0.05-.1,2.65-4.58,3.19-5.9,1,1.27,4.21,5.4,4.51,5.32,0.07,0,1.14-5.12,1.82-6.35,1,1.24,3.77,6.48,3.88,6.2a37.91,37.91,0,0,0,1.76-5.56c1.23,1.18,5.73,6,4.64,4.59C1169.32,1552.65,1169.79,1542.77,1169.7,1542.77Z" transform="translate(-1103.18 -750.38)" fill="none" stroke="#00cdbd" stroke-miterlimit="10" stroke-width="0.78"/><path d="M1159.8,1522.47a50.09,50.09,0,0,0-6.53,3.32,72.46,72.46,0,0,0-7-4.15c-0.79-.37-2-0.72-2-0.43,0,1.12-.21,4.09-0.15,5.09a21.85,21.85,0,0,0,.92,5.46,0.39,0.39,0,0,0,.57.23c2.51-1.68,5-3.51,7.57-5.2,0.66,0.64,1.48,1.1,2.13,1.78s4.84,4.71,4.85,4.42C1160.29,1529.86,1160,1522.38,1159.8,1522.47Zm-14.19,8.56a23.06,23.06,0,0,1-.92-7.44c0.14-2.48-.2-2,1.06-1.36,0,0,6.57,3.64,6.87,4C1150.24,1527.78,1147.93,1529.47,1145.61,1531Zm11-2.17a35.13,35.13,0,0,1-2.78-2.51,45.32,45.32,0,0,1,5.34-3,46.45,46.45,0,0,1,.4,7.92C1158.53,1530.5,1157.64,1529.65,1156.6,1528.87Z" transform="translate(-1103.18 -750.38)" fill="#00cdbd"/><path d="M1153,1543.41s-1.55-736-2.55-793" transform="translate(-1103.18 -750.38)" fill="none" stroke="#00cdbd" stroke-miterlimit="10" stroke-width="0.64"/></g></svg>