<svg xmlns="http://www.w3.org/2000/svg" viewBox="0 0 142.01 1127.92"><title>orn-2</title><g style="isolation:isolate"><g id="Layer_1" data-name="Layer 1"><g id="orn-6"><circle cx="69.01" cy="1058.92" r="69.01" fill="#e64d61" style="mix-blend-mode:multiply"/><circle cx="73.01" cy="1057.92" r="69.01" fill="#e64d61"/><path d="M661.64,1536.85c-17,7.82-36.2,9.8-55.22,9.16-9.54-.32-19-1.25-28.48-2.46-8.2-1-18-1.55-23.71-7.45-2.07-2.15-5.59.94-3.54,3.07,5.61,5.82,14.35,7,22.53,8.13,10.43,1.39,20.93,2.55,31.47,3,20.47,0.85,41.14-1.27,59.46-9.69C667,1539.29,664.48,1535.54,661.64,1536.85Z" transform="translate(-535.4 -514.74)" fill="#fff"/><path d="M669.19,1550.16c-18.45,9.73-40.25,11.06-61.39,10.4-10.1-.32-20.29-0.82-30.33-1.85-10.83-1.11-21.8-3.3-30.49-9.29-2.49-1.71-6,1.31-3.54,3,17.12,11.8,41.79,11.59,62.68,12.34,22.53,0.81,45.91-.55,65.59-10.93C674.45,1552.42,671.94,1548.71,669.19,1550.16Z" transform="translate(-535.4 -514.74)" fill="#fff"/><path d="M658.58,1528.43c-6.24,4.28-17.34,3.12-22-2.67-0.9-1.12-2.29-1.11-2.67.33-1.45,5.57-6.81,10.33-12.47,9.14-5-1.06-8.57-5-10.59-9.55-0.67-1.5-3.25-1.43-3.68.24a11.75,11.75,0,0,1-12.55,9c-5.85-.66-10-5.84-11.22-11.27a2,2,0,0,0-3.62-.71,17.41,17.41,0,0,1-20.6,5.87c-2.4-.94-2.33,1.06.07,2,8,3.12,16,.1,22-5.67,2.4,5.67,7,11,13.33,11.67a15.66,15.66,0,0,0,15-7.67,17.56,17.56,0,0,0,13.67,8c5.73,0.28,9.74-3.75,12.33-8.67,6.31,5.52,17.25,6.52,24.33,1.67C662,1528.64,660.68,1527,658.58,1528.43Z" transform="translate(-535.4 -514.74)" fill="#fff"/><path d="M561.76,1569.69c-1.33-2.31-4.69-2.5-5.14.48a3.7,3.7,0,0,1-2.69,2.9c-1.42.36-2.85-.29-4.29,0.19-3.67,1.2-3,5.76-.32,7.65a7.86,7.86,0,0,0,8.64,0c2.91-1.9,4.24-5.33,4.34-8.69A3.39,3.39,0,0,0,561.76,1569.69Z" transform="translate(-535.4 -514.74)" fill="#fff"/><path d="M567.1,1571.65c1.53-2.12,4.7-1.88,4.75,1.12A3.66,3.66,0,0,0,574,1576c1.28,0.54,2.7.07,4,.72,3.28,1.66,2.07,6.09-.67,7.63a7.06,7.06,0,0,1-8.07-1.14c-2.48-2.25-3.29-5.82-3-9.17A3.54,3.54,0,0,1,567.1,1571.65Z" transform="translate(-535.4 -514.74)" fill="#fff"/><path d="M565,1583.22c-0.41-3.05-1.73-3-3.45-.84-0.76,1-2.78,2.55-3.63,4.22a5.92,5.92,0,0,0-1.49,4.34,6.16,6.16,0,0,0,5.37,6.34c3.88,0.32,4.3-3.47,4.76-4.24C568.17,1590.33,565,1583.27,565,1583.22Z" transform="translate(-535.4 -514.74)" fill="#fff"/><path d="M605,1585.65c-1.78-2.32-5.45-2-5.52,1.26a4.06,4.06,0,0,1-2.51,3.53c-1.49.6-3.14,0.1-4.64,0.82-3.81,1.83-2.42,6.69.75,8.36a8.62,8.62,0,0,0,9.38-1.29c2.89-2.48,3.84-6.4,3.47-10.07A3.72,3.72,0,0,0,605,1585.65Z" transform="translate(-535.4 -514.74)" fill="#fff"/><path d="M609.29,1585.58c1.36-2.52,4.83-2.72,5.32.54a4,4,0,0,0,2.8,3.18c1.47,0.4,2.94-.31,4.44.21,3.8,1.33,3.12,6.32.37,8.38a7.74,7.74,0,0,1-8.93-.08c-3-2.09-4.41-5.85-4.54-9.54A3.88,3.88,0,0,1,609.29,1585.58Z" transform="translate(-535.4 -514.74)" fill="#fff"/><path d="M610.08,1602.76c-0.88-3.26-2.32-3-3.87-.42-0.69,1.15-2.66,3.17-3.34,5.1a6.49,6.49,0,0,0-1,4.93,6.76,6.76,0,0,0,6.75,6.12c4.26-.21,4.17-4.39,4.57-5.3C614.58,1610,610.12,1602.81,610.08,1602.76Z" transform="translate(-535.4 -514.74)" fill="#fff"/><path d="M650.71,1572.47c-2-1.79-5.24-.94-4.76,2a3.72,3.72,0,0,1-1.68,3.59c-1.24.78-2.81,0.6-4,1.5-3.13,2.28-1.08,6.42,2.05,7.4a7.88,7.88,0,0,0,8.23-2.71c2.19-2.71,2.4-6.39,1.46-9.64A3.4,3.4,0,0,0,650.71,1572.47Z" transform="translate(-535.4 -514.74)" fill="#fff"/><path d="M656.42,1572.7c0.81-2.5,3.9-3.24,4.88-.39a3.67,3.67,0,0,0,3,2.4c1.39,0.12,2.6-.76,4-0.54,3.64,0.57,3.85,5.17,1.72,7.48a7.08,7.08,0,0,1-8.05,1.4c-3.06-1.38-4.94-4.54-5.65-7.84A3.55,3.55,0,0,1,656.42,1572.7Z" transform="translate(-535.4 -514.74)" fill="#fff"/><path d="M658,1584.39c-1.33-2.79-2.58-2.34-3.55.26-0.43,1.15-1.87,3.29-2.17,5.14a5.94,5.94,0,0,0-.09,4.6,6.18,6.18,0,0,0,7.08,4.39c3.8-.89,3-4.64,3.24-5.52C663.2,1590.19,658,1584.43,658,1584.39Z" transform="translate(-535.4 -514.74)" fill="#fff"/><path d="M655.37,1619.29a174.92,174.92,0,0,1-92.5,1.31c-2.58-.68-3.69,2.43-1.13,3.1a179.74,179.74,0,0,0,94.75-1.31C659,1621.65,657.92,1618.54,655.37,1619.29Z" transform="translate(-535.4 -514.74)" fill="#fff"/><path d="M551,1566.9a3.21,3.21,0,0,0-1.91-2.1,2,2,0,0,0-2.74.72,2.25,2.25,0,0,0,0,2.09,2.6,2.6,0,0,0,0,.32,2.18,2.18,0,0,0,1.51,2.1,2.38,2.38,0,0,0,1.85-.2A2.71,2.71,0,0,0,551,1566.9Z" transform="translate(-535.4 -514.74)" fill="#fff"/><path d="M581,1571.35l-0.25-.25a2,2,0,1,0-2.83,2.83l0.25,0.25A2,2,0,0,0,581,1571.35Z" transform="translate(-535.4 -514.74)" fill="#fff"/><path d="M593,1578a2.87,2.87,0,0,0-1.65.47,2,2,0,0,0-1.77,2,3.27,3.27,0,0,0,2.55,3.28,3,3,0,0,0,3.53-2.55A2.75,2.75,0,0,0,593,1578Z" transform="translate(-535.4 -514.74)" fill="#fff"/><path d="M626.35,1579a2.71,2.71,0,0,0-.75-1.67,2.39,2.39,0,0,0-1.91-.72,1.67,1.67,0,0,0-.56-0.26,2,2,0,0,0-2.46,1.4,3.24,3.24,0,0,0,2.93,4.32,2.8,2.8,0,0,0,2.68-2s0-.09,0-0.14v0A1.49,1.49,0,0,0,626.35,1579Z" transform="translate(-535.4 -514.74)" fill="#fff"/><path d="M611.31,1573.78a3.63,3.63,0,0,0-.17-0.78,4.07,4.07,0,0,0-4-2.71,4.16,4.16,0,0,0-3.84,2.85,4.24,4.24,0,0,0,1.37,4.56,4.3,4.3,0,0,0,4.68.35A4.08,4.08,0,0,0,611.31,1573.78Z" transform="translate(-535.4 -514.74)" fill="#fff"/><path d="M637.83,1572h-0.5a2,2,0,0,0,0,4h0.5A2,2,0,1,0,637.83,1572Z" transform="translate(-535.4 -514.74)" fill="#fff"/><path d="M619.65,1478.09c-0.08,0-45.75,2.83-45.5,3.25,2.77,4.61-1.93,17.91-1.75,17.5l4.84-6.2c1.53,2,4.7,6.77,4.8,6.37a50.8,50.8,0,0,1,2.87-8.11c1.21,2.43,4.3,7.6,4.48,7.28a42.69,42.69,0,0,0,3.17-7,59.83,59.83,0,0,0,4.31,6.12c-0.07-.13,3.41-5.9,4.11-7.61,1.33,1.64,5.43,7,5.82,6.86,0.1,0,1.47-6.61,2.35-8.19,1.33,1.59,4.86,8.36,5,8a48.9,48.9,0,0,0,2.27-7.17c1.58,1.52,7.39,7.75,6,5.92C619.15,1490.84,619.76,1478.09,619.65,1478.09Z" transform="translate(-535.4 -514.74)" fill="none" stroke="#00cdbd" stroke-miterlimit="10"/><path d="M606.87,1451.91a64.6,64.6,0,0,0-8.42,4.29,93.46,93.46,0,0,0-9-5.36c-1-.48-2.61-0.93-2.61-0.55,0,1.45-.27,5.28-0.19,6.56a28.18,28.18,0,0,0,1.19,7,0.5,0.5,0,0,0,.73.3c3.23-2.16,6.45-4.53,9.77-6.71,0.85,0.83,1.91,1.41,2.74,2.3,1,1.07,6.24,6.07,6.25,5.7C607.51,1461.44,607.13,1451.8,606.87,1451.91Zm-18.3,11a29.74,29.74,0,0,1-1.19-9.6c0.18-3.2-.25-2.53,1.36-1.76,0,0,8.47,4.7,8.87,5.14C594.55,1458.76,591.57,1460.94,588.58,1463Zm14.17-2.79a45.3,45.3,0,0,1-3.58-3.24,58.45,58.45,0,0,1,6.89-3.85,59.9,59.9,0,0,1,.52,10.21C605.23,1462.26,604.09,1461.17,602.75,1460.16Z" transform="translate(-535.4 -514.74)" fill="#00cdbd"/><path d="M596.17,1478.92s-3-860.17-4-964.17" transform="translate(-535.4 -514.74)" fill="none" stroke="#00cdbd" stroke-miterlimit="10"/></g></g></g></svg>