<svg id="Layer_1" data-name="Layer 1" xmlns="http://www.w3.org/2000/svg" viewBox="0 0 677.8 633.62"><title>snacks-and-drinks-mobile</title><path d="M1640.65,709.47a1.59,1.59,0,0,1,1.7-1.68l44.34,0.25c20.23,0.11,35,8.62,40.66,26.36,2.32,7.43,3.29,13.84,3.2,31.21-0.09,17.2-1.14,23.77-3.54,31.17-5.83,17.67-20.71,26-40.95,25.91l-44.34-.25a1.59,1.59,0,0,1-1.68-1.7Zm30.21,86.83,8.94,0c10.45,0.06,16.2-2.78,18.94-10.85,1-3.37,1.73-7.24,1.8-20.05s-0.58-16.7-1.57-20.07c-2.65-8.11-8.37-11-18.82-11.06l-8.94,0a0.89,0.89,0,0,0-1,1l-0.33,60A0.89,0.89,0,0,0,1670.86,796.3Z" transform="translate(-1575.76 -302.81)" fill="#e64d61" stroke="#fff" stroke-miterlimit="10" stroke-width="1.02"/><path d="M1814.7,823.41a2.28,2.28,0,0,1-2.52-1.7L1795,782.49l-11-.06a0.89,0.89,0,0,0-1,1l-0.21,38.1a1.59,1.59,0,0,1-1.69,1.68l-26.3-.15a1.59,1.59,0,0,1-1.68-1.7l0.62-111.28a1.59,1.59,0,0,1,1.7-1.68l46.7,0.26c26.3,0.15,41.22,15.57,41.1,37.15-0.08,14.33-6.89,25.93-19.06,31.93l20.83,43.79a1.3,1.3,0,0,1-1.19,2Zm-1.09-77.4c0-7.42-5-12.17-13.42-12.21l-15.85-.09a0.89,0.89,0,0,0-1,1L1783.2,757a0.89,0.89,0,0,0,1,1l15.85,0.09C1808.49,758.12,1813.57,753.43,1813.61,746Z" transform="translate(-1575.76 -302.81)" fill="#e64d61" stroke="#fff" stroke-miterlimit="10" stroke-width="1.02"/><path d="M1866.59,710.72a1.59,1.59,0,0,1,1.7-1.68l26.3,0.15a1.59,1.59,0,0,1,1.68,1.7l-0.62,111.28a1.59,1.59,0,0,1-1.7,1.68l-26.3-.15A1.59,1.59,0,0,1,1866,822Z" transform="translate(-1575.76 -302.81)" fill="#e64d61" stroke="#fff" stroke-miterlimit="10" stroke-width="1.02"/><path d="M1921.55,711a1.59,1.59,0,0,1,1.7-1.68l24.78,0.14a3,3,0,0,1,2.86,1.7l34.2,65.11h0.67l0.36-64.91a1.59,1.59,0,0,1,1.7-1.68l23.61,0.13a1.59,1.59,0,0,1,1.68,1.69l-0.62,111.28a1.59,1.59,0,0,1-1.69,1.68l-24.79-.14a3,3,0,0,1-2.86-1.7l-33.87-64.94h-1l-0.36,64.75a1.59,1.59,0,0,1-1.69,1.68l-23.6-.13a1.59,1.59,0,0,1-1.68-1.7Z" transform="translate(-1575.76 -302.81)" fill="#e64d61" stroke="#fff" stroke-miterlimit="10" stroke-width="1.02"/><path d="M2038.4,711.68a1.59,1.59,0,0,1,1.7-1.68l26.3,0.15a1.59,1.59,0,0,1,1.68,1.69l-0.25,44.85L2101,711.86a3.31,3.31,0,0,1,2.87-1.5l29.67,0.16c1.35,0,1.68,1.19,1,2.2L2100,756.87l35.88,66.46a1.14,1.14,0,0,1-1,1.85l-30.18-.17a2.56,2.56,0,0,1-2.69-1.53l-22-43.29-12.4,16.29-0.15,26.64a1.59,1.59,0,0,1-1.7,1.68l-26.3-.15a1.59,1.59,0,0,1-1.68-1.7Z" transform="translate(-1575.76 -302.81)" fill="#e64d61" stroke="#fff" stroke-miterlimit="10" stroke-width="1.02"/><path d="M2148,810.92a1.76,1.76,0,0,1-.15-2.7l15.27-17.79a1.52,1.52,0,0,1,2.36-.16c6.88,6.11,17.64,11.56,29.1,11.63,10.62,0.06,16.21-4.29,16.25-10.7,0-4.89-3.16-8.11-14.45-9.69l-6.07-.88c-24.76-3.68-38.19-14.88-38.07-36.29s16.89-35.65,42.86-35.51c15.85,0.09,30.66,5.06,40.9,12.87a1.69,1.69,0,0,1,.32,2.53l-12.75,18.31a1.68,1.68,0,0,1-2.36.49c-8.06-5.44-16.64-8.69-25.75-8.74-8.43,0-12.67,4-12.7,9.54,0,5.06,3.66,8.28,14.62,9.69l6.07,0.88c25.1,3.68,37.85,14.88,37.73,36.63-0.12,21.24-16.39,36.67-47.08,36.5C2175.35,827.43,2156.51,819.4,2148,810.92Z" transform="translate(-1575.76 -302.81)" fill="#e64d61" stroke="#fff" stroke-miterlimit="10" stroke-width="1.02"/><path d="M1730.56,764.23c0-19.83-3.5-30.52-14.73-39.16-11.66-9-32.41-8.27-49.81-7.3-3.22.18-6.41,0-6.41,1,0,29.68-.19,66-0.19,95.63,0,0.58,42.44,2.81,54.72-4.37C1727,802.47,1730.56,788.36,1730.56,764.23Zm-26.43,41.21c-12.65,2.86-16.52,1.36-29.16,1.36-1.94,0-5.72-.16-7-0.19,0.36-27.77-.47-53.47.39-81.05,13.8-.78,31.68-1.75,38.72,2.06,14.12,7.65,14.93,24.06,14.93,38.56C1722,780.94,1719.72,801.9,1704.12,805.43Z" transform="translate(-1575.76 -302.81)" fill="#fef0ed"/><path d="M1823.42,777.92a33.3,33.3,0,0,0,5.34-1.93c11.73-5.49,15.08-20,13.8-31.84-3.25-30.13-39.4-25.66-62.15-24.73-1.23.05-4,.1-4.08,0.1-0.58.1-.46,2.34-0.49,4.26-0.58,31.1-1.09,64.45-1.65,95.55,0,0.4,7,.3,7,0,0.3-12.67.38-27.6,0.62-40.27,10.44,0,23.51,1,35-.45-0.07.66,13.18,27.93,19.34,40.7,0.29,0.6,7.68,0,7.58-.17C1837.37,806.51,1830.17,790.47,1823.42,777.92Zm-41.48-5.87,0.85-45.84c21.72-2.61,52.15-5.86,53,21.45,0.5,15.85-8.67,23.65-23.8,24.34C1802,772.46,1792,771.93,1781.94,772.05Z" transform="translate(-1575.76 -302.81)" fill="#fef0ed"/><path d="M1895.92,721.51c0-.09-7.11-0.37-7.11-0.06,0.26,32.72-.18,65.37,0,96.13a46.88,46.88,0,0,0,7.07.07C1895.92,785.51,1896.69,753.13,1895.92,721.51Z" transform="translate(-1575.76 -302.81)" fill="#fef0ed"/><path d="M2133.69,820.79c-5.25-8.16-34.7-60.94-35.28-62.1,0.86-.92,22.79-28.48,32-39,0,0-10.31-.07-10.4,0-5.15,6.56-52.48,64.09-52.48,64.58,0.23-19.07.55-48.58,0.49-64,0-.63-8.05-0.31-8.05-0.18-0.44,30.63-.88,67.55-1.13,99.42a62.92,62.92,0,0,0,8.8.08c0-8.84.66-15,.78-24.49,0.93-.48,17.3-22.36,24.78-30,11.08,19,22,41.09,31.2,55.69A87.22,87.22,0,0,0,2133.69,820.79Z" transform="translate(-1575.76 -302.81)" fill="#fef0ed"/><path d="M2237.48,783.66c-3.34-16.7-30.81-18-44.61-20.58-18.35-3.42-18.9-25.16-3.42-33.61,11.78-6.43,25.7-1.73,37.33,2.41,0.2,0.07,3.51-6,3.12-6.15-13.92-7-33.95-10.5-47.56.06-9.89,7.67-15.11,24-7.84,35.07,9.12,13.9,34.46,7.79,47.46,15.59,16.92,10.16,7.95,37.63-16.17,37.72-10.56,0-23.91-4.08-32.27-10.11-0.06,0-6,6.41-5.64,6.61,12.64,6.32,39.59,15.75,57,6.61C2235.93,811.46,2240,796.06,2237.48,783.66Z" transform="translate(-1575.76 -302.81)" fill="#fef0ed"/><path d="M2014.44,722.53c-0.05-.44-8.12-0.82-8.16,0-0.93,19.33-.29,77.85-0.15,84.84-0.37-.56-1.05-0.27-1.17-0.44-10.93-16.47-42.45-70.64-55.12-87.43-0.28-.37-7.71,0-7.71.11-0.81,17.8-1.9,70.5-1.9,99.86,0,0.29,7.87.58,7.87,0.29,0-25.08,1-61.08,1-89.18,10.89,17.48,49.19,80.43,56.19,88.6,0.54,0.63,8.6.73,8.6,0.44C2013.86,804.46,2015,727.21,2014.44,722.53Z" transform="translate(-1575.76 -302.81)" fill="#fef0ed"/><path d="M1601.09,481a1.76,1.76,0,0,1-.15-2.7l15.27-17.79a1.52,1.52,0,0,1,2.36-.16c6.88,6.11,17.64,11.56,29.1,11.63,10.62,0.06,16.21-4.29,16.25-10.7,0-4.89-3.16-8.11-14.45-9.69l-6.07-.88c-24.76-3.68-38.19-14.88-38.07-36.29s16.89-35.65,42.86-35.51c15.85,0.09,30.66,5.06,40.9,12.87a1.69,1.69,0,0,1,.32,2.53l-12.75,18.31a1.69,1.69,0,0,1-2.36.49c-8.06-5.44-16.64-8.69-25.75-8.74-8.43,0-12.67,4-12.7,9.54,0,5.06,3.66,8.28,14.62,9.69l6.07,0.88c25.1,3.68,37.85,14.88,37.73,36.63-0.12,21.24-16.39,36.67-47.08,36.5C1628.48,497.53,1609.64,489.5,1601.09,481Z" transform="translate(-1575.76 -302.81)" fill="#e64d61" stroke="#fff" stroke-miterlimit="10" stroke-width="1.02"/><path d="M1715.28,383a1.59,1.59,0,0,1,1.7-1.68l24.78,0.14a3,3,0,0,1,2.86,1.7l34.21,65.1h0.67l0.36-64.91a1.59,1.59,0,0,1,1.69-1.68l23.61,0.13a1.59,1.59,0,0,1,1.68,1.7l-0.62,111.28a1.59,1.59,0,0,1-1.69,1.68l-24.79-.14a3,3,0,0,1-2.86-1.7L1743,429.71h-1l-0.36,64.74a1.59,1.59,0,0,1-1.69,1.68l-23.6-.13a1.59,1.59,0,0,1-1.68-1.7Z" transform="translate(-1575.76 -302.81)" fill="#e64d61" stroke="#fff" stroke-miterlimit="10" stroke-width="1.02"/><path d="M1864.16,383.85a2.18,2.18,0,0,1,2.2-1.67l27.48,0.15A2.19,2.19,0,0,1,1896,384l38.16,111.5a1.15,1.15,0,0,1-1.19,1.68l-27.82-.15a2.18,2.18,0,0,1-2.18-1.7l-5.3-17.73-37.26-.21-5.49,17.67a2.18,2.18,0,0,1-2.2,1.67l-27.65-.15a1.15,1.15,0,0,1-1.17-1.69ZM1890.42,453L1880,417.15h-0.51l-11.33,35.68Z" transform="translate(-1575.76 -302.81)" fill="#e64d61" stroke="#fff" stroke-miterlimit="10" stroke-width="1.02"/><path d="M1943.78,439.93c0.09-17,1-23.26,3.54-31,6.17-18.68,21.06-28.21,41.8-28.09,20.23,0.11,34.68,9.8,41,26.36,0.5,1.18.33,1.86-.86,2.36l-22.48,9.66c-1.18.5-1.86,0.16-2.35-1-3.17-6.76-7.19-10.83-14.95-10.87-7.25,0-11.82,3.48-13.88,9.87-1.2,3.53-1.73,7.07-1.81,22.92s0.4,19.39,1.56,22.94c2,6.42,6.52,10,13.77,10,7.76,0,11.83-4,15.07-10.71,0.51-1.18,1.19-1.51,2.37-1l22.37,9.9c1.18,0.51,1.34,1.19.83,2.37-6.5,16.49-21.05,26-41.29,25.91-20.74-.12-35.52-9.81-41.49-28.56C1944.49,463.2,1943.68,457,1943.78,439.93Z" transform="translate(-1575.76 -302.81)" fill="#e64d61" stroke="#fff" stroke-miterlimit="10" stroke-width="1.02"/><path d="M2050.31,384.88a1.59,1.59,0,0,1,1.7-1.68l26.3,0.15A1.59,1.59,0,0,1,2080,385l-0.25,44.85,33.13-44.84a3.31,3.31,0,0,1,2.87-1.5l29.67,0.16c1.35,0,1.68,1.19,1,2.2l-34.47,44.15,35.88,66.46a1.14,1.14,0,0,1-1,1.85l-30.18-.17a2.56,2.56,0,0,1-2.69-1.53l-22-43.29-12.4,16.29-0.15,26.64a1.59,1.59,0,0,1-1.7,1.68l-26.3-.15a1.59,1.59,0,0,1-1.68-1.7Z" transform="translate(-1575.76 -302.81)" fill="#e64d61" stroke="#fff" stroke-miterlimit="10" stroke-width="1.02"/><path d="M2159.86,484.13a1.76,1.76,0,0,1-.15-2.7L2175,463.64a1.52,1.52,0,0,1,2.36-.16c6.88,6.11,17.64,11.56,29.11,11.63,10.62,0.06,16.21-4.29,16.25-10.7,0-4.89-3.16-8.11-14.45-9.69l-6.07-.88c-24.77-3.68-38.19-14.88-38.07-36.29S2181,381.9,2207,382c15.85,0.09,30.66,5.06,40.9,12.87a1.69,1.69,0,0,1,.32,2.53l-12.75,18.31a1.69,1.69,0,0,1-2.36.49c-8.06-5.44-16.64-8.69-25.75-8.74-8.43,0-12.67,4-12.7,9.54,0,5.06,3.66,8.28,14.62,9.69l6.07,0.88c25.1,3.68,37.85,14.88,37.73,36.63-0.12,21.24-16.39,36.67-47.08,36.5C2187.26,500.63,2168.42,492.61,2159.86,484.13Z" transform="translate(-1575.76 -302.81)" fill="#e64d61" stroke="#fff" stroke-miterlimit="10" stroke-width="1.02"/><path d="M1791.07,390.2c-0.05-.44-8.12-0.82-8.16,0-0.93,19.33-.29,77.85-0.15,84.84-0.37-.56-1.05-0.27-1.17-0.44-10.93-16.47-42.45-70.64-55.12-87.43-0.28-.37-7.71,0-7.71.11-0.81,17.8-1.9,70.5-1.9,99.86,0,0.29,7.87.58,7.87,0.29,0-25.08,1-61.08,1-89.18,10.89,17.48,49.19,80.43,56.19,88.6,0.54,0.63,8.6.73,8.6,0.44C1790.48,472.13,1791.62,394.88,1791.07,390.2Z" transform="translate(-1575.76 -302.81)" fill="#fef0ed"/><path d="M1914.79,488.07c-7.14-22-29.94-92.53-33.43-96-1-1-15.74-1.17-16.13-.39-14.6,29.19-24.3,63.37-36.31,94.45-0.48,1.24,7.48,1.45,7.77.78,2.88-6.6,5.81-14,8.55-20.8,0.56,0.56,32.42-.76,54.39-0.57,3.66,12.18,5.83,19.24,7,22.54C1906.78,488.43,1915,488.77,1914.79,488.07Zm-67.64-29.54c8.58-20.81,14.72-40.11,23.71-60.74,0,0,5.44-.1,5.64.29,5.06,10.12,13.57,39.86,21.58,60.26C1882.72,458.72,1863.86,458.72,1847.14,458.52Z" transform="translate(-1575.76 -302.81)" fill="#fef0ed"/><path d="M1960.71,400.24c10.77-10.43,33.54-6.58,41.74,5,0.26,0.37,5.18-2.13,4.86-2.72-7.13-13.24-28.16-17.36-42-11.86-16.92,6.73-18.76,31.83-19.08,47.27-0.36,17.35.46,40.8,18.62,49.16a30.82,30.82,0,0,0,39.54-12.59c0.38-.65-3.71-2.79-4-2.35-9,12.26-25.43,17.47-38.26,7.68-11.61-8.86-11.48-28.61-11.21-41.9C1951.15,426.38,1951.72,409,1960.71,400.24Z" transform="translate(-1575.76 -302.81)" fill="#fef0ed" stroke="#fef0ed" stroke-miterlimit="10" stroke-width="2.33"/><path d="M2126.65,489c-5.25-8.16-34.7-60.94-35.28-62.1,0.86-.92,22.79-28.48,32-39,0,0-10.31-.07-10.4,0-5.15,6.56-52.48,64.09-52.48,64.58,0.23-19.07.55-48.58,0.49-64,0-.63-8.05-0.31-8.05-0.18-0.44,30.63-.88,67.55-1.13,99.42a62.92,62.92,0,0,0,8.8.08c0-8.84.66-15,.78-24.49,0.93-.48,17.3-22.36,24.78-30,11.08,19,22,41.09,31.2,55.69A87.22,87.22,0,0,0,2126.65,489Z" transform="translate(-1575.76 -302.81)" fill="#fef0ed"/><path d="M2233.95,453.66c-3.34-16.7-30.81-18-44.61-20.58-18.35-3.42-18.9-25.16-3.42-33.61,11.78-6.43,25.7-1.73,37.33,2.41,0.2,0.07,3.51-6,3.12-6.15-13.92-7-33.95-10.5-47.56.06-9.89,7.67-15.11,24-7.84,35.07,9.12,13.9,34.46,7.79,47.46,15.59,16.92,10.16,7.95,37.63-16.17,37.72-10.56,0-23.91-4.08-32.27-10.11-0.06,0-6,6.41-5.64,6.61,12.64,6.32,39.59,15.75,57,6.61C2232.39,481.46,2236.43,466.07,2233.95,453.66Z" transform="translate(-1575.76 -302.81)" fill="#fef0ed"/><path d="M1674.15,451.33c-3.34-16.7-30.81-18-44.61-20.58-18.35-3.42-18.9-25.16-3.42-33.61,11.78-6.43,25.7-1.73,37.33,2.41,0.2,0.07,3.51-6,3.12-6.15-13.92-7-33.95-10.5-47.56.06-9.89,7.67-15.11,24-7.84,35.07,9.12,13.9,34.46,7.79,47.46,15.59,16.92,10.16,7.95,37.63-16.17,37.72-10.56,0-23.91-4.08-32.27-10.11-0.06,0-6,6.41-5.64,6.61,12.64,6.32,39.59,15.75,57,6.61C1672.6,479.13,1676.63,463.73,1674.15,451.33Z" transform="translate(-1575.76 -302.81)" fill="#fef0ed"/><path d="M1923.91,629.83c-7.73.79-12.47-1.58-14.68-6.31-0.63-1.42-.47-2.53,1.58-2.53,9.95,0.16,22.57-4.58,32.36-5.21,7.58-.47,12,2.84,14.21,7.58,0.47,1.74.16,2.68-1.58,2.53a54.27,54.27,0,0,0-15.94.95c1.11,4.42-.32,10.42-5.37,17-9,11.68-29.2,20.68-44.2,7.58-17-14.84-3.31-42.94,21.63-50-5.05-1.74-9-5.53-9.31-12.31-0.79-15.47,16.89-29.2,27.47-32.52,8.05-2.53,15.15-3.79,22.26,2.37,6.79,5.84,7.26,10.73,3.47,18.63-2.21,4.74-5.05,11.37-6.47,15.31-0.47,1.26-1.42,1.74-3.32.79-3.63-1.89-6.31-7.1-3.47-15.15,3-8.68,7.89-13.42,5.05-16.1-4.74-4.58-34.89,12.94-33.78,28.73,0.47,6.31,5.37,7.26,11.52,7.1,7.74-.16,10.73,3.95,11.68,6.63,0.63,1.58-.16,2.05-1.74,2.21-23.36,1.89-42.78,16.26-43.25,31.41-0.16,6.47,3.63,11.37,10.58,11.84,7.73,0.47,21.47-6.31,28.57-21.78C1928.49,629,1926.12,629.67,1923.91,629.83Z" transform="translate(-1575.76 -302.81)" fill="#fef0ed"/><path d="M1917.2,617.5c-7.73.79-12.47-1.58-14.68-6.31-0.63-1.42-.47-2.53,1.58-2.53,9.95,0.16,22.57-4.58,32.36-5.21,7.58-.47,12,2.84,14.21,7.58,0.47,1.74.16,2.68-1.58,2.53a54.27,54.27,0,0,0-15.94.95c1.11,4.42-.32,10.42-5.37,17-9,11.68-29.2,20.68-44.2,7.58-17-14.84-3.31-42.94,21.63-50-5.05-1.74-9-5.53-9.31-12.31-0.79-15.47,16.89-29.2,27.47-32.52,8.05-2.53,15.15-3.79,22.26,2.37,6.79,5.84,7.26,10.73,3.47,18.63-2.21,4.74-5.05,11.37-6.47,15.31-0.47,1.26-1.42,1.74-3.32.79-3.63-1.89-6.31-7.1-3.47-15.15,3-8.68,7.89-13.42,5.05-16.1-4.74-4.58-34.89,12.94-33.78,28.73,0.47,6.31,5.37,7.26,11.52,7.1,7.74-.16,10.73,3.95,11.68,6.63,0.63,1.58-.16,2.05-1.74,2.21-23.36,1.89-42.78,16.26-43.25,31.41-0.16,6.47,3.63,11.37,10.58,11.84,7.73,0.47,21.47-6.31,28.57-21.78C1921.78,616.71,1919.41,617.35,1917.2,617.5Z" transform="translate(-1575.76 -302.81)" fill="#00cdbd"/><line x1="422.73" y1="296.05" x2="597.99" y2="294.86" fill="none" stroke="#e64d61" stroke-miterlimit="10" stroke-width="3.26"/><line x1="76.73" y1="296.05" x2="251.99" y2="294.86" fill="none" stroke="#e64d61" stroke-miterlimit="10" stroke-width="3.26"/><path d="M1600.46,357.08c3.18,3.23,1.42,9.23-.24,12.06a12.83,12.83,0,0,1-11.56,6.63c-3.23-.22-7.09-2.81-9.33-7.5-5.72-12.18-.1-27.27,5.28-32.66,2.58-2.61,5.32-4.11,7.9-3.32a11.77,11.77,0,0,1,5,2.86,7.26,7.26,0,0,1,1.76,5.33c-0.07,2.18.13,4.81,0.25,6.77a0.82,0.82,0,0,1-1.12.92c-1.72-.27-3.45-1.66-3.87-4.94-0.45-3.48.16-7.72-1.79-8.51-2.4-1-9.11,7.61-10.46,18.57-1.32,10.74,3.09,19,7,20.1,5.05,1.36,9.46-5.27,10-15.87C1599.19,356.74,1599.83,356.46,1600.46,357.08Z" transform="translate(-1575.76 -302.81)" fill="#fef0ed" stroke="#e64d61" stroke-miterlimit="10" stroke-width="2.33"/><path d="M1613.17,364.53c2.88-1,5.08-7,5.34-12.46,0.07-.94.68-1.28,1.27-0.57a5.82,5.82,0,0,1,1,3.85c0,2.1-2.11,8.8-6.8,10.75-4,1.67-7.43-.15-8.9-7-2.36-11-.45-24.47,2.72-33.25,0.46-1.31,1.21-1.79,2.36-1.4,2.35,0.75,3.66,2.74,4.18,5.78,1.39,7.93-2,17.78-5.64,23.44C1608.95,360.37,1610.46,365.47,1613.17,364.53Zm-1.31-34.65c-1-.13-2.37,8.22-3.05,17.42a33.66,33.66,0,0,0-.15,3.4C1613.72,340.73,1612.82,330,1611.86,329.88Z" transform="translate(-1575.76 -302.81)" fill="#fef0ed" stroke="#e64d61" stroke-miterlimit="10" stroke-width="2.33"/><path d="M1632.41,330.15q0.28-1.48,1.24-1c1.33,0.65,2.91,2.94,2.82,6.46-0.11,3.18-1.06,8.81-1.08,12.51,0,3.89,1.06,6.41,3,5.41,2.32-1.18,3.75-6.54,4-11.44,0.06-.65.44-0.89,0.9-0.47a5.7,5.7,0,0,1,1.08,3.82c-0.08,3.86-2.31,8.68-5.57,9.93s-5.66.1-6.87-2.63c-0.79,3.2-2.44,6.51-5.22,7.75-5.39,2.41-9.78-4.46-8.1-13.61,1.64-8.93,5-13.58,7.94-14.88,2.49-1.11,4.5.28,5.4,2.59C1632,332.89,1632.18,331.36,1632.41,330.15Zm-3.57,4.45c-1.93.65-4.48,6.31-5.36,12.89-0.84,6.35.68,11.79,3,10.84s3.75-6.06,4.43-12.48C1631.68,337.84,1630.59,334,1628.84,334.59Z" transform="translate(-1575.76 -302.81)" fill="#fef0ed" stroke="#e64d61" stroke-miterlimit="10" stroke-width="2.33"/><path d="M1645.34,327.84c-0.72-2.39-.63-3.75.09-5.39s2-2.56,2.74-2.27,0.83,1.09.68,2.76c-0.08.45-.09,0.88-0.14,1.38,2,5.51,5.1,9.54,6.71,13.61,0.89,2.31,1.58,4.92.11,7.25,3.23-3.18,4.11-7.75,4.16-11.52a0.63,0.63,0,0,1,1.1-.49c0.46,0.42,1.08,1.95.9,4.18a13.37,13.37,0,0,1-7.4,11c-3.31,1.62-6.94,2.2-10.51-.51-2.56-2-4.09-5.89-2.85-8.39,0.44-.89,1-0.87,1.48,0,0.27,0.44.47,0.9,0.74,1.34A125.4,125.4,0,0,0,1645.34,327.84Zm-0.29,15.84c2.37,3,5.11,4.6,6.77,3.16,2.3-2-2.63-10.71-4.94-15.24A111.54,111.54,0,0,1,1645.05,343.68Z" transform="translate(-1575.76 -302.81)" fill="#fef0ed" stroke="#e64d61" stroke-miterlimit="10" stroke-width="2.33"/><path d="M1662.83,320c-0.72-2.39-.63-3.75.09-5.39s2-2.56,2.74-2.27,0.83,1.09.67,2.76c-0.08.45-.09,0.88-0.14,1.38,2,5.51,5.1,9.54,6.71,13.61,0.9,2.31,1.58,4.92.11,7.25,3.23-3.18,4.11-7.75,4.16-11.52a0.63,0.63,0,0,1,1.1-.49c0.46,0.42,1.08,1.95.9,4.18a13.37,13.37,0,0,1-7.4,11c-3.31,1.62-6.94,2.2-10.52-.51-2.55-2-4.09-5.89-2.85-8.39,0.44-.89,1-0.87,1.48,0,0.26,0.44.47,0.9,0.74,1.34A125.67,125.67,0,0,0,1662.83,320Zm-0.29,15.83c2.37,3,5.11,4.6,6.76,3.16,2.3-2-2.63-10.71-4.94-15.24A111.05,111.05,0,0,1,1662.55,335.86Z" transform="translate(-1575.76 -302.81)" fill="#fef0ed" stroke="#e64d61" stroke-miterlimit="10" stroke-width="2.33"/><path d="M1692.3,332.77c0.23,9.21.28,20.38-3.7,24.38-0.92.9-2,1.39-3.85,0.26s-4-2.73-4.37-6.66c-0.59-6,2.78-11.67,7.5-16.49,0-1.59-.08-3.3-0.07-5-1,2.66-2.49,5.15-4.89,6-4.33,1.52-6.33-2.66-6.71-7.08a67.7,67.7,0,0,1,1.33-18.18,0.88,0.88,0,0,1,1.45-.65c2.22,1.23,3,3.82,2.34,8.2a57.88,57.88,0,0,0-.68,10.45c0.11,3.36,1.13,5.33,2.52,4.85,2.34-.84,3.58-5.84,4.28-12.2,0.58-5.4.74-11.73,1.44-15.59,0.18-1,.54-1.28,1.27-1.05,1.28,0.68,2.85,3,2.67,6.59-0.24,4.14-.66,12.67-0.58,19.37a33.8,33.8,0,0,0,6.26-13.5c0.11-.54.6-0.83,1-0.3A5.69,5.69,0,0,1,1700,320C1699.3,324.64,1696.23,328.65,1692.3,332.77ZM1685,354.92c1.25,0.76,3.17-7.67,3-17.79C1682.41,344.84,1683.35,353.94,1685,354.92Z" transform="translate(-1575.76 -302.81)" fill="#fef0ed" stroke="#e64d61" stroke-miterlimit="10" stroke-width="2.33"/><path d="M1593.57,669.55c-0.32-.41-0.25-0.72.33-1,4.91-1.92,10.3-6.34,13.54-7.79a5.16,5.16,0,0,1,6.07.83c0.38,0.38.45,0.84-.31,1.18-4.37,1.88-7.91,4.85-11.21,7-0.55,4.21-1.18,10.12-1.68,16.6a31.49,31.49,0,0,1,3.67-2.2c2.82-1.47,4.81-.9,6.11.61,0.41,0.44.45,0.84-.25,1.15a53.23,53.23,0,0,0-9.93,6.39c-0.29,5.27-.49,10.57-0.43,15.21,0,0.68-.32.84-0.88,0.67-1.51-.43-2.92-2-3.31-6.17-0.54-5.87.47-19.94,1.86-30.51A4.63,4.63,0,0,1,1593.57,669.55Z" transform="translate(-1575.76 -302.81)" fill="#fef0ed" stroke="#e64d61" stroke-miterlimit="10" stroke-width="2.33"/><path d="M1627.36,667.72q0.28-1.48,1.24-1c1.33,0.66,2.91,2.94,2.82,6.46-0.11,3.17-1.06,8.81-1.08,12.5,0,3.89,1.06,6.41,3,5.41,2.32-1.18,3.75-6.54,4-11.44,0.06-.65.44-0.89,0.9-0.47a5.71,5.71,0,0,1,1.08,3.82c-0.08,3.86-2.31,8.67-5.57,9.92s-5.66.1-6.87-2.62c-0.79,3.2-2.44,6.51-5.22,7.75-5.39,2.41-9.78-4.46-8.1-13.61,1.64-8.93,5-13.58,7.94-14.88,2.49-1.11,4.5.28,5.4,2.59A44.87,44.87,0,0,1,1627.36,667.72Zm-3.57,4.45c-1.93.65-4.48,6.31-5.36,12.89-0.84,6.35.68,11.79,3,10.84s3.75-6.06,4.43-12.48C1626.63,675.42,1625.55,671.59,1623.79,672.17Z" transform="translate(-1575.76 -302.81)" fill="#fef0ed" stroke="#e64d61" stroke-miterlimit="10" stroke-width="2.33"/><path d="M1647.65,658.24c2-.57,5.11,1.47,5,5.13-0.08,3.09-1,8.65-1,12.25,0,4,1.56,6.6,3.59,5.55,2.32-1.18,3.45-6.27,3.84-11.31,0.06-.65.46-0.83,1-0.5,0.69,0.46,1.17,1.84,1.11,3.88-0.11,3.94-2.44,8.53-5.8,10-4.92,2.2-7.69-.87-8.26-6.66-0.63-6.53,1.73-14.95.48-14.95-0.68,0-3.32,3.15-5.21,8.86-1.76,5.24-1.82,11.93-1.88,18.49,0,0.63-.24,1-1,0.72-1.68-.64-2.88-2.4-3.25-5.71-0.47-4.17.39-14.21,1.63-21.23,0.12-.82.61-1,1.22-0.54,1.52,1.06,2.34,3.05,2.63,5.42C1643.1,663.75,1645.61,658.8,1647.65,658.24Z" transform="translate(-1575.76 -302.81)" fill="#fef0ed" stroke="#e64d61" stroke-miterlimit="10" stroke-width="2.33"/><path d="M1671.24,651.93c2.3,1.89,1.36,6,1.6,9.64,0.08,0.8-.08,1.08-1,1-1.7-.07-3.29-1.45-3.64-4.42-0.29-2.37.33-5.64-.77-5.91-1.35-.37-4,5.28-4.28,11.71-0.26,8,3.1,12.23,6.55,10.76,4.89-2.12,7-8.61,7.73-13.33,0.08-.59.58-0.88,1.07-0.41a5.75,5.75,0,0,1,.51,3.94,15.84,15.84,0,0,1-8.36,11.31c-7.3,3.4-13-2.67-12.58-11.82,0.44-9,4.9-14.7,8.57-14.25A8.4,8.4,0,0,1,1671.24,651.93Z" transform="translate(-1575.76 -302.81)" fill="#fef0ed" stroke="#e64d61" stroke-miterlimit="10" stroke-width="2.33"/><path d="M1692.52,668c0.23,9.21.28,20.38-3.7,24.38-0.92.9-2,1.39-3.85,0.26s-4-2.73-4.37-6.67c-0.59-6,2.78-11.67,7.5-16.49,0-1.59-.08-3.3-0.07-5-1,2.66-2.5,5.15-4.89,6-4.33,1.52-6.33-2.66-6.71-7.08a67.61,67.61,0,0,1,1.33-18.17,0.88,0.88,0,0,1,1.45-.65c2.22,1.23,3,3.82,2.34,8.2a57.8,57.8,0,0,0-.68,10.45c0.11,3.36,1.13,5.33,2.52,4.85,2.34-.84,3.58-5.84,4.28-12.2,0.58-5.4.74-11.73,1.44-15.59,0.19-1,.54-1.28,1.27-1.05,1.28,0.68,2.85,3,2.67,6.59-0.24,4.14-.66,12.67-0.58,19.37a33.77,33.77,0,0,0,6.26-13.5c0.11-.53.6-0.83,1-0.3a5.68,5.68,0,0,1,.46,3.83C1699.52,659.86,1696.45,663.87,1692.52,668Zm-7.26,22.15c1.25,0.76,3.17-7.67,3-17.79C1682.63,680.06,1683.57,689.16,1685.26,690.14Z" transform="translate(-1575.76 -302.81)" fill="#fef0ed" stroke="#e64d61" stroke-miterlimit="10" stroke-width="2.33"/><path d="M1618.47,885.38c-0.28-.61-0.11-0.89.55-0.94,3.88-.33,8.87-3,12.58-3.27,2.83-.17,5.54.72,6.54,4.49a10.23,10.23,0,0,1-1.94,9.26,22.73,22.73,0,0,1-8.65,6.6,6.67,6.67,0,0,1,2.66,2.33c1.16,1.72,1.11,5-1.28,7.59a18.91,18.91,0,0,1-9.7,5.16c-2.11.39-3.44,0.33-4.66-.28a7.78,7.78,0,0,1-2.83-2.55c-0.83-1.22-1.39-2.11-.11-5.65a103.32,103.32,0,0,1,10.59-20.51A4.15,4.15,0,0,1,1618.47,885.38Zm3.16,17.74a6.24,6.24,0,0,1-3.44-.39,51.57,51.57,0,0,0-3.71,8.59c-0.61,1.94,0,2.61,1.77,2.38,3.55-.44,8.31-2.72,10.7-5.65,2.05-2.55,2.05-5-3-5.32C1623.18,902.9,1622.41,903,1621.63,903.12Zm14.47-17c-1.11-2.88-6.6-.33-10.42.89,0.11,1.22-.28,2.88-1.66,5.43-1.11,2.05-2.72,4.66-4.32,7.48C1630.67,897.41,1637.49,889.93,1636.1,886.16Z" transform="translate(-1575.76 -302.81)" fill="#fef0ed"/><path d="M1649.63,895.86c0.67-.44,1.11-0.55,1.5-0.11,1.05,1.16,2.38,3.6.78,5.43-2.5,2.83-5.21,6.32-6.1,9.2s-0.22,5,1.38,5.1c2.16,0.11,4.82-3.33,6.6-7.32,0.22-.44.55-0.5,0.78-0.06a4.83,4.83,0,0,1-.28,3.44c-1.27,3.22-4.49,5.54-7.43,5.43-4-.17-5.6-3.83-4.21-8,1.22-3.66,4.43-7.6,6.65-10.15a12,12,0,0,1-6.49,2.11c-2.11,3.88-7.43,11.75-8.48,16.8-0.11.5-.44,0.78-0.94,0.28-1.61-1.66-1.61-4.21-.11-7,1.28-2.44,5-7.65,7-10.59-3.16-2.05,1.66-8.59,3.71-8.65,1.72-.06,1.27,3.16-0.11,6.65A13.11,13.11,0,0,0,1649.63,895.86Z" transform="translate(-1575.76 -302.81)" fill="#fef0ed"/><path d="M1653.18,908.66a68.38,68.38,0,0,1,7.1-13.47c0.5-.66.89-0.83,1.33-0.33,0.83,0.89,1.28,3.27-.06,6-1.16,2.44-3.49,6.21-4.66,9-1.33,3.21-1.22,5.38.55,5.27,2.5-.11,5.54-3.77,7.21-7.59,0.28-.5.67-0.44,0.89,0a4,4,0,0,1-.39,3.44c-1.66,3.44-5.16,5.76-8.26,5.76C1652.68,916.76,1651.62,913.21,1653.18,908.66Zm12.36-14.47c-0.72.78-2.27,0.61-3.1-.83a3.44,3.44,0,0,1,.28-4.1c0.89-.94,2.5-0.28,3.22,1.22A3.35,3.35,0,0,1,1665.54,894.19Z" transform="translate(-1575.76 -302.81)" fill="#fef0ed"/><path d="M1681.17,894.19c1.83,0.28,3.55,3,2.16,5.88-1.16,2.44-3.88,6.54-5.16,9.42-1.44,3.21-1.11,5.82.89,5.71,2.27-.11,5-3.77,7.1-7.65,0.28-.5.67-0.5,0.94-0.06,0.39,0.61.28,1.88-.5,3.49-1.5,3.1-5,5.93-8.21,5.93-4.71,0-5.82-3.44-4.21-8.26,1.83-5.43,6.71-11.31,5.71-11.75-0.55-.22-3.77,1.33-7.32,5.21-3.27,3.55-5.71,8.87-8.09,14.08-0.22.5-.55,0.72-1.05,0.22-1.11-1.11-1.44-2.94-.55-5.71,1.11-3.49,5.38-11.2,8.87-16.35,0.39-.61.83-0.55,1.16,0,0.83,1.39.78,3.27,0.17,5.27C1675.57,897,1679.34,893.92,1681.17,894.19Z" transform="translate(-1575.76 -302.81)" fill="#fef0ed"/><path d="M1697.63,918.2c-3,7.43-7,16.24-11.47,18-1.11.44-2.22,0.28-3.21-1.16a7,7,0,0,1-1.11-6.87c1.61-5,6.38-8.37,11.86-10.48,0.55-1.22,1.05-2.55,1.61-3.83a8.24,8.24,0,0,1-5.6,2.77c-5.1,0-6.1-6.93-1.61-13.58,4.32-6.43,8.81-8.93,11.64-8.93,2.22,0,3.33,1.72,3.27,3.66,0.67-1.11,1.28-2.11,1.83-3,0.44-.78,1-0.83,1.39-0.33,0.83,1,1.27,3.38-.11,6.1-1.66,3.33-5.16,10-7.48,15.41a27.66,27.66,0,0,0,9.92-8.32c0.33-.44.83-0.44,0.94,0.11a5.43,5.43,0,0,1-1.11,3.21C1706.23,914.32,1702.24,916.54,1697.63,918.2Zm-13.58,14.91c0.72,1.05,5.1-4.71,8.7-13.14C1685.55,924.18,1683.11,931.78,1684.05,933.11ZM1700.57,897c-1.72-.11-5.77,3.44-8.81,8.26s-3.6,9.65-1.39,9.7,5-3.44,7.82-8.32C1701.68,900.51,1702.18,897.08,1700.57,897Z" transform="translate(-1575.76 -302.81)" fill="#fef0ed"/><path d="M1728.35,897.3a6,6,0,0,1,2-4.27c1.22-1.11,2.5-1.33,3-.83s0.28,1.16-.44,2.44c-0.22.33-.39,0.67-0.61,1.05-0.39,5.1.66,9.42,0.5,13.25-0.11,2.16-.5,4.49-2.49,5.82,3.71-1.39,6-4.71,7.43-7.71a0.55,0.55,0,0,1,1.05,0,5,5,0,0,1-.78,3.66,11.68,11.68,0,0,1-9.81,6.1c-3.21.11-6.32-.72-8.2-4.16-1.33-2.49-1.17-6.15.72-7.71,0.67-.55,1.11-0.33,1.17.55,0.05,0.44.05,0.89,0.11,1.33A110.27,110.27,0,0,0,1728.35,897.3Zm-5.88,12.53c0.83,3.21,2.44,5.49,4.27,4.93,2.55-.78,1.72-9.48,1.5-13.91A97.48,97.48,0,0,1,1722.47,909.83Z" transform="translate(-1575.76 -302.81)" fill="#fef0ed"/><path d="M1789,911c-1.55,3-5.1,5.93-8.26,5.88-4.77-.06-6.43-3.83-4.49-8.32,2-4.66,6.93-10.75,6.1-11.09-0.44-.17-2.38.55-5.93,4.1-4.55,4.54-7.26,9.81-9.59,15-0.28.67-.78,0.83-1.28,0.33-0.89-.89-1.55-3-0.06-6.93,1.77-4.6,7.71-12.2,6.65-12.64-0.55-.22-3.33,1.28-6.87,5.16-3.21,3.49-5.88,8.59-8.09,13.8-0.22.44-.5,0.61-1.05,0.17-1.16-.94-1.44-2.83-0.55-5.6a55.62,55.62,0,0,1,3.55-7.76,7.67,7.67,0,0,1-5.16,1.39c-1.11,4.77-4.6,10.53-8.7,11.86a6,6,0,0,1-7-2.38c-2.38-3.21-1.55-8.09.94-12.47,2.11-3.71,5.49-7,8.81-7.21,1.72-.11,2.55.39,3.71,1.88,1.33,1.72,3,2,2.66,6.1a2.46,2.46,0,0,1-.11.89c3.55-.06,7.15-4.16,10-8.65a0.65,0.65,0,0,1,1.22,0c0.89,1.44.72,3.6-.11,5.76,2.5-2.77,6.54-6,8.54-6s2.83,3,2.16,5.43c2.61-2.5,6.32-5.1,8.09-5,2,0.05,2.44,3.33,1.33,6-1.05,2.5-3.71,6.15-5,8.87-1.55,3.16-.83,5.76,1.22,5.65,2.22-.11,4.71-3.71,6.82-7.65,0.28-.5.67-0.39,0.94,0A4.88,4.88,0,0,1,1789,911Zm-42.24-12.64a20.81,20.81,0,0,0-4.27,5.27c-2.44,4.16-3.16,9.2-1.72,10.48s4.88-.72,7.59-5.71a22,22,0,0,0,2-4.77A6.76,6.76,0,0,1,1746.81,898.41Zm4.38,0c-0.28-1.77-1.44-1.5-1.66.17a4.3,4.3,0,0,0,1.33,3.71A11.26,11.26,0,0,0,1751.19,898.41Z" transform="translate(-1575.76 -302.81)" fill="#fef0ed"/><path d="M1795.32,915.2c4.6,0.22,8.65-4.21,11-7.87a0.49,0.49,0,0,1,.94.06,4.49,4.49,0,0,1-.94,3.44,14,14,0,0,1-10.87,6c-7,.11-9.48-6.82-5.88-14s9.26-10,12-8.43a10.32,10.32,0,0,1,3.27,2.88c1,1.33.55,4.71-1.77,7.54-2.72,3.33-6.43,4.77-10.31,1.61C1791,911.54,1792.38,915,1795.32,915.2Zm4.6-12.75c1.77-2.33,3-5.21,2.22-5.82-1.16-.94-5.76,2.38-8.37,7.65-0.17.33-.33,0.67-0.44,0.94C1796,906.94,1798.31,904.56,1799.92,902.45Z" transform="translate(-1575.76 -302.81)" fill="#fef0ed"/><path d="M1808.73,892.92c-0.55-.78-0.22-1.17.61-1.11a31.75,31.75,0,0,0,4.6-.22,70.93,70.93,0,0,1,4.21-6.87c0.5-.72,1.05-0.67,1.33,0,0.61,1.55.61,3.38-.72,6.26a3.47,3.47,0,0,1,3.44,1.66c0.39,0.66.17,1.05-.67,1.05a16.56,16.56,0,0,0-4.32.22c-2.16,3.71-5.32,9.09-7.43,13.75-1.83,4-1.22,7.48,1.11,7.59,2.49,0.11,5.65-3.83,7.71-8,0.33-.67.94-0.78,1.16,0a4.63,4.63,0,0,1-.55,3.16c-0.72,1.61-4.38,6.49-8.81,6.32-3.66-.11-6.6-4.21-3.94-10.59,1.16-2.77,3.49-7.43,5.88-11.81A4.57,4.57,0,0,1,1808.73,892.92Z" transform="translate(-1575.76 -302.81)" fill="#fef0ed"/><path d="M1831.18,916.81c-4.66,0-5.82-3.38-4.16-8.2,1.83-5.38,6.65-11.14,5.77-11.64s-6.82,3.33-10,8.59a72.58,72.58,0,0,0-5.38,10.53c-0.22.5-.61,0.61-0.94,0.22-0.89-1-1.39-2.55-.22-5.88,1.94-5.54,13.47-25.06,18-30.66,0.5-.67,1.05-0.61,1.33.05,0.72,1.61.55,4.38-1.55,7.87-1.33,2.22-4.27,6.71-6.65,10.42,2.27-2.22,5.16-4,6.65-3.88,1.88,0.22,3.6,3,2.16,5.82-1.22,2.44-3.88,6.49-5.16,9.37-1.38,3.21-1.11,5.82.94,5.71,2.27-.11,5.32-4.1,7-7.65a0.53,0.53,0,0,1,1-.05c0.28,0.61.28,1.77-.55,3.44C1837.84,914,1834.45,916.81,1831.18,916.81Z" transform="translate(-1575.76 -302.81)" fill="#fef0ed"/><path d="M1838.28,908.66a68.43,68.43,0,0,1,7.1-13.47c0.5-.66.89-0.83,1.33-0.33,0.83,0.89,1.27,3.27-.06,6-1.16,2.44-3.49,6.21-4.66,9-1.33,3.21-1.22,5.38.55,5.27,2.49-.11,5.54-3.77,7.21-7.59,0.28-.5.66-0.44,0.89,0a3.94,3.94,0,0,1-.39,3.44c-1.66,3.44-5.16,5.76-8.26,5.76C1837.78,916.76,1836.73,913.21,1838.28,908.66Zm12.36-14.47c-0.72.78-2.27,0.61-3.1-.83a3.44,3.44,0,0,1,.28-4.1c0.89-.94,2.5-0.28,3.22,1.22A3.35,3.35,0,0,1,1850.64,894.19Z" transform="translate(-1575.76 -302.81)" fill="#fef0ed"/><path d="M1866.28,894.19c1.83,0.28,3.55,3,2.16,5.88-1.16,2.44-3.88,6.54-5.16,9.42-1.44,3.21-1.11,5.82.89,5.71,2.27-.11,5-3.77,7.1-7.65,0.28-.5.67-0.5,0.94-0.06,0.39,0.61.28,1.88-.5,3.49-1.5,3.1-5,5.93-8.2,5.93-4.71,0-5.82-3.44-4.21-8.26,1.83-5.43,6.71-11.31,5.71-11.75-0.55-.22-3.77,1.33-7.32,5.21-3.27,3.55-5.71,8.87-8.09,14.08-0.22.5-.55,0.72-1.05,0.22-1.11-1.11-1.44-2.94-.55-5.71,1.11-3.49,5.38-11.2,8.87-16.35,0.39-.61.83-0.55,1.16,0,0.83,1.39.78,3.27,0.17,5.27C1860.68,897,1864.45,893.92,1866.28,894.19Z" transform="translate(-1575.76 -302.81)" fill="#fef0ed"/><path d="M1882.74,918.2c-3,7.43-7,16.24-11.47,18-1.11.44-2.22,0.28-3.21-1.16a7,7,0,0,1-1.11-6.87c1.61-5,6.38-8.37,11.86-10.48,0.55-1.22,1.05-2.55,1.61-3.83a8.24,8.24,0,0,1-5.6,2.77c-5.1,0-6.1-6.93-1.61-13.58,4.32-6.43,8.81-8.93,11.64-8.93,2.22,0,3.33,1.72,3.27,3.66,0.67-1.11,1.28-2.11,1.83-3,0.44-.78,1-0.83,1.39-0.33,0.83,1,1.27,3.38-.11,6.1-1.66,3.33-5.16,10-7.48,15.41a27.66,27.66,0,0,0,9.92-8.32c0.33-.44.83-0.44,0.94,0.11a5.43,5.43,0,0,1-1.11,3.21C1891.33,914.32,1887.34,916.54,1882.74,918.2Zm-13.58,14.91c0.72,1.05,5.1-4.71,8.7-13.14C1870.66,924.18,1868.22,931.78,1869.16,933.11ZM1885.68,897c-1.72-.11-5.77,3.44-8.81,8.26s-3.6,9.65-1.39,9.7,5-3.44,7.82-8.32C1886.79,900.51,1887.29,897.08,1885.68,897Z" transform="translate(-1575.76 -302.81)" fill="#fef0ed"/><path d="M1920.6,915.31c2.27-.11,5.27-3.82,7.21-7.65,0.28-.5.67-0.5,0.89-0.06a4.85,4.85,0,0,1-.44,3.44c-1.5,3-4.93,6-8,5.82s-4.49-1.83-4.49-4.43c-1.77,2.22-4.27,4.27-6.87,4.27-5.16,0-6.15-7-1.61-13.69,4.38-6.43,8.81-8.92,11.59-8.92,2.27,0,3.38,1.72,3.33,3.77,3-5.71,7.21-13.25,9.2-16.08,0.55-.78,1.05-0.72,1.33,0,0.78,1.83.61,4.21-1.72,8.37-2.66,4.77-8,13.91-10.75,19.79C1918.77,913.15,1918.72,915.43,1920.6,915.31ZM1911,905.23c-3,4.77-3.6,9.59-1.44,9.65s5.21-3.21,7.82-8.26c3.22-6.15,4-9.65,2.44-9.7S1914,900.35,1911,905.23Z" transform="translate(-1575.76 -302.81)" fill="#fef0ed"/><path d="M1934.19,915.2c4.6,0.22,8.65-4.21,11-7.87a0.49,0.49,0,0,1,.94.06,4.5,4.5,0,0,1-.94,3.44,14,14,0,0,1-10.87,6c-7,.11-9.48-6.82-5.88-14s9.26-10,12-8.43a10.32,10.32,0,0,1,3.27,2.88c1,1.33.55,4.71-1.77,7.54-2.72,3.33-6.43,4.77-10.31,1.61C1929.92,911.54,1931.25,915,1934.19,915.2Zm4.6-12.75c1.77-2.33,3-5.21,2.22-5.82-1.16-.94-5.77,2.38-8.37,7.65-0.17.33-.33,0.67-0.44,0.94C1934.91,906.94,1937.18,904.56,1938.79,902.45Z" transform="translate(-1575.76 -302.81)" fill="#fef0ed"/><path d="M1949.43,915.09c2.66,0.22,6.54-3.77,8.7-8,0.39-.72,1-0.78,1.22,0a5.1,5.1,0,0,1-.55,3.44c-0.78,1.66-4.82,6.26-9.26,6.15-3.83-.11-5.88-2.77-4.6-8.76,2.05-9.65,8.37-19.68,14-25.56,0.83-.89,1.61-1,2.38-0.28,1.61,1.44,1.94,3.49,1.28,6.1-1.72,6.82-7.93,13.47-12.86,16.69C1947.55,910.27,1946.94,914.87,1949.43,915.09ZM1960.74,887c-0.72-.44-4.82,5.71-8.65,12.8q-0.75,1.33-1.33,2.66C1958.36,896.3,1961.46,887.43,1960.74,887Z" transform="translate(-1575.76 -302.81)" fill="#fef0ed"/><path d="M1957.19,908.66a68.43,68.43,0,0,1,7.1-13.47c0.5-.66.89-0.83,1.33-0.33,0.83,0.89,1.27,3.27-.06,6-1.16,2.44-3.49,6.21-4.66,9-1.33,3.21-1.22,5.38.55,5.27,2.49-.11,5.54-3.77,7.21-7.59,0.28-.5.66-0.44,0.89,0a3.94,3.94,0,0,1-.39,3.44c-1.66,3.44-5.16,5.76-8.26,5.76C1956.69,916.76,1955.64,913.21,1957.19,908.66Zm12.36-14.47c-0.72.78-2.27,0.61-3.1-.83a3.44,3.44,0,0,1,.28-4.1c0.89-.94,2.5-0.28,3.22,1.22A3.35,3.35,0,0,1,1969.55,894.19Z" transform="translate(-1575.76 -302.81)" fill="#fef0ed"/><path d="M1985,897.58c1.17,2.33-1.05,5.27-2.16,8.26-0.22.67-.44,0.83-1.16,0.44-1.33-.67-2.11-2.33-1.33-4.82,0.61-2,2.27-4.38,1.5-5-0.94-.78-5.1,2.77-7.59,7.82-3,6.26-1.88,10.87,1.39,10.92,4.66,0.06,8.65-4.38,10.92-7.87,0.28-.44.78-0.5,1,0.06a5,5,0,0,1-1,3.33,13.84,13.84,0,0,1-10.7,6c-7,.11-9.42-6.76-5.82-13.91,3.55-7,9.15-10,11.92-8.31A7.31,7.31,0,0,1,1985,897.58Z" transform="translate(-1575.76 -302.81)" fill="#fef0ed"/><path d="M1985.58,908.66a68.38,68.38,0,0,1,7.1-13.47c0.5-.66.89-0.83,1.33-0.33,0.83,0.89,1.28,3.27-.06,6-1.16,2.44-3.49,6.21-4.66,9-1.33,3.21-1.22,5.38.55,5.27,2.5-.11,5.54-3.77,7.21-7.59,0.28-.5.67-0.44,0.89,0a4,4,0,0,1-.39,3.44c-1.66,3.44-5.16,5.76-8.26,5.76C1985.08,916.76,1984,913.21,1985.58,908.66Zm12.36-14.47c-0.72.78-2.27,0.61-3.1-.83a3.44,3.44,0,0,1,.28-4.1c0.89-.94,2.5-0.28,3.22,1.22A3.35,3.35,0,0,1,1997.94,894.19Z" transform="translate(-1575.76 -302.81)" fill="#fef0ed"/><path d="M2032.14,916.87c-3.6,0-5-2.22-4.55-5.43-1.94,2.55-4.77,5.49-7.93,5.21-3.94-.33-4-4.38-2.83-8a28.11,28.11,0,0,1,2.11-4.77,9.73,9.73,0,0,1-5,1c-1.28,4.66-4.66,10.14-8.59,11.47a6.13,6.13,0,0,1-7-2.44c-2.44-3.27-1.61-8,.83-12.47,2.11-3.82,5.54-6.93,8.87-7.15,1.66-.11,2.61.39,3.77,1.88,1.33,1.66,2.88,2,2.61,6.1a9.3,9.3,0,0,1-.11,1.11c3.16-.06,6.21-2.66,8.09-5.71,0.55-.89,1.44-2.11,2.11-3a0.79,0.79,0,0,1,1.39-.05c1.22,1.83.94,4.16-1.05,7.43a53.83,53.83,0,0,0-4.32,8.09c-1.11,2.72-.94,4.66.28,4.77,2.16,0.17,5.27-3.6,8.2-8.43,3.44-5.6,5-9.42,6.76-11.81,0.5-.72.94-0.83,1.39-0.33,0.83,1,1.28,3.38-.06,6.15-1.22,2.5-3.94,6.54-5.21,9.42-1.44,3.21-1.22,5.49.78,5.38,2.27-.11,5.16-3.77,7.26-7.65,0.28-.5.72-0.55,1-0.06a4.39,4.39,0,0,1-.5,3.44C2038.79,914.1,2035.41,916.87,2032.14,916.87Zm-25.33-18.52a20.18,20.18,0,0,0-4.32,5.27c-2.33,4.16-3.1,9.2-1.66,10.48s4.88-.72,7.65-5.77a29.62,29.62,0,0,0,1.94-4.49A6.82,6.82,0,0,1,2006.81,898.35Zm2.72,0.11a4.3,4.3,0,0,0,1.28,3.77,10.63,10.63,0,0,0,.39-3.94C2011,896.52,2009.69,896.91,2009.52,898.46Z" transform="translate(-1575.76 -302.81)" fill="#fef0ed"/><path d="M2047.33,897.3a6,6,0,0,1,2-4.27c1.22-1.11,2.5-1.33,3-.83s0.28,1.16-.44,2.44c-0.22.33-.39,0.67-0.61,1.05-0.39,5.1.67,9.42,0.5,13.25-0.11,2.16-.5,4.49-2.49,5.82,3.71-1.39,6-4.71,7.43-7.71a0.55,0.55,0,0,1,1.05,0,5,5,0,0,1-.78,3.66,11.68,11.68,0,0,1-9.81,6.1c-3.22.11-6.32-.72-8.2-4.16-1.33-2.49-1.16-6.15.72-7.71,0.67-.55,1.11-0.33,1.16.55,0.05,0.44.05,0.89,0.11,1.33A110.27,110.27,0,0,0,2047.33,897.3Zm-5.88,12.53c0.83,3.21,2.44,5.49,4.27,4.93,2.55-.78,1.72-9.48,1.5-13.91A97.07,97.07,0,0,1,2041.46,909.83Z" transform="translate(-1575.76 -302.81)" fill="#fef0ed"/><path d="M2071.06,892.92c-0.55-.78-0.22-1.17.61-1.11a31.75,31.75,0,0,0,4.6-.22,70.93,70.93,0,0,1,4.21-6.87c0.5-.72,1.05-0.67,1.33,0,0.61,1.55.61,3.38-.72,6.26a3.47,3.47,0,0,1,3.44,1.66c0.39,0.66.17,1.05-.67,1.05a16.56,16.56,0,0,0-4.32.22c-2.16,3.71-5.32,9.09-7.43,13.75-1.83,4-1.22,7.48,1.11,7.59,2.49,0.11,5.65-3.83,7.71-8,0.33-.67.94-0.78,1.16,0a4.63,4.63,0,0,1-.55,3.16c-0.72,1.61-4.38,6.49-8.81,6.32-3.66-.11-6.6-4.21-3.94-10.59,1.16-2.77,3.49-7.43,5.88-11.81A4.57,4.57,0,0,1,2071.06,892.92Z" transform="translate(-1575.76 -302.81)" fill="#fef0ed"/><path d="M2097.06,904.73c-1.16,4.71-4.66,10.31-8.76,11.7a6.1,6.1,0,0,1-7-2.44c-2.44-3.21-1.61-8,.89-12.47,2.11-3.77,5.49-7,8.81-7.21a3.78,3.78,0,0,1,3.77,1.88c1.27,1.72,2.94,2.11,2.61,6.1-0.06.44-.06,0.83-0.11,1.28,0.33,0,.67-0.11,1.11-0.11s0.39,0.28.17,0.55A2.26,2.26,0,0,1,2097.06,904.73Zm-4.71-1.39a6.89,6.89,0,0,1-2.55-4.88,19.39,19.39,0,0,0-4.27,5.21c-2.33,4.21-3.16,9.31-1.72,10.53s4.93-.67,7.65-5.77a29.28,29.28,0,0,0,1.94-4.44A4.2,4.2,0,0,1,2092.35,903.34Zm1.88-4.93c-0.28-1.77-1.39-1.44-1.66.17a4.56,4.56,0,0,0,1.22,3.94A10.63,10.63,0,0,0,2094.23,898.41Z" transform="translate(-1575.76 -302.81)" fill="#fef0ed"/><path d="M2118.73,897.3a6,6,0,0,1,2-4.27c1.22-1.11,2.49-1.33,3-.83s0.28,1.16-.44,2.44c-0.22.33-.39,0.67-0.61,1.05-0.39,5.1.67,9.42,0.5,13.25-0.11,2.16-.5,4.49-2.5,5.82,3.71-1.39,6-4.71,7.43-7.71a0.55,0.55,0,0,1,1.05,0,5,5,0,0,1-.78,3.66,11.68,11.68,0,0,1-9.81,6.1c-3.21.11-6.32-.72-8.2-4.16-1.33-2.49-1.17-6.15.72-7.71,0.67-.55,1.11-0.33,1.16.55,0.06,0.44.06,0.89,0.11,1.33A109.82,109.82,0,0,0,2118.73,897.3Zm-5.88,12.53c0.83,3.21,2.44,5.49,4.27,4.93,2.55-.78,1.72-9.48,1.5-13.91A97.48,97.48,0,0,1,2112.86,909.83Z" transform="translate(-1575.76 -302.81)" fill="#fef0ed"/><path d="M2140.85,916.81c-4.66,0-5.82-3.38-4.16-8.2,1.83-5.38,6.65-11.14,5.76-11.64s-6.82,3.33-10,8.59a72.47,72.47,0,0,0-5.38,10.53c-0.22.5-.61,0.61-0.94,0.22-0.89-1-1.38-2.55-.22-5.88,1.94-5.54,13.47-25.06,18-30.66,0.5-.67,1.05-0.61,1.33.05,0.72,1.61.55,4.38-1.55,7.87-1.33,2.22-4.27,6.71-6.65,10.42,2.27-2.22,5.16-4,6.65-3.88,1.88,0.22,3.6,3,2.16,5.82-1.22,2.44-3.88,6.49-5.16,9.37-1.39,3.21-1.11,5.82.94,5.71,2.27-.11,5.32-4.1,7-7.65a0.53,0.53,0,0,1,1-.05c0.28,0.61.28,1.77-.55,3.44C2147.51,914,2144.12,916.81,2140.85,916.81Z" transform="translate(-1575.76 -302.81)" fill="#fef0ed"/><path d="M2152.44,916.54c-5.1,0-6.21-7-1.61-13.69,4.44-6.37,8.81-8.92,11.64-8.92,2.16,0,3.27,1.72,3.27,3.66,0.83-1.39,1.55-2.5,1.94-3s0.89-.83,1.33-0.33c0.89,1,1.28,3.33.06,6.1-1.11,2.5-4,6.82-5.27,9.65-1.33,3.16-1.11,5.21.61,5,3.55-.33,8.54-7.15,11.14-15.3-4.49-1.61.78-9.15,3-9.31,1.72-.11,1.16,3.16,0,7a13.91,13.91,0,0,0,6.15-2.61c0.78-.55,1.16-0.66,1.66-0.11,1.05,1.16,2.38,3.71.78,5.6-2.61,3-5.43,6.88-6.32,9.65-0.94,3-.33,5.21,1.39,5.32,2.33,0.17,5.1-3.49,6.87-7.65,0.22-.44.61-0.55,0.83,0a4.89,4.89,0,0,1-.22,3.6c-1.44,3.33-4.71,5.77-7.76,5.65-4.21-.17-5.88-4-4.55-8.43,1.11-3.66,4.49-7.76,6.87-10.42a13.53,13.53,0,0,1-6.54,2.05c-2.72,7.82-7.71,16.19-13.64,16.63-3,.22-4.71-1.72-4.66-4.55C2157.65,914.37,2155.16,916.54,2152.44,916.54Zm2.05-11.48c-3,4.77-3.6,9.59-1.44,9.65s5.1-3.33,7.93-8.31c3.44-6,3.94-9.54,2.33-9.65S2157.54,900.18,2154.49,905.06Z" transform="translate(-1575.76 -302.81)" fill="#fef0ed"/><path d="M2196.07,915.2c4.6,0.22,8.65-4.21,11-7.87a0.49,0.49,0,0,1,.94.06,4.5,4.5,0,0,1-.94,3.44,14,14,0,0,1-10.87,6c-7,.11-9.48-6.82-5.88-14s9.26-10,12-8.43a10.32,10.32,0,0,1,3.27,2.88c1,1.33.55,4.71-1.77,7.54-2.72,3.33-6.43,4.77-10.31,1.61C2191.8,911.54,2193.13,915,2196.07,915.2Zm4.6-12.75c1.77-2.33,3-5.21,2.22-5.82-1.16-.94-5.77,2.38-8.37,7.65-0.17.33-.33,0.67-0.44,0.94C2196.79,906.94,2199.06,904.56,2200.67,902.45Z" transform="translate(-1575.76 -302.81)" fill="#fef0ed"/><path d="M2213.09,916.59c-0.67.83-2.27,0.5-3-.78a3.37,3.37,0,0,1,.28-4c0.83-.89,2.44-0.28,3.16,1.27A3.57,3.57,0,0,1,2213.09,916.59Zm14.25-34.65c0.72,1.55.61,4.27-1.66,8.37-3,5.49-7.71,14.19-10.53,20.34-0.28.55-.5,0.67-0.94,0.22-0.83-.89-1.39-2.72-0.17-6a136.09,136.09,0,0,1,11.92-23C2226.39,881.17,2227,881.17,2227.34,881.94Z" transform="translate(-1575.76 -302.81)" fill="#fef0ed"/><path d="M1615.21,885.38c-0.28-.61-0.11-0.89.55-0.94,3.88-.33,8.87-3,12.58-3.27,2.83-.17,5.54.72,6.54,4.49a10.23,10.23,0,0,1-1.94,9.26,22.73,22.73,0,0,1-8.65,6.6,6.67,6.67,0,0,1,2.66,2.33c1.16,1.72,1.11,5-1.28,7.59a18.92,18.92,0,0,1-9.7,5.16c-2.11.39-3.44,0.33-4.66-.28a7.78,7.78,0,0,1-2.83-2.55c-0.83-1.22-1.39-2.11-.11-5.65A103.32,103.32,0,0,1,1619,887.6,4.15,4.15,0,0,1,1615.21,885.38Zm3.16,17.74a6.23,6.23,0,0,1-3.44-.39,51.57,51.57,0,0,0-3.71,8.59c-0.61,1.94,0,2.61,1.77,2.38,3.55-.44,8.32-2.72,10.7-5.65,2.05-2.55,2.05-5-3-5.32C1619.92,902.9,1619.15,903,1618.37,903.12Zm14.47-17c-1.11-2.88-6.6-.33-10.42.89,0.11,1.22-.28,2.88-1.66,5.43-1.11,2.05-2.72,4.66-4.32,7.48C1627.41,897.41,1634.22,889.93,1632.84,886.16Z" transform="translate(-1575.76 -302.81)" fill="#00cdbd"/><path d="M1646.37,895.86c0.67-.44,1.11-0.55,1.5-0.11,1.05,1.16,2.38,3.6.78,5.43-2.49,2.83-5.21,6.32-6.1,9.2s-0.22,5,1.39,5.1c2.16,0.11,4.82-3.33,6.6-7.32,0.22-.44.55-0.5,0.78-0.06a4.83,4.83,0,0,1-.28,3.44c-1.27,3.22-4.49,5.54-7.43,5.43-4-.17-5.6-3.83-4.21-8,1.22-3.66,4.44-7.6,6.65-10.15a12,12,0,0,1-6.49,2.11c-2.11,3.88-7.43,11.75-8.48,16.8-0.11.5-.44,0.78-0.94,0.28-1.61-1.66-1.61-4.21-.11-7,1.27-2.44,5-7.65,7-10.59-3.16-2.05,1.66-8.59,3.71-8.65,1.72-.06,1.27,3.16-0.11,6.65A13.11,13.11,0,0,0,1646.37,895.86Z" transform="translate(-1575.76 -302.81)" fill="#00cdbd"/><path d="M1649.91,908.66a68.48,68.48,0,0,1,7.1-13.47c0.5-.66.89-0.83,1.33-0.33,0.83,0.89,1.28,3.27-.05,6-1.16,2.44-3.49,6.21-4.66,9-1.33,3.21-1.22,5.38.55,5.27,2.5-.11,5.54-3.77,7.21-7.59,0.28-.5.67-0.44,0.89,0a4,4,0,0,1-.39,3.44c-1.66,3.44-5.16,5.76-8.26,5.76C1649.42,916.76,1648.36,913.21,1649.91,908.66Zm12.36-14.47c-0.72.78-2.27,0.61-3.1-.83a3.44,3.44,0,0,1,.28-4.1c0.89-.94,2.49-0.28,3.21,1.22A3.35,3.35,0,0,1,1662.28,894.19Z" transform="translate(-1575.76 -302.81)" fill="#00cdbd"/><path d="M1677.91,894.19c1.83,0.28,3.55,3,2.16,5.88-1.16,2.44-3.88,6.54-5.15,9.42-1.44,3.21-1.11,5.82.89,5.71,2.27-.11,5-3.77,7.1-7.65,0.28-.5.67-0.5,0.94-0.06,0.39,0.61.28,1.88-.5,3.49-1.5,3.1-5,5.93-8.21,5.93-4.71,0-5.82-3.44-4.21-8.26,1.83-5.43,6.71-11.31,5.71-11.75-0.55-.22-3.77,1.33-7.32,5.21-3.27,3.55-5.71,8.87-8.09,14.08-0.22.5-.55,0.72-1.05,0.22-1.11-1.11-1.44-2.94-.55-5.71,1.11-3.49,5.38-11.2,8.87-16.35,0.39-.61.83-0.55,1.16,0,0.83,1.39.78,3.27,0.17,5.27C1672.31,897,1676.08,893.92,1677.91,894.19Z" transform="translate(-1575.76 -302.81)" fill="#00cdbd"/><path d="M1694.37,918.2c-3,7.43-7,16.24-11.47,18-1.11.44-2.22,0.28-3.21-1.16a7,7,0,0,1-1.11-6.87c1.61-5,6.38-8.37,11.86-10.48,0.55-1.22,1.05-2.55,1.61-3.83a8.24,8.24,0,0,1-5.6,2.77c-5.1,0-6.1-6.93-1.61-13.58,4.32-6.43,8.81-8.93,11.64-8.93,2.22,0,3.33,1.72,3.27,3.66,0.67-1.11,1.27-2.11,1.83-3,0.44-.78,1-0.83,1.39-0.33,0.83,1,1.27,3.38-.11,6.1-1.66,3.33-5.16,10-7.48,15.41a27.66,27.66,0,0,0,9.92-8.32c0.33-.44.83-0.44,0.94,0.11a5.43,5.43,0,0,1-1.11,3.21C1703,914.32,1699,916.54,1694.37,918.2Zm-13.58,14.91c0.72,1.05,5.1-4.71,8.7-13.14C1682.29,924.18,1679.85,931.78,1680.79,933.11ZM1697.31,897c-1.72-.11-5.77,3.44-8.81,8.26s-3.6,9.65-1.39,9.7,5-3.44,7.82-8.32C1698.42,900.51,1698.92,897.08,1697.31,897Z" transform="translate(-1575.76 -302.81)" fill="#00cdbd"/><path d="M1725.09,897.3a6,6,0,0,1,2-4.27c1.22-1.11,2.5-1.33,3-.83s0.28,1.16-.44,2.44c-0.22.33-.39,0.67-0.61,1.05-0.39,5.1.67,9.42,0.5,13.25-0.11,2.16-.5,4.49-2.49,5.82,3.71-1.39,6-4.71,7.43-7.71a0.55,0.55,0,0,1,1.05,0,5,5,0,0,1-.78,3.66,11.68,11.68,0,0,1-9.81,6.1c-3.22.11-6.32-.72-8.2-4.16-1.33-2.49-1.16-6.15.72-7.71,0.67-.55,1.11-0.33,1.16.55,0.05,0.44.05,0.89,0.11,1.33A110.27,110.27,0,0,0,1725.09,897.3Zm-5.88,12.53c0.83,3.21,2.44,5.49,4.27,4.93,2.55-.78,1.72-9.48,1.5-13.91A97.07,97.07,0,0,1,1719.21,909.83Z" transform="translate(-1575.76 -302.81)" fill="#00cdbd"/><path d="M1785.79,911c-1.55,3-5.1,5.93-8.26,5.88-4.77-.06-6.43-3.83-4.49-8.32,2-4.66,6.93-10.75,6.1-11.09-0.44-.17-2.38.55-5.93,4.1-4.54,4.54-7.26,9.81-9.59,15-0.28.67-.78,0.83-1.28,0.33-0.89-.89-1.55-3-0.05-6.93,1.77-4.6,7.71-12.2,6.65-12.64-0.55-.22-3.33,1.28-6.87,5.16-3.21,3.49-5.88,8.59-8.09,13.8-0.22.44-.5,0.61-1.05,0.17-1.16-.94-1.44-2.83-0.55-5.6a55.65,55.65,0,0,1,3.55-7.76,7.68,7.68,0,0,1-5.16,1.39c-1.11,4.77-4.6,10.53-8.7,11.86a6,6,0,0,1-7-2.38c-2.38-3.21-1.55-8.09.94-12.47,2.11-3.71,5.49-7,8.81-7.21,1.72-.11,2.55.39,3.71,1.88,1.33,1.72,3,2,2.66,6.1a2.44,2.44,0,0,1-.11.89c3.55-.06,7.15-4.16,10-8.65a0.65,0.65,0,0,1,1.22,0c0.89,1.44.72,3.6-.11,5.76,2.5-2.77,6.54-6,8.54-6s2.83,3,2.16,5.43c2.61-2.5,6.32-5.1,8.09-5,2,0.05,2.44,3.33,1.33,6-1.05,2.5-3.71,6.15-5,8.87-1.55,3.16-.83,5.76,1.22,5.65,2.22-.11,4.71-3.71,6.82-7.65,0.28-.5.67-0.39,0.94,0A4.88,4.88,0,0,1,1785.79,911Zm-42.24-12.64a20.78,20.78,0,0,0-4.27,5.27c-2.44,4.16-3.16,9.2-1.72,10.48s4.88-.72,7.59-5.71a22,22,0,0,0,2-4.77A6.76,6.76,0,0,1,1743.54,898.41Zm4.38,0c-0.28-1.77-1.44-1.5-1.66.17a4.3,4.3,0,0,0,1.33,3.71A11.24,11.24,0,0,0,1747.92,898.41Z" transform="translate(-1575.76 -302.81)" fill="#00cdbd"/><path d="M1792.05,915.2c4.6,0.22,8.65-4.21,11-7.87a0.49,0.49,0,0,1,.94.06,4.5,4.5,0,0,1-.94,3.44,14,14,0,0,1-10.87,6c-7,.11-9.48-6.82-5.88-14s9.26-10,12-8.43a10.31,10.31,0,0,1,3.27,2.88c1,1.33.55,4.71-1.77,7.54-2.72,3.33-6.43,4.77-10.31,1.61C1787.79,911.54,1789.12,915,1792.05,915.2Zm4.6-12.75c1.77-2.33,3-5.21,2.22-5.82-1.16-.94-5.77,2.38-8.37,7.65-0.17.33-.33,0.67-0.44,0.94C1792.78,906.94,1795,904.56,1796.66,902.45Z" transform="translate(-1575.76 -302.81)" fill="#00cdbd"/><path d="M1805.47,892.92c-0.55-.78-0.22-1.17.61-1.11a31.75,31.75,0,0,0,4.6-.22,70.93,70.93,0,0,1,4.21-6.87c0.5-.72,1.05-0.67,1.33,0,0.61,1.55.61,3.38-.72,6.26a3.47,3.47,0,0,1,3.44,1.66c0.39,0.66.17,1.05-.67,1.05a16.56,16.56,0,0,0-4.32.22c-2.16,3.71-5.32,9.09-7.43,13.75-1.83,4-1.22,7.48,1.11,7.59,2.49,0.11,5.65-3.83,7.71-8,0.33-.67.94-0.78,1.16,0a4.63,4.63,0,0,1-.55,3.16c-0.72,1.61-4.38,6.49-8.81,6.32-3.66-.11-6.6-4.21-3.94-10.59,1.16-2.77,3.49-7.43,5.88-11.81A4.57,4.57,0,0,1,1805.47,892.92Z" transform="translate(-1575.76 -302.81)" fill="#00cdbd"/><path d="M1827.92,916.81c-4.66,0-5.82-3.38-4.16-8.2,1.83-5.38,6.65-11.14,5.77-11.64s-6.82,3.33-10,8.59a72.58,72.58,0,0,0-5.38,10.53c-0.22.5-.61,0.61-0.94,0.22-0.89-1-1.39-2.55-.22-5.88,1.94-5.54,13.47-25.06,18-30.66,0.5-.67,1.05-0.61,1.33.05,0.72,1.61.55,4.38-1.55,7.87-1.33,2.22-4.27,6.71-6.65,10.42,2.27-2.22,5.16-4,6.65-3.88,1.88,0.22,3.6,3,2.16,5.82-1.22,2.44-3.88,6.49-5.16,9.37-1.38,3.21-1.11,5.82.94,5.71,2.27-.11,5.32-4.1,7-7.65a0.53,0.53,0,0,1,1-.05c0.28,0.61.28,1.77-.55,3.44C1834.57,914,1831.19,916.81,1827.92,916.81Z" transform="translate(-1575.76 -302.81)" fill="#00cdbd"/><path d="M1835,908.66a68.43,68.43,0,0,1,7.1-13.47c0.5-.66.89-0.83,1.33-0.33,0.83,0.89,1.27,3.27-.06,6-1.16,2.44-3.49,6.21-4.66,9-1.33,3.21-1.22,5.38.55,5.27,2.49-.11,5.54-3.77,7.21-7.59,0.28-.5.66-0.44,0.89,0A3.94,3.94,0,0,1,1847,911c-1.66,3.44-5.16,5.76-8.26,5.76C1834.52,916.76,1833.47,913.21,1835,908.66Zm12.36-14.47c-0.72.78-2.27,0.61-3.1-.83a3.44,3.44,0,0,1,.28-4.1c0.89-.94,2.5-0.28,3.22,1.22A3.35,3.35,0,0,1,1847.38,894.19Z" transform="translate(-1575.76 -302.81)" fill="#00cdbd"/><path d="M1863,894.19c1.83,0.28,3.55,3,2.16,5.88-1.16,2.44-3.88,6.54-5.16,9.42-1.44,3.21-1.11,5.82.89,5.71,2.27-.11,5-3.77,7.1-7.65,0.28-.5.67-0.5,0.94-0.06,0.39,0.61.28,1.88-.5,3.49-1.5,3.1-5,5.93-8.2,5.93-4.71,0-5.82-3.44-4.21-8.26,1.83-5.43,6.71-11.31,5.71-11.75-0.55-.22-3.77,1.33-7.32,5.21-3.27,3.55-5.71,8.87-8.09,14.08-0.22.5-.55,0.72-1.05,0.22-1.11-1.11-1.44-2.94-.55-5.71,1.11-3.49,5.38-11.2,8.87-16.35,0.39-.61.83-0.55,1.16,0,0.83,1.39.78,3.27,0.17,5.27C1857.41,897,1861.18,893.92,1863,894.19Z" transform="translate(-1575.76 -302.81)" fill="#00cdbd"/><path d="M1879.48,918.2c-3,7.43-7,16.24-11.47,18-1.11.44-2.22,0.28-3.21-1.16a7,7,0,0,1-1.11-6.87c1.61-5,6.38-8.37,11.86-10.48,0.55-1.22,1.05-2.55,1.61-3.83a8.24,8.24,0,0,1-5.6,2.77c-5.1,0-6.1-6.93-1.61-13.58,4.32-6.43,8.81-8.93,11.64-8.93,2.22,0,3.33,1.72,3.27,3.66,0.67-1.11,1.28-2.11,1.83-3,0.44-.78,1-0.83,1.39-0.33,0.83,1,1.27,3.38-.11,6.1-1.66,3.33-5.16,10-7.48,15.41a27.66,27.66,0,0,0,9.92-8.32c0.33-.44.83-0.44,0.94,0.11a5.43,5.43,0,0,1-1.11,3.21C1888.07,914.32,1884.08,916.54,1879.48,918.2Zm-13.58,14.91c0.72,1.05,5.1-4.71,8.7-13.14C1867.39,924.18,1865,931.78,1865.9,933.11ZM1882.42,897c-1.72-.11-5.77,3.44-8.81,8.26s-3.6,9.65-1.39,9.7,5-3.44,7.82-8.32C1883.53,900.51,1884,897.08,1882.42,897Z" transform="translate(-1575.76 -302.81)" fill="#00cdbd"/><path d="M1917.34,915.31c2.27-.11,5.27-3.82,7.21-7.65,0.28-.5.67-0.5,0.89-0.06A4.85,4.85,0,0,1,1925,911c-1.5,3-4.93,6-8,5.82s-4.49-1.83-4.49-4.43c-1.77,2.22-4.27,4.27-6.87,4.27-5.16,0-6.15-7-1.61-13.69,4.38-6.43,8.81-8.92,11.59-8.92,2.27,0,3.38,1.72,3.33,3.77,3-5.71,7.21-13.25,9.2-16.08,0.55-.78,1.05-0.72,1.33,0,0.78,1.83.61,4.21-1.72,8.37-2.66,4.77-8,13.91-10.75,19.79C1915.51,913.15,1915.46,915.43,1917.34,915.31Zm-9.65-10.09c-3,4.77-3.6,9.59-1.44,9.65s5.21-3.21,7.82-8.26c3.22-6.15,4-9.65,2.44-9.7S1910.74,900.35,1907.7,905.23Z" transform="translate(-1575.76 -302.81)" fill="#00cdbd"/><path d="M1930.92,915.2c4.6,0.22,8.65-4.21,11-7.87a0.49,0.49,0,0,1,.94.06,4.5,4.5,0,0,1-.94,3.44,14,14,0,0,1-10.87,6c-7,.11-9.48-6.82-5.88-14s9.26-10,12-8.43a10.32,10.32,0,0,1,3.27,2.88c1,1.33.55,4.71-1.77,7.54-2.72,3.33-6.43,4.77-10.31,1.61C1926.66,911.54,1928,915,1930.92,915.2Zm4.6-12.75c1.77-2.33,3-5.21,2.22-5.82-1.16-.94-5.77,2.38-8.37,7.65-0.17.33-.33,0.67-0.44,0.94C1931.64,906.94,1933.92,904.56,1935.53,902.45Z" transform="translate(-1575.76 -302.81)" fill="#00cdbd"/><path d="M1946.17,915.09c2.66,0.22,6.54-3.77,8.7-8,0.39-.72,1-0.78,1.22,0a5.1,5.1,0,0,1-.55,3.44c-0.78,1.66-4.82,6.26-9.26,6.15-3.83-.11-5.88-2.77-4.6-8.76,2.05-9.65,8.37-19.68,14-25.56,0.83-.89,1.61-1,2.38-0.28,1.61,1.44,1.94,3.49,1.28,6.1-1.72,6.82-7.93,13.47-12.86,16.69C1944.29,910.27,1943.67,914.87,1946.17,915.09ZM1957.48,887c-0.72-.44-4.82,5.71-8.65,12.8q-0.75,1.33-1.33,2.66C1955.09,896.3,1958.2,887.43,1957.48,887Z" transform="translate(-1575.76 -302.81)" fill="#00cdbd"/><path d="M1953.93,908.66a68.43,68.43,0,0,1,7.1-13.47c0.5-.66.89-0.83,1.33-0.33,0.83,0.89,1.27,3.27-.06,6-1.16,2.44-3.49,6.21-4.66,9-1.33,3.21-1.22,5.38.55,5.27,2.49-.11,5.54-3.77,7.21-7.59,0.28-.5.66-0.44,0.89,0a3.94,3.94,0,0,1-.39,3.44c-1.66,3.44-5.16,5.76-8.26,5.76C1953.43,916.76,1952.38,913.21,1953.93,908.66Zm12.36-14.47c-0.72.78-2.27,0.61-3.1-.83a3.44,3.44,0,0,1,.28-4.1c0.89-.94,2.5-0.28,3.22,1.22A3.35,3.35,0,0,1,1966.29,894.19Z" transform="translate(-1575.76 -302.81)" fill="#00cdbd"/><path d="M1981.7,897.58c1.17,2.33-1.05,5.27-2.16,8.26-0.22.67-.44,0.83-1.16,0.44-1.33-.67-2.11-2.33-1.33-4.82,0.61-2,2.27-4.38,1.5-5-0.94-.78-5.1,2.77-7.59,7.82-3,6.26-1.88,10.87,1.39,10.92,4.66,0.06,8.65-4.38,10.92-7.87,0.28-.44.78-0.5,1,0.06a5,5,0,0,1-1,3.33,13.84,13.84,0,0,1-10.7,6c-7,.11-9.42-6.76-5.82-13.91,3.55-7,9.15-10,11.92-8.31A7.31,7.31,0,0,1,1981.7,897.58Z" transform="translate(-1575.76 -302.81)" fill="#00cdbd"/><path d="M1982.31,908.66a68.38,68.38,0,0,1,7.1-13.47c0.5-.66.89-0.83,1.33-0.33,0.83,0.89,1.28,3.27-.06,6-1.16,2.44-3.49,6.21-4.66,9-1.33,3.21-1.22,5.38.55,5.27,2.5-.11,5.54-3.77,7.21-7.59,0.28-.5.67-0.44,0.89,0a4,4,0,0,1-.39,3.44c-1.66,3.44-5.16,5.76-8.26,5.76C1981.81,916.76,1980.76,913.21,1982.31,908.66Zm12.36-14.47c-0.72.78-2.27,0.61-3.1-.83a3.44,3.44,0,0,1,.28-4.1c0.89-.94,2.5-0.28,3.22,1.22A3.35,3.35,0,0,1,1994.68,894.19Z" transform="translate(-1575.76 -302.81)" fill="#00cdbd"/><path d="M2028.88,916.87c-3.6,0-5-2.22-4.55-5.43-1.94,2.55-4.77,5.49-7.93,5.21-3.94-.33-4-4.38-2.83-8a28.11,28.11,0,0,1,2.11-4.77,9.73,9.73,0,0,1-5,1c-1.28,4.66-4.66,10.14-8.59,11.47a6.13,6.13,0,0,1-7-2.44c-2.44-3.27-1.61-8,.83-12.47,2.11-3.82,5.54-6.93,8.87-7.15,1.66-.11,2.61.39,3.77,1.88,1.33,1.66,2.88,2,2.61,6.1a9.3,9.3,0,0,1-.11,1.11c3.16-.06,6.21-2.66,8.09-5.71,0.55-.89,1.44-2.11,2.11-3a0.79,0.79,0,0,1,1.39-.05c1.22,1.83.94,4.16-1.05,7.43a53.83,53.83,0,0,0-4.32,8.09c-1.11,2.72-.94,4.66.28,4.77,2.16,0.17,5.27-3.6,8.2-8.43,3.44-5.6,5-9.42,6.76-11.81,0.5-.72.94-0.83,1.39-0.33,0.83,1,1.28,3.38-.06,6.15-1.22,2.5-3.94,6.54-5.21,9.42-1.44,3.21-1.22,5.49.78,5.38,2.27-.11,5.16-3.77,7.26-7.65,0.28-.5.72-0.55,1-0.06a4.39,4.39,0,0,1-.5,3.44C2035.53,914.1,2032.15,916.87,2028.88,916.87Zm-25.33-18.52a20.18,20.18,0,0,0-4.32,5.27c-2.33,4.16-3.1,9.2-1.66,10.48s4.88-.72,7.65-5.77a29.62,29.62,0,0,0,1.94-4.49A6.82,6.82,0,0,1,2003.55,898.35Zm2.72,0.11a4.3,4.3,0,0,0,1.28,3.77,10.63,10.63,0,0,0,.39-3.94C2007.7,896.52,2006.43,896.91,2006.26,898.46Z" transform="translate(-1575.76 -302.81)" fill="#00cdbd"/><path d="M2044.07,897.3a6,6,0,0,1,2-4.27c1.22-1.11,2.5-1.33,3-.83s0.28,1.16-.44,2.44c-0.22.33-.39,0.67-0.61,1.05-0.39,5.1.67,9.42,0.5,13.25-0.11,2.16-.5,4.49-2.49,5.82,3.71-1.39,6-4.71,7.43-7.71a0.55,0.55,0,0,1,1.05,0,5,5,0,0,1-.78,3.66,11.68,11.68,0,0,1-9.81,6.1c-3.22.11-6.32-.72-8.2-4.16-1.33-2.49-1.16-6.15.72-7.71,0.67-.55,1.11-0.33,1.16.55,0.05,0.44.05,0.89,0.11,1.33A110.27,110.27,0,0,0,2044.07,897.3Zm-5.88,12.53c0.83,3.21,2.44,5.49,4.27,4.93,2.55-.78,1.72-9.48,1.5-13.91A97.07,97.07,0,0,1,2038.2,909.83Z" transform="translate(-1575.76 -302.81)" fill="#00cdbd"/><path d="M2067.8,892.92c-0.55-.78-0.22-1.17.61-1.11a31.75,31.75,0,0,0,4.6-.22,70.93,70.93,0,0,1,4.21-6.87c0.5-.72,1.05-0.67,1.33,0,0.61,1.55.61,3.38-.72,6.26a3.47,3.47,0,0,1,3.44,1.66c0.39,0.66.17,1.05-.67,1.05a16.56,16.56,0,0,0-4.32.22c-2.16,3.71-5.32,9.09-7.43,13.75-1.83,4-1.22,7.48,1.11,7.59,2.49,0.11,5.65-3.83,7.71-8,0.33-.67.94-0.78,1.16,0a4.63,4.63,0,0,1-.55,3.16c-0.72,1.61-4.38,6.49-8.81,6.32-3.66-.11-6.6-4.21-3.94-10.59,1.16-2.77,3.49-7.43,5.88-11.81A4.57,4.57,0,0,1,2067.8,892.92Z" transform="translate(-1575.76 -302.81)" fill="#00cdbd"/><path d="M2093.8,904.73c-1.16,4.71-4.66,10.31-8.76,11.7a6.1,6.1,0,0,1-7-2.44c-2.44-3.21-1.61-8,.89-12.47,2.11-3.77,5.49-7,8.81-7.21a3.78,3.78,0,0,1,3.77,1.88c1.27,1.72,2.94,2.11,2.61,6.1-0.06.44-.06,0.83-0.11,1.28,0.33,0,.67-0.11,1.11-0.11s0.39,0.28.17,0.55A2.26,2.26,0,0,1,2093.8,904.73Zm-4.71-1.39a6.89,6.89,0,0,1-2.55-4.88,19.39,19.39,0,0,0-4.27,5.21c-2.33,4.21-3.16,9.31-1.72,10.53s4.93-.67,7.65-5.77a29.28,29.28,0,0,0,1.94-4.44A4.2,4.2,0,0,1,2089.09,903.34Zm1.88-4.93c-0.28-1.77-1.39-1.44-1.66.17a4.56,4.56,0,0,0,1.22,3.94A10.63,10.63,0,0,0,2091,898.41Z" transform="translate(-1575.76 -302.81)" fill="#00cdbd"/><path d="M2115.47,897.3a6,6,0,0,1,2-4.27c1.22-1.11,2.49-1.33,3-.83s0.28,1.16-.44,2.44c-0.22.33-.39,0.67-0.61,1.05-0.39,5.1.67,9.42,0.5,13.25-0.11,2.16-.5,4.49-2.5,5.82,3.71-1.39,6-4.71,7.43-7.71a0.55,0.55,0,0,1,1.05,0,5,5,0,0,1-.78,3.66,11.68,11.68,0,0,1-9.81,6.1c-3.21.11-6.32-.72-8.2-4.16-1.33-2.49-1.17-6.15.72-7.71,0.67-.55,1.11-0.33,1.16.55,0.06,0.44.06,0.89,0.11,1.33A109.82,109.82,0,0,0,2115.47,897.3Zm-5.88,12.53c0.83,3.21,2.44,5.49,4.27,4.93,2.55-.78,1.72-9.48,1.5-13.91A97.48,97.48,0,0,1,2109.6,909.83Z" transform="translate(-1575.76 -302.81)" fill="#00cdbd"/><path d="M2137.59,916.81c-4.66,0-5.82-3.38-4.16-8.2,1.83-5.38,6.65-11.14,5.76-11.64s-6.82,3.33-10,8.59a72.47,72.47,0,0,0-5.38,10.53c-0.22.5-.61,0.61-0.94,0.22-0.89-1-1.38-2.55-.22-5.88,1.94-5.54,13.47-25.06,18-30.66,0.5-.67,1.05-0.61,1.33.05,0.72,1.61.55,4.38-1.55,7.87-1.33,2.22-4.27,6.71-6.65,10.42,2.27-2.22,5.16-4,6.65-3.88,1.88,0.22,3.6,3,2.16,5.82-1.22,2.44-3.88,6.49-5.16,9.37-1.39,3.21-1.11,5.82.94,5.71,2.27-.11,5.32-4.1,7-7.65a0.53,0.53,0,0,1,1-.05c0.28,0.61.28,1.77-.55,3.44C2144.24,914,2140.86,916.81,2137.59,916.81Z" transform="translate(-1575.76 -302.81)" fill="#00cdbd"/><path d="M2149.18,916.54c-5.1,0-6.21-7-1.61-13.69,4.44-6.37,8.81-8.92,11.64-8.92,2.16,0,3.27,1.72,3.27,3.66,0.83-1.39,1.55-2.5,1.94-3s0.89-.83,1.33-0.33c0.89,1,1.28,3.33.06,6.1-1.11,2.5-4,6.82-5.27,9.65-1.33,3.16-1.11,5.21.61,5,3.55-.33,8.54-7.15,11.14-15.3-4.49-1.61.78-9.15,3-9.31,1.72-.11,1.16,3.16,0,7a13.91,13.91,0,0,0,6.15-2.61c0.78-.55,1.16-0.66,1.66-0.11,1.05,1.16,2.38,3.71.78,5.6-2.61,3-5.43,6.88-6.32,9.65-0.94,3-.33,5.21,1.39,5.32,2.33,0.17,5.1-3.49,6.87-7.65,0.22-.44.61-0.55,0.83,0a4.89,4.89,0,0,1-.22,3.6c-1.44,3.33-4.71,5.77-7.76,5.65-4.21-.17-5.88-4-4.55-8.43,1.11-3.66,4.49-7.76,6.87-10.42a13.53,13.53,0,0,1-6.54,2.05c-2.72,7.82-7.71,16.19-13.64,16.63-3,.22-4.71-1.72-4.66-4.55C2154.39,914.37,2151.9,916.54,2149.18,916.54Zm2.05-11.48c-3,4.77-3.6,9.59-1.44,9.65s5.1-3.33,7.93-8.31c3.44-6,3.94-9.54,2.33-9.65S2154.28,900.18,2151.23,905.06Z" transform="translate(-1575.76 -302.81)" fill="#00cdbd"/><path d="M2192.81,915.2c4.6,0.22,8.65-4.21,11-7.87a0.49,0.49,0,0,1,.94.06,4.5,4.5,0,0,1-.94,3.44,14,14,0,0,1-10.87,6c-7,.11-9.48-6.82-5.88-14s9.26-10,12-8.43a10.32,10.32,0,0,1,3.27,2.88c1,1.33.55,4.71-1.77,7.54-2.72,3.33-6.43,4.77-10.31,1.61C2188.54,911.54,2189.87,915,2192.81,915.2Zm4.6-12.75c1.77-2.33,3-5.21,2.22-5.82-1.16-.94-5.77,2.38-8.37,7.65-0.17.33-.33,0.67-0.44,0.94C2193.53,906.94,2195.8,904.56,2197.41,902.45Z" transform="translate(-1575.76 -302.81)" fill="#00cdbd"/><path d="M2209.83,916.59c-0.67.83-2.27,0.5-3-.78a3.37,3.37,0,0,1,.28-4c0.83-.89,2.44-0.28,3.16,1.27A3.57,3.57,0,0,1,2209.83,916.59Zm14.25-34.65c0.72,1.55.61,4.27-1.66,8.37-3,5.49-7.71,14.19-10.53,20.34-0.28.55-.5,0.67-0.94,0.22-0.83-.89-1.39-2.72-0.17-6a136.09,136.09,0,0,1,11.92-23C2223.13,881.17,2223.74,881.17,2224.08,881.94Z" transform="translate(-1575.76 -302.81)" fill="#00cdbd"/></svg>