<svg id="Layer_1" data-name="Layer 1" xmlns="http://www.w3.org/2000/svg" viewBox="0 0 1059.8 228.29"><title>snacks-and-drinks</title><path d="M103.12,193.25a1.23,1.23,0,0,1-.11-1.89l10.68-12.44a1.06,1.06,0,0,1,1.65-.11c4.81,4.27,12.33,8.08,20.35,8.13,7.43,0,11.33-3,11.36-7.48,0-3.42-2.21-5.67-10.1-6.77l-4.24-.61c-17.31-2.57-26.7-10.4-26.62-25.37s11.81-24.92,30-24.82c11.08,0.06,21.43,3.54,28.59,9a1.18,1.18,0,0,1,.23,1.77L156,145.45a1.18,1.18,0,0,1-1.65.34c-5.64-3.8-11.64-6.08-18-6.11-5.89,0-8.86,2.78-8.88,6.67,0,3.54,2.56,5.79,10.22,6.78l4.24,0.61c17.55,2.57,26.46,10.4,26.38,25.61-0.08,14.85-11.46,25.63-32.91,25.51C122.27,204.79,109.1,199.18,103.12,193.25Z" transform="translate(-61.09 -57.14)" fill="#e64d61" stroke="#fff" stroke-miterlimit="10" stroke-width="0.71"/><path d="M182.95,124.74a1.11,1.11,0,0,1,1.19-1.17l17.33,0.1a2.07,2.07,0,0,1,2,1.19l23.91,45.51h0.47L228.09,125a1.11,1.11,0,0,1,1.19-1.17l16.5,0.09a1.11,1.11,0,0,1,1.17,1.19l-0.43,77.8a1.11,1.11,0,0,1-1.19,1.17L228,204a2.07,2.07,0,0,1-2-1.19l-23.68-45.4h-0.71l-0.25,45.26a1.11,1.11,0,0,1-1.19,1.17l-16.5-.09a1.11,1.11,0,0,1-1.17-1.19Z" transform="translate(-61.09 -57.14)" fill="#e64d61" stroke="#fff" stroke-miterlimit="10" stroke-width="0.71"/><path d="M287,125.32a1.53,1.53,0,0,1,1.54-1.17l19.21,0.11a1.53,1.53,0,0,1,1.53,1.19L336,203.39a0.81,0.81,0,0,1-.83,1.17l-19.45-.11a1.53,1.53,0,0,1-1.53-1.19l-3.7-12.4-26-.14-3.84,12.36a1.53,1.53,0,0,1-1.54,1.17l-19.33-.11a0.81,0.81,0,0,1-.82-1.18Zm18.36,48.31-7.29-25h-0.35l-7.92,24.95Z" transform="translate(-61.09 -57.14)" fill="#e64d61" stroke="#fff" stroke-miterlimit="10" stroke-width="0.71"/><path d="M342.68,164.52c0.07-11.9.68-16.26,2.48-21.68,4.32-13.06,14.73-19.72,29.22-19.64,14.15,0.08,24.24,6.85,28.66,18.43a1,1,0,0,1-.6,1.65L386.73,150a1.08,1.08,0,0,1-1.65-.72c-2.21-4.73-5-7.57-10.45-7.6-5.07,0-8.26,2.43-9.7,6.9-0.84,2.47-1.21,4.94-1.27,16s0.28,13.56,1.09,16c1.39,4.49,4.56,7,9.63,7,5.42,0,8.27-2.78,10.53-7.49a1.08,1.08,0,0,1,1.65-.7l15.64,6.92a1,1,0,0,1,.58,1.65c-4.54,11.53-14.72,18.19-28.86,18.11-14.5-.08-24.83-6.86-29-20C343.18,180.79,342.61,176.43,342.68,164.52Z" transform="translate(-61.09 -57.14)" fill="#e64d61" stroke="#fff" stroke-miterlimit="10" stroke-width="0.71"/><path d="M417.15,126a1.11,1.11,0,0,1,1.19-1.17l18.39,0.1a1.11,1.11,0,0,1,1.17,1.19l-0.17,31.35,23.16-31.34a2.32,2.32,0,0,1,2-1l20.75,0.12a0.9,0.9,0,0,1,.7,1.54l-24.1,30.87,25.09,46.46a0.8,0.8,0,0,1-.71,1.29l-21.1-.12a1.79,1.79,0,0,1-1.88-1.07l-15.39-30.26-8.67,11.39-0.1,18.62a1.11,1.11,0,0,1-1.19,1.17l-18.39-.1a1.11,1.11,0,0,1-1.17-1.19Z" transform="translate(-61.09 -57.14)" fill="#e64d61" stroke="#fff" stroke-miterlimit="10" stroke-width="0.71"/><path d="M493.74,195.42a1.23,1.23,0,0,1-.11-1.89l10.68-12.44A1.06,1.06,0,0,1,506,181c4.81,4.27,12.33,8.08,20.35,8.13,7.43,0,11.33-3,11.36-7.48,0-3.42-2.21-5.67-10.1-6.77l-4.24-.61c-17.31-2.57-26.7-10.4-26.62-25.37s11.81-24.92,30-24.82c11.08,0.06,21.43,3.54,28.59,9a1.18,1.18,0,0,1,.23,1.77l-8.91,12.8a1.18,1.18,0,0,1-1.65.34c-5.64-3.8-11.64-6.08-18-6.11-5.89,0-8.86,2.78-8.88,6.67,0,3.54,2.56,5.79,10.22,6.78l4.24,0.61c17.55,2.57,26.46,10.4,26.38,25.61C558.8,196.37,547.42,207.15,526,207,512.89,207,499.72,201.35,493.74,195.42Z" transform="translate(-61.09 -57.14)" fill="#e64d61" stroke="#fff" stroke-miterlimit="10" stroke-width="0.71"/><path d="M700.39,127.61a1.11,1.11,0,0,1,1.19-1.17l31,0.17c14.14,0.08,24.48,6,28.42,18.43,1.62,5.2,2.3,9.68,2.24,21.82s-0.8,16.62-2.48,21.79c-4.08,12.35-14.48,18.19-28.63,18.11l-31-.17a1.11,1.11,0,0,1-1.17-1.19Zm21.12,60.71,6.25,0c7.31,0,11.33-1.94,13.24-7.59,0.72-2.35,1.21-5.06,1.26-14s-0.41-11.67-1.1-14C739.3,147,735.3,145,728,145l-6.25,0a0.63,0.63,0,0,0-.71.7l-0.23,42A0.63,0.63,0,0,0,721.5,188.32Z" transform="translate(-61.09 -57.14)" fill="#e64d61" stroke="#fff" stroke-miterlimit="10" stroke-width="0.71"/><path d="M822.06,207.26a1.6,1.6,0,0,1-1.76-1.19l-12-27.41-7.66,0a0.63,0.63,0,0,0-.71.7L799.79,206a1.11,1.11,0,0,1-1.19,1.17l-18.39-.1a1.11,1.11,0,0,1-1.17-1.19l0.43-77.8a1.11,1.11,0,0,1,1.19-1.17l32.65,0.18c18.39,0.1,28.82,10.89,28.74,26-0.06,10-4.82,18.13-13.33,22.32L843.29,206a0.91,0.91,0,0,1-.83,1.41Zm-0.76-54.11c0-5.19-3.49-8.51-9.38-8.54l-11.08-.06a0.63,0.63,0,0,0-.71.7L800,160.81a0.63,0.63,0,0,0,.7.71l11.08,0.06C817.72,161.62,821.27,158.34,821.3,153.15Z" transform="translate(-61.09 -57.14)" fill="#e64d61" stroke="#fff" stroke-miterlimit="10" stroke-width="0.71"/><path d="M858.33,128.49a1.11,1.11,0,0,1,1.19-1.17l18.39,0.1a1.11,1.11,0,0,1,1.17,1.19l-0.43,77.8a1.11,1.11,0,0,1-1.19,1.17l-18.39-.1a1.11,1.11,0,0,1-1.17-1.19Z" transform="translate(-61.09 -57.14)" fill="#e64d61" stroke="#fff" stroke-miterlimit="10" stroke-width="0.71"/><path d="M896.76,128.7a1.11,1.11,0,0,1,1.19-1.17l17.33,0.1a2.07,2.07,0,0,1,2,1.19l23.91,45.51h0.47L941.9,129a1.11,1.11,0,0,1,1.19-1.17l16.5,0.09a1.11,1.11,0,0,1,1.17,1.19l-0.43,77.8a1.11,1.11,0,0,1-1.19,1.17l-17.33-.1a2.07,2.07,0,0,1-2-1.19l-23.68-45.4h-0.71l-0.25,45.26a1.11,1.11,0,0,1-1.19,1.17l-16.5-.09a1.11,1.11,0,0,1-1.17-1.19Z" transform="translate(-61.09 -57.14)" fill="#e64d61" stroke="#fff" stroke-miterlimit="10" stroke-width="0.71"/><path d="M978.44,129.15a1.11,1.11,0,0,1,1.19-1.17l18.39,0.1a1.11,1.11,0,0,1,1.17,1.19L999,160.62l23.16-31.34a2.32,2.32,0,0,1,2-1l20.75,0.12a0.9,0.9,0,0,1,.7,1.54l-24.1,30.87,25.09,46.46a0.8,0.8,0,0,1-.71,1.29l-21.1-.12a1.79,1.79,0,0,1-1.88-1.07l-15.39-30.26-8.67,11.39-0.1,18.62a1.11,1.11,0,0,1-1.19,1.17l-18.39-.1a1.11,1.11,0,0,1-1.17-1.19Z" transform="translate(-61.09 -57.14)" fill="#e64d61" stroke="#fff" stroke-miterlimit="10" stroke-width="0.71"/><path d="M1055,198.54a1.23,1.23,0,0,1-.11-1.89l10.68-12.44a1.06,1.06,0,0,1,1.65-.11c4.81,4.27,12.33,8.08,20.35,8.13,7.43,0,11.33-3,11.36-7.48,0-3.42-2.21-5.67-10.1-6.78l-4.24-.61c-17.31-2.57-26.7-10.4-26.62-25.37s11.81-24.92,30-24.82c11.08,0.06,21.43,3.54,28.59,9a1.18,1.18,0,0,1,.23,1.77l-8.91,12.8a1.18,1.18,0,0,1-1.65.34c-5.64-3.8-11.64-6.08-18-6.11-5.89,0-8.86,2.78-8.88,6.67,0,3.54,2.56,5.79,10.22,6.78l4.24,0.61c17.55,2.57,26.46,10.4,26.38,25.61-0.08,14.85-11.46,25.63-32.91,25.51C1074.17,210.08,1061,204.46,1055,198.54Z" transform="translate(-61.09 -57.14)" fill="#e64d61" stroke="#fff" stroke-miterlimit="10" stroke-width="0.71"/><path d="M231.54,131.07c0-.31-5.68-0.57-5.71,0-0.65,13.52-.2,54.42-0.1,59.31a1.3,1.3,0,0,0-.82-0.31c-7.64-11.52-29.67-49.38-38.53-61.12-0.19-.26-5.39,0-5.39.08-0.57,12.44-1.32,49.28-1.32,69.81a24.89,24.89,0,0,0,5.5.2c0-17.53.71-42.7,0.67-62.34,7.61,12.22,34.39,56.23,39.28,61.94,0.38,0.44,6,.51,6,0.31C231.13,188.34,231.92,134.34,231.54,131.07Z" transform="translate(-61.09 -57.14)" fill="#fef0ed"/><path d="M318,199.48c-5-15.4-20.93-64.68-23.37-67.12-0.68-.68-11-0.82-11.28-0.27-10.2,20.41-17,44.3-25.38,66-0.34.87,5.23,1,5.44,0.54,2-4.61,4.06-9.8,6-14.54,0.39,0.39,22.67-.53,38-0.4,2.56,8.52,4.08,13.45,4.91,15.75C312.43,199.74,318.19,200,318,199.48Zm-47.29-20.65c6-14.55,10.29-28,16.58-42.46,0,0,3.8-.07,3.94.2,3.54,7.07,9.49,27.86,15.08,42.12C295.61,179,282.43,179,270.74,178.83Z" transform="translate(-61.09 -57.14)" fill="#fef0ed"/><path d="M350.13,138.09c7.53-7.29,23.45-4.6,29.18,3.51,0.18,0.26,3.62-1.49,3.4-1.9-5-9.25-19.69-12.13-29.35-8.29-11.83,4.71-13.11,22.25-13.34,33-0.25,12.13.32,28.52,13,34.37a21.55,21.55,0,0,0,27.64-8.8c0.26-.46-2.59-2-2.82-1.65-6.3,8.57-17.78,12.21-26.74,5.37-8.12-6.2-8-20-7.84-29.29C343.45,156.36,343.84,144.17,350.13,138.09Z" transform="translate(-61.09 -57.14)" fill="#fef0ed" stroke="#fef0ed" stroke-miterlimit="10" stroke-width="1.63"/><path d="M466.14,200.16c-3.67-5.71-24.25-42.6-24.66-43.41,0.6-.64,15.93-19.91,22.35-27.24,0,0-7.21,0-7.27,0-3.6,4.59-36.69,44.81-36.69,45.15,0.16-13.33.39-34,.34-44.77,0-.44-5.63-0.21-5.63-0.12-0.31,21.41-.61,47.22-0.79,69.5a44,44,0,0,0,6.15.06c0-6.18.46-10.49,0.54-17.12,0.65-.34,12.09-15.63,17.32-21,7.75,13.32,15.39,28.72,21.81,38.93A61,61,0,0,0,466.14,200.16Z" transform="translate(-61.09 -57.14)" fill="#fef0ed"/><path d="M541.14,175.43C538.81,163.75,519.61,162.85,510,161c-12.83-2.39-13.21-17.59-2.39-23.49,8.23-4.49,18-1.21,26.09,1.68,0.14,0.05,2.45-4.16,2.18-4.3-9.73-4.86-23.73-7.34-33.25,0-6.91,5.36-10.56,16.76-5.48,24.51,6.38,9.72,24.09,5.44,33.18,10.9,11.83,7.1,5.56,26.31-11.3,26.37-7.38,0-16.71-2.85-22.56-7.07,0,0-4.21,4.48-3.94,4.62,8.83,4.42,27.67,11,39.81,4.62C540.05,194.86,542.87,184.1,541.14,175.43Z" transform="translate(-61.09 -57.14)" fill="#fef0ed"/><path d="M766,163.88c0-13.86-2.45-21.33-10.29-27.37-8.15-6.27-22.66-5.78-34.82-5.1-2.25.13-4.48,0-4.48,0.68,0,20.75-.14,46.1-0.14,66.85,0,0.41,29.67,2,38.25-3.06C763.54,190.61,766,180.75,766,163.88Zm-18.48,28.81c-8.84,2-11.55,1-20.38,1-1.36,0-4-.11-4.89-0.14,0.25-19.41-.33-37.38.27-56.66,9.65-.54,22.15-1.22,27.07,1.44,9.87,5.35,10.44,16.82,10.44,27C760,175.57,758.45,190.22,747.54,192.69Z" transform="translate(-61.09 -57.14)" fill="#fef0ed"/><path d="M830.94,173.46a23.28,23.28,0,0,0,3.73-1.35c8.2-3.84,10.54-14,9.65-22.26-2.27-21.07-27.54-17.94-43.45-17.29-0.86,0-2.79.07-2.85,0.07-0.41.07-.32,1.64-0.34,3-0.4,21.74-.76,45.05-1.15,66.79,0,0.28,4.89.21,4.89,0,0.21-8.86.27-19.29,0.43-28.15,7.3,0,16.44.71,24.43-.31-0.05.46,9.22,19.53,13.52,28.45,0.2,0.42,5.37,0,5.3-.12C840.69,193.44,835.66,182.23,830.94,173.46Zm-29-4.1,0.6-32c15.19-1.83,36.46-4.1,37.05,15,0.35,11.08-6.06,16.53-16.64,17C816,169.64,809,169.27,801.94,169.35Z" transform="translate(-61.09 -57.14)" fill="#fef0ed"/><path d="M881.62,134a29.69,29.69,0,0,0-5,0c0.18,22.87-.13,45.7,0,67.2a32.77,32.77,0,0,0,4.94.05C881.62,178.76,882.16,156.13,881.62,134Z" transform="translate(-61.09 -57.14)" fill="#fef0ed"/><path d="M1047.84,203.42c-3.67-5.71-24.25-42.6-24.66-43.41,0.6-.64,15.93-19.91,22.35-27.24,0,0-7.21,0-7.27,0-3.6,4.59-36.69,44.81-36.69,45.15,0.16-13.33.39-34,.34-44.77,0-.44-5.63-0.21-5.63-0.12-0.31,21.41-.61,47.22-0.79,69.5a44,44,0,0,0,6.15.06c0-6.18.46-10.49,0.54-17.12,0.65-.34,12.09-15.63,17.32-21,7.75,13.32,15.39,28.72,21.81,38.93A61,61,0,0,0,1047.84,203.42Z" transform="translate(-61.09 -57.14)" fill="#fef0ed"/><path d="M1120.4,177.47c-2.33-11.68-21.53-12.58-31.19-14.38-12.83-2.39-13.21-17.59-2.39-23.49,8.23-4.49,18-1.21,26.09,1.68,0.14,0.05,2.45-4.16,2.18-4.3-9.73-4.86-23.73-7.34-33.25,0-6.91,5.36-10.56,16.76-5.48,24.51,6.38,9.72,24.09,5.44,33.18,10.9,11.83,7.1,5.56,26.31-11.3,26.37-7.38,0-16.71-2.85-22.56-7.07,0,0-4.21,4.48-3.94,4.62,8.83,4.42,27.67,11,39.81,4.62C1119.31,196.9,1122.13,186.14,1120.4,177.47Z" transform="translate(-61.09 -57.14)" fill="#fef0ed"/><path d="M964.47,134.74c0-.31-5.68-0.57-5.71,0-0.65,13.52-.2,54.42-0.1,59.31a1.3,1.3,0,0,0-.82-0.31c-7.64-11.52-29.67-49.38-38.53-61.12-0.19-.26-5.39,0-5.39.08-0.57,12.44-1.32,49.28-1.32,69.81a24.89,24.89,0,0,0,5.5.2c0-17.53.71-42.7,0.67-62.34,7.61,12.22,34.39,56.23,39.28,61.94,0.38,0.44,6,.51,6,0.31C964.07,192,964.86,138,964.47,134.74Z" transform="translate(-61.09 -57.14)" fill="#fef0ed"/><path d="M149.81,173.8c-2.33-11.68-21.53-12.58-31.19-14.38-12.83-2.39-13.21-17.59-2.39-23.49,8.23-4.49,18-1.21,26.09,1.68,0.14,0.05,2.45-4.16,2.18-4.3-9.73-4.86-23.73-7.34-33.25,0-6.91,5.36-10.56,16.76-5.48,24.51,6.38,9.72,24.09,5.44,33.18,10.9,11.83,7.1,5.56,26.31-11.3,26.37-7.38,0-16.71-2.85-22.56-7.07,0,0-4.21,4.48-3.94,4.62,8.83,4.42,27.67,11,39.81,4.62C148.72,193.23,151.54,182.47,149.81,173.8Z" transform="translate(-61.09 -57.14)" fill="#fef0ed"/><path d="M631.63,178.59c-3.76.38-6.07-.77-7.14-3.07-0.31-.69-0.23-1.23.77-1.23,4.84,0.08,11-2.23,15.74-2.53,3.69-.23,5.84,1.38,6.91,3.69,0.23,0.84.08,1.31-.77,1.23a26.39,26.39,0,0,0-7.76.46c0.54,2.15-.15,5.07-2.61,8.29-4.38,5.68-14.21,10.06-21.5,3.69-8.29-7.22-1.61-20.89,10.52-24.34a6.27,6.27,0,0,1-4.53-6c-0.38-7.53,8.22-14.21,13.36-15.82,3.92-1.23,7.37-1.84,10.83,1.15,3.3,2.84,3.53,5.22,1.69,9.06-1.08,2.3-2.46,5.53-3.15,7.45-0.23.61-.69,0.85-1.61,0.38-1.77-.92-3.07-3.46-1.69-7.37,1.46-4.22,3.84-6.53,2.46-7.83-2.3-2.23-17,6.3-16.43,14,0.23,3.07,2.61,3.53,5.61,3.46,3.76-.08,5.22,1.92,5.68,3.23,0.31,0.77-.08,1-0.84,1.08-11.37.92-20.81,7.91-21,15.28a5.25,5.25,0,0,0,5.15,5.76c3.76,0.23,10.44-3.07,13.9-10.6C633.86,178.21,632.7,178.52,631.63,178.59Z" transform="translate(-61.09 -57.14)" fill="#fef0ed"/><path d="M628.37,178.6c-3.76.38-6.07-.77-7.14-3.07-0.31-.69-0.23-1.23.77-1.23,4.84,0.08,11-2.23,15.74-2.53,3.69-.23,5.84,1.38,6.91,3.69,0.23,0.84.08,1.31-.77,1.23a26.39,26.39,0,0,0-7.76.46c0.54,2.15-.15,5.07-2.61,8.29-4.38,5.68-14.21,10.06-21.5,3.69-8.29-7.22-1.61-20.89,10.52-24.34a6.27,6.27,0,0,1-4.53-6c-0.38-7.53,8.22-14.21,13.36-15.82,3.92-1.23,7.37-1.84,10.83,1.15,3.3,2.84,3.53,5.22,1.69,9.06-1.08,2.3-2.46,5.53-3.15,7.45-0.23.61-.69,0.85-1.61,0.38-1.77-.92-3.07-3.46-1.69-7.37,1.46-4.22,3.84-6.53,2.46-7.83-2.3-2.23-17,6.3-16.43,14,0.23,3.07,2.61,3.53,5.61,3.46,3.76-.08,5.22,1.92,5.68,3.23,0.31,0.77-.08,1-0.84,1.08-11.37.92-20.81,7.91-21,15.28a5.25,5.25,0,0,0,5.15,5.76c3.76,0.23,10.44-3.07,13.9-10.6C630.59,178.21,629.44,178.52,628.37,178.6Z" transform="translate(-61.09 -57.14)" fill="#00cdbd"/><path d="M325.47,234.38c-0.28-.61-0.11-0.89.55-0.94,3.88-.33,8.87-3,12.58-3.27,2.83-.17,5.54.72,6.54,4.49a10.23,10.23,0,0,1-1.94,9.26,22.73,22.73,0,0,1-8.65,6.6,6.67,6.67,0,0,1,2.66,2.33c1.16,1.72,1.11,5-1.28,7.59a18.91,18.91,0,0,1-9.7,5.16c-2.11.39-3.44,0.33-4.66-.28a7.79,7.79,0,0,1-2.83-2.55c-0.83-1.22-1.39-2.11-.11-5.65a103.24,103.24,0,0,1,10.59-20.51A4.15,4.15,0,0,1,325.47,234.38Zm3.16,17.74a6.23,6.23,0,0,1-3.44-.39,51.6,51.6,0,0,0-3.71,8.59c-0.61,1.94,0,2.61,1.77,2.38,3.55-.44,8.31-2.72,10.7-5.65,2.05-2.55,2.05-5-3-5.32C330.18,251.9,329.41,252,328.63,252.12Zm14.47-17c-1.11-2.88-6.6-.33-10.42.89,0.11,1.22-.28,2.88-1.66,5.43-1.11,2.05-2.72,4.66-4.32,7.48C337.67,246.41,344.49,238.93,343.1,235.16Z" transform="translate(-61.09 -57.14)" fill="#fef0ed"/><path d="M356.63,244.86c0.67-.44,1.11-0.55,1.5-0.11,1.05,1.16,2.38,3.6.78,5.43-2.49,2.83-5.21,6.32-6.1,9.2s-0.22,5,1.39,5.1c2.16,0.11,4.82-3.33,6.6-7.32,0.22-.44.55-0.5,0.78-0.06a4.83,4.83,0,0,1-.28,3.44c-1.27,3.22-4.49,5.54-7.43,5.43-4-.17-5.6-3.83-4.21-8,1.22-3.66,4.44-7.59,6.65-10.15a12.05,12.05,0,0,1-6.49,2.11c-2.11,3.88-7.43,11.75-8.48,16.8-0.11.5-.44,0.78-0.94,0.28-1.61-1.66-1.61-4.21-.11-7,1.27-2.44,5-7.65,7-10.59-3.16-2.05,1.66-8.59,3.71-8.65,1.72-.06,1.27,3.16-0.11,6.65A13.11,13.11,0,0,0,356.63,244.86Z" transform="translate(-61.09 -57.14)" fill="#fef0ed"/><path d="M360.18,257.66a68.44,68.44,0,0,1,7.1-13.47c0.5-.67.89-0.83,1.33-0.33,0.83,0.89,1.27,3.27-.06,6-1.16,2.44-3.49,6.21-4.66,9-1.33,3.22-1.22,5.38.55,5.27,2.49-.11,5.54-3.77,7.21-7.59,0.28-.5.67-0.44,0.89,0a4,4,0,0,1-.39,3.44c-1.66,3.44-5.16,5.77-8.26,5.77C359.68,265.76,358.62,262.21,360.18,257.66Zm12.36-14.47c-0.72.78-2.27,0.61-3.1-.83a3.44,3.44,0,0,1,.28-4.1c0.89-.94,2.49-0.28,3.22,1.22A3.35,3.35,0,0,1,372.54,243.19Z" transform="translate(-61.09 -57.14)" fill="#fef0ed"/><path d="M388.17,243.19c1.83,0.28,3.55,3,2.16,5.88-1.16,2.44-3.88,6.54-5.16,9.42-1.44,3.22-1.11,5.82.89,5.71,2.27-.11,5-3.77,7.1-7.65,0.28-.5.67-0.5,0.94-0.06,0.39,0.61.28,1.88-.5,3.49-1.5,3.1-5,5.93-8.2,5.93-4.71,0-5.82-3.44-4.21-8.26,1.83-5.43,6.71-11.31,5.71-11.75-0.55-.22-3.77,1.33-7.32,5.21-3.27,3.55-5.71,8.87-8.09,14.08-0.22.5-.55,0.72-1.05,0.22-1.11-1.11-1.44-2.94-.55-5.71,1.11-3.49,5.38-11.2,8.87-16.35,0.39-.61.83-0.55,1.16,0,0.83,1.39.78,3.27,0.17,5.27C382.57,246,386.34,242.92,388.17,243.19Z" transform="translate(-61.09 -57.14)" fill="#fef0ed"/><path d="M404.63,267.2c-3,7.43-7,16.24-11.48,18-1.11.44-2.22,0.28-3.21-1.16a7,7,0,0,1-1.11-6.87c1.61-5,6.38-8.37,11.86-10.48,0.55-1.22,1.05-2.55,1.61-3.83a8.24,8.24,0,0,1-5.6,2.77c-5.1,0-6.1-6.93-1.61-13.58,4.32-6.43,8.81-8.93,11.64-8.93,2.22,0,3.33,1.72,3.27,3.66,0.67-1.11,1.27-2.11,1.83-3,0.44-.78,1-0.83,1.39-0.33,0.83,1,1.27,3.38-.11,6.1-1.66,3.33-5.16,10-7.48,15.41a27.65,27.65,0,0,0,9.92-8.32c0.33-.44.83-0.44,0.94,0.11a5.43,5.43,0,0,1-1.11,3.22C413.23,263.32,409.24,265.53,404.63,267.2Zm-13.58,14.91c0.72,1.05,5.1-4.71,8.7-13.14C392.55,273.18,390.11,280.78,391.05,282.11ZM407.57,246c-1.72-.11-5.77,3.44-8.81,8.26s-3.6,9.65-1.39,9.7,5-3.44,7.82-8.31C408.68,249.51,409.18,246.08,407.57,246Z" transform="translate(-61.09 -57.14)" fill="#fef0ed"/><path d="M435.35,246.3a6,6,0,0,1,2-4.27c1.22-1.11,2.49-1.33,3-.83s0.28,1.16-.44,2.44c-0.22.33-.39,0.67-0.61,1.05-0.39,5.1.67,9.42,0.5,13.25-0.11,2.16-.5,4.49-2.49,5.82,3.71-1.39,6-4.71,7.43-7.71a0.55,0.55,0,0,1,1.05,0,5,5,0,0,1-.78,3.66,11.68,11.68,0,0,1-9.81,6.1c-3.22.11-6.32-.72-8.2-4.16-1.33-2.49-1.16-6.15.72-7.71,0.67-.55,1.11-0.33,1.16.55,0.06,0.44.06,0.89,0.11,1.33A110,110,0,0,0,435.35,246.3Zm-5.88,12.53c0.83,3.21,2.44,5.49,4.27,4.93,2.55-.78,1.72-9.48,1.5-13.91A97.5,97.5,0,0,1,429.47,258.83Z" transform="translate(-61.09 -57.14)" fill="#fef0ed"/><path d="M496,260c-1.55,3-5.1,5.93-8.26,5.88-4.77-.06-6.43-3.83-4.49-8.32,2-4.66,6.93-10.75,6.1-11.09-0.44-.17-2.38.55-5.93,4.1-4.55,4.55-7.26,9.81-9.59,15-0.28.67-.78,0.83-1.28,0.33-0.89-.89-1.55-3-0.06-6.93,1.77-4.6,7.71-12.2,6.65-12.64-0.55-.22-3.33,1.27-6.87,5.16-3.22,3.49-5.88,8.59-8.09,13.8-0.22.44-.5,0.61-1.05,0.17-1.16-.94-1.44-2.83-0.55-5.6a55.64,55.64,0,0,1,3.55-7.76,7.67,7.67,0,0,1-5.16,1.39c-1.11,4.77-4.6,10.53-8.7,11.86a6,6,0,0,1-7-2.38c-2.38-3.21-1.55-8.09.94-12.47,2.11-3.71,5.49-7,8.81-7.21,1.72-.11,2.55.39,3.71,1.88,1.33,1.72,3,2,2.66,6.1a2.44,2.44,0,0,1-.11.89c3.55-.06,7.15-4.16,10-8.65a0.65,0.65,0,0,1,1.22,0c0.89,1.44.72,3.6-.11,5.77,2.49-2.77,6.54-6,8.54-6s2.83,3,2.16,5.43c2.61-2.49,6.32-5.1,8.09-5,2,0.06,2.44,3.33,1.33,6-1.05,2.49-3.71,6.15-5,8.87-1.55,3.16-.83,5.77,1.22,5.65,2.22-.11,4.71-3.71,6.82-7.65,0.28-.5.67-0.39,0.94,0A4.87,4.87,0,0,1,496,260Zm-42.24-12.64a20.81,20.81,0,0,0-4.27,5.27c-2.44,4.16-3.16,9.2-1.72,10.48s4.88-.72,7.59-5.71a22,22,0,0,0,2-4.77A6.75,6.75,0,0,1,453.81,247.41Zm4.38,0c-0.28-1.77-1.44-1.5-1.66.17a4.3,4.3,0,0,0,1.33,3.71A11.27,11.27,0,0,0,458.19,247.41Z" transform="translate(-61.09 -57.14)" fill="#fef0ed"/><path d="M502.32,264.2c4.6,0.22,8.65-4.21,11-7.87a0.49,0.49,0,0,1,.94.06,4.5,4.5,0,0,1-.94,3.44,14,14,0,0,1-10.87,6c-7,.11-9.48-6.82-5.88-14s9.26-10,12-8.43a10.31,10.31,0,0,1,3.27,2.88c1,1.33.55,4.71-1.77,7.54-2.72,3.33-6.43,4.77-10.31,1.61C498,260.55,499.38,264,502.32,264.2Zm4.6-12.75c1.77-2.33,3-5.21,2.22-5.82-1.16-.94-5.77,2.38-8.37,7.65-0.17.33-.33,0.67-0.44,0.94C503,255.94,505.31,253.56,506.92,251.45Z" transform="translate(-61.09 -57.14)" fill="#fef0ed"/><path d="M515.73,241.92c-0.55-.78-0.22-1.16.61-1.11a31.67,31.67,0,0,0,4.6-.22,71.23,71.23,0,0,1,4.21-6.87c0.5-.72,1.05-0.67,1.33,0,0.61,1.55.61,3.38-.72,6.26a3.47,3.47,0,0,1,3.44,1.66c0.39,0.67.17,1.05-.67,1.05a16.54,16.54,0,0,0-4.32.22c-2.16,3.71-5.32,9.09-7.43,13.75-1.83,4-1.22,7.48,1.11,7.59,2.49,0.11,5.65-3.83,7.71-8,0.33-.67.94-0.78,1.16,0a4.64,4.64,0,0,1-.55,3.16c-0.72,1.61-4.38,6.49-8.81,6.32-3.66-.11-6.6-4.21-3.94-10.59,1.16-2.77,3.49-7.43,5.88-11.81A4.57,4.57,0,0,1,515.73,241.92Z" transform="translate(-61.09 -57.14)" fill="#fef0ed"/><path d="M538.18,265.81c-4.66,0-5.82-3.38-4.16-8.2,1.83-5.38,6.65-11.14,5.77-11.64s-6.82,3.33-10,8.59a72.57,72.57,0,0,0-5.38,10.53c-0.22.5-.61,0.61-0.94,0.22-0.89-1-1.39-2.55-.22-5.88,1.94-5.54,13.47-25.06,18-30.66,0.5-.67,1.05-0.61,1.33.06,0.72,1.61.55,4.38-1.55,7.87-1.33,2.22-4.27,6.71-6.65,10.42,2.27-2.22,5.16-4,6.65-3.88,1.88,0.22,3.6,3,2.16,5.82-1.22,2.44-3.88,6.49-5.16,9.37-1.39,3.22-1.11,5.82.94,5.71,2.27-.11,5.32-4.1,7-7.65a0.53,0.53,0,0,1,1-.06c0.28,0.61.28,1.77-.55,3.44C544.84,263,541.45,265.81,538.18,265.81Z" transform="translate(-61.09 -57.14)" fill="#fef0ed"/><path d="M545.28,257.66a68.44,68.44,0,0,1,7.1-13.47c0.5-.67.89-0.83,1.33-0.33,0.83,0.89,1.27,3.27-.06,6-1.16,2.44-3.49,6.21-4.66,9-1.33,3.22-1.22,5.38.55,5.27,2.49-.11,5.54-3.77,7.21-7.59,0.28-.5.67-0.44,0.89,0a4,4,0,0,1-.39,3.44c-1.66,3.44-5.16,5.77-8.26,5.77C544.78,265.76,543.73,262.21,545.28,257.66Zm12.36-14.47c-0.72.78-2.27,0.61-3.1-.83a3.44,3.44,0,0,1,.28-4.1c0.89-.94,2.49-0.28,3.22,1.22A3.35,3.35,0,0,1,557.64,243.19Z" transform="translate(-61.09 -57.14)" fill="#fef0ed"/><path d="M573.28,243.19c1.83,0.28,3.55,3,2.16,5.88-1.16,2.44-3.88,6.54-5.16,9.42-1.44,3.22-1.11,5.82.89,5.71,2.27-.11,5-3.77,7.1-7.65,0.28-.5.67-0.5,0.94-0.06,0.39,0.61.28,1.88-.5,3.49-1.5,3.1-5,5.93-8.2,5.93-4.71,0-5.82-3.44-4.21-8.26,1.83-5.43,6.71-11.31,5.71-11.75-0.55-.22-3.77,1.33-7.32,5.21-3.27,3.55-5.71,8.87-8.09,14.08-0.22.5-.55,0.72-1.05,0.22-1.11-1.11-1.44-2.94-.55-5.71,1.11-3.49,5.38-11.2,8.87-16.35,0.39-.61.83-0.55,1.16,0,0.83,1.39.78,3.27,0.17,5.27C567.68,246,571.45,242.92,573.28,243.19Z" transform="translate(-61.09 -57.14)" fill="#fef0ed"/><path d="M589.74,267.2c-3,7.43-7,16.24-11.48,18-1.11.44-2.22,0.28-3.21-1.16a7,7,0,0,1-1.11-6.87c1.61-5,6.38-8.37,11.86-10.48,0.55-1.22,1.05-2.55,1.61-3.83a8.24,8.24,0,0,1-5.6,2.77c-5.1,0-6.1-6.93-1.61-13.58,4.32-6.43,8.81-8.93,11.64-8.93,2.22,0,3.33,1.72,3.27,3.66,0.67-1.11,1.27-2.11,1.83-3,0.44-.78,1-0.83,1.39-0.33,0.83,1,1.27,3.38-.11,6.1-1.66,3.33-5.16,10-7.48,15.41a27.65,27.65,0,0,0,9.92-8.32c0.33-.44.83-0.44,0.94,0.11a5.43,5.43,0,0,1-1.11,3.22C598.33,263.32,594.34,265.53,589.74,267.2Zm-13.58,14.91c0.72,1.05,5.1-4.71,8.7-13.14C577.66,273.18,575.22,280.78,576.16,282.11ZM592.68,246c-1.72-.11-5.77,3.44-8.81,8.26s-3.6,9.65-1.39,9.7,5-3.44,7.82-8.31C593.79,249.51,594.29,246.08,592.68,246Z" transform="translate(-61.09 -57.14)" fill="#fef0ed"/><path d="M627.6,264.31c2.27-.11,5.27-3.82,7.21-7.65,0.28-.5.67-0.5,0.89-0.06a4.84,4.84,0,0,1-.44,3.44c-1.5,3-4.93,6-8,5.82s-4.49-1.83-4.49-4.43c-1.77,2.22-4.27,4.27-6.87,4.27-5.16,0-6.15-7-1.61-13.69,4.38-6.43,8.81-8.92,11.59-8.92,2.27,0,3.38,1.72,3.33,3.77,3-5.71,7.21-13.25,9.2-16.08,0.55-.78,1.05-0.72,1.33,0,0.78,1.83.61,4.21-1.72,8.37-2.66,4.77-8,13.91-10.75,19.79C625.77,262.15,625.72,264.43,627.6,264.31ZM618,254.23c-3,4.77-3.6,9.59-1.44,9.65s5.21-3.22,7.82-8.26c3.22-6.15,4-9.65,2.44-9.7S621,249.35,618,254.23Z" transform="translate(-61.09 -57.14)" fill="#fef0ed"/><path d="M641.19,264.2c4.6,0.22,8.65-4.21,11-7.87a0.49,0.49,0,0,1,.94.06,4.5,4.5,0,0,1-.94,3.44,14,14,0,0,1-10.87,6c-7,.11-9.48-6.82-5.88-14s9.26-10,12-8.43a10.31,10.31,0,0,1,3.27,2.88c1,1.33.55,4.71-1.77,7.54-2.72,3.33-6.43,4.77-10.31,1.61C636.92,260.55,638.25,264,641.19,264.2Zm4.6-12.75c1.77-2.33,3-5.21,2.22-5.82-1.16-.94-5.77,2.38-8.37,7.65-0.17.33-.33,0.67-0.44,0.94C641.91,255.94,644.18,253.56,645.79,251.45Z" transform="translate(-61.09 -57.14)" fill="#fef0ed"/><path d="M656.43,264.09c2.66,0.22,6.54-3.77,8.7-8,0.39-.72,1-0.78,1.22,0a5.1,5.1,0,0,1-.55,3.44c-0.78,1.66-4.82,6.26-9.26,6.15-3.83-.11-5.88-2.77-4.6-8.76,2.05-9.65,8.37-19.68,14-25.56,0.83-.89,1.61-1,2.38-0.28,1.61,1.44,1.94,3.49,1.27,6.1-1.72,6.82-7.93,13.47-12.86,16.69C654.55,259.27,653.94,263.87,656.43,264.09ZM667.74,236c-0.72-.44-4.82,5.71-8.65,12.81q-0.75,1.33-1.33,2.66C665.36,245.3,668.46,236.43,667.74,236Z" transform="translate(-61.09 -57.14)" fill="#fef0ed"/><path d="M664.19,257.66a68.44,68.44,0,0,1,7.1-13.47c0.5-.67.89-0.83,1.33-0.33,0.83,0.89,1.27,3.27-.06,6-1.16,2.44-3.49,6.21-4.66,9-1.33,3.22-1.22,5.38.55,5.27,2.49-.11,5.54-3.77,7.21-7.59,0.28-.5.67-0.44,0.89,0a4,4,0,0,1-.39,3.44c-1.66,3.44-5.16,5.77-8.26,5.77C663.69,265.76,662.64,262.21,664.19,257.66Zm12.36-14.47c-0.72.78-2.27,0.61-3.1-.83a3.44,3.44,0,0,1,.28-4.1c0.89-.94,2.49-0.28,3.22,1.22A3.35,3.35,0,0,1,676.55,243.19Z" transform="translate(-61.09 -57.14)" fill="#fef0ed"/><path d="M692,246.58c1.16,2.33-1.05,5.27-2.16,8.26-0.22.67-.44,0.83-1.16,0.44-1.33-.67-2.11-2.33-1.33-4.82,0.61-2,2.27-4.38,1.5-5-0.94-.78-5.1,2.77-7.59,7.82-3,6.26-1.88,10.87,1.39,10.92,4.66,0.06,8.65-4.38,10.92-7.87,0.28-.44.78-0.5,1,0.06a5,5,0,0,1-1,3.33,13.84,13.84,0,0,1-10.7,6c-7,.11-9.42-6.76-5.82-13.91,3.55-7,9.15-10,11.92-8.32A7.32,7.32,0,0,1,692,246.58Z" transform="translate(-61.09 -57.14)" fill="#fef0ed"/><path d="M692.58,257.66a68.44,68.44,0,0,1,7.1-13.47c0.5-.67.89-0.83,1.33-0.33,0.83,0.89,1.27,3.27-.06,6-1.16,2.44-3.49,6.21-4.66,9-1.33,3.22-1.22,5.38.55,5.27,2.49-.11,5.54-3.77,7.21-7.59,0.28-.5.67-0.44,0.89,0a4,4,0,0,1-.39,3.44c-1.66,3.44-5.16,5.77-8.26,5.77C692.08,265.76,691,262.21,692.58,257.66Zm12.36-14.47c-0.72.78-2.27,0.61-3.1-.83a3.44,3.44,0,0,1,.28-4.1c0.89-.94,2.49-0.28,3.22,1.22A3.35,3.35,0,0,1,704.94,243.19Z" transform="translate(-61.09 -57.14)" fill="#fef0ed"/><path d="M739.14,265.87c-3.6,0-5-2.22-4.55-5.43-1.94,2.55-4.77,5.49-7.93,5.21-3.94-.33-4-4.38-2.83-8a28,28,0,0,1,2.11-4.77,9.73,9.73,0,0,1-5,1c-1.27,4.66-4.66,10.14-8.59,11.48a6.13,6.13,0,0,1-7-2.44c-2.44-3.27-1.61-8,.83-12.47,2.11-3.83,5.54-6.93,8.87-7.15,1.66-.11,2.61.39,3.77,1.88,1.33,1.66,2.88,2,2.61,6.1a9.29,9.29,0,0,1-.11,1.11c3.16-.06,6.21-2.66,8.09-5.71,0.55-.89,1.44-2.11,2.11-3a0.79,0.79,0,0,1,1.39-.06c1.22,1.83.94,4.16-1.05,7.43A53.91,53.91,0,0,0,727.5,259c-1.11,2.72-.94,4.66.28,4.77,2.16,0.17,5.27-3.6,8.2-8.43,3.44-5.6,5-9.42,6.76-11.81,0.5-.72.94-0.83,1.39-0.33,0.83,1,1.28,3.38-.06,6.15-1.22,2.49-3.94,6.54-5.21,9.42-1.44,3.21-1.22,5.49.78,5.38,2.27-.11,5.16-3.77,7.26-7.65,0.28-.5.72-0.55,1-0.06a4.39,4.39,0,0,1-.5,3.44C745.79,263.1,742.41,265.87,739.14,265.87Zm-25.33-18.52a20.17,20.17,0,0,0-4.32,5.27c-2.33,4.16-3.1,9.2-1.66,10.48s4.88-.72,7.65-5.77a29.67,29.67,0,0,0,1.94-4.49A6.82,6.82,0,0,1,713.81,247.35Zm2.72,0.11a4.3,4.3,0,0,0,1.27,3.77,10.62,10.62,0,0,0,.39-3.94C718,245.52,716.69,245.91,716.52,247.46Z" transform="translate(-61.09 -57.14)" fill="#fef0ed"/><path d="M754.33,246.3a6,6,0,0,1,2-4.27c1.22-1.11,2.49-1.33,3-.83s0.28,1.16-.44,2.44c-0.22.33-.39,0.67-0.61,1.05-0.39,5.1.67,9.42,0.5,13.25-0.11,2.16-.5,4.49-2.49,5.82,3.71-1.39,6-4.71,7.43-7.71a0.55,0.55,0,0,1,1.05,0,5,5,0,0,1-.78,3.66,11.68,11.68,0,0,1-9.81,6.1c-3.22.11-6.32-.72-8.2-4.16-1.33-2.49-1.16-6.15.72-7.71,0.67-.55,1.11-0.33,1.16.55,0.06,0.44.06,0.89,0.11,1.33A109.89,109.89,0,0,0,754.33,246.3Zm-5.88,12.53c0.83,3.21,2.44,5.49,4.27,4.93,2.55-.78,1.72-9.48,1.5-13.91A97.4,97.4,0,0,1,748.46,258.83Z" transform="translate(-61.09 -57.14)" fill="#fef0ed"/><path d="M778.06,241.92c-0.55-.78-0.22-1.16.61-1.11a31.67,31.67,0,0,0,4.6-.22,71.23,71.23,0,0,1,4.21-6.87c0.5-.72,1.05-0.67,1.33,0,0.61,1.55.61,3.38-.72,6.26a3.47,3.47,0,0,1,3.44,1.66c0.39,0.67.17,1.05-.67,1.05a16.54,16.54,0,0,0-4.32.22c-2.16,3.71-5.32,9.09-7.43,13.75-1.83,4-1.22,7.48,1.11,7.59,2.49,0.11,5.65-3.83,7.71-8,0.33-.67.94-0.78,1.16,0a4.64,4.64,0,0,1-.55,3.16c-0.72,1.61-4.38,6.49-8.81,6.32-3.66-.11-6.6-4.21-3.94-10.59,1.16-2.77,3.49-7.43,5.88-11.81A4.57,4.57,0,0,1,778.06,241.92Z" transform="translate(-61.09 -57.14)" fill="#fef0ed"/><path d="M804.06,253.73c-1.16,4.71-4.66,10.31-8.76,11.7a6.1,6.1,0,0,1-7-2.44c-2.44-3.21-1.61-8,.89-12.47,2.11-3.77,5.49-7,8.81-7.21a3.78,3.78,0,0,1,3.77,1.88c1.27,1.72,2.94,2.11,2.61,6.1-0.06.44-.06,0.83-0.11,1.28,0.33,0,.67-0.11,1.11-0.11s0.39,0.28.17,0.55A2.26,2.26,0,0,1,804.06,253.73Zm-4.71-1.39a6.89,6.89,0,0,1-2.55-4.88,19.37,19.37,0,0,0-4.27,5.21c-2.33,4.21-3.16,9.31-1.72,10.53s4.93-.67,7.65-5.77A29.23,29.23,0,0,0,800.4,253,4.22,4.22,0,0,1,799.35,252.34Zm1.88-4.93c-0.28-1.77-1.39-1.44-1.66.17a4.56,4.56,0,0,0,1.22,3.94A10.61,10.61,0,0,0,801.23,247.41Z" transform="translate(-61.09 -57.14)" fill="#fef0ed"/><path d="M825.73,246.3a6,6,0,0,1,2-4.27c1.22-1.11,2.49-1.33,3-.83s0.28,1.16-.44,2.44c-0.22.33-.39,0.67-0.61,1.05-0.39,5.1.67,9.42,0.5,13.25-0.11,2.16-.5,4.49-2.49,5.82,3.71-1.39,6-4.71,7.43-7.71a0.55,0.55,0,0,1,1.05,0,5,5,0,0,1-.78,3.66,11.68,11.68,0,0,1-9.81,6.1c-3.22.11-6.32-.72-8.2-4.16-1.33-2.49-1.16-6.15.72-7.71,0.67-.55,1.11-0.33,1.16.55,0.06,0.44.06,0.89,0.11,1.33A109.89,109.89,0,0,0,825.73,246.3Zm-5.88,12.53c0.83,3.21,2.44,5.49,4.27,4.93,2.55-.78,1.72-9.48,1.5-13.91A97.4,97.4,0,0,1,819.86,258.83Z" transform="translate(-61.09 -57.14)" fill="#fef0ed"/><path d="M847.85,265.81c-4.66,0-5.82-3.38-4.16-8.2,1.83-5.38,6.65-11.14,5.76-11.64s-6.82,3.33-10,8.59a72.57,72.57,0,0,0-5.38,10.53c-0.22.5-.61,0.61-0.94,0.22-0.89-1-1.39-2.55-.22-5.88,1.94-5.54,13.47-25.06,18-30.66,0.5-.67,1.05-0.61,1.33.06,0.72,1.61.55,4.38-1.55,7.87-1.33,2.22-4.27,6.71-6.65,10.42,2.27-2.22,5.16-4,6.65-3.88,1.88,0.22,3.6,3,2.16,5.82-1.22,2.44-3.88,6.49-5.16,9.37-1.39,3.22-1.11,5.82.94,5.71,2.27-.11,5.32-4.1,7-7.65a0.53,0.53,0,0,1,1-.06c0.28,0.61.28,1.77-.55,3.44C854.51,263,851.12,265.81,847.85,265.81Z" transform="translate(-61.09 -57.14)" fill="#fef0ed"/><path d="M859.44,265.53c-5.1,0-6.21-7-1.61-13.69,4.44-6.37,8.81-8.93,11.64-8.93,2.16,0,3.27,1.72,3.27,3.66,0.83-1.39,1.55-2.49,1.94-3s0.89-.83,1.33-0.33c0.89,1,1.28,3.33.06,6.1-1.11,2.49-4,6.82-5.27,9.65-1.33,3.16-1.11,5.21.61,5,3.55-.33,8.54-7.15,11.14-15.3-4.49-1.61.78-9.15,3-9.31,1.72-.11,1.16,3.16,0,7a13.93,13.93,0,0,0,6.15-2.61c0.78-.55,1.16-0.67,1.66-0.11,1.05,1.16,2.38,3.71.78,5.6-2.61,3-5.43,6.87-6.32,9.65-0.94,3-.33,5.21,1.39,5.32,2.33,0.17,5.1-3.49,6.87-7.65,0.22-.44.61-0.55,0.83,0a4.89,4.89,0,0,1-.22,3.6c-1.44,3.33-4.71,5.77-7.76,5.65-4.21-.17-5.88-4-4.55-8.43,1.11-3.66,4.49-7.76,6.87-10.42a13.53,13.53,0,0,1-6.54,2.05c-2.72,7.82-7.71,16.19-13.64,16.63-3,.22-4.71-1.72-4.66-4.55C864.65,263.37,862.16,265.53,859.44,265.53Zm2.05-11.48c-3,4.77-3.6,9.59-1.44,9.65s5.1-3.33,7.93-8.31c3.44-6,3.94-9.54,2.33-9.65S864.54,249.18,861.49,254.06Z" transform="translate(-61.09 -57.14)" fill="#fef0ed"/><path d="M903.07,264.2c4.6,0.22,8.65-4.21,11-7.87a0.49,0.49,0,0,1,.94.06,4.5,4.5,0,0,1-.94,3.44,14,14,0,0,1-10.87,6c-7,.11-9.48-6.82-5.88-14s9.26-10,12-8.43a10.31,10.31,0,0,1,3.27,2.88c1,1.33.55,4.71-1.77,7.54-2.72,3.33-6.43,4.77-10.31,1.61C898.8,260.55,900.13,264,903.07,264.2Zm4.6-12.75c1.77-2.33,3-5.21,2.22-5.82-1.16-.94-5.77,2.38-8.37,7.65-0.17.33-.33,0.67-0.44,0.94C903.79,255.94,906.06,253.56,907.67,251.45Z" transform="translate(-61.09 -57.14)" fill="#fef0ed"/><path d="M920.09,265.59c-0.67.83-2.27,0.5-3-.78a3.37,3.37,0,0,1,.28-4c0.83-.89,2.44-0.28,3.16,1.27A3.57,3.57,0,0,1,920.09,265.59Zm14.25-34.65c0.72,1.55.61,4.27-1.66,8.37-3,5.49-7.71,14.19-10.53,20.34-0.28.55-.5,0.67-0.94,0.22-0.83-.89-1.39-2.72-0.17-6a136.11,136.11,0,0,1,11.92-23C933.39,230.17,934,230.17,934.34,230.94Z" transform="translate(-61.09 -57.14)" fill="#fef0ed"/><path d="M322.21,234.38c-0.28-.61-0.11-0.89.55-0.94,3.88-.33,8.87-3,12.58-3.27,2.83-.17,5.54.72,6.54,4.49a10.23,10.23,0,0,1-1.94,9.26,22.73,22.73,0,0,1-8.65,6.6,6.67,6.67,0,0,1,2.66,2.33c1.16,1.72,1.11,5-1.28,7.59a18.91,18.91,0,0,1-9.7,5.16c-2.11.39-3.44,0.33-4.66-.28a7.79,7.79,0,0,1-2.83-2.55c-0.83-1.22-1.39-2.11-.11-5.65A103.24,103.24,0,0,1,326,236.6,4.15,4.15,0,0,1,322.21,234.38Zm3.16,17.74a6.23,6.23,0,0,1-3.44-.39,51.6,51.6,0,0,0-3.71,8.59c-0.61,1.94,0,2.61,1.77,2.38,3.55-.44,8.31-2.72,10.7-5.65,2.05-2.55,2.05-5-3-5.32C326.92,251.9,326.15,252,325.37,252.12Zm14.47-17c-1.11-2.88-6.6-.33-10.42.89,0.11,1.22-.28,2.88-1.66,5.43-1.11,2.05-2.72,4.66-4.32,7.48C334.41,246.41,341.22,238.93,339.84,235.16Z" transform="translate(-61.09 -57.14)" fill="#00cdbd"/><path d="M353.37,244.86c0.67-.44,1.11-0.55,1.5-0.11,1.05,1.16,2.38,3.6.78,5.43-2.49,2.83-5.21,6.32-6.1,9.2s-0.22,5,1.39,5.1c2.16,0.11,4.82-3.33,6.6-7.32,0.22-.44.55-0.5,0.78-0.06a4.83,4.83,0,0,1-.28,3.44c-1.27,3.22-4.49,5.54-7.43,5.43-4-.17-5.6-3.83-4.21-8,1.22-3.66,4.44-7.59,6.65-10.15a12.05,12.05,0,0,1-6.49,2.11c-2.11,3.88-7.43,11.75-8.48,16.8-0.11.5-.44,0.78-0.94,0.28-1.61-1.66-1.61-4.21-.11-7,1.27-2.44,5-7.65,7-10.59-3.16-2.05,1.66-8.59,3.71-8.65,1.72-.06,1.27,3.16-0.11,6.65A13.11,13.11,0,0,0,353.37,244.86Z" transform="translate(-61.09 -57.14)" fill="#00cdbd"/><path d="M356.91,257.66a68.44,68.44,0,0,1,7.1-13.47c0.5-.67.89-0.83,1.33-0.33,0.83,0.89,1.27,3.27-.06,6-1.16,2.44-3.49,6.21-4.66,9-1.33,3.22-1.22,5.38.55,5.27,2.49-.11,5.54-3.77,7.21-7.59,0.28-.5.67-0.44,0.89,0a4,4,0,0,1-.39,3.44c-1.66,3.44-5.16,5.77-8.26,5.77C356.42,265.76,355.36,262.21,356.91,257.66Zm12.36-14.47c-0.72.78-2.27,0.61-3.1-.83a3.44,3.44,0,0,1,.28-4.1c0.89-.94,2.49-0.28,3.22,1.22A3.35,3.35,0,0,1,369.28,243.19Z" transform="translate(-61.09 -57.14)" fill="#00cdbd"/><path d="M384.91,243.19c1.83,0.28,3.55,3,2.16,5.88-1.16,2.44-3.88,6.54-5.16,9.42-1.44,3.22-1.11,5.82.89,5.71,2.27-.11,5-3.77,7.1-7.65,0.28-.5.67-0.5,0.94-0.06,0.39,0.61.28,1.88-.5,3.49-1.5,3.1-5,5.93-8.2,5.93-4.71,0-5.82-3.44-4.21-8.26,1.83-5.43,6.71-11.31,5.71-11.75-0.55-.22-3.77,1.33-7.32,5.21-3.27,3.55-5.71,8.87-8.09,14.08-0.22.5-.55,0.72-1.05,0.22-1.11-1.11-1.44-2.94-.55-5.71,1.11-3.49,5.38-11.2,8.87-16.35,0.39-.61.83-0.55,1.16,0,0.83,1.39.78,3.27,0.17,5.27C379.31,246,383.08,242.92,384.91,243.19Z" transform="translate(-61.09 -57.14)" fill="#00cdbd"/><path d="M401.37,267.2c-3,7.43-7,16.24-11.48,18-1.11.44-2.22,0.28-3.21-1.16a7,7,0,0,1-1.11-6.87c1.61-5,6.38-8.37,11.86-10.48,0.55-1.22,1.05-2.55,1.61-3.83a8.24,8.24,0,0,1-5.6,2.77c-5.1,0-6.1-6.93-1.61-13.58,4.32-6.43,8.81-8.93,11.64-8.93,2.22,0,3.33,1.72,3.27,3.66,0.67-1.11,1.27-2.11,1.83-3,0.44-.78,1-0.83,1.39-0.33,0.83,1,1.27,3.38-.11,6.1-1.66,3.33-5.16,10-7.48,15.41a27.65,27.65,0,0,0,9.92-8.32c0.33-.44.83-0.44,0.94,0.11a5.44,5.44,0,0,1-1.11,3.22C410,263.32,406,265.53,401.37,267.2Zm-13.58,14.91c0.72,1.05,5.1-4.71,8.7-13.14C389.29,273.18,386.85,280.78,387.79,282.11ZM404.31,246c-1.72-.11-5.77,3.44-8.81,8.26s-3.6,9.65-1.39,9.7,5-3.44,7.82-8.31C405.42,249.51,405.92,246.08,404.31,246Z" transform="translate(-61.09 -57.14)" fill="#00cdbd"/><path d="M432.09,246.3a6,6,0,0,1,2-4.27c1.22-1.11,2.49-1.33,3-.83s0.28,1.16-.44,2.44c-0.22.33-.39,0.67-0.61,1.05-0.39,5.1.67,9.42,0.5,13.25-0.11,2.16-.5,4.49-2.49,5.82,3.71-1.39,6-4.71,7.43-7.71a0.55,0.55,0,0,1,1.05,0,5,5,0,0,1-.78,3.66,11.68,11.68,0,0,1-9.81,6.1c-3.22.11-6.32-.72-8.2-4.16-1.33-2.49-1.16-6.15.72-7.71,0.67-.55,1.11-0.33,1.16.55,0.06,0.44.06,0.89,0.11,1.33A109.89,109.89,0,0,0,432.09,246.3Zm-5.88,12.53c0.83,3.21,2.44,5.49,4.27,4.93,2.55-.78,1.72-9.48,1.5-13.91A97.4,97.4,0,0,1,426.21,258.83Z" transform="translate(-61.09 -57.14)" fill="#00cdbd"/><path d="M492.79,260c-1.55,3-5.1,5.93-8.26,5.88-4.77-.06-6.43-3.83-4.49-8.32,2-4.66,6.93-10.75,6.1-11.09-0.44-.17-2.38.55-5.93,4.1-4.55,4.55-7.26,9.81-9.59,15-0.28.67-.78,0.83-1.28,0.33-0.89-.89-1.55-3-0.06-6.93,1.77-4.6,7.71-12.2,6.65-12.64-0.55-.22-3.33,1.27-6.87,5.16-3.22,3.49-5.88,8.59-8.09,13.8-0.22.44-.5,0.61-1.05,0.17-1.16-.94-1.44-2.83-0.55-5.6a55.64,55.64,0,0,1,3.55-7.76,7.67,7.67,0,0,1-5.16,1.39c-1.11,4.77-4.6,10.53-8.7,11.86a6,6,0,0,1-7-2.38c-2.38-3.21-1.55-8.09.94-12.47,2.11-3.71,5.49-7,8.81-7.21,1.72-.11,2.55.39,3.71,1.88,1.33,1.72,3,2,2.66,6.1a2.44,2.44,0,0,1-.11.89c3.55-.06,7.15-4.16,10-8.65a0.65,0.65,0,0,1,1.22,0c0.89,1.44.72,3.6-.11,5.77,2.49-2.77,6.54-6,8.54-6s2.83,3,2.16,5.43c2.61-2.49,6.32-5.1,8.09-5,2,0.06,2.44,3.33,1.33,6-1.05,2.49-3.71,6.15-5,8.87-1.55,3.16-.83,5.77,1.22,5.65,2.22-.11,4.71-3.71,6.82-7.65,0.28-.5.67-0.39,0.94,0A4.87,4.87,0,0,1,492.79,260Zm-42.24-12.64a20.81,20.81,0,0,0-4.27,5.27c-2.44,4.16-3.16,9.2-1.72,10.48s4.88-.72,7.59-5.71a22,22,0,0,0,2-4.77A6.75,6.75,0,0,1,450.55,247.41Zm4.38,0c-0.28-1.77-1.44-1.5-1.66.17a4.3,4.3,0,0,0,1.33,3.71A11.27,11.27,0,0,0,454.92,247.41Z" transform="translate(-61.09 -57.14)" fill="#00cdbd"/><path d="M499.05,264.2c4.6,0.22,8.65-4.21,11-7.87a0.49,0.49,0,0,1,.94.06,4.5,4.5,0,0,1-.94,3.44,14,14,0,0,1-10.87,6c-7,.11-9.48-6.82-5.88-14s9.26-10,12-8.43a10.31,10.31,0,0,1,3.27,2.88c1,1.33.55,4.71-1.77,7.54-2.72,3.33-6.43,4.77-10.31,1.61C494.79,260.55,496.12,264,499.05,264.2Zm4.6-12.75c1.77-2.33,3-5.21,2.22-5.82-1.16-.94-5.77,2.38-8.37,7.65-0.17.33-.33,0.67-0.44,0.94C499.77,255.94,502,253.56,503.66,251.45Z" transform="translate(-61.09 -57.14)" fill="#00cdbd"/><path d="M512.47,241.92c-0.55-.78-0.22-1.16.61-1.11a31.67,31.67,0,0,0,4.6-.22,71.23,71.23,0,0,1,4.21-6.87c0.5-.72,1.05-0.67,1.33,0,0.61,1.55.61,3.38-.72,6.26a3.47,3.47,0,0,1,3.44,1.66c0.39,0.67.17,1.05-.67,1.05a16.54,16.54,0,0,0-4.32.22c-2.16,3.71-5.32,9.09-7.43,13.75-1.83,4-1.22,7.48,1.11,7.59,2.49,0.11,5.65-3.83,7.71-8,0.33-.67.94-0.78,1.16,0a4.64,4.64,0,0,1-.55,3.16c-0.72,1.61-4.38,6.49-8.81,6.32-3.66-.11-6.6-4.21-3.94-10.59,1.16-2.77,3.49-7.43,5.88-11.81A4.57,4.57,0,0,1,512.47,241.92Z" transform="translate(-61.09 -57.14)" fill="#00cdbd"/><path d="M534.92,265.81c-4.66,0-5.82-3.38-4.16-8.2,1.83-5.38,6.65-11.14,5.77-11.64s-6.82,3.33-10,8.59a72.57,72.57,0,0,0-5.38,10.53c-0.22.5-.61,0.61-0.94,0.22-0.89-1-1.39-2.55-.22-5.88,1.94-5.54,13.47-25.06,18-30.66,0.5-.67,1.05-0.61,1.33.06,0.72,1.61.55,4.38-1.55,7.87-1.33,2.22-4.27,6.71-6.65,10.42,2.27-2.22,5.16-4,6.65-3.88,1.88,0.22,3.6,3,2.16,5.82-1.22,2.44-3.88,6.49-5.16,9.37-1.39,3.22-1.11,5.82.94,5.71,2.27-.11,5.32-4.1,7-7.65a0.53,0.53,0,0,1,1-.06c0.28,0.61.28,1.77-.55,3.44C541.57,263,538.19,265.81,534.92,265.81Z" transform="translate(-61.09 -57.14)" fill="#00cdbd"/><path d="M542,257.66a68.44,68.44,0,0,1,7.1-13.47c0.5-.67.89-0.83,1.33-0.33,0.83,0.89,1.27,3.27-.06,6-1.16,2.44-3.49,6.21-4.66,9-1.33,3.22-1.22,5.38.55,5.27,2.49-.11,5.54-3.77,7.21-7.59,0.28-.5.67-0.44,0.89,0A4,4,0,0,1,554,260c-1.66,3.44-5.16,5.77-8.26,5.77C541.52,265.76,540.47,262.21,542,257.66Zm12.36-14.47c-0.72.78-2.27,0.61-3.1-.83a3.44,3.44,0,0,1,.28-4.1c0.89-.94,2.49-0.28,3.22,1.22A3.35,3.35,0,0,1,554.38,243.19Z" transform="translate(-61.09 -57.14)" fill="#00cdbd"/><path d="M570,243.19c1.83,0.28,3.55,3,2.16,5.88-1.16,2.44-3.88,6.54-5.16,9.42-1.44,3.22-1.11,5.82.89,5.71,2.27-.11,5-3.77,7.1-7.65,0.28-.5.67-0.5,0.94-0.06,0.39,0.61.28,1.88-.5,3.49-1.5,3.1-5,5.93-8.2,5.93-4.71,0-5.82-3.44-4.21-8.26,1.83-5.43,6.71-11.31,5.71-11.75-0.55-.22-3.77,1.33-7.32,5.21-3.27,3.55-5.71,8.87-8.09,14.08-0.22.5-.55,0.72-1.05,0.22-1.11-1.11-1.44-2.94-.55-5.71,1.11-3.49,5.38-11.2,8.87-16.35,0.39-.61.83-0.55,1.16,0,0.83,1.39.78,3.27,0.17,5.27C564.41,246,568.18,242.92,570,243.19Z" transform="translate(-61.09 -57.14)" fill="#00cdbd"/><path d="M586.48,267.2c-3,7.43-7,16.24-11.48,18-1.11.44-2.22,0.28-3.21-1.16a7,7,0,0,1-1.11-6.87c1.61-5,6.38-8.37,11.86-10.48,0.55-1.22,1.05-2.55,1.61-3.83a8.24,8.24,0,0,1-5.6,2.77c-5.1,0-6.1-6.93-1.61-13.58,4.32-6.43,8.81-8.93,11.64-8.93,2.22,0,3.33,1.72,3.27,3.66,0.67-1.11,1.27-2.11,1.83-3,0.44-.78,1-0.83,1.39-0.33,0.83,1,1.27,3.38-.11,6.1-1.66,3.33-5.16,10-7.48,15.41a27.65,27.65,0,0,0,9.92-8.32c0.33-.44.83-0.44,0.94,0.11a5.43,5.43,0,0,1-1.11,3.22C595.07,263.32,591.08,265.53,586.48,267.2ZM572.9,282.11c0.72,1.05,5.1-4.71,8.7-13.14C574.39,273.18,572,280.78,572.9,282.11ZM589.42,246c-1.72-.11-5.77,3.44-8.81,8.26s-3.6,9.65-1.39,9.7,5-3.44,7.82-8.31C590.53,249.51,591,246.08,589.42,246Z" transform="translate(-61.09 -57.14)" fill="#00cdbd"/><path d="M624.34,264.31c2.27-.11,5.27-3.82,7.21-7.65,0.28-.5.67-0.5,0.89-0.06A4.84,4.84,0,0,1,632,260c-1.5,3-4.93,6-8,5.82s-4.49-1.83-4.49-4.43c-1.77,2.22-4.27,4.27-6.87,4.27-5.16,0-6.15-7-1.61-13.69,4.38-6.43,8.81-8.92,11.59-8.92,2.27,0,3.38,1.72,3.33,3.77,3-5.71,7.21-13.25,9.2-16.08,0.55-.78,1.05-0.72,1.33,0,0.78,1.83.61,4.21-1.72,8.37-2.66,4.77-8,13.91-10.75,19.79C622.51,262.15,622.46,264.43,624.34,264.31Zm-9.65-10.09c-3,4.77-3.6,9.59-1.44,9.65s5.21-3.22,7.82-8.26c3.22-6.15,4-9.65,2.44-9.7S617.74,249.35,614.7,254.23Z" transform="translate(-61.09 -57.14)" fill="#00cdbd"/><path d="M637.92,264.2c4.6,0.22,8.65-4.21,11-7.87a0.49,0.49,0,0,1,.94.06,4.5,4.5,0,0,1-.94,3.44,14,14,0,0,1-10.87,6c-7,.11-9.48-6.82-5.88-14s9.26-10,12-8.43a10.31,10.31,0,0,1,3.27,2.88c1,1.33.55,4.71-1.77,7.54-2.72,3.33-6.43,4.77-10.31,1.61C633.66,260.55,635,264,637.92,264.2Zm4.6-12.75c1.77-2.33,3-5.21,2.22-5.82-1.16-.94-5.77,2.38-8.37,7.65-0.17.33-.33,0.67-0.44,0.94C638.64,255.94,640.92,253.56,642.52,251.45Z" transform="translate(-61.09 -57.14)" fill="#00cdbd"/><path d="M653.17,264.09c2.66,0.22,6.54-3.77,8.7-8,0.39-.72,1-0.78,1.22,0a5.1,5.1,0,0,1-.55,3.44c-0.78,1.66-4.82,6.26-9.26,6.15-3.83-.11-5.88-2.77-4.6-8.76,2.05-9.65,8.37-19.68,14-25.56,0.83-.89,1.61-1,2.38-0.28,1.61,1.44,1.94,3.49,1.27,6.1-1.72,6.82-7.93,13.47-12.86,16.69C651.28,259.27,650.67,263.87,653.17,264.09ZM664.48,236c-0.72-.44-4.82,5.71-8.65,12.81q-0.75,1.33-1.33,2.66C662.09,245.3,665.2,236.43,664.48,236Z" transform="translate(-61.09 -57.14)" fill="#00cdbd"/><path d="M660.93,257.66a68.44,68.44,0,0,1,7.1-13.47c0.5-.67.89-0.83,1.33-0.33,0.83,0.89,1.27,3.27-.06,6-1.16,2.44-3.49,6.21-4.66,9-1.33,3.22-1.22,5.38.55,5.27,2.49-.11,5.54-3.77,7.21-7.59,0.28-.5.67-0.44,0.89,0a4,4,0,0,1-.39,3.44c-1.66,3.44-5.16,5.77-8.26,5.77C660.43,265.76,659.38,262.21,660.93,257.66Zm12.36-14.47c-0.72.78-2.27,0.61-3.1-.83a3.44,3.44,0,0,1,.28-4.1c0.89-.94,2.49-0.28,3.22,1.22A3.35,3.35,0,0,1,673.29,243.19Z" transform="translate(-61.09 -57.14)" fill="#00cdbd"/><path d="M688.7,246.58c1.16,2.33-1.05,5.27-2.16,8.26-0.22.67-.44,0.83-1.16,0.44-1.33-.67-2.11-2.33-1.33-4.82,0.61-2,2.27-4.38,1.5-5-0.94-.78-5.1,2.77-7.59,7.82-3,6.26-1.88,10.87,1.39,10.92,4.66,0.06,8.65-4.38,10.92-7.87,0.28-.44.78-0.5,1,0.06a5,5,0,0,1-1,3.33,13.84,13.84,0,0,1-10.7,6c-7,.11-9.42-6.76-5.82-13.91,3.55-7,9.15-10,11.92-8.32A7.32,7.32,0,0,1,688.7,246.58Z" transform="translate(-61.09 -57.14)" fill="#00cdbd"/><path d="M689.31,257.66a68.44,68.44,0,0,1,7.1-13.47c0.5-.67.89-0.83,1.33-0.33,0.83,0.89,1.27,3.27-.06,6-1.16,2.44-3.49,6.21-4.66,9-1.33,3.22-1.22,5.38.55,5.27,2.49-.11,5.54-3.77,7.21-7.59,0.28-.5.67-0.44,0.89,0a4,4,0,0,1-.39,3.44c-1.66,3.44-5.16,5.77-8.26,5.77C688.81,265.76,687.76,262.21,689.31,257.66Zm12.36-14.47c-0.72.78-2.27,0.61-3.1-.83a3.44,3.44,0,0,1,.28-4.1c0.89-.94,2.49-0.28,3.22,1.22A3.35,3.35,0,0,1,701.68,243.19Z" transform="translate(-61.09 -57.14)" fill="#00cdbd"/><path d="M735.88,265.87c-3.6,0-5-2.22-4.55-5.43-1.94,2.55-4.77,5.49-7.93,5.21-3.94-.33-4-4.38-2.83-8a28,28,0,0,1,2.11-4.77,9.73,9.73,0,0,1-5,1c-1.27,4.66-4.66,10.14-8.59,11.48a6.13,6.13,0,0,1-7-2.44c-2.44-3.27-1.61-8,.83-12.47,2.11-3.83,5.54-6.93,8.87-7.15,1.66-.11,2.61.39,3.77,1.88,1.33,1.66,2.88,2,2.61,6.1a9.29,9.29,0,0,1-.11,1.11c3.16-.06,6.21-2.66,8.09-5.71,0.55-.89,1.44-2.11,2.11-3a0.79,0.79,0,0,1,1.39-.06c1.22,1.83.94,4.16-1.05,7.43a53.91,53.91,0,0,0-4.32,8.09c-1.11,2.72-.94,4.66.28,4.77,2.16,0.17,5.27-3.6,8.2-8.43,3.44-5.6,5-9.42,6.76-11.81,0.5-.72.94-0.83,1.39-0.33,0.83,1,1.28,3.38-.06,6.15-1.22,2.49-3.94,6.54-5.21,9.42-1.44,3.21-1.22,5.49.78,5.38,2.27-.11,5.16-3.77,7.26-7.65,0.28-.5.72-0.55,1-0.06a4.39,4.39,0,0,1-.5,3.44C742.53,263.1,739.15,265.87,735.88,265.87Zm-25.33-18.52a20.17,20.17,0,0,0-4.32,5.27c-2.33,4.16-3.1,9.2-1.66,10.48s4.88-.72,7.65-5.77a29.67,29.67,0,0,0,1.94-4.49A6.82,6.82,0,0,1,710.55,247.35Zm2.72,0.11a4.3,4.3,0,0,0,1.27,3.77,10.62,10.62,0,0,0,.39-3.94C714.7,245.52,713.43,245.91,713.26,247.46Z" transform="translate(-61.09 -57.14)" fill="#00cdbd"/><path d="M751.07,246.3a6,6,0,0,1,2-4.27c1.22-1.11,2.49-1.33,3-.83s0.28,1.16-.44,2.44c-0.22.33-.39,0.67-0.61,1.05-0.39,5.1.67,9.42,0.5,13.25-0.11,2.16-.5,4.49-2.49,5.82,3.71-1.39,6-4.71,7.43-7.71a0.55,0.55,0,0,1,1.05,0,5,5,0,0,1-.78,3.66,11.68,11.68,0,0,1-9.81,6.1c-3.22.11-6.32-.72-8.2-4.16-1.33-2.49-1.16-6.15.72-7.71,0.67-.55,1.11-0.33,1.16.55,0.06,0.44.06,0.89,0.11,1.33A109.89,109.89,0,0,0,751.07,246.3Zm-5.88,12.53c0.83,3.21,2.44,5.49,4.27,4.93,2.55-.78,1.72-9.48,1.5-13.91A97.4,97.4,0,0,1,745.2,258.83Z" transform="translate(-61.09 -57.14)" fill="#00cdbd"/><path d="M774.8,241.92c-0.55-.78-0.22-1.16.61-1.11a31.67,31.67,0,0,0,4.6-.22,71.23,71.23,0,0,1,4.21-6.87c0.5-.72,1.05-0.67,1.33,0,0.61,1.55.61,3.38-.72,6.26a3.47,3.47,0,0,1,3.44,1.66c0.39,0.67.17,1.05-.67,1.05a16.54,16.54,0,0,0-4.32.22c-2.16,3.71-5.32,9.09-7.43,13.75-1.83,4-1.22,7.48,1.11,7.59,2.49,0.11,5.65-3.83,7.71-8,0.33-.67.94-0.78,1.16,0a4.64,4.64,0,0,1-.55,3.16c-0.72,1.61-4.38,6.49-8.81,6.32-3.66-.11-6.6-4.21-3.94-10.59,1.16-2.77,3.49-7.43,5.88-11.81A4.57,4.57,0,0,1,774.8,241.92Z" transform="translate(-61.09 -57.14)" fill="#00cdbd"/><path d="M800.8,253.73c-1.16,4.71-4.66,10.31-8.76,11.7a6.1,6.1,0,0,1-7-2.44c-2.44-3.21-1.61-8,.89-12.47,2.11-3.77,5.49-7,8.81-7.21a3.78,3.78,0,0,1,3.77,1.88c1.27,1.72,2.94,2.11,2.61,6.1-0.06.44-.06,0.83-0.11,1.28,0.33,0,.67-0.11,1.11-0.11s0.39,0.28.17,0.55A2.26,2.26,0,0,1,800.8,253.73Zm-4.71-1.39a6.89,6.89,0,0,1-2.55-4.88,19.37,19.37,0,0,0-4.27,5.21c-2.33,4.21-3.16,9.31-1.72,10.53s4.93-.67,7.65-5.77a29.23,29.23,0,0,0,1.94-4.43A4.22,4.22,0,0,1,796.09,252.34Zm1.88-4.93c-0.28-1.77-1.39-1.44-1.66.17a4.56,4.56,0,0,0,1.22,3.94A10.61,10.61,0,0,0,798,247.41Z" transform="translate(-61.09 -57.14)" fill="#00cdbd"/><path d="M822.47,246.3a6,6,0,0,1,2-4.27c1.22-1.11,2.49-1.33,3-.83s0.28,1.16-.44,2.44c-0.22.33-.39,0.67-0.61,1.05-0.39,5.1.67,9.42,0.5,13.25-0.11,2.16-.5,4.49-2.49,5.82,3.71-1.39,6-4.71,7.43-7.71a0.55,0.55,0,0,1,1.05,0,5,5,0,0,1-.78,3.66,11.68,11.68,0,0,1-9.81,6.1c-3.22.11-6.32-.72-8.2-4.16-1.33-2.49-1.16-6.15.72-7.71,0.67-.55,1.11-0.33,1.16.55,0.06,0.44.06,0.89,0.11,1.33A109.89,109.89,0,0,0,822.47,246.3Zm-5.88,12.53c0.83,3.21,2.44,5.49,4.27,4.93,2.55-.78,1.72-9.48,1.5-13.91A97.4,97.4,0,0,1,816.6,258.83Z" transform="translate(-61.09 -57.14)" fill="#00cdbd"/><path d="M844.59,265.81c-4.66,0-5.82-3.38-4.16-8.2,1.83-5.38,6.65-11.14,5.76-11.64s-6.82,3.33-10,8.59a72.57,72.57,0,0,0-5.38,10.53c-0.22.5-.61,0.61-0.94,0.22-0.89-1-1.39-2.55-.22-5.88,1.94-5.54,13.47-25.06,18-30.66,0.5-.67,1.05-0.61,1.33.06,0.72,1.61.55,4.38-1.55,7.87-1.33,2.22-4.27,6.71-6.65,10.42,2.27-2.22,5.16-4,6.65-3.88,1.88,0.22,3.6,3,2.16,5.82-1.22,2.44-3.88,6.49-5.16,9.37-1.39,3.22-1.11,5.82.94,5.71,2.27-.11,5.32-4.1,7-7.65a0.53,0.53,0,0,1,1-.06c0.28,0.61.28,1.77-.55,3.44C851.24,263,847.86,265.81,844.59,265.81Z" transform="translate(-61.09 -57.14)" fill="#00cdbd"/><path d="M856.18,265.53c-5.1,0-6.21-7-1.61-13.69,4.44-6.37,8.81-8.93,11.64-8.93,2.16,0,3.27,1.72,3.27,3.66,0.83-1.39,1.55-2.49,1.94-3s0.89-.83,1.33-0.33c0.89,1,1.28,3.33.06,6.1-1.11,2.49-4,6.82-5.27,9.65-1.33,3.16-1.11,5.21.61,5,3.55-.33,8.54-7.15,11.14-15.3-4.49-1.61.78-9.15,3-9.31,1.72-.11,1.16,3.16,0,7a13.93,13.93,0,0,0,6.15-2.61c0.78-.55,1.16-0.67,1.66-0.11,1.05,1.16,2.38,3.71.78,5.6-2.61,3-5.43,6.87-6.32,9.65-0.94,3-.33,5.21,1.39,5.32,2.33,0.17,5.1-3.49,6.87-7.65,0.22-.44.61-0.55,0.83,0a4.89,4.89,0,0,1-.22,3.6c-1.44,3.33-4.71,5.77-7.76,5.65-4.21-.17-5.88-4-4.55-8.43,1.11-3.66,4.49-7.76,6.87-10.42a13.53,13.53,0,0,1-6.54,2.05c-2.72,7.82-7.71,16.19-13.64,16.63-3,.22-4.71-1.72-4.66-4.55C861.39,263.37,858.9,265.53,856.18,265.53Zm2.05-11.48c-3,4.77-3.6,9.59-1.44,9.65s5.1-3.33,7.93-8.31c3.44-6,3.94-9.54,2.33-9.65S861.28,249.18,858.23,254.06Z" transform="translate(-61.09 -57.14)" fill="#00cdbd"/><path d="M899.81,264.2c4.6,0.22,8.65-4.21,11-7.87a0.49,0.49,0,0,1,.94.06,4.5,4.5,0,0,1-.94,3.44,14,14,0,0,1-10.87,6c-7,.11-9.48-6.82-5.88-14s9.26-10,12-8.43a10.31,10.31,0,0,1,3.27,2.88c1,1.33.55,4.71-1.77,7.54-2.72,3.33-6.43,4.77-10.31,1.61C895.54,260.55,896.87,264,899.81,264.2Zm4.6-12.75c1.77-2.33,3-5.21,2.22-5.82-1.16-.94-5.77,2.38-8.37,7.65-0.17.33-.33,0.67-0.44,0.94C900.53,255.94,902.8,253.56,904.41,251.45Z" transform="translate(-61.09 -57.14)" fill="#00cdbd"/><path d="M916.83,265.59c-0.67.83-2.27,0.5-3-.78a3.37,3.37,0,0,1,.28-4c0.83-.89,2.44-0.28,3.16,1.27A3.57,3.57,0,0,1,916.83,265.59Zm14.25-34.65c0.72,1.55.61,4.27-1.66,8.37-3,5.49-7.71,14.19-10.53,20.34-0.28.55-.5,0.67-0.94,0.22-0.83-.89-1.39-2.72-0.17-6a136.11,136.11,0,0,1,11.92-23C930.13,230.17,930.74,230.17,931.08,230.94Z" transform="translate(-61.09 -57.14)" fill="#00cdbd"/><line x1="47.63" y1="190.81" x2="236.78" y2="190.81" fill="none" stroke="#e64d61" stroke-miterlimit="10" stroke-width="3.26"/><line x1="881.4" y1="193.72" x2="1056.67" y2="192.53" fill="none" stroke="#e64d61" stroke-miterlimit="10" stroke-width="3.26"/><path d="M657.33,89.15c-0.28-.36-0.22-0.63.29-0.86,4.29-1.68,9-5.54,11.83-6.81a4.51,4.51,0,0,1,5.3.73c0.33,0.34.39,0.74-.27,1-3.82,1.65-6.91,4.24-9.79,6.08-0.48,3.68-1,8.84-1.47,14.5a27.91,27.91,0,0,1,3.21-1.92c2.46-1.28,4.2-.79,5.34.53,0.36,0.39.39,0.74-.22,1a46.47,46.47,0,0,0-8.68,5.58c-0.25,4.6-.42,9.24-0.38,13.28,0,0.6-.28.73-0.77,0.59-1.32-.38-2.55-1.77-2.89-5.39-0.47-5.13.41-17.43,1.63-26.66A4,4,0,0,1,657.33,89.15Z" transform="translate(-61.09 -57.14)" fill="#fef0ed" stroke="#e64d61" stroke-miterlimit="10" stroke-width="1.63"/><path d="M686.86,87.55q0.24-1.29,1.08-.85c1.17,0.57,2.54,2.57,2.46,5.64-0.1,2.77-.93,7.7-0.94,10.93,0,3.4.92,5.6,2.6,4.73,2-1,3.27-5.71,3.48-10,0-.57.38-0.78,0.79-0.41a5,5,0,0,1,.95,3.34c-0.07,3.37-2,7.58-4.87,8.67s-4.94.08-6-2.3c-0.69,2.8-2.13,5.69-4.56,6.78-4.71,2.1-8.54-3.89-7.08-11.9,1.43-7.8,4.41-11.87,6.94-13,2.18-1,3.94.25,4.72,2.26A39.25,39.25,0,0,1,686.86,87.55Zm-3.12,3.89c-1.69.57-3.91,5.51-4.68,11.26-0.74,5.55.6,10.3,2.59,9.47s3.28-5.29,3.87-10.9C686.22,94.27,685.27,90.93,683.74,91.43Z" transform="translate(-61.09 -57.14)" fill="#fef0ed" stroke="#e64d61" stroke-miterlimit="10" stroke-width="1.63"/><path d="M704.59,79.26c1.78-.49,4.46,1.28,4.37,4.48-0.07,2.7-.87,7.56-0.86,10.71,0,3.52,1.36,5.77,3.14,4.85,2-1,3-5.48,3.36-9.88,0-.57.4-0.73,0.84-0.43,0.6,0.4,1,1.61,1,3.39-0.1,3.44-2.13,7.45-5.07,8.76-4.3,1.92-6.72-.76-7.22-5.82-0.55-5.71,1.51-13.06.42-13.06-0.6,0-2.9,2.75-4.55,7.74-1.54,4.57-1.59,10.43-1.64,16.16,0,0.55-.21.88-0.87,0.63-1.46-.56-2.52-2.09-2.84-5-0.41-3.64.34-12.42,1.42-18.55,0.1-.71.53-0.84,1.06-0.47,1.32,0.93,2,2.67,2.3,4.74C700.61,84.07,702.81,79.75,704.59,79.26Z" transform="translate(-61.09 -57.14)" fill="#fef0ed" stroke="#e64d61" stroke-miterlimit="10" stroke-width="1.63"/><path d="M725.2,73.75c2,1.65,1.19,5.24,1.4,8.42,0.07,0.7-.07.94-0.88,0.88-1.49-.06-2.87-1.27-3.18-3.86-0.26-2.07.29-4.93-.67-5.17-1.18-.32-3.52,4.61-3.74,10.24-0.23,7,2.71,10.69,5.72,9.4,4.27-1.85,6.11-7.53,6.76-11.64,0.07-.52.5-0.77,0.93-0.36a5,5,0,0,1,.45,3.44,13.83,13.83,0,0,1-7.3,9.88c-6.38,3-11.36-2.33-11-10.33,0.39-7.82,4.28-12.84,7.49-12.45A7.31,7.31,0,0,1,725.2,73.75Z" transform="translate(-61.09 -57.14)" fill="#fef0ed" stroke="#e64d61" stroke-miterlimit="10" stroke-width="1.63"/><path d="M743.8,87.78c0.2,8,.25,17.8-3.23,21.3-0.8.78-1.77,1.21-3.36,0.23a7,7,0,0,1-3.82-5.82c-0.52-5.23,2.43-10.19,6.55-14.41,0-1.39-.07-2.88-0.06-4.35C739,87,737.71,89.23,735.62,90c-3.78,1.32-5.53-2.33-5.86-6.19a59.13,59.13,0,0,1,1.16-15.88,0.77,0.77,0,0,1,1.27-.57c1.94,1.08,2.59,3.34,2,7.16a50.58,50.58,0,0,0-.59,9.13c0.1,2.93,1,4.66,2.2,4.24,2-.73,3.12-5.1,3.74-10.66,0.5-4.72.64-10.24,1.26-13.62,0.16-.86.47-1.12,1.11-0.92,1.12,0.59,2.49,2.59,2.33,5.76-0.21,3.61-.58,11.07-0.51,16.93a29.51,29.51,0,0,0,5.47-11.8c0.09-.47.53-0.72,0.85-0.26a5,5,0,0,1,.4,3.34C749.92,80.67,747.23,84.18,743.8,87.78Zm-6.35,19.35c1.09,0.67,2.77-6.7,2.58-15.55C735.16,98.32,736,106.27,737.45,107.13Z" transform="translate(-61.09 -57.14)" fill="#fef0ed" stroke="#e64d61" stroke-miterlimit="10" stroke-width="1.63"/><path d="M82.46,104.36c2.78,2.83,1.24,8.07-.21,10.54a11.2,11.2,0,0,1-10.1,5.79c-2.82-.2-6.2-2.45-8.15-6.56-5-10.64-.08-23.83,4.61-28.54,2.26-2.28,4.65-3.59,6.9-2.9a10.27,10.27,0,0,1,4.33,2.5,6.34,6.34,0,0,1,1.54,4.66c-0.06,1.91.12,4.2,0.22,5.92a0.72,0.72,0,0,1-1,.8c-1.5-.24-3-1.45-3.39-4.32-0.39-3,.14-6.74-1.56-7.44-2.1-.89-8,6.65-9.14,16.23-1.15,9.38,2.7,16.64,6.09,17.56,4.42,1.18,8.26-4.61,8.74-13.87C81.36,104.06,81.91,103.82,82.46,104.36Z" transform="translate(-61.09 -57.14)" fill="#fef0ed" stroke="#e64d61" stroke-miterlimit="10" stroke-width="1.63"/><path d="M93.57,110.87C96.09,110,98,104.76,98.23,100c0.06-.82.59-1.12,1.11-0.5a5.09,5.09,0,0,1,.9,3.36c0,1.84-1.85,7.69-5.94,9.4-3.54,1.46-6.5-.13-7.77-6.12-2.06-9.64-.39-21.38,2.37-29.05C89.3,75.92,90,75.5,91,75.84c2.06,0.66,3.2,2.4,3.65,5,1.21,6.93-1.74,15.53-4.93,20.48C89.88,107.24,91.2,111.69,93.57,110.87ZM92.42,80.6c-0.84-.11-2.07,7.18-2.67,15.22q-0.14,1.52-.13,3C94,90.07,93.26,80.71,92.42,80.6Z" transform="translate(-61.09 -57.14)" fill="#fef0ed" stroke="#e64d61" stroke-miterlimit="10" stroke-width="1.63"/><path d="M110.38,80.83q0.24-1.29,1.08-.85c1.17,0.57,2.54,2.57,2.46,5.64-0.1,2.77-.93,7.7-0.95,10.93,0,3.4.92,5.6,2.6,4.73,2-1,3.27-5.71,3.49-10,0-.57.38-0.78,0.79-0.41a5,5,0,0,1,.95,3.34c-0.07,3.37-2,7.58-4.87,8.67s-4.94.08-6-2.3c-0.69,2.8-2.13,5.69-4.56,6.78-4.71,2.1-8.54-3.9-7.08-11.9,1.43-7.8,4.41-11.87,6.94-13,2.18-1,3.94.24,4.72,2.26C110.05,83.22,110.19,81.89,110.38,80.83Zm-3.12,3.88c-1.69.57-3.91,5.51-4.68,11.26-0.74,5.55.6,10.3,2.59,9.47s3.28-5.29,3.87-10.9C109.74,87.55,108.79,84.21,107.26,84.71Z" transform="translate(-61.09 -57.14)" fill="#fef0ed" stroke="#e64d61" stroke-miterlimit="10" stroke-width="1.63"/><path d="M121.69,78.81a6,6,0,0,1,.08-4.71c0.66-1.51,1.73-2.23,2.39-2s0.73,0.95.59,2.41c-0.07.39-.08,0.76-0.13,1.21,1.73,4.81,4.45,8.33,5.86,11.89,0.78,2,1.38,4.3.1,6.33,2.83-2.78,3.59-6.77,3.64-10.07a0.55,0.55,0,0,1,1-.43,5,5,0,0,1,.79,3.66,11.68,11.68,0,0,1-6.47,9.57c-2.89,1.41-6.06,1.92-9.19-.45-2.23-1.74-3.57-5.14-2.49-7.33,0.38-.78.88-0.76,1.29,0,0.23,0.38.41,0.79,0.64,1.17A109.8,109.8,0,0,0,121.69,78.81Zm-0.25,13.84c2.07,2.6,4.47,4,5.91,2.76,2-1.75-2.3-9.36-4.31-13.31A97.88,97.88,0,0,1,121.43,92.65Z" transform="translate(-61.09 -57.14)" fill="#fef0ed" stroke="#e64d61" stroke-miterlimit="10" stroke-width="1.63"/><path d="M137,72a6,6,0,0,1,.08-4.71c0.66-1.51,1.73-2.23,2.39-2s0.73,0.95.59,2.41c-0.07.39-.08,0.76-0.13,1.21,1.73,4.81,4.45,8.33,5.86,11.89,0.78,2,1.38,4.3.1,6.33,2.83-2.78,3.59-6.77,3.64-10.07a0.55,0.55,0,0,1,1-.43,5,5,0,0,1,.79,3.66,11.68,11.68,0,0,1-6.47,9.57c-2.89,1.41-6.06,1.92-9.19-.45-2.23-1.74-3.57-5.14-2.49-7.33,0.38-.78.88-0.76,1.29,0,0.23,0.38.41,0.79,0.64,1.17A109.79,109.79,0,0,0,137,72Zm-0.25,13.84c2.07,2.6,4.47,4,5.91,2.76,2-1.75-2.3-9.36-4.31-13.31A97.77,97.77,0,0,1,136.72,85.82Z" transform="translate(-61.09 -57.14)" fill="#fef0ed" stroke="#e64d61" stroke-miterlimit="10" stroke-width="1.63"/><path d="M162.72,83.12c0.2,8,.25,17.8-3.23,21.3-0.8.78-1.76,1.21-3.36,0.23a7,7,0,0,1-3.82-5.82c-0.52-5.23,2.43-10.19,6.55-14.41,0-1.39-.07-2.88-0.06-4.34-0.85,2.32-2.18,4.5-4.27,5.25-3.78,1.32-5.53-2.32-5.86-6.19a59.11,59.11,0,0,1,1.16-15.88,0.77,0.77,0,0,1,1.27-.57c1.94,1.08,2.59,3.34,2,7.16a50.57,50.57,0,0,0-.59,9.13c0.1,2.93,1,4.66,2.2,4.24,2-.73,3.12-5.1,3.74-10.66,0.5-4.72.64-10.24,1.26-13.62,0.16-.86.47-1.12,1.11-0.92,1.12,0.59,2.49,2.59,2.33,5.76-0.21,3.61-.58,11.07-0.51,16.93a29.52,29.52,0,0,0,5.47-11.8c0.09-.47.53-0.72,0.85-0.26a5,5,0,0,1,.4,3.34C168.83,76,166.15,79.52,162.72,83.12Zm-6.35,19.35c1.09,0.67,2.77-6.7,2.58-15.55C154.07,93.66,154.89,101.61,156.37,102.47Z" transform="translate(-61.09 -57.14)" fill="#fef0ed" stroke="#e64d61" stroke-miterlimit="10" stroke-width="1.63"/></svg>