<svg id="base" xmlns="http://www.w3.org/2000/svg" viewBox="0 0 433.44 527.58"><title>top-tree</title><path d="M170.9,481.33s113.33,4.67,197.33,2L361.56,524s-64,5.33-180,.67Z" transform="translate(-23.71 1)" fill="#e64d61"/><path d="M394.9,400c22.67-2,45.33-20,45.33-20-29.33-15.33-56.67-49.33-56.67-49.33,28.67-9.33,46-20.67,46-20.67-45.33-13.33-74.67-62-74.67-62,23.33,3.33,38.67-14,38.67-14-44-22-54-57.33-54-57.33,14-1.33,29.33-14,29.33-14-52.42-17.5-60.67-45.5-60.67-45.5,7.33-.67,22-6.5,22-6.5a57.86,57.86,0,0,1-40.67-31.33l12-5.22s-28-15.2-30.63-26.78c0,0-15.17,23.58-29.29,24.78l13.29,5.22s-8.58,25.5-41.92,30.83c0,0,17.17,8.58,24.5,9.25,0,0-12,26.25-63.75,43.5,0,0,15.83,12.42,29.83,13.75,0,0-11.08,35.25-55.08,57.25,0,0,17.67,18.08,41,14.75,0,0-24.5,49.5-78.5,61.5,0,0,13.58,13.42,42.25,22.75,0,0-17,27.75-50.33,47.08,0,0,22.67,18,45.33,20,0,0-26,35.33-61.33,49.33,0,0,48,49.33,127.33,12.67,0,0,28,12,36,12v11.33L292.9,484V474c8,0,32.67-11.33,32.67-11.33,79.33,36.67,130.67-13.33,130.67-13.33C421.56,436.67,394.9,400,394.9,400Z" transform="translate(-23.71 1)" fill="#00cdbd" stroke="#00cdbd" stroke-miterlimit="10"/><path d="M264.46,54.2a52.15,52.15,0,0,1-27.56,16,2.53,2.53,0,0,0-.6,4.57,80.56,80.56,0,0,0,12.13,5.27c-9.9,12.71-25.33,19.42-39.88,25.53-1.66.7-2.58,2.73-1.1,4.18A35.37,35.37,0,0,0,233,120.08c-7.7,9.67-17.84,16.94-27.86,24s-20.86,14.45-33.65,14.77a2.52,2.52,0,0,0-2.16,3.76,32.53,32.53,0,0,0,28,15.61c-9.7,22-30.63,34.09-49.26,48-9.13,6.83,2.23,13,8.26,16.77,8.34,5.21,17.46,8.53,27.22,7.8a64.29,64.29,0,0,1-26.68,30.69c-14.43,8.47-30.81,15-46.83,19.69a2.35,2.35,0,0,0-1.74,2.56,2.32,2.32,0,0,0-.85,3.28A59.56,59.56,0,0,0,146.58,335a206.51,206.51,0,0,1-18.87,22.68,89.21,89.21,0,0,1-12.32,10.49c-4,2.8-9.44,4.49-13.06,7.73-7.67,6.87,7.46,13,12.19,15.32a93.15,93.15,0,0,0,27.59,8.28c-8,8.84-16,17.78-24.21,26.42-8.88,9.31-20.18,15.92-31.28,22.27-2.79,1.6-.28,5.92,2.52,4.32,10.92-6.24,22.2-12.78,31.09-21.8,9.91-10.06,19.17-20.85,28.69-31.28,1.9-2.08-.59-5.07-2.7-4.15a2.65,2.65,0,0,0-1.09-.37,87,87,0,0,1-28.86-8.38c-2.27-1.12-11.56-5-9.4-7.71,1-1.24,4.19-2.1,5.62-2.92q3.13-1.78,6.06-3.86c14.1-10,24.56-24,34.73-37.75,1.5-2-.85-4-2.84-3.51a2.52,2.52,0,0,0-.67-0.22,54.71,54.71,0,0,1-37.3-24.83,229.54,229.54,0,0,0,25.43-9.48c8.25-3.59,16.74-7.19,24.29-12.11a69.82,69.82,0,0,0,27.48-35.32c0.76-2.13-1.39-3.4-3.11-2.94a2.6,2.6,0,0,0-1.41-.16c-10.64,1.69-20.59-3-29.17-8.84-1.53-1-6.11-3.43-6.15-5.22,0-1.34,4.76-3.8,5.92-4.6,4.43-3,8.86-6.1,13.18-9.32,14.71-10.95,28-23.92,34.56-41.43a2.83,2.83,0,0,0-3-3.21,27.66,27.66,0,0,1-24.48-9.58c11.76-1.65,21.93-8.23,31.58-15.06,11.26-8,22.39-16.12,30.77-27.25,1.18-1.57,0-3.09-1.48-3.48a2.24,2.24,0,0,0-2.38-2.67,30.31,30.31,0,0,1-20.69-6.31c15.54-6.65,31-14.33,40.78-28.73a2.52,2.52,0,0,0-1.49-3.67,74.66,74.66,0,0,1-8.54-3.1A56.71,56.71,0,0,0,268,57.74C270.16,55.36,266.63,51.81,264.46,54.2Z" transform="translate(-23.71 1)" fill="#fef0ed"/><polygon points="246.66 494.71 248.43 498.3 252.38 498.88 249.52 501.67 250.2 505.61 246.66 503.75 243.12 505.61 243.8 501.67 240.93 498.88 244.89 498.3 246.66 494.71" fill="#fef0ed"/><line x1="242.77" y1="495.17" x2="233.77" y2="489.17" fill="none" stroke="#fef0ed" stroke-miterlimit="10" stroke-width="0.3"/><line x1="241.02" y1="496.67" x2="224.77" y2="488.92" fill="none" stroke="#fef0ed" stroke-miterlimit="10" stroke-width="0.3"/><line x1="242.04" y1="502.9" x2="229.52" y2="509.42" fill="none" stroke="#fef0ed" stroke-miterlimit="10" stroke-width="0.3"/><line x1="241.79" y1="505.65" x2="233.77" y2="512.42" fill="none" stroke="#fef0ed" stroke-miterlimit="10" stroke-width="0.3"/><line x1="263.02" y1="502.67" x2="253.27" y2="501.17" fill="none" stroke="#fef0ed" stroke-miterlimit="10" stroke-width="0.3"/><line x1="263.77" y1="497.92" x2="254.52" y2="498.92" fill="none" stroke="#fef0ed" stroke-miterlimit="10" stroke-width="0.3"/><line x1="240.27" y1="500.92" x2="230.02" y2="503.17" fill="none" stroke="#fef0ed" stroke-miterlimit="10" stroke-width="0.3"/><line x1="239.52" y1="498.67" x2="231.02" y2="498.17" fill="none" stroke="#fef0ed" stroke-miterlimit="10" stroke-width="0.3"/><line x1="259.52" y1="489.62" x2="250.03" y2="496.72" fill="none" stroke="#fef0ed" stroke-miterlimit="10" stroke-width="0.3"/><line x1="270.27" y1="488.92" x2="254.02" y2="496.92" fill="none" stroke="#fef0ed" stroke-miterlimit="10" stroke-width="0.3"/><line x1="262.77" y1="508.67" x2="251.77" y2="502.42" fill="none" stroke="#fef0ed" stroke-miterlimit="10" stroke-width="0.3"/><line x1="246.52" y1="492.92" x2="246.52" y2="487.92" fill="none" stroke="#fef0ed" stroke-miterlimit="10" stroke-width="0.3"/><line x1="249.52" y1="493.67" x2="253.27" y2="486.92" fill="none" stroke="#fef0ed" stroke-miterlimit="10" stroke-width="0.3"/><line x1="240.02" y1="511.17" x2="245.02" y2="506.67" fill="none" stroke="#fef0ed" stroke-miterlimit="10" stroke-width="0.3"/><line x1="263.02" y1="512.92" x2="251.52" y2="505.67" fill="none" stroke="#fef0ed" stroke-miterlimit="10" stroke-width="0.3"/><line x1="243.52" y1="492.92" x2="240.77" y2="487.67" fill="none" stroke="#fef0ed" stroke-miterlimit="10" stroke-width="0.3"/><line x1="247.02" y1="510.92" x2="247.02" y2="505.92" fill="none" stroke="#fef0ed" stroke-miterlimit="10" stroke-width="0.3"/><line x1="253.02" y1="511.42" x2="250.27" y2="507.42" fill="none" stroke="#fef0ed" stroke-miterlimit="10" stroke-width="0.3"/><path d="M231.64,520.61c0.24,0,.22.07,0.14,0.17a1.89,1.89,0,0,1-2.09.36c-1.49-.52-2.37-1.84-4.2-1.44-0.14,0-.2-0.06-0.12-0.16a1.77,1.77,0,0,1,1.52-.51H227a2.73,2.73,0,0,1-1-2.28,7.22,7.22,0,0,1,4.22-6,1.78,1.78,0,0,1,1.93.3c1.68,0.78,1.24,3.5.2,5.42-0.92,1.67-2.27,3-3.74,3.08C229.7,520.09,230.67,520.79,231.64,520.61Zm0.24-9.26c-0.68-.29-2.44.66-3.79,2.68s-1.42,4.39-.48,4.83,2.57-.68,3.75-2.8C232.65,513.76,232.65,511.67,231.88,511.35Z" transform="translate(-23.71 1)" fill="#fef0ed" stroke="#fff" stroke-miterlimit="10" stroke-width="0.08"/><path d="M233.55,519.57c-1-.08-1-1.12-0.69-2a15,15,0,0,1,2-3.55,0.21,0.21,0,0,1,.36,0,1.7,1.7,0,0,1-.29,1.89,14.21,14.21,0,0,0-1.12,2c-0.3.68-.27,1.19,0.05,1.22,0.55,0,1.33-.92,2.1-2.13,0.9-1.42,1.32-2.38,1.77-3,0.14-.19.24-0.22,0.35-0.08a1.55,1.55,0,0,1,0,1.57c-0.32.63-1,1.67-1.36,2.38s-0.33,1.38.18,1.36,1.31-.94,1.87-1.91c0.07-.12.2-0.14,0.25,0a1.21,1.21,0,0,1-.14.88,2.67,2.67,0,0,1-2.12,1.47,1.08,1.08,0,0,1-1.15-1.4A2.68,2.68,0,0,1,233.55,519.57Z" transform="translate(-23.71 1)" fill="#fef0ed" stroke="#fff" stroke-miterlimit="10" stroke-width="0.08"/><path d="M243.59,514.11c0.13-.18.24-0.21,0.34-0.08a1.53,1.53,0,0,1,0,1.55c-0.32.63-1,1.67-1.38,2.41s-0.38,1.38.1,1.36,1.36-1,1.86-1.92c0.07-.12.17-0.14,0.22,0a1.25,1.25,0,0,1-.14.87,2.52,2.52,0,0,1-2,1.47,1.09,1.09,0,0,1-1.13-1.16,2.46,2.46,0,0,1-1.76,1.07c-1.3,0-1.55-1.8-.36-3.48s2.27-2.25,3-2.24a0.85,0.85,0,0,1,.84,1C243.26,514.62,243.44,514.33,243.59,514.11Zm-1.13.56c-0.45,0-1.48.85-2.27,2.08s-1,2.43-.41,2.45,1.31-.87,2-2.09C242.73,515.58,242.87,514.71,242.47,514.67Z" transform="translate(-23.71 1)" fill="#fef0ed" stroke="#fff" stroke-miterlimit="10" stroke-width="0.08"/><path d="M245.47,519.33c0.67,0.06,1.67-.93,2.22-2,0.1-.18.26-0.19,0.31,0a1.28,1.28,0,0,1-.15.87,3.08,3.08,0,0,1-2.36,1.52c-1,0-1.48-.72-1.13-2.23a14.62,14.62,0,0,1,3.63-6.41,0.38,0.38,0,0,1,.6-0.06,1.44,1.44,0,0,1,.3,1.55,8.09,8.09,0,0,1-3.3,4.17C245,518.1,244.84,519.26,245.47,519.33Zm2.95-7.06c-0.18-.11-1.24,1.43-2.23,3.21-0.13.22-.24,0.45-0.34,0.67C247.79,514.61,248.6,512.38,248.42,512.26Z" transform="translate(-23.71 1)" fill="#fef0ed" stroke="#fff" stroke-miterlimit="10" stroke-width="0.08"/><path d="M247.45,517.73a17.34,17.34,0,0,1,1.84-3.38c0.13-.17.23-0.21,0.34-0.08a1.47,1.47,0,0,1,0,1.53c-0.3.61-.9,1.56-1.21,2.25s-0.33,1.35.12,1.33c0.63,0,1.41-.93,1.85-1.9,0.07-.13.17-0.11,0.22,0a1,1,0,0,1-.11.87,2.51,2.51,0,0,1-2.11,1.43C247.3,519.77,247,518.87,247.45,517.73Zm3.17-3.62a0.51,0.51,0,0,1-.78-0.22,0.87,0.87,0,0,1,.08-1,0.53,0.53,0,0,1,.81.32A0.84,0.84,0,0,1,250.62,514.11Z" transform="translate(-23.71 1)" fill="#fef0ed" stroke="#fff" stroke-miterlimit="10" stroke-width="0.08"/><path d="M251.13,513.8c-0.14-.2-0.05-0.29.16-0.28a7.92,7.92,0,0,0,1.16,0,18.14,18.14,0,0,1,1.09-1.72c0.13-.18.27-0.16,0.34,0a1.91,1.91,0,0,1-.2,1.58,0.88,0.88,0,0,1,.86.43c0.1,0.17,0,.27-0.17.26a4.18,4.18,0,0,0-1.09,0c-0.56.93-1.37,2.28-1.92,3.45-0.47,1-.33,1.89.26,1.92s1.44-.95,2-2c0.09-.17.24-0.19,0.29,0a1.17,1.17,0,0,1-.15.8,2.88,2.88,0,0,1-2.25,1.57c-0.92,0-1.65-1.09-1-2.69,0.3-.7.91-1.87,1.52-3A1.16,1.16,0,0,1,251.13,513.8Z" transform="translate(-23.71 1)" fill="#fef0ed" stroke="#fff" stroke-miterlimit="10" stroke-width="0.08"/><path d="M255.92,520.19c-0.81,1.87-1.83,4.11-3,4.54a0.6,0.6,0,0,1-.79-0.3,1.76,1.76,0,0,1-.26-1.74,4.75,4.75,0,0,1,3-2.61c0.14-.32.29-0.67,0.45-1a2.05,2.05,0,0,1-1.54.75c-1-.1-1-1.12-0.69-2a14.93,14.93,0,0,1,2-3.52,0.19,0.19,0,0,1,.35,0c0.33,0.45.24,1-.29,1.86a12.71,12.71,0,0,0-1.1,2c-0.29.68-.27,1.17,0.05,1.21,0.55,0,1.26-.84,2-2,0.62-1,1.23-2.28,1.73-3,0.13-.18.23-0.21,0.35-0.09a1.54,1.54,0,0,1-.08,1.57c-0.43.81-1.31,2.48-1.91,3.83a7.47,7.47,0,0,0,2.51-2.12c0.07-.1.2-0.11,0.22,0a1.26,1.26,0,0,1-.26.81A5.43,5.43,0,0,1,255.92,520.19ZM252.41,524c0.18,0.27,1.35-1.24,2.24-3.29C252.82,521.69,252.16,523.6,252.41,524Z" transform="translate(-23.71 1)" fill="#fef0ed" stroke="#fff" stroke-miterlimit="10" stroke-width="0.08"/><path d="M265.26,519.88A2.37,2.37,0,0,1,262,517.4c0-3,2.87-5.64,4.46-6.13a2,2,0,0,1,1.89.11,1.89,1.89,0,0,1,.71,1,1.63,1.63,0,0,1-.11,1.22c-0.17.38-.4,0.93-0.56,1.34a0.16,0.16,0,0,1-.29.07,1.12,1.12,0,0,1-.35-1.33c0.19-.7.72-1.48,0.42-1.79-0.44-.47-2.74.71-4.1,2.72s-1.31,4.1-.76,4.63c0.76,0.72,2.41-.31,3.29-2-0.45.08-.9,0.16-1.23,0.18a1.22,1.22,0,0,1-1.34-.69c-0.07-.14,0-0.22.14-0.22,1.09,0,2.16-.34,3-0.34a1.23,1.23,0,0,1,1.26.73c0.07,0.16,0,.25-0.14.22a4.78,4.78,0,0,0-1,0C267.69,518.45,266,519.69,265.26,519.88Z" transform="translate(-23.71 1)" fill="#fef0ed" stroke="#fff" stroke-miterlimit="10" stroke-width="0.08"/><path d="M269.26,520c-1-.08-1-1.12-0.69-2a15,15,0,0,1,2-3.55,0.21,0.21,0,0,1,.36,0,1.7,1.7,0,0,1-.29,1.89,14.24,14.24,0,0,0-1.12,2c-0.3.68-.27,1.19,0.05,1.22,0.55,0,1.33-.92,2.1-2.13,0.9-1.42,1.32-2.38,1.78-3,0.14-.2.24-0.22,0.35-0.08a1.55,1.55,0,0,1,0,1.57c-0.32.63-1,1.67-1.36,2.38s-0.33,1.38.18,1.36,1.31-.94,1.87-1.91c0.07-.12.2-0.14,0.25,0a1.22,1.22,0,0,1-.14.88,2.68,2.68,0,0,1-2.12,1.47,1.08,1.08,0,0,1-1.14-1.4A2.69,2.69,0,0,1,269.26,520Z" transform="translate(-23.71 1)" fill="#fef0ed" stroke="#fff" stroke-miterlimit="10" stroke-width="0.08"/><path d="M275.35,520.08c-1.29,0-1.55-1.8-.36-3.47s2.26-2.23,3-2.22a0.84,0.84,0,0,1,.81.93c0.21-.35.4-0.62,0.5-0.76s0.23-.21.34-0.08a1.52,1.52,0,0,1,0,1.54c-0.29.63-1,1.71-1.36,2.42s-0.3,1.31.14,1.28c0.9-.07,2.18-1.78,2.86-3.83-1.13-.42.23-2.31,0.79-2.34s0.28,0.8,0,1.76a3.52,3.52,0,0,0,1.56-.64c0.2-.14.3-0.16,0.42,0a1.11,1.11,0,0,1,.18,1.42,8.49,8.49,0,0,0-1.63,2.42c-0.25.77-.1,1.32,0.33,1.35,0.59,0,1.3-.87,1.76-1.91,0.06-.11.16-0.14,0.21,0a1.23,1.23,0,0,1-.07.91,2.25,2.25,0,0,1-2,1.4c-1.06-.06-1.47-1-1.12-2.14a8.19,8.19,0,0,1,1.77-2.61,3.41,3.41,0,0,1-1.66.5c-0.71,2-2,4.07-3.5,4.16a1,1,0,0,1-1.16-1.16A2.49,2.49,0,0,1,275.35,520.08Zm0.56-2.89c-0.77,1.19-.94,2.41-0.4,2.43s1.3-.82,2-2.08c0.89-1.52,1-2.4.62-2.43S276.69,516,275.91,517.18Z" transform="translate(-23.71 1)" fill="#fef0ed" stroke="#fff" stroke-miterlimit="10" stroke-width="0.08"/><path d="M289.48,514.7c0.13-.18.24-0.21,0.34-0.08a1.53,1.53,0,0,1,0,1.55c-0.32.63-1,1.67-1.38,2.41s-0.38,1.38.09,1.36,1.36-1,1.86-1.92c0.07-.12.17-0.14,0.22,0a1.25,1.25,0,0,1-.14.87,2.52,2.52,0,0,1-2,1.47,1.09,1.09,0,0,1-1.13-1.16,2.45,2.45,0,0,1-1.76,1.07c-1.3,0-1.55-1.8-.36-3.48s2.27-2.25,3-2.24a0.86,0.86,0,0,1,.84,1C289.15,515.21,289.32,514.92,289.48,514.7Zm-1.13.56c-0.45,0-1.48.85-2.27,2.09s-1,2.43-.41,2.45,1.31-.87,2-2.09C288.62,516.17,288.76,515.3,288.35,515.25Z" transform="translate(-23.71 1)" fill="#fef0ed" stroke="#fff" stroke-miterlimit="10" stroke-width="0.08"/><path d="M294.42,514.67a1,1,0,0,1,.53,1.49c-0.3.61-1,1.64-1.33,2.36s-0.3,1.47.21,1.45,1.27-.94,1.82-1.91c0.07-.12.17-0.12,0.24,0a1,1,0,0,1-.14.88,2.61,2.61,0,0,1-2.09,1.47c-1.19,0-1.46-.89-1-2.1,0.48-1.37,1.73-2.83,1.48-3a3.67,3.67,0,0,0-1.87,1.29,13.94,13.94,0,0,0-2.09,3.53c-0.06.13-.14,0.18-0.27,0.05a1.35,1.35,0,0,1-.12-1.44,22.18,22.18,0,0,1,2.29-4.1c0.1-.15.21-0.14,0.29,0a1.67,1.67,0,0,1,0,1.33C293,515.36,294,514.6,294.42,514.67Z" transform="translate(-23.71 1)" fill="#fef0ed" stroke="#fff" stroke-miterlimit="10" stroke-width="0.08"/><path d="M296.3,514.38c-0.14-.2-0.05-0.29.16-0.28a7.92,7.92,0,0,0,1.16,0,18.14,18.14,0,0,1,1.09-1.72c0.13-.18.27-0.16,0.34,0a1.92,1.92,0,0,1-.2,1.58,0.88,0.88,0,0,1,.86.43c0.1,0.17,0,.27-0.17.26a4.18,4.18,0,0,0-1.09,0c-0.56.93-1.37,2.28-1.92,3.45-0.47,1-.33,1.89.26,1.92s1.44-.95,2-2c0.09-.17.24-0.19,0.29,0a1.17,1.17,0,0,1-.15.8,2.87,2.87,0,0,1-2.25,1.57c-0.92,0-1.65-1.09-1-2.69,0.3-.7.91-1.87,1.52-3A1.16,1.16,0,0,1,296.3,514.38Z" transform="translate(-23.71 1)" fill="#fef0ed" stroke="#fff" stroke-miterlimit="10" stroke-width="0.08"/><path d="M300,520.06c1.16,0.07,2.2-1,2.81-2a0.12,0.12,0,0,1,.24,0,1.14,1.14,0,0,1-.25.86,3.55,3.55,0,0,1-2.77,1.48c-1.78,0-2.37-1.75-1.44-3.55s2.37-2.5,3.07-2.09a2.58,2.58,0,0,1,.82.74,1.81,1.81,0,0,1-.47,1.9,1.7,1.7,0,0,1-2.61.37C299,519.12,299.28,520,300,520.06Zm1.2-3.21c0.46-.58.77-1.31,0.58-1.46s-1.46.58-2.14,1.91l-0.12.24C300.23,518,300.81,517.38,301.23,516.85Z" transform="translate(-23.71 1)" fill="#fef0ed" stroke="#fff" stroke-miterlimit="10" stroke-width="0.08"/><path d="M304.5,520.11c1.16,0.07,2.2-1,2.81-2a0.12,0.12,0,0,1,.24,0,1.14,1.14,0,0,1-.25.87,3.55,3.55,0,0,1-2.76,1.48c-1.78,0-2.37-1.75-1.44-3.55s2.37-2.5,3.07-2.09a2.58,2.58,0,0,1,.82.74,1.81,1.81,0,0,1-.47,1.9,1.7,1.7,0,0,1-2.61.37C303.44,519.17,303.76,520.06,304.5,520.11Zm1.2-3.21c0.46-.58.77-1.31,0.58-1.46s-1.46.58-2.14,1.91c0,0.08-.09.17-0.12,0.24C304.71,518,305.29,517.43,305.71,516.91Z" transform="translate(-23.71 1)" fill="#fef0ed" stroke="#fff" stroke-miterlimit="10" stroke-width="0.08"/><path d="M311,520.22c0.57,0,1.34-.95,1.84-1.91,0.07-.12.17-0.12,0.22,0a1.23,1.23,0,0,1-.12.87,2.5,2.5,0,0,1-2,1.44,1.05,1.05,0,0,1-1.12-1.14,2.48,2.48,0,0,1-1.75,1.06c-1.3,0-1.53-1.8-.36-3.46s2.26-2.23,3-2.22a0.83,0.83,0,0,1,.83,1c0.78-1.43,1.86-3.33,2.38-4,0.14-.19.27-0.18,0.34,0a2.37,2.37,0,0,1-.46,2.11c-0.69,1.2-2.06,3.49-2.78,5C310.57,519.67,310.55,520.25,311,520.22Zm-2.4-2.58c-0.77,1.19-.94,2.41-0.4,2.43s1.33-.79,2-2.06c0.83-1.54,1.05-2.42.65-2.44S309.41,516.42,308.62,517.64Z" transform="translate(-23.71 1)" fill="#fef0ed" stroke="#fff" stroke-miterlimit="10" stroke-width="0.08"/><path d="M186.69,503.58a0.22,0.22,0,0,1,0-.34l1.9-2.21a0.19,0.19,0,0,1,.29,0,5.73,5.73,0,0,0,3.62,1.45c1.32,0,2-.54,2-1.33,0-.61-0.39-1-1.8-1.21l-0.76-.11c-3.08-.46-4.76-1.85-4.74-4.52s2.1-4.44,5.34-4.42a8.62,8.62,0,0,1,5.09,1.6,0.21,0.21,0,0,1,0,.32l-1.59,2.28a0.21,0.21,0,0,1-.29.06A5.78,5.78,0,0,0,192.6,494c-1,0-1.58.5-1.58,1.19s0.46,1,1.82,1.21l0.76,0.11c3.13,0.46,4.71,1.85,4.7,4.56s-2,4.57-5.86,4.54A9,9,0,0,1,186.69,503.58Z" transform="translate(-23.71 1)" fill="#fef0ed" stroke="#fff" stroke-miterlimit="10" stroke-width="0.13"/><path d="M200.82,499.92l0-8.55a0.2,0.2,0,0,1,.21-0.21l3.27,0a0.2,0.2,0,0,1,.21.21l0,8.78a2,2,0,0,0,2,2.26c1.24,0,2-.81,2-2.23l0-8.78a0.2,0.2,0,0,1,.21-0.21l3.28,0a0.2,0.2,0,0,1,.21.21l0,8.55c0,3.8-2.3,5.76-5.7,5.74S200.8,503.72,200.82,499.92Z" transform="translate(-23.71 1)" fill="#fef0ed" stroke="#fff" stroke-miterlimit="10" stroke-width="0.13"/><path d="M215.47,505.52a0.2,0.2,0,0,1-.21-0.21l0.08-13.86a0.2,0.2,0,0,1,.21-0.21l5.71,0c3.49,0,5.28,2,5.26,4.77s-1.85,4.76-5.32,4.74h-2.1a0.11,0.11,0,0,0-.13.12l0,4.43a0.2,0.2,0,0,1-.21.21Zm7.36-9.49a1.58,1.58,0,0,0-1.8-1.63h-1.89a0.11,0.11,0,0,0-.13.12l0,3a0.11,0.11,0,0,0,.13.13H221A1.59,1.59,0,0,0,222.83,496Z" transform="translate(-23.71 1)" fill="#fef0ed" stroke="#fff" stroke-miterlimit="10" stroke-width="0.13"/><path d="M229,491.53a0.2,0.2,0,0,1,.21-0.21l9.34,0.05a0.2,0.2,0,0,1,.21.21v2.71a0.2,0.2,0,0,1-.21.21l-5.73,0a0.11,0.11,0,0,0-.13.12v2.16a0.11,0.11,0,0,0,.13.13l4.7,0a0.2,0.2,0,0,1,.21.21l0,2.65a0.2,0.2,0,0,1-.21.21l-4.7,0a0.11,0.11,0,0,0-.13.13v2.29a0.11,0.11,0,0,0,.13.13l5.73,0a0.2,0.2,0,0,1,.21.21l0,2.71a0.2,0.2,0,0,1-.21.21l-9.34-.05a0.2,0.2,0,0,1-.21-0.21Z" transform="translate(-23.71 1)" fill="#fef0ed" stroke="#fff" stroke-miterlimit="10" stroke-width="0.13"/><path d="M249.15,505.71a0.28,0.28,0,0,1-.31-0.21l-2.14-4.88h-1.36a0.11,0.11,0,0,0-.13.13l0,4.75a0.2,0.2,0,0,1-.21.21l-3.28,0a0.2,0.2,0,0,1-.21-0.21l0.08-13.86a0.2,0.2,0,0,1,.21-0.21l5.82,0c3.28,0,5.13,1.94,5.12,4.63a4.26,4.26,0,0,1-2.37,4l2.6,5.45a0.16,0.16,0,0,1-.15.25ZM249,496.07a1.48,1.48,0,0,0-1.67-1.52h-2a0.11,0.11,0,0,0-.13.12v2.77a0.11,0.11,0,0,0,.13.13h2A1.48,1.48,0,0,0,249,496.07Z" transform="translate(-23.71 1)" fill="#fef0ed" stroke="#fff" stroke-miterlimit="10" stroke-width="0.13"/><path d="M289.35,493a0.2,0.2,0,0,1,.21-0.21l5.52,0c2.52,0,4.36,1.07,5.06,3.28a11.39,11.39,0,0,1,.4,3.89,11.51,11.51,0,0,1-.44,3.88c-0.73,2.2-2.58,3.24-5.1,3.23l-5.52,0a0.2,0.2,0,0,1-.21-0.21Zm3.76,10.81h1.11c1.3,0,2-.35,2.36-1.35a15,15,0,0,0,0-5c-0.33-1-1-1.37-2.34-1.38h-1.11a0.11,0.11,0,0,0-.13.13l0,7.47A0.11,0.11,0,0,0,293.11,503.79Z" transform="translate(-23.71 1)" fill="#fef0ed" stroke="#fff" stroke-miterlimit="10" stroke-width="0.13"/><path d="M303.35,501.6l0-8.55a0.2,0.2,0,0,1,.21-0.21l3.28,0a0.2,0.2,0,0,1,.21.21l0,8.78a2,2,0,0,0,2,2.26c1.24,0,2-.81,2-2.24l0-8.78a0.2,0.2,0,0,1,.21-0.21l3.28,0a0.2,0.2,0,0,1,.21.21l0,8.55c0,3.8-2.3,5.76-5.7,5.74S303.33,505.4,303.35,501.6Z" transform="translate(-23.71 1)" fill="#fef0ed" stroke="#fff" stroke-miterlimit="10" stroke-width="0.13"/><path d="M318,507.21a0.2,0.2,0,0,1-.21-0.21l0.08-13.86a0.2,0.2,0,0,1,.21-0.21l5.71,0c3.48,0,5.28,2,5.26,4.77s-1.85,4.76-5.32,4.74h-2.1a0.11,0.11,0,0,0-.13.12l0,4.43a0.2,0.2,0,0,1-.21.21Zm7.36-9.49a1.58,1.58,0,0,0-1.8-1.63h-1.89a0.11,0.11,0,0,0-.13.12l0,3a0.11,0.11,0,0,0,.13.13h1.89A1.59,1.59,0,0,0,325.35,497.71Z" transform="translate(-23.71 1)" fill="#fef0ed" stroke="#fff" stroke-miterlimit="10" stroke-width="0.13"/><path d="M331.55,493.21a0.2,0.2,0,0,1,.21-0.21l9.34,0.05a0.2,0.2,0,0,1,.21.21V496a0.2,0.2,0,0,1-.21.21l-5.73,0a0.11,0.11,0,0,0-.13.12v2.16a0.11,0.11,0,0,0,.12.13l4.7,0a0.2,0.2,0,0,1,.21.21v2.65a0.2,0.2,0,0,1-.21.21l-4.7,0a0.11,0.11,0,0,0-.12.13V504a0.11,0.11,0,0,0,.12.13l5.73,0a0.2,0.2,0,0,1,.21.21l0,2.71a0.2,0.2,0,0,1-.21.21l-9.34-.05a0.2,0.2,0,0,1-.21-0.21Z" transform="translate(-23.71 1)" fill="#fef0ed" stroke="#fff" stroke-miterlimit="10" stroke-width="0.13"/><path d="M351.68,507.39a0.28,0.28,0,0,1-.31-0.21l-2.14-4.88h-1.36a0.11,0.11,0,0,0-.13.13l0,4.75a0.2,0.2,0,0,1-.21.21l-3.28,0a0.2,0.2,0,0,1-.21-0.21l0.08-13.86a0.2,0.2,0,0,1,.21-0.21l5.82,0c3.28,0,5.13,1.94,5.12,4.63a4.26,4.26,0,0,1-2.37,4l2.59,5.45a0.16,0.16,0,0,1-.15.25Zm-0.14-9.64a1.48,1.48,0,0,0-1.67-1.52h-2a0.11,0.11,0,0,0-.13.12l0,2.77a0.11,0.11,0,0,0,.13.13h2A1.48,1.48,0,0,0,351.54,497.75Z" transform="translate(-23.71 1)" fill="#fef0ed" stroke="#fff" stroke-miterlimit="10" stroke-width="0.13"/><g id="middle-left-snow"><path d="M165.45,329.07c12,6.8,24.66,12.31,36.79,18.85,1.79,1,3.38-1.76,1.59-2.72C191.71,338.66,179,333.15,167,326.35c-1.77-1-3.36,1.72-1.59,2.72h0Z" transform="translate(-23.71 1)" fill="#fef0ed"/><path d="M164.73,328.58c0,1.58.29,3.87,2.38,3.82a2.64,2.64,0,0,0,2.59-2.44,6.19,6.19,0,0,0-1-2.82,1.59,1.59,0,0,0-2.16-.57,1.61,1.61,0,0,0-.57,2.16c0.11,0.23.24,0.44,0.36,0.67l0.19,0.37c0.15,0.3-.08-0.21,0,0.13s0-.11,0-0.25a0.94,0.94,0,0,1,.24-0.34q0.13-.1-0.07,0,0.27-.11.11-0.06a0.57,0.57,0,1,0,.19,0,0.77,0.77,0,0,1,.39.08,1,1,0,0,1,.48.41c-0.14-.23.06,0.35,0,0.08a1.9,1.9,0,0,0-.07-0.27c-0.1-.29,0,0.35,0,0s0-.67,0-1a1.58,1.58,0,0,0-3.15,0h0Z" transform="translate(-23.71 1)" fill="#fef0ed"/><path d="M201.54,347.1a2.67,2.67,0,0,0,3.26,2.78,3,3,0,0,0,2-3.73,1.58,1.58,0,1,0-3,.84,1.46,1.46,0,0,1,0,.16q0,0.13,0-.06c-0.1-.14,0-0.05,0,0.08,0-.11.08-0.36,0-0.12s0.18-.34,0-0.11,0.21-.23.08-0.1a1.15,1.15,0,1,0,.12-0.07,1,1,0,0,0-.16.1c-0.15.07,0.4-.13,0.14-0.06s0.19,0,.21,0H204s0.42,0.07.21,0c0.37,0.1.29,0.13,0.16,0.05a0.75,0.75,0,0,1,.29.31c0.13,0.22,0,0,0-.07,0,0.25,0,.22,0,0a1.58,1.58,0,0,0-3.15,0h0Z" transform="translate(-23.71 1)" fill="#fef0ed"/><path d="M180.87,355.69c3.11-5.46,6.18-10.95,9.32-16.39,2.91-5,5-10.2,7.62-15.34,0.92-1.8-1.8-3.4-2.72-1.59-2.62,5.12-4.73,10.33-7.62,15.34-3.14,5.44-6.21,10.93-9.32,16.39a1.58,1.58,0,0,0,2.72,1.59h0Z" transform="translate(-23.71 1)" fill="#fef0ed"/><path d="M195.9,322.65c0.63,0.47,1.2.92,1.84,1.47a1.65,1.65,0,0,0,1.91.25c2.25-1.15.75-4.3-.86-5.26a1.58,1.58,0,0,0-1.59,2.72c0.22,0.13-.24-0.27-0.06-0.06a2,2,0,0,0,.21.21c0.25,0.21-.16-0.26,0,0,0.06,0.1.13,0.19,0.18,0.29s0.15,0.41,0,0a1,1,0,0,1,.09.3l0-.23q0,0.2,0,0a0.71,0.71,0,0,1,.11-0.36q0.66-.55.3-0.35l1.91,0.25c-0.8-.69-1.63-1.34-2.48-2a1.58,1.58,0,0,0-2.16.57,1.62,1.62,0,0,0,.57,2.16h0Z" transform="translate(-23.71 1)" fill="#fef0ed"/><path d="M176.22,357.54a2.67,2.67,0,0,0,3.09,2.07,3.11,3.11,0,0,0,2.3-2.38,3.32,3.32,0,0,0-1.43-3.5,2.49,2.49,0,0,0-3.55,1.18,1.61,1.61,0,0,0,.57,2.16,1.6,1.6,0,0,0,2.16-.57,2.06,2.06,0,0,1,.13-0.26,0.86,0.86,0,1,0-.06.08q0.13-.13-0.12.08a0.63,0.63,0,0,1-.33.09,0.24,0.24,0,1,0,0,0,0.77,0.77,0,0,1-.46-0.13c0.11,0.05.31,0.24,0,0,0.23,0.2-.13-0.28,0,0s0.05,0.27,0,0c0,0.21,0,.26,0,0a1.72,1.72,0,0,1,0,.24,0.45,0.45,0,1,0,0-.14c-0.06.34,0.06-.09,0,0-0.18.35,0.18-.19,0,0s-0.32.29,0,0c-0.1.08-.38,0.14,0.05,0-0.28.09,0.37,0,.09,0a0.58,0.58,0,1,0,.17,0l0.22,0.09c-0.31-.16.28,0.25,0.22,0.25a1.44,1.44,0,0,1-.11-0.19q0.12,0.28,0,0a1.58,1.58,0,1,0-3,.84h0Z" transform="translate(-23.71 1)" fill="#fef0ed"/><path d="M170.09,345.71c5.66-1.58,11.12-2.82,16.65-4.87,5.91-2.19,11.76-4.7,17.76-6.65,1.92-.63,1.1-3.67-0.84-3-5.8,1.89-11.5,4.19-17.19,6.4s-11.37,3.48-17.22,5.12a1.58,1.58,0,0,0,.84,3h0Z" transform="translate(-23.71 1)" fill="#fef0ed"/><path d="M170.62,343.49a3.75,3.75,0,0,0-2-1.58,2.14,2.14,0,0,0-2.54,2.22,2,2,0,0,0,2,2.06,3.8,3.8,0,0,0,1.93-.54,1.58,1.58,0,1,0-1.59-2.72l-0.11.06a1,1,0,1,0,.17-0.06,1.71,1.71,0,0,1-.33.11c-0.39.14,0.24,0,0,0a0.76,0.76,0,1,0,.2,0,0.74,0.74,0,0,1,.55.48,0.71,0.71,0,0,1,.32.63,0.41,0.41,0,1,0,0,.09,1.17,1.17,0,0,1-1.4.69,0.39,0.39,0,1,0-.12,0,0.66,0.66,0,1,0-.07,0l0.16,0.16a0.49,0.49,0,1,0,.06,0,1.62,1.62,0,0,0,2.16.57,1.59,1.59,0,0,0,.57-2.16h0Z" transform="translate(-23.71 1)" fill="#fef0ed"/><path d="M204,334.39a2.65,2.65,0,0,0,3.4.34,2.35,2.35,0,0,0-.07-3.66,3.93,3.93,0,0,0-3.34-1,2.1,2.1,0,0,0-1.48,2,4.46,4.46,0,0,0,.4,1.53,1.58,1.58,0,0,0,3-.84c-0.07-.19-0.15-0.37-0.22-0.56a1,1,0,0,0-.08-0.25v0.18a0.72,0.72,0,0,1-.59.74q-0.72.27-.37,0.26h-0.11a1.35,1.35,0,0,0,.24.07c0.29,0.08-.16-0.1,0,0l0.26,0.13,0.22,0.13-0.06-.05q0.09,0.1,0,0a2.49,2.49,0,0,1-.14-0.41,1.07,1.07,0,0,1,.29-0.67,1,1,0,0,1,.51-0.25,0.25,0.25,0,1,0,.07,0,0.38,0.38,0,1,0,.18,0c-0.2,0,0,0,.09.06-0.3-.18.24,0.25,0,0a1.58,1.58,0,1,0-2.23,2.23h0Z" transform="translate(-23.71 1)" fill="#fef0ed"/><path d="M179.12,323.43c1.29,6.09,4.86,11,7.66,16.46s5.4,10.67,8.23,15.92c1,1.79,3.69.2,2.72-1.59-2.54-4.72-5.17-9.47-7.51-14.3-2.77-5.71-6.72-11-8.06-17.33-0.42-2-3.46-1.14-3,.84h0Z" transform="translate(-23.71 1)" fill="#fef0ed"/><path d="M194.73,354.07a2.52,2.52,0,0,0-.3,2.79,2.3,2.3,0,0,0,2.84.93,2.38,2.38,0,0,0,1.47-1.88,2.06,2.06,0,0,0-1.69-2.26,1.58,1.58,0,0,0-.84,3c0.27,0.06-.17-0.13-0.25-0.21a0.86,0.86,0,0,1-.3-0.82q0-.5,0-0.24l0.09-.24a0.5,0.5,0,1,0,.12-0.16q-0.13.13,0.16-.11-0.16.09,0,0a0.86,0.86,0,0,1,1.22.83c0,0.13-.19.46,0,0.24s0.13-.21.2-0.31a1.59,1.59,0,0,0-.57-2.16,1.62,1.62,0,0,0-2.16.57h0Z" transform="translate(-23.71 1)" fill="#fef0ed"/><path d="M178.43,324.17a2.69,2.69,0,0,0,3.16.51,2.28,2.28,0,0,0,1.14-2.65,2.75,2.75,0,0,0-3.2-1.68,2.78,2.78,0,0,0-1.67,1.24,2.62,2.62,0,0,0-.32,1.08c0,0.08,0,.15,0,0.23,0,0.38.1-.33,0,0.09a1.59,1.59,0,0,0,1.1,1.94,1.62,1.62,0,0,0,1.94-1.1,3.41,3.41,0,0,0,.15-0.81l0-.23a0.71,0.71,0,0,1-.2.54,0.75,0.75,0,0,1-.43.09q-0.2-.09,0,0a0.65,0.65,0,0,1-.26-0.27,1,1,0,0,1,0-1,0.51,0.51,0,1,0,.09-0.13q0.32-.23.1-0.1a0.7,0.7,0,0,1,.44-0.12q-0.26,0,.12,0a0.33,0.33,0,1,0,.08,0q0.23,0.21,0,0a1.58,1.58,0,0,0-2.23,2.23h0Z" transform="translate(-23.71 1)" fill="#fef0ed"/></g><g id="middle-snow"><path d="M273.37,362.48c-5.54,5-10.29,10.81-15.56,16.09-4.07,4.07-8.75,7.82-12.48,12.19-1.57,1.84,1.09,4.51,2.66,2.66,3.73-4.37,8.41-8.12,12.48-12.19,5.27-5.28,10-11.09,15.56-16.09,1.8-1.63-.87-4.29-2.66-2.66h0Z" transform="translate(-23.71 1)" fill="#fef0ed"/><path d="M244.42,360.95c4,7.31,10.06,13.9,15.5,20.16,5.71,6.58,12,12.68,17.7,19.22,1.6,1.82,4.26-.85,2.66-2.66-5.36-6.09-11.16-11.81-16.54-17.9-5.63-6.37-12-13.24-16.07-20.72-1.16-2.13-4.42-.23-3.25,1.9h0Z" transform="translate(-23.71 1)" fill="#fef0ed"/><path d="M262.38,355.79c-2.33,6.31-2.35,14.64-3.14,21.3-0.88,7.5-2.88,15.09-2.53,22.68,0.11,2.42,3.88,2.43,3.77,0-0.32-7,1.58-13.95,2.34-20.9,0.4-3.59.87-7.17,1.29-10.76s0.69-8,1.9-11.32c0.84-2.28-2.8-3.26-3.63-1h0Z" transform="translate(-23.71 1)" fill="#fef0ed"/><path d="M241.16,382c6.92-.44,13.73-1.33,20.57-2.34,6.41-.95,12.72.5,19.19-0.53,2.39-.38,1.37-4-1-3.63-6,1-11.78-.58-17.69.3-7,1-14,2-21.07,2.43-2.41.15-2.43,3.92,0,3.77h0Z" transform="translate(-23.71 1)" fill="#fef0ed"/><path d="M267.49,375.15c-1.07-3.34-3.71-6.84-7.59-4.87-1.73.87-3.21,2.53-4.66,3.79-1.63,1.42-2.61,3.08-2.09,5.3a10.27,10.27,0,0,0,3.43,5.51,6.32,6.32,0,0,0,5.79.4,9.22,9.22,0,0,0,5.09-3.92c1-1.93.61-4.2,0-6.2-0.67-2.33-4.3-1.34-3.63,1,0.72,2.53.43,4.13-2.1,5.3-0.84.39-2.22,0.91-3.06,0.33a6.67,6.67,0,0,1-1.83-3.17c-0.11-1.5,2.4-3,3.48-4,0.68-.61,1.42-1.43,2.3-0.86,0.65,0.42,1,1.71,1.21,2.4C264.59,378.46,268.23,377.47,267.49,375.15Z" transform="translate(-23.71 1)" fill="#fef0ed"/><path d="M273.34,364.08a3.69,3.69,0,0,0,4.68,0,3.36,3.36,0,0,0-.17-4.49c-1.12-1.1-3.47-.76-4.49.33a2.8,2.8,0,0,0-.67,2.61,2.27,2.27,0,0,0,2.33,1.69,1.93,1.93,0,0,0,1.88-1.88,1.9,1.9,0,0,0-1.88-1.88q-0.71.06,0.92,0.45l0.38,0.63a1.11,1.11,0,0,1,0,.65l0-.09a0.57,0.57,0,1,0-.1.24,0.51,0.51,0,1,0-.16.2q-0.41.28-.21,0.18a0.91,0.91,0,1,0-.22.09,2.19,2.19,0,0,0,.34-0.1c0.37-.11-0.39,0,0,0,0.21,0,.41.09-0.1,0a1.22,1.22,0,0,1-.73-0.48q-0.16-.22-0.05,0l-0.11-.25a2.22,2.22,0,0,1,.06.22,0.3,0.3,0,1,0,0,0c0,0.34.13-.39,0-0.09,0.08-.2.5-1,0.84-0.91l-0.11,0a0.59,0.59,0,1,0,.15,0,1.15,1.15,0,0,0-.31,0c-0.43,0,.18,0,0,0l-0.16,0a1,1,0,0,1,.51.3,1.93,1.93,0,0,0-2.66,0,1.91,1.91,0,0,0,0,2.66h0Z" transform="translate(-23.71 1)" fill="#fef0ed"/><path d="M262.3,356.08c1.14,0.87,3.14.15,4.17-.57a2.94,2.94,0,0,0,1.44-2.36,2.39,2.39,0,0,0-1.72-2.26,4.07,4.07,0,0,0-3.76,1.26,2.7,2.7,0,0,0,.41,4.39,1.88,1.88,0,1,0,1.9-3.25c-0.22-.13.12,0.11,0.15,0.14a1.09,1.09,0,0,0,.21.37c0.13,0.24,0,0,.08.29a0.88,0.88,0,0,0,0,.49,1.22,1.22,0,0,0-.1.25,0.66,0.66,0,0,0,.08-0.13c0,0.26-.3.33-0.1,0.15l0.13-.12c0.24-.24-0.36.2,0,0l0.37-.2c0.15-.09-0.37.11-0.2,0.09a0.75,0.75,0,0,0,.2-0.06c0.21-.1-0.22,0-0.27,0s0.31,0,0,0,0,0.07-.29-0.09a1.65,1.65,0,0,1-.57-0.45,1.39,1.39,0,0,1-.11-1.51c-0.13.24,0.3-.26,0.12-0.15a0.74,0.74,0,0,0-.14.13c-0.11.13,0.3-.17,0.14-0.11a1.87,1.87,0,0,0-.23.14l-0.2.1c-0.29.15,0.31-.09,0.09,0l-0.41.13a1.09,1.09,0,0,0-.24,0s0.49-.05.24,0,0.44,0.1.25,0,0.46,0.25.27,0.1a1.89,1.89,0,0,0-2.58.68,1.94,1.94,0,0,0,.68,2.58h0Z" transform="translate(-23.71 1)" fill="#fef0ed"/><path d="M245.46,360.89a5,5,0,0,0,1.75-.6,2.58,2.58,0,0,0,1.12-2.82,3.12,3.12,0,0,0-3.86-2.32,3.43,3.43,0,0,0-2.22,3.19c0,1.39,1,3,2.54,2.82a1.93,1.93,0,0,0,1.88-1.88,1.9,1.9,0,0,0-1.88-1.88h-0.13a1.42,1.42,0,0,1,.73.18,1,1,0,0,1,.4.36,0.32,0.32,0,1,0,.08.09,0.69,0.69,0,1,0,.12.26,0.87,0.87,0,1,0,0,.28,0.85,0.85,0,0,0,0-.24c0-.3-0.11.54,0,0.09s0.12,0.07-.07.13c0,0,.28-0.45,0-0.09a0.26,0.26,0,1,0,0,.06,1.35,1.35,0,1,0-.18.14c0.27-.18-0.44.13-0.13,0.06a0.88,0.88,0,1,0-.22,0,1.14,1.14,0,0,1-.59-0.14c0.3,0.14-.26-0.27,0,0a0.7,0.7,0,1,0-.08-0.09,1,1,0,1,0-.05-0.13,1.27,1.27,0,0,1,.32-1.16q0.37-.26.1-0.11a0.52,0.52,0,1,0,.11-0.06l-0.76.17a1.9,1.9,0,0,0-1.32,2.32,1.93,1.93,0,0,0,2.32,1.32h0Z" transform="translate(-23.71 1)" fill="#fef0ed"/><path d="M245.44,390.91a5.27,5.27,0,0,0-2.43.73,2.83,2.83,0,0,0-1.23,3.16,2.56,2.56,0,0,0,3.13,1.92,2.85,2.85,0,0,0,1.84-2.46,1.93,1.93,0,0,0-1.32-2.32,1.91,1.91,0,0,0-2.32,1.32c0,0.12,0,.25-0.06.37s-0.24.52,0,.06a1.41,1.41,0,0,1,1.85-.44q0.63,0.75.39,0.33,0.16,0.4.07,0.11a1,1,0,0,1,0,.58,1.06,1.06,0,0,1-.29.5,0.54,0.54,0,1,0-.15.1l0.18-.11-0.14.06,0.43-.12c0.52-.11-0.29,0,0,0a1.93,1.93,0,0,0,1.88-1.88,1.9,1.9,0,0,0-1.88-1.88h0Z" transform="translate(-23.71 1)" fill="#fef0ed"/><path d="M257.28,399.16c-0.25.29,0.29-.17,0.06,0l-0.36.25a4.34,4.34,0,0,0-1.2,1.14,2.34,2.34,0,0,0,.7,3.29c1.71,1,4.54,0,4.58-2.15a1.88,1.88,0,1,0-3.77,0,1.73,1.73,0,0,1,.43-1,0.55,0.55,0,1,0,.23-0.18q-0.12.07,0.11,0c0.37-.14-0.17,0-0.22,0s0.48-.11.21,0c-0.08,0-.39,0,0,0a0.33,0.33,0,1,0,0,0,0.3,0.3,0,1,0,.12.06,1,1,0,0,1,.45.29l0.47,1.06-0.18.7c0.1-.23-0.06.15-0.12,0.15s0.39-.27.06-0.07,0,0,0,0a5.12,5.12,0,0,0,1-.79,1.88,1.88,0,1,0-2.66-2.66h0Z" transform="translate(-23.71 1)" fill="#fef0ed"/><path d="M282.15,373.8a5,5,0,0,0-2.89.75,2.89,2.89,0,0,0-1.07,3.78c1.29,2.36,5.46,1.31,5.18-1.48a1.93,1.93,0,0,0-1.88-1.88,1.9,1.9,0,0,0-1.88,1.88c0,0.35,0,0,.05-0.15a0.79,0.79,0,0,1,.31-0.51c0.33-.33.33-0.23,0.15-0.13q0.49-.19.28-0.13t0.32,0a1.13,1.13,0,1,0,.2.05,1.49,1.49,0,1,0,.17.1c-0.26-.15.37,0.33,0.16,0.12a1.31,1.31,0,0,1,.39.93c0-.31-0.13.49,0,0.14l-0.11.27a0.88,0.88,0,1,0-.11.14c-0.17.14-.28,0.22,0,0s-0.39.1,0,0l0.34-.1a0.32,0.32,0,1,0,.08,0c-0.35,0,0,0,.11,0h0.3a1.9,1.9,0,0,0,1.88-1.88,1.93,1.93,0,0,0-1.88-1.88h0Z" transform="translate(-23.71 1)" fill="#fef0ed"/><path d="M281.71,396.42a4.14,4.14,0,0,0-6.06,4.62,3.87,3.87,0,0,0,4.6,2.63,4.07,4.07,0,0,0,3-3.95,3,3,0,0,0-6,0,1.17,1.17,0,0,1,0,.25l0.11-.8a1.07,1.07,0,0,1-.06.22l0.3-.72c-0.18.39,0.5-.51,0.26-0.29s0.7-.46.32-0.26l0.72-.3a1.2,1.2,0,0,1-.28.08l0.8-.11h-0.19l0.8,0.11-0.19-.06,0.72,0.3q-0.37-.21.35,0.28,0.48,0.7.28,0.31l0.3,0.72a0.85,0.85,0,0,1-.05-0.21l0.11,0.8a0.83,0.83,0,0,1,0-.2l-0.11.8a1.31,1.31,0,0,1,.08-0.29l-0.3.72c0.21-.4-0.59.62-0.19,0.24,0.16-.15-0.75.46-0.21,0.21l-0.72.3,0.3-.08-0.8.11a1.35,1.35,0,0,1,.3,0l-0.8-.11,0.19,0.06-0.72-.3a0.79,0.79,0,0,1,.17.11,3,3,0,0,0,4.1-1.08,3.08,3.08,0,0,0-1.08-4.1h0Z" transform="translate(-23.71 1)" fill="#fef0ed"/></g><g id="middle-right-snow"><path d="M356.28,312.42c-3.15,2.84-5.89,6.12-8.85,9.16-2.79,2.86-5.94,5.45-8.59,8.43-1,1.12.65,2.79,1.66,1.66,2.65-3,5.8-5.56,8.59-8.43,3-3,5.7-6.32,8.85-9.16,1.12-1-.54-2.67-1.66-1.66h0Z" transform="translate(-23.71 1)" fill="#fef0ed"/><path d="M338.28,311.46c5.22,9.21,13.59,16.72,20.65,24.5,1,1.12,2.67-.54,1.66-1.66-6.92-7.62-15.17-15-20.28-24a1.17,1.17,0,0,0-2,1.18h0Z" transform="translate(-23.71 1)" fill="#fef0ed"/><path d="M349.45,308.25c-1.16,4.11-1.35,8.65-1.9,12.88-0.61,4.75-1.84,9.65-1.62,14.48,0.07,1.5,2.41,1.51,2.34,0-0.2-4.37,1-8.68,1.46-13,0.49-4.49.75-9.39,2-13.74a1.17,1.17,0,0,0-2.26-.62h0Z" transform="translate(-23.71 1)" fill="#fef0ed"/><path d="M336.25,324.57c4.31-.26,8.53-0.85,12.8-1.45,4-.57,7.91.38,11.94-0.33,1.48-.26.85-2.52-0.62-2.26-3.6.63-7-.21-10.53,0.11-4.54.41-9,1.31-13.58,1.59-1.5.09-1.51,2.44,0,2.34h0Z" transform="translate(-23.71 1)" fill="#fef0ed"/><path d="M352.63,320.3c-0.66-2.08-2.31-4.25-4.72-3a15.89,15.89,0,0,0-2.9,2.36,3.21,3.21,0,0,0-1.3,3.3,6.39,6.39,0,0,0,2.13,3.43,3.93,3.93,0,0,0,3.6.25,5.74,5.74,0,0,0,3.17-2.44,5.14,5.14,0,0,0,0-3.86,1.17,1.17,0,0,0-2.26.62c0.45,1.57.27,2.57-1.3,3.3a2.16,2.16,0,0,1-1.9.21,4.15,4.15,0,0,1-1.14-2c-0.07-.93,1.49-1.89,2.16-2.49,0.42-.38.88-0.89,1.43-0.54a3,3,0,0,1,.75,1.49C350.82,322.35,353.09,321.74,352.63,320.3Z" transform="translate(-23.71 1)" fill="#fef0ed"/><path d="M356.5,313.59a2.26,2.26,0,0,0,2.74-.25,2.07,2.07,0,0,0-.41-2.9,2.22,2.22,0,0,0-2.75.65,1.53,1.53,0,0,0,1.23,2.41,1.2,1.2,0,0,0,1.17-1.17,1.18,1.18,0,0,0-1.17-1.17l0.35,0.11,0.42,0.42a0.78,0.78,0,0,1,0,.62c0,0.1-.27.2-0.3,0.29a0.31,0.31,0,0,1,.19,0l-0.63-.38q-0.06-.16,0,0t0,0a0.21,0.21,0,1,0,0,.07,1.61,1.61,0,0,1,.5-0.65,0.33,0.33,0,0,1-.22,0c0.07,0,.25.1,0.09,0a1.18,1.18,0,0,0-1.6.42,1.2,1.2,0,0,0,.42,1.6h0Z" transform="translate(-23.71 1)" fill="#fef0ed"/><path d="M349.4,308.43c0.75,0.53,2,.09,2.63-0.38a1.83,1.83,0,0,0,.86-1.44,1.48,1.48,0,0,0-1-1.4c-1.9-.55-4.24,2.23-2.1,3.51a1.17,1.17,0,0,0,1.18-2q-0.19-.13.06,0.09a0.38,0.38,0,0,1,.19.34,0.67,0.67,0,0,1,0,.55c0.1-.18-0.14.12,0,0l0.15-.14c-0.19.18,0.1,0,.2-0.1-0.12.07-.16,0,0,0s-0.29,0-.06,0a0.89,0.89,0,0,1-.62-1.39c-0.07.1,0,0,0,0l-0.21.13a0.41,0.41,0,1,0,0,0l-0.24.07c-0.17.05-.13,0,0,0-0.23,0,.28.08,0.3,0.09a1.18,1.18,0,0,0-1.6.42,1.2,1.2,0,0,0,.42,1.6h0Z" transform="translate(-23.71 1)" fill="#fef0ed"/><path d="M338.92,311.42c1-.2,2-0.83,1.8-2a2,2,0,0,0-2.36-1.55,2.12,2.12,0,0,0-1.43,2,1.6,1.6,0,0,0,1.58,1.76,1.2,1.2,0,0,0,1.17-1.17,1.18,1.18,0,0,0-1.17-1.17q-0.43,0,.55.26,0.28,0.58.19,0.29a0.27,0.27,0,0,1,0,.23c-0.16,0,.33-0.34,0,0q0.1-.17,0,0,0.11-.11,0,0a0.54,0.54,0,0,1-.75-0.08,0.7,0.7,0,0,1,.36-0.85l-0.11,0c-0.13,0-.27.06-0.4,0.08a1.18,1.18,0,0,0-.82,1.44,1.2,1.2,0,0,0,1.44.82h0Z" transform="translate(-23.71 1)" fill="#fef0ed"/><path d="M338.91,330.1a3.36,3.36,0,0,0-1.56.48,1.74,1.74,0,0,0-.7,2,1.58,1.58,0,0,0,1.91,1.14,1.75,1.75,0,0,0,1.16-1.53,1.21,1.21,0,0,0-.82-1.44,1.18,1.18,0,0,0-1.44.82c0,0.08,0,.15,0,0.23-0.05.6-.46-0.87,0.88-0.35l0.52,0.3a0.49,0.49,0,0,1,.08.26,0.55,0.55,0,0,1-.24.53,0.26,0.26,0,1,0,0,0l-0.09,0,0.21-.06a0.39,0.39,0,1,0,.08,0,1.21,1.21,0,0,0,1.17-1.17,1.18,1.18,0,0,0-1.17-1.17h0Z" transform="translate(-23.71 1)" fill="#fef0ed"/><path d="M346.28,335.23c-0.14.15,0.17-.1,0,0l-0.27.19a2.27,2.27,0,0,0-.69.71,1.45,1.45,0,0,0,.49,2,1.91,1.91,0,0,0,2.85-1.34,1.18,1.18,0,0,0-1.17-1.17,1.2,1.2,0,0,0-1.17,1.17,1.48,1.48,0,0,1,.5-0.79c-0.1.06-.09,0,0,0a0.88,0.88,0,0,0-.19,0c0.39-.34.25,1.49,0.64,1.39,0.12,0-.09.06,0,0l0.17-.12a3,3,0,0,0,.47-0.37c1-1.11-.63-2.77-1.66-1.66h0Z" transform="translate(-23.71 1)" fill="#fef0ed"/><path d="M361.75,319.45a3,3,0,0,0-2.06.67,1.72,1.72,0,1,0,2.82,1.23,1.2,1.2,0,0,0-1.17-1.17,1.18,1.18,0,0,0-1.17,1.17q0,0.23.06-.09a0.47,0.47,0,0,1,.15-0.31q0.53-.25.3-0.18a0.34,0.34,0,1,0,.13,0l0.16,0q-0.14,0,0,0a0.73,0.73,0,0,1,.45.74c0,0.13-.21.3-0.21,0.38a0.18,0.18,0,0,1,.15-0.06c0.06,0,.38-0.06.13,0h0.27c1.51,0.06,1.51-2.29,0-2.34h0Z" transform="translate(-23.71 1)" fill="#fef0ed"/><path d="M361.47,333.53c-1.92-1.26-4.36.81-3.76,2.9a2.39,2.39,0,0,0,2.88,1.6,2.55,2.55,0,0,0,1.82-2.45,1.88,1.88,0,0,0-1.87-1.87,1.9,1.9,0,0,0-1.87,1.87,1.33,1.33,0,0,1,.92-1.15A1.07,1.07,0,0,1,361,335a0.93,0.93,0,0,1,.32,1.09l-0.33.57a0.71,0.71,0,1,0-.14.11,1.26,1.26,0,0,1-1.24,0,1.88,1.88,0,0,0,2.55-.67,1.91,1.91,0,0,0-.67-2.55h0Z" transform="translate(-23.71 1)" fill="#fef0ed"/></g><g id="top-snow"><path d="M303,144.33c-3.15,2.84-5.89,6.12-8.85,9.16-2.79,2.86-5.94,5.45-8.59,8.43-1,1.12.65,2.79,1.66,1.66,2.65-3,5.8-5.56,8.59-8.43,3-3,5.7-6.32,8.85-9.16,1.12-1-.54-2.67-1.66-1.66h0Z" transform="translate(-23.71 1)" fill="#fef0ed"/><path d="M285,143.38c5.22,9.21,13.59,16.72,20.65,24.5,1,1.12,2.67-.54,1.66-1.66-6.92-7.62-15.17-15-20.28-24a1.17,1.17,0,0,0-2,1.18h0Z" transform="translate(-23.71 1)" fill="#fef0ed"/><path d="M296.17,140.17c-1.16,4.11-1.35,8.65-1.9,12.88-0.61,4.75-1.84,9.65-1.62,14.48,0.07,1.5,2.41,1.51,2.34,0-0.2-4.37,1-8.68,1.46-13,0.49-4.49.75-9.39,2-13.74a1.17,1.17,0,0,0-2.26-.62h0Z" transform="translate(-23.71 1)" fill="#fef0ed"/><path d="M283,156.49c4.31-.26,8.53-0.85,12.8-1.45,4-.57,7.91.38,11.94-0.33,1.48-.26.85-2.52-0.62-2.26-3.6.63-7-.21-10.53,0.11-4.54.41-9,1.31-13.58,1.59-1.5.09-1.51,2.44,0,2.34h0Z" transform="translate(-23.71 1)" fill="#fef0ed"/><path d="M299.35,152.22c-0.66-2.08-2.31-4.25-4.72-3a15.89,15.89,0,0,0-2.9,2.36,3.21,3.21,0,0,0-1.3,3.3,6.39,6.39,0,0,0,2.13,3.43,3.93,3.93,0,0,0,3.6.25,5.74,5.74,0,0,0,3.17-2.44,5.14,5.14,0,0,0,0-3.86,1.17,1.17,0,0,0-2.26.62c0.45,1.57.27,2.57-1.3,3.3a2.16,2.16,0,0,1-1.9.21,4.15,4.15,0,0,1-1.14-2c-0.07-.93,1.49-1.89,2.16-2.49,0.42-.38.88-0.89,1.43-0.54a3,3,0,0,1,.75,1.49C297.55,154.27,299.82,153.66,299.35,152.22Z" transform="translate(-23.71 1)" fill="#fef0ed"/><path d="M303.23,145.51a2.26,2.26,0,0,0,2.74-.25,2.07,2.07,0,0,0-.41-2.9,2.22,2.22,0,0,0-2.75.65,1.53,1.53,0,0,0,1.23,2.41,1.2,1.2,0,0,0,1.17-1.17,1.18,1.18,0,0,0-1.17-1.17l0.35,0.11,0.42,0.42a0.78,0.78,0,0,1,0,.62c0,0.1-.27.2-0.3,0.29a0.31,0.31,0,0,1,.19,0l-0.63-.38q-0.06-.16,0,0t0,0a0.21,0.21,0,1,0,0,.07,1.61,1.61,0,0,1,.5-0.65,0.33,0.33,0,0,1-.22,0c0.07,0,.25.1,0.09,0a1.18,1.18,0,0,0-1.6.42,1.2,1.2,0,0,0,.42,1.6h0Z" transform="translate(-23.71 1)" fill="#fef0ed"/><path d="M296.13,140.35c0.75,0.53,2,.09,2.63-0.38a1.83,1.83,0,0,0,.86-1.44,1.48,1.48,0,0,0-1-1.4c-1.9-.55-4.24,2.23-2.1,3.51a1.17,1.17,0,0,0,1.18-2q-0.19-.13.06,0.09a0.38,0.38,0,0,1,.19.34,0.67,0.67,0,0,1,0,.55c0.1-.18-0.14.12,0,0l0.15-.14c-0.19.18,0.1,0,.2-0.1-0.12.07-.16,0,0,0s-0.29,0-.06,0a0.89,0.89,0,0,1-.62-1.39c-0.07.1,0,0,0,0l-0.21.13a0.41,0.41,0,1,0,0,0l-0.24.07c-0.17.05-.13,0,0,0-0.23,0,.28.08,0.3,0.09a1.18,1.18,0,0,0-1.6.42,1.2,1.2,0,0,0,.42,1.6h0Z" transform="translate(-23.71 1)" fill="#fef0ed"/><path d="M285.65,143.34c1-.2,2-0.83,1.8-2a2,2,0,0,0-2.36-1.55,2.12,2.12,0,0,0-1.43,2,1.6,1.6,0,0,0,1.58,1.76,1.2,1.2,0,0,0,1.17-1.17,1.18,1.18,0,0,0-1.17-1.17q-0.43,0,.55.26,0.28,0.58.19,0.29a0.27,0.27,0,0,1,0,.23c-0.16,0,.33-0.34,0,0q0.1-.17,0,0,0.11-.11,0,0a0.54,0.54,0,0,1-.75-0.08,0.7,0.7,0,0,1,.36-0.85l-0.11,0c-0.13,0-.27.06-0.4,0.08a1.18,1.18,0,0,0-.82,1.44,1.2,1.2,0,0,0,1.44.82h0Z" transform="translate(-23.71 1)" fill="#fef0ed"/><path d="M285.64,162a3.36,3.36,0,0,0-1.56.48,1.74,1.74,0,0,0-.7,2,1.58,1.58,0,0,0,1.91,1.14,1.75,1.75,0,0,0,1.16-1.53,1.21,1.21,0,0,0-.82-1.44,1.18,1.18,0,0,0-1.44.82c0,0.08,0,.15,0,0.23-0.05.6-.46-0.87,0.88-0.35l0.52,0.3a0.49,0.49,0,0,1,.08.26,0.55,0.55,0,0,1-.24.53,0.26,0.26,0,1,0,0,0l-0.09,0,0.21-.06a0.39,0.39,0,1,0,.08,0,1.21,1.21,0,0,0,1.17-1.17,1.18,1.18,0,0,0-1.17-1.17h0Z" transform="translate(-23.71 1)" fill="#fef0ed"/><path d="M293,167.15c-0.14.15,0.17-.1,0,0l-0.27.19a2.27,2.27,0,0,0-.69.71,1.45,1.45,0,0,0,.49,2,1.91,1.91,0,0,0,2.85-1.34,1.18,1.18,0,0,0-1.17-1.17,1.2,1.2,0,0,0-1.17,1.17,1.48,1.48,0,0,1,.5-0.79c-0.1.06-.09,0,0,0a0.88,0.88,0,0,0-.19,0c0.39-.34.25,1.49,0.64,1.39,0.12,0-.09.06,0,0l0.17-.12a3,3,0,0,0,.47-0.37c1-1.11-.63-2.77-1.66-1.66h0Z" transform="translate(-23.71 1)" fill="#fef0ed"/><path d="M308.47,151.37a3,3,0,0,0-2.06.67,1.72,1.72,0,1,0,2.82,1.23,1.2,1.2,0,0,0-1.17-1.17,1.18,1.18,0,0,0-1.17,1.17q0,0.23.06-.09a0.47,0.47,0,0,1,.15-0.31q0.53-.25.3-0.18a0.34,0.34,0,1,0,.13,0l0.16,0q-0.14,0,0,0a0.73,0.73,0,0,1,.45.74c0,0.13-.21.3-0.21,0.38a0.18,0.18,0,0,1,.15-0.06c0.06,0,.38-0.06.13,0h0.27c1.51,0.06,1.51-2.29,0-2.34h0Z" transform="translate(-23.71 1)" fill="#fef0ed"/><path d="M308.2,165.44c-1.92-1.26-4.36.81-3.76,2.9a2.39,2.39,0,0,0,2.88,1.6,2.55,2.55,0,0,0,1.82-2.45,1.88,1.88,0,0,0-1.87-1.87,1.9,1.9,0,0,0-1.87,1.87,1.33,1.33,0,0,1,.92-1.15,1.07,1.07,0,0,1,1.37.52A0.93,0.93,0,0,1,308,168l-0.33.57a0.71,0.71,0,1,0-.14.11,1.26,1.26,0,0,1-1.24,0,1.88,1.88,0,0,0,2.55-.67,1.91,1.91,0,0,0-.67-2.55h0Z" transform="translate(-23.71 1)" fill="#fef0ed"/></g><g id="bottom-left-snow"><path d="M165.31,427.58c3.48-4.14,6.23-8.72,10.36-12.29,4-3.42,7.7-6.8,11.54-10.34,1.44-1.33-.71-3.48-2.15-2.15-3.82,3.53-7.59,6.94-11.54,10.34-4.16,3.58-6.86,8.13-10.36,12.29-1.25,1.49.89,3.66,2.15,2.15h0Z" transform="translate(-23.71 1)" fill="#fef0ed"/><path d="M184,423.45c-3.45-4.07-5.84-9.33-8.87-13.74a40.18,40.18,0,0,0-7.62-8.87c-1.49-1.26-3.65.89-2.15,2.15,3.8,3.21,6.28,6.84,9,11,2.51,3.8,4.5,8.13,7.45,11.6,1.27,1.5,3.42-.67,2.15-2.15h0Z" transform="translate(-23.71 1)" fill="#fef0ed"/><path d="M174.44,417.16c1.57,1.14,4,.13,4.85-1.47a3.37,3.37,0,0,0-.15-3,9.58,9.58,0,0,0-1.57-2.46,3.89,3.89,0,0,0-5.32-.05c-1.79,1.42-1,3.91.56,5.13a1.53,1.53,0,0,0,2.08-.55,1.56,1.56,0,0,0-.55-2.08,1.49,1.49,0,0,1-.07-0.52s-0.15.42-.16,0.41a3.65,3.65,0,0,0,.46-0.31,0.78,0.78,0,0,1,1.08.46,4.62,4.62,0,0,1,.9,1.68,0.55,0.55,0,0,1-.57.18,1.54,1.54,0,0,0-2.08.55,1.56,1.56,0,0,0,.55,2.08h0Z" transform="translate(-23.71 1)" fill="#fef0ed"/><path d="M161.32,417.74c5-1.25,10.53-.86,15.67-1.65,4.25-.65,9.28-0.29,13.24-1.87,1.8-.72,1-3.67-0.81-2.94-3.64,1.45-9.21,1.26-13.24,1.87-5.16.79-10.63,0.39-15.67,1.65-1.9.48-1.1,3.42,0.81,2.94h0Z" transform="translate(-23.71 1)" fill="#fef0ed"/><path d="M184,427.38a2.27,2.27,0,0,0,1.17-2.13,2,2,0,0,0-1.43-1.68,2.24,2.24,0,0,0-2.94,2.09,2.54,2.54,0,0,0,2.2,2.31,2.29,2.29,0,0,0,2.85-2.18,1.54,1.54,0,0,0-1.52-1.52,1.55,1.55,0,0,0-1.52,1.52q0,0.2,0,0a0.64,0.64,0,0,1,.11-0.35l0.16-.2a0.42,0.42,0,1,0,.17-0.13c-0.15.09,0.37-.12,0.13-0.07a0.65,0.65,0,1,0,.1,0c0.53,0.06,0-.08-0.07,0,0.14-.07.31,0.18,0.08,0,0.07,0.05.27,0.24,0.1,0.07a0.89,0.89,0,0,1,.23.75,0.85,0.85,0,0,1-.87.74c0.26,0-.31-0.08-0.13,0s0.05,0-.19-0.08l-0.19-.15a1,1,0,0,1,0-1.48,1.57,1.57,0,0,0-.55,2.08,1.54,1.54,0,0,0,2.08.55h0Z" transform="translate(-23.71 1)" fill="#fef0ed"/><path d="M164.41,429.38a2.71,2.71,0,0,0,1.85-1.87,1.59,1.59,0,0,0-1.06-1.87,3.47,3.47,0,0,0-3.45.4,2.2,2.2,0,0,0-.6,2.22,6.89,6.89,0,0,0,.79,1.48,1.52,1.52,0,0,0,2.63-1.54c-0.14-.24-0.3-0.47-0.44-0.71s0-.07,0,0.14a0.92,0.92,0,0,1-.61.82c0.3-.11-0.3,0,0.05,0h0.38c0.35,0-.21-0.07.08,0,0.13,0,.26.07,0.39,0.12l-1.06-1.87c0,0.27.11-.13,0.15-0.2s0.18-.11,0,0l-0.57.26a1.54,1.54,0,0,0-.55,2.08,1.56,1.56,0,0,0,2.08.55h0Z" transform="translate(-23.71 1)" fill="#fef0ed"/><path d="M161.72,414.56a2.51,2.51,0,0,0-3.61,0,2.78,2.78,0,0,0,.83,4.06,3,3,0,0,0,2.19.42,4.07,4.07,0,0,0,1.41-.79,2.53,2.53,0,0,0,1.11-1.35,2.8,2.8,0,0,0-.22-1.74,1.57,1.57,0,0,0-1.87-1.06,1.54,1.54,0,0,0-1.06,1.87c0.07,0.19.11,0.42,0.2,0.6a0.7,0.7,0,1,0,0-.18l0.15-.57s0.23-.29.08-0.13c0.24-.25.08-0.06,0,0l-0.32.23c-0.15.11-.53,0.33-0.12,0.15,0,0,.28,0,0.08,0s0,0,.08.06c-0.09,0-.12-0.19,0,0s0-.15,0,0a1.82,1.82,0,0,1-.11.42,0.62,0.62,0,0,1-.41.36,0.91,0.91,0,0,1-.35,0c0.25,0,0,0-.11-0.07a1.52,1.52,0,0,0,2.15-2.15h0Z" transform="translate(-23.71 1)" fill="#fef0ed"/><path d="M166.37,403.4c1.13-.47,2.05-1,2.18-2.35a2.36,2.36,0,0,0-1.73-2.56,3.35,3.35,0,0,0-3,.83,2.54,2.54,0,0,0,0,3.43,1.57,1.57,0,0,0,2.08.55,1.54,1.54,0,0,0,.55-2.08,4.78,4.78,0,0,1-.33-0.5l0,0.12q-0.06-.29,0,0.12a0.41,0.41,0,0,1-.1.41,0.23,0.23,0,0,1-.14.19,0.73,0.73,0,0,1,.1-0.06c0.18,0-.24,0,0,0a1,1,0,0,0,.26-0.07c0.22-.08-0.33.06,0,0-0.1,0-.28,0-0.08,0a0.82,0.82,0,0,1-.35-0.19,1.19,1.19,0,0,0-.22-0.33c-0.07-.12,0-0.22,0,0a1,1,0,0,1,.08-0.34,0.49,0.49,0,0,1,.18-0.21q0.13-.1,0,0a0.88,0.88,0,0,0-.2.1c-0.19.11,0.34-.14,0,0a1.57,1.57,0,0,0-1.06,1.87,1.53,1.53,0,0,0,1.87,1.06h0Z" transform="translate(-23.71 1)" fill="#fef0ed"/><path d="M188.53,404.88a3.41,3.41,0,0,0,1.18-2.26,2.73,2.73,0,0,0-1.51-2.27,2.69,2.69,0,0,0-2.51.05A2.3,2.3,0,0,0,184.6,403a1.54,1.54,0,0,0,1.87,1.06,1.56,1.56,0,0,0,1.06-1.87,0.89,0.89,0,0,1-.32.89q-0.16.11,0,0a0.33,0.33,0,1,0-.13.06,0.38,0.38,0,1,0-.15,0q0.26,0-.1,0c0.24,0.05-.09-0.09-0.17-0.13,0.21,0.11.08,0.11,0-.13a0.72,0.72,0,0,1,.08-0.58c-0.06,0-.22.31,0,0.08l-0.36.4a1.56,1.56,0,0,0,0,2.15,1.54,1.54,0,0,0,2.15,0h0Z" transform="translate(-23.71 1)" fill="#fef0ed"/><path d="M190.1,413.1a3.41,3.41,0,0,0,.4,2,1.84,1.84,0,0,0,2.59.39,2.23,2.23,0,0,0-.21-3.75,3,3,0,0,0-3.38.48,2,2,0,0,0,.31,3.35,1.52,1.52,0,1,0,1.54-2.63,1.11,1.11,0,0,1,.27,1.44c0.13-.24-0.24.24,0,0.06-0.32.29,0,0,.09,0a0.35,0.35,0,1,0-.08,0q0.2,0,0,0t0,0a0.44,0.44,0,1,0-.13,0,0.57,0.57,0,1,0-.12-0.06,0.46,0.46,0,0,1-.19-0.17,0.91,0.91,0,0,1,.67-1.4l1.32,0.75q-0.15-.23,0,0t0,0.06a2.2,2.2,0,0,0,0-.5,1.52,1.52,0,0,0-3,0h0Z" transform="translate(-23.71 1)" fill="#fef0ed"/></g><g id="bottom-right-snow"><path d="M360.64,412a3.51,3.51,0,0,0-3.47-2.31,2.14,2.14,0,0,0-1.77,1.29,2,2,0,0,0-1.33,1.66,3.53,3.53,0,0,0,1.89,3.54A3.32,3.32,0,0,0,360.64,412Z" transform="translate(-23.71 1)" fill="#fef0ed"/><path d="M391.1,407.23a3,3,0,0,0-3.26-2.31,2,2,0,0,0-.7.27,1.59,1.59,0,0,0-.47-0.17,1.94,1.94,0,0,0-2.12,1.64c0,0.07,0,.15,0,0.22q-9.37,1.76-18.72,3.68a9.37,9.37,0,0,0-2.52-3.85,50,50,0,0,0,8.73-9.88,2.68,2.68,0,0,0,.63-0.21,3,3,0,0,0,1.32-4.23,2.56,2.56,0,0,0-1.85-1.3,1.68,1.68,0,0,0-2.14,0,3.63,3.63,0,0,0-1.12,3.84,46.17,46.17,0,0,1-8.12,9,2,2,0,0,0-.57.77,13.63,13.63,0,0,0-5.11-1,139,139,0,0,0-1.1-22.27,3.53,3.53,0,0,0,.47-1.83c0-1.51-1.29-3-2.79-2.65a3.56,3.56,0,0,0-1.92,1.36,1.56,1.56,0,0,0-.7.34,2.1,2.1,0,0,0-.46,2.74,4.28,4.28,0,0,0,1.86,1.38,139,139,0,0,1,1,21.4,13.19,13.19,0,0,0-2.35,2.43,86.44,86.44,0,0,0-9.71-5.92,3.61,3.61,0,0,0,.14-0.67,1.92,1.92,0,0,0-1.48-2.24,3.25,3.25,0,0,0-2.86,1.17,3.65,3.65,0,0,0-.47.71,2.06,2.06,0,0,0-1.15,1.52,2,2,0,0,0,1.48,2.24,2.89,2.89,0,0,0,1.18.06h0.1l0.15,0h0a1.82,1.82,0,0,0,.59.47A80.64,80.64,0,0,1,347.29,410a8.56,8.56,0,0,0-.29,3.71,125.61,125.61,0,0,0-19.72,3.82,2.85,2.85,0,0,0-3.86-.24,2.24,2.24,0,0,0-.71,2.19,2.73,2.73,0,0,0,.75,2.41,2.49,2.49,0,0,0,2.39.58,3.11,3.11,0,0,0,1.55-1,120.81,120.81,0,0,1,20.85-4,1.88,1.88,0,0,0,.29-0.06,13.56,13.56,0,0,0,2.85,3l-0.07.1-6.55,11.93a1.85,1.85,0,0,0-1.23.8,2.67,2.67,0,0,0-1.45.9,3.22,3.22,0,0,0,.95,4.82,1.84,1.84,0,0,0,2.18-.55,4.94,4.94,0,0,0,.82-1.11l0.11-.07a2.07,2.07,0,0,0,.75-1.49,2,2,0,0,0,.66-0.73l7-12.76a10.24,10.24,0,0,0,2.79.68,2.17,2.17,0,0,0,.27,1.95c0,0.07,0,.13,0,0.2a101.65,101.65,0,0,0,2.46,17.06,3.13,3.13,0,0,0-.89,3.41,2,2,0,0,0,.74.93l0,0.08a2,2,0,0,0,.81,2,1.77,1.77,0,0,0,2-.07A4.63,4.63,0,0,0,364,447.3a2.15,2.15,0,0,0,.65-1.35,3.46,3.46,0,0,0-.78-3.56,99.92,99.92,0,0,1-2.58-17.65,1.82,1.82,0,0,0-.48-1.17,2.12,2.12,0,0,0-.18-0.86,7.58,7.58,0,0,0,3.55-2.43,2,2,0,0,0,.32.46,39.59,39.59,0,0,0,8.86,7l0.2,0.09a2.35,2.35,0,0,0,.92,1.85,2.31,2.31,0,0,0,2.1.14c2.07-.78,2.77-4.09,1-5.53a1.79,1.79,0,0,0-2.39.08,2,2,0,0,0-.28-0.21,36.2,36.2,0,0,1-8.06-6.45,1.52,1.52,0,0,0-1-.52,10.62,10.62,0,0,0,.5-2.75q9.65-2,19.34-3.79a3.07,3.07,0,0,0,3.67.59A3.45,3.45,0,0,0,391.1,407.23Zm-32.53,11.9c-2.68.18-5.51-1.75-7-4-2.12-3.08-.22-6.22,2.35-8.14a1.76,1.76,0,0,0,1.3.54c2.81,0,6,1.33,7.14,4.28S361.92,418.91,358.57,419.13Z" transform="translate(-23.71 1)" fill="#fef0ed"/></g><text transform="matrix(1, -0.01, 0.01, 1, 166.38, 238.53)" font-size="62.43" fill="#fef0ed" stroke="#fff" stroke-miterlimit="10" stroke-width="0.32" font-family="SignPainter">Holiday <tspan x="20.2" y="60.27" letter-spacing="-2">P</tspan><tspan x="44.23" y="60.27">ar</tspan><tspan x="89.68" y="60.27">ty!</tspan></text><path d="M219.76,220.64a4,4,0,0,1,2.46,2.72c0.13,0.5-.05.81-0.68,0.69a15.4,15.4,0,0,0-3.5-.15c-2.08,4.08-4.22,8.6-6.23,13.3-0.24.63-.68,0.69-1.06,0.14-0.89-1.24-1.47-3-.26-6.87a63.37,63.37,0,0,1,2.56-6c-4.55.61-9.35,1.47-12.29,1.5-1.9,3.89-3.79,8-5.56,12.23-0.24.63-.74,0.82-1.12,0.26-0.95-1.3-1.4-3-.38-6.86a68.94,68.94,0,0,1,2.62-6.4,4.09,4.09,0,0,1-2.14-2c-0.38-.75-0.26-1,0.8-0.95s1.81,0.17,2.62.16c3.91-8.34,9.61-19.2,12.13-22.85,0.55-.75,1.12-0.64,1.5,0,1,1.74.8,4.8-1.47,9.26-1.78,3.51-4.29,8-7,13.18,4.3-.61,8.16-1.71,12.28-2,4-8.09,9.37-18.08,11.83-21.41,0.62-.82,1.18-0.76,1.56,0,0.89,1.8.73,4.74-1.84,9.45C224.79,211.54,222.4,215.74,219.76,220.64Z" transform="translate(-23.71 1)" fill="#e64d61"/><path d="M249.88,236c2.94,0.16,7.26-4.32,9.59-9.09,0.37-.82,1.05-0.88,1.31,0a6,6,0,0,1-.59,3.81c-0.73,1.82-5.3,7.11-10.23,7-4.18-.14-6.59-3-5.22-9.69,0.18-.88.36-1.63,0.6-2.44a11.23,11.23,0,0,1-1.44.08,12.52,12.52,0,0,1-2.19-.17c-1.51,5.07-5.14,10.73-9.37,12.08a6.72,6.72,0,0,1-8-2.54c-2.72-3.66-1.84-9.16.92-14.06,2.39-4.27,6-7.87,9.78-8.22,1.87-.21,3,0.34,4.27,2,1.52,2,3.27,2.34,3,6.84a17.65,17.65,0,0,1-.29,2.38,15.05,15.05,0,0,0,1.75.11c0.62,0,1.31,0,1.93-.08a68.07,68.07,0,0,1,14.42-24.75c0.86-.95,1.86-1.14,2.68-0.34,1.7,1.67,2.16,3.91,1.44,6.79a33.77,33.77,0,0,1-5.76,11c-2.53,3.21-5.12,5.92-8.36,7.45C247.71,230.47,247.07,235.85,249.88,236Zm-16.11-18.57a20.86,20.86,0,0,0-4.81,5.86c-2.58,4.71-3.39,10.52-1.75,11.88s5.55-.87,8.55-6.52a38,38,0,0,0,2.07-4.83C235.38,222.23,233.8,219.75,233.77,217.44Zm5-.17c-0.33-2-1.58-1.61-1.87.21a5.44,5.44,0,0,0,1.42,4.48A12.28,12.28,0,0,0,238.77,217.26Zm19-2.75c2.71-4,5.15-9.54,4.33-10.1s-5.37,6.36-9.53,14.39c-0.49.94-.92,1.88-1.28,2.7A27.67,27.67,0,0,0,257.78,214.51Z" transform="translate(-23.71 1)" fill="#e64d61"/><path d="M258.42,228.68a77,77,0,0,1,7.84-15.25c0.55-.75,1-0.95,1.49-0.39,0.95,1,1.47,3.67,0,6.81-1.28,2.76-3.86,7-5.14,10.17-1.46,3.63-1.31,6.07.68,5.92,2.81-.15,6.2-4.31,8-8.64,0.31-.56.74-0.51,1,0,0.51,1,.34,2.31-0.4,3.88-1.83,3.89-5.74,6.55-9.24,6.59C258,237.8,256.73,233.82,258.42,228.68Zm13.76-16.44c-0.8.88-2.55,0.71-3.51-.9a3.88,3.88,0,0,1,.27-4.62c1-1.07,2.81-.34,3.63,1.34A3.77,3.77,0,0,1,272.18,212.24Z" transform="translate(-23.71 1)" fill="#e64d61"/><path d="M288.59,235.87c2.56-.15,5.89-4.37,8-8.7,0.31-.56.74-0.57,1-0.07a5.46,5.46,0,0,1-.46,3.88c-1.65,3.45-5.49,6.8-8.92,6.65s-5.08-2-5.11-4.94c-2,2.52-4.76,4.85-7.69,4.88-5.81.06-7-7.86-2-15.4,4.86-7.29,9.83-10.15,12.95-10.18,2.56,0,3.83,1.9,3.79,4.21,3.31-6.46,8-15,10.18-18.21,0.62-.88,1.18-0.82,1.5,0,0.89,2.05.73,4.74-1.84,9.45-2.94,5.4-8.83,15.76-11.89,22.41C286.51,233.45,286.47,236,288.59,235.87Zm-11-11.25c-3.32,5.4-3.95,10.84-1.51,10.88s5.83-3.68,8.71-9.39c3.55-7,4.45-10.91,2.64-11S281,219.09,277.61,224.61Z" transform="translate(-23.71 1)" fill="#e64d61"/><path d="M318.19,212.16q0.83-1.23,1.5-.39c0.95,1.11,1.47,3.79,0,6.93-1.35,2.82-4.42,7.54-5.88,10.86-1.53,3.51-1.56,6.2.56,6,2.56-.15,5.95-4.43,8.09-8.76,0.31-.56.74-0.63,1-0.07a5.61,5.61,0,0,1-.52,3.88c-1.59,3.45-5.49,6.92-8.92,6.77s-5.14-2.13-5.17-5.07c-2,2.58-4.76,4.92-7.75,4.95-5.81.06-7.07-7.86-2-15.47,5-7.42,9.89-10.28,13-10.31,2.68,0,4,2,3.85,4.46C316.78,214.48,317.52,213.16,318.19,212.16Zm-5,2.61c-2-.17-6.52,3.94-9.89,9.53-3.25,5.4-4,10.91-1.58,10.94s5.77-4,8.9-9.52C314.51,218.81,315,214.93,313.23,214.76Z" transform="translate(-23.71 1)" fill="#e64d61"/><path d="M333.51,238.41c-3.41,8.4-7.74,18.5-12.91,20.55-1.18.45-2.37,0.46-3.57-1.28s-2.54-4-1.33-7.73c1.82-5.64,7.09-9.44,13.24-11.94,0.61-1.44,1.22-3,1.89-4.51-1.92,2-4.27,3.67-6.77,3.5-4.5-.33-4.67-4.89-3.28-9a66.58,66.58,0,0,1,8.33-15.88,0.86,0.86,0,0,1,1.56,0c1.52,2,1.17,4.61-1.1,8.32a57.05,57.05,0,0,0-4.72,9.16c-1.22,3.07-1.07,5.25.37,5.37,2.44,0.16,5.52-3.86,8.65-9.33,2.64-4.65,5.27-10.29,7.42-13.5,0.55-.82,1-0.95,1.56-0.45,0.88,1.12,1.41,3.79-.18,7-1.84,3.64-5.57,11.17-8.13,17.25a33.22,33.22,0,0,0,11-9.73c0.31-.44.87-0.51,1,0.12a5.6,5.6,0,0,1-1.09,3.63C343,233.82,338.67,236.24,333.51,238.41Zm-15.25,17.14c0.82,1.18,5.88-5.68,9.65-14.9C319.84,245.42,317.12,254,318.26,255.55Z" transform="translate(-23.71 1)" fill="#e64d61"/><path d="M221.47,263.1c-0.32-.68-0.2-1.06.61-1.13,5.18-.62,9.83-3.28,14.08-3.51,3.18-.16,5.94.81,7.48,5.11,1.35,3.73.32,7.37-1.77,10.7-3.07,4.9-9.77,9.65-17.93,11.3a5.72,5.72,0,0,1-3.88-.58c-1.71,3.45-3.54,7.59-5.68,12.79-0.24.63-.56,0.63-1,0.2-0.88-.93-1.53-2.79-0.62-6.17,1.57-5.7,7.32-17.5,12.66-26.1A4.63,4.63,0,0,1,221.47,263.1ZM241,264.15c-1.35-3.42-7.56-.11-11.67,1.12,0,1.69-.58,3.88-2.3,6.89s-3.31,5.78-5.15,9.29C235.8,278.69,242.69,268.51,241,264.15Z" transform="translate(-23.71 1)" fill="#e64d61"/><path d="M242.11,298c-5.74.06-7.07-7.86-2-15.4,4.92-7.23,9.83-10.15,13-10.18,2.43,0,3.7,1.9,3.72,4.08,0.92-1.57,1.72-2.83,2.15-3.46s1-.95,1.49-0.39c1,1.11,1.47,3.73.13,6.87-1.22,2.82-4.48,7.73-5.82,10.92-1.46,3.57-1.19,5.88.74,5.67,4-.42,9.53-8.15,12.38-17.36-5.08-1.76.77-10.31,3.27-10.52,1.93-.14,1.35,3.55.08,7.87a15.7,15.7,0,0,0,6.9-3c0.87-.63,1.3-0.76,1.87-0.14,1.2,1.3,2.73,4.16.94,6.3-2.9,3.4-6,7.8-7,10.94-1,3.44-.32,5.87,1.62,6,2.62,0.16,5.7-4,7.66-8.69,0.24-.5.68-0.63,0.94,0a5.52,5.52,0,0,1-.21,4.06c-1.58,3.76-5.24,6.55-8.68,6.46-4.75-.14-6.66-4.43-5.22-9.44,1.21-4.13,5-8.79,7.62-11.82a15.23,15.23,0,0,1-7.34,2.38c-3,8.83-8.5,18.32-15.17,18.88-3.43.29-5.33-1.88-5.3-5.07C248,295.49,245.17,298,242.11,298ZM244.29,285c-3.32,5.4-4,10.84-1.51,10.88s5.71-3.8,8.83-9.46c3.8-6.84,4.33-10.78,2.51-10.89S247.67,279.51,244.29,285Z" transform="translate(-23.71 1)" fill="#e64d61"/><path d="M285.85,270.95c-0.63-.87-0.26-1.31.67-1.26a35.61,35.61,0,0,0,5.18-.3,80.43,80.43,0,0,1,4.67-7.79c0.55-.82,1.18-0.76,1.5,0,0.71,1.74.73,3.8-.74,7.06a3.91,3.91,0,0,1,3.89,1.83c0.44,0.75.2,1.18-.74,1.19a18.61,18.61,0,0,0-4.87.3c-2.39,4.21-5.89,10.3-8.21,15.57-2,4.58-1.29,8.44,1.34,8.54,2.81,0.1,6.33-4.37,8.59-9.08,0.37-.75,1.05-0.88,1.31,0s0,2.12-.59,3.57c-0.79,1.82-4.86,7.35-9.86,7.22-4.12-.08-7.48-4.67-4.55-11.88,1.28-3.14,3.85-8.41,6.48-13.37A5.16,5.16,0,0,1,285.85,270.95Z" transform="translate(-23.71 1)" fill="#e64d61"/><path d="M307.86,298.95c-3.41,8.4-7.74,18.5-12.91,20.55-1.18.45-2.37,0.46-3.57-1.28s-2.54-4-1.33-7.73c1.82-5.64,7.08-9.44,13.24-11.94,0.61-1.44,1.22-3,1.89-4.51-1.92,2-4.27,3.67-6.77,3.5-4.5-.33-4.67-4.89-3.28-9a66.6,66.6,0,0,1,8.33-15.88,0.87,0.87,0,0,1,1.56,0c1.52,2,1.17,4.61-1.1,8.32a57,57,0,0,0-4.71,9.16c-1.22,3.07-1.07,5.25.37,5.37,2.44,0.16,5.52-3.86,8.65-9.33,2.64-4.65,5.27-10.29,7.42-13.5,0.55-.82,1-0.95,1.56-0.45,0.89,1.12,1.41,3.8-.18,7-1.84,3.64-5.57,11.17-8.13,17.25a33.23,33.23,0,0,0,11-9.73c0.31-.44.87-0.51,1,0.12a5.6,5.6,0,0,1-1.09,3.63C317.37,294.36,313,296.77,307.86,298.95Zm-15.25,17.14c0.82,1.18,5.88-5.68,9.65-14.9C294.2,306,291.47,314.53,292.61,316.08Z" transform="translate(-23.71 1)" fill="#e64d61"/><path d="M326.89,297.19c-0.74.94-2.55,0.59-3.44-.84a3.79,3.79,0,0,1,.27-4.56c0.93-1,2.74-.34,3.57,1.4A4,4,0,0,1,326.89,297.19ZM342.54,258c0.83,1.74.74,4.8-1.78,9.45-3.37,6.22-8.52,16.07-11.63,23-0.31.63-.55,0.75-1.06,0.26-0.95-1-1.59-3-.26-6.8a153.4,153.4,0,0,1,13.16-26C341.47,257.15,342.16,257.14,342.54,258Z" transform="translate(-23.71 1)" fill="#e64d61"/><polygon points="0.12 175.76 13.16 226.52 244.43 169.13 232.54 118.51 0.12 175.76" fill="#e64d61" stroke="#fff" stroke-miterlimit="10" stroke-width="0.2"/><path d="M37.56,194.7c-0.93-4-1.08-5.52-.91-7.48,0.4-4.73,3.36-7.81,8.24-8.95s8.69,0.35,11.11,3.89a0.36,0.36,0,0,1-.07.6l-4.73,3.53a0.37,0.37,0,0,1-.61-0.11c-1.12-1.41-2.3-2.14-4.12-1.71a3.2,3.2,0,0,0-2.7,3.1c-0.08.9,0,1.76,0.86,5.48s1.18,4.53,1.66,5.3a3.2,3.2,0,0,0,3.8,1.58c1.82-.43,2.55-1.6,2.94-3.36a0.37,0.37,0,0,1,.5-0.37l5.81,1.07a0.36,0.36,0,0,1,.33.51c-0.6,4.24-3.48,7.29-8.24,8.4s-8.89-.31-11.35-4.37C39,200.12,38.5,198.7,37.56,194.7Z" transform="translate(-23.71 1)" fill="#fef0ed" stroke="#fff" stroke-miterlimit="10" stroke-width="0.21"/><path d="M57.9,176.15a0.38,0.38,0,0,1,.3-0.49l6.18-1.44a0.38,0.38,0,0,1,.49.3l2.23,9.55a0.22,0.22,0,0,0,.29.18l7.33-1.71a0.22,0.22,0,0,0,.18-0.29l-2.23-9.55a0.39,0.39,0,0,1,.3-0.49l6.18-1.45a0.38,0.38,0,0,1,.49.3l6.11,26.17a0.38,0.38,0,0,1-.3.49l-6.18,1.45a0.39,0.39,0,0,1-.49-0.3l-2.32-10a0.22,0.22,0,0,0-.29-0.18l-7.33,1.71a0.22,0.22,0,0,0-.18.29l2.32,10a0.39,0.39,0,0,1-.3.49l-6.18,1.44a0.38,0.38,0,0,1-.49-0.3Z" transform="translate(-23.71 1)" fill="#fef0ed" stroke="#fff" stroke-miterlimit="10" stroke-width="0.21"/><path d="M84,170a0.38,0.38,0,0,1,.3-0.49l6.18-1.44a0.38,0.38,0,0,1,.49.3l6.11,26.17a0.38,0.38,0,0,1-.3.49l-6.18,1.44a0.38,0.38,0,0,1-.49-0.3Z" transform="translate(-23.71 1)" fill="#fef0ed" stroke="#fff" stroke-miterlimit="10" stroke-width="0.21"/><path d="M95.36,167.4a0.38,0.38,0,0,1,.3-0.49l6.18-1.44a0.38,0.38,0,0,1,.49.3L107,185.91a0.22,0.22,0,0,0,.29.18l11.42-2.67a0.39,0.39,0,0,1,.49.3l1.26,5.39a0.39,0.39,0,0,1-.3.49L102,193.87a0.38,0.38,0,0,1-.49-0.3Z" transform="translate(-23.71 1)" fill="#fef0ed" stroke="#fff" stroke-miterlimit="10" stroke-width="0.21"/><path d="M117.33,162.27a0.38,0.38,0,0,1,.3-0.49l6.18-1.44a0.38,0.38,0,0,1,.49.3l4.7,20.14a0.22,0.22,0,0,0,.29.18l11.42-2.67a0.38,0.38,0,0,1,.49.3l1.26,5.39a0.38,0.38,0,0,1-.3.49l-18.24,4.26a0.38,0.38,0,0,1-.49-0.3Z" transform="translate(-23.71 1)" fill="#fef0ed" stroke="#fff" stroke-miterlimit="10" stroke-width="0.21"/><path d="M161.07,180.06a0.49,0.49,0,0,1-.61-0.28l-14.71-24.12a0.34,0.34,0,0,1,.26-0.52l6.5-1.52a0.49,0.49,0,0,1,.61.28L161.72,169l0.12,0,0.84-17.34a0.49,0.49,0,0,1,.42-0.52l6.46-1.51a0.31,0.31,0,0,1,.42.36l-2.5,28.13a0.49,0.49,0,0,1-.42.52Z" transform="translate(-23.71 1)" fill="#fef0ed" stroke="#fff" stroke-miterlimit="10" stroke-width="0.21"/><path d="M172.51,149.38a0.38,0.38,0,0,1,.3-0.49l6.18-1.44a0.38,0.38,0,0,1,.49.3l6.11,26.17a0.39,0.39,0,0,1-.3.49l-6.18,1.44a0.38,0.38,0,0,1-.49-0.3Z" transform="translate(-23.71 1)" fill="#fef0ed" stroke="#fff" stroke-miterlimit="10" stroke-width="0.21"/><path d="M183.85,146.73a0.38,0.38,0,0,1,.3-0.49l11-2.57c6-1.41,9.48.84,10.48,5.12a6.32,6.32,0,0,1-1.94,6.56l0,0.08a6.57,6.57,0,0,1,5.2,5.26c1.23,5.27-1.91,8.64-7.58,10l-10.86,2.54a0.39,0.39,0,0,1-.49-0.3Zm12.47,8.08c2.1-.49,3-1.66,2.56-3.53s-1.72-2.52-3.86-2l-2.81.66a0.21,0.21,0,0,0-.18.29l1.19,5.07a0.22,0.22,0,0,0,.29.18ZM196,166.33l3.17-.74c2.18-.51,3-1.84,2.58-3.82s-1.81-2.75-4-2.25l-3.17.74a0.22,0.22,0,0,0-.18.29l1.31,5.59A0.22,0.22,0,0,0,196,166.33Z" transform="translate(-23.71 1)" fill="#fef0ed" stroke="#fff" stroke-miterlimit="10" stroke-width="0.21"/><path d="M208.19,141a0.38,0.38,0,0,1,.3-0.49l17.64-4.12a0.38,0.38,0,0,1,.49.3l1.19,5.11a0.38,0.38,0,0,1-.3.49l-10.82,2.53a0.22,0.22,0,0,0-.18.29l1,4.08a0.22,0.22,0,0,0,.29.18l8.88-2.07a0.39,0.39,0,0,1,.49.3l1.17,5a0.39,0.39,0,0,1-.3.49l-8.88,2.07a0.22,0.22,0,0,0-.18.29l1,4.32a0.22,0.22,0,0,0,.29.18l10.82-2.53a0.38,0.38,0,0,1,.49.3l1.2,5.11a0.39,0.39,0,0,1-.3.49l-17.64,4.12a0.38,0.38,0,0,1-.49-0.3Z" transform="translate(-23.71 1)" fill="#fef0ed" stroke="#fff" stroke-miterlimit="10" stroke-width="0.21"/><path d="M234.54,159.34a0.42,0.42,0,0,1-.19-0.63l2.59-5a0.37,0.37,0,0,1,.55-0.17,11.11,11.11,0,0,0,7.49,1.09c2.5-.58,3.57-1.92,3.21-3.43-0.27-1.15-1.2-1.73-3.94-1.46l-1.47.13c-6,.53-9.8-1.35-11-6.38s2-9.32,8.07-10.75a16.7,16.7,0,0,1,10.33.72,0.41,0.41,0,0,1,.22.58l-2,5a0.41,0.41,0,0,1-.53.25,11.18,11.18,0,0,0-6.54-.6c-2,.46-2.75,1.65-2.45,3s1.33,1.74,4,1.45l1.47-.13c6.1-.55,9.73,1.37,10.92,6.48s-1.79,9.53-9,11.22C241.9,161.68,237,160.85,234.54,159.34Z" transform="translate(-23.71 1)" fill="#fef0ed" stroke="#fff" stroke-miterlimit="10" stroke-width="0.21"/><path d="M115.71,66.82a0.55,0.55,0,0,1-.21-0.69l2.94-5.86a0.32,0.32,0,0,1,.5-0.16,10.71,10.71,0,0,0,7.07,1c2.06-.5,2.87-1.4,2.62-2.45-0.17-.7-0.74-1-2.83-0.79l-1.45.14c-6.27.62-10.15-1.28-11.41-6.49-1.22-5,2-9.37,8.26-10.9a17.14,17.14,0,0,1,10.72.61,0.43,0.43,0,0,1,.24.64l-2.29,5.82a0.4,0.4,0,0,1-.52.25,10.88,10.88,0,0,0-6.17-.52c-1.55.38-2.1,1.17-1.91,2s0.91,1,2.88.82l1.45-.15c6.46-.67,10.11,1.29,11.38,6.54,1.22,5-1.83,9.58-9.21,11.37C123.22,69.11,118.23,68.39,115.71,66.82Z" transform="translate(-23.71 1)" fill="#fef0ed"/><path d="M136.69,37.77a0.38,0.38,0,0,1,.29-0.48l7.38-1.79a0.38,0.38,0,0,1,.48.29L147,44.54a0.21,0.21,0,0,0,.29.18l5.48-1.33a0.21,0.21,0,0,0,.18-0.29l-2.12-8.74a0.38,0.38,0,0,1,.29-0.48l7.38-1.79a0.38,0.38,0,0,1,.48.29L165.19,58a0.38,0.38,0,0,1-.29.48l-7.38,1.79A0.38,0.38,0,0,1,157,60l-2.24-9.21a0.21,0.21,0,0,0-.29-0.18L149,51.94a0.21,0.21,0,0,0-.18.29l2.24,9.21a0.38,0.38,0,0,1-.29.48l-7.38,1.79a0.38,0.38,0,0,1-.48-0.3Z" transform="translate(-23.71 1)" fill="#fef0ed"/><path d="M163.93,31.16a0.38,0.38,0,0,1,.29-0.48l7.38-1.79a0.38,0.38,0,0,1,.48.29l6.23,25.65a0.38,0.38,0,0,1-.29.48l-7.38,1.79a0.38,0.38,0,0,1-.48-0.29Z" transform="translate(-23.71 1)" fill="#fef0ed"/><path d="M177.07,28a0.38,0.38,0,0,1,.29-0.48l7-1.69a0.74,0.74,0,0,1,.76.23l9.46,11.49,0.19,0-3.16-13a0.38,0.38,0,0,1,.29-0.48l6.57-1.6a0.38,0.38,0,0,1,.48.29l6.23,25.65a0.38,0.38,0,0,1-.29.48l-7,1.69a0.74,0.74,0,0,1-.75-0.23l-9.42-11.5-0.23.06,3.16,13a0.38,0.38,0,0,1-.29.48l-6.57,1.6a0.38,0.38,0,0,1-.48-0.3Z" transform="translate(-23.71 1)" fill="#fef0ed"/><path d="M217.29,45.77a0.38,0.38,0,0,1-.48-0.3L214.5,36,202.38,21.85a0.28,0.28,0,0,1,.17-0.49l7.34-1.78a0.71,0.71,0,0,1,.76.23l6.05,7.3,0.12,0,1.91-9.23a0.67,0.67,0,0,1,.57-0.55l7.27-1.77a0.28,0.28,0,0,1,.38.36L222.66,34l2.3,9.48a0.38,0.38,0,0,1-.29.48Z" transform="translate(-23.71 1)" fill="#fef0ed"/><path d="M309.69,17.27a0.38,0.38,0,0,1,.48-0.3l11.33,2.64c6.08,1.42,8.17,4.94,7.2,9.11A6.33,6.33,0,0,1,324,33.66l0,0.08a6.53,6.53,0,0,1,2.39,7c-1.19,5.1-5.65,6.61-11.06,5.35L304,43.46a0.38,0.38,0,0,1-.3-0.48Zm3.66,22.21,1.71,0.4c1.91,0.44,2.95-.13,3.37-2,0.38-1.64-.26-2.77-2.17-3.21l-1.71-.4a0.21,0.21,0,0,0-.29.18l-1.1,4.71A0.21,0.21,0,0,0,313.35,39.47ZM317,29.53c1.91,0.44,2.94.07,3.34-1.65s-0.28-2.49-2.27-3l-1.29-.3a0.21,0.21,0,0,0-.29.18l-1,4.13a0.21,0.21,0,0,0,.18.29Z" transform="translate(-23.71 1)" fill="#fef0ed"/><path d="M341.4,52.17a0.54,0.54,0,0,1-.49-0.53l-1.46-9-1.36-.32a0.21,0.21,0,0,0-.29.18l-1.87,8a0.38,0.38,0,0,1-.48.3l-7.36-1.71a0.38,0.38,0,0,1-.3-0.48l6-25.71a0.38,0.38,0,0,1,.48-0.3l11.06,2.58c6.82,1.59,9.33,6.12,8.13,11.3A8.39,8.39,0,0,1,347.73,43l2.18,10.73a0.3,0.3,0,0,1-.37.37Zm3.83-17.5c0.33-1.4-.37-2.47-2.12-2.88l-2.45-.57a0.21,0.21,0,0,0-.29.18l-0.94,4.05a0.21,0.21,0,0,0,.18.29l2.45,0.57C343.8,36.71,344.9,36.07,345.23,34.66Z" transform="translate(-23.71 1)" fill="#fef0ed"/><path d="M358.5,28.64a0.38,0.38,0,0,1,.48-0.3l7.4,1.72a0.38,0.38,0,0,1,.3.48l-6,25.71a0.38,0.38,0,0,1-.48.3l-7.4-1.72a0.38,0.38,0,0,1-.3-0.48Z" transform="translate(-23.71 1)" fill="#fef0ed"/><path d="M366.57,44.07a21.37,21.37,0,0,1,2.48-6.94c2.47-4.1,7-5.3,11.78-4.2s7.64,3.87,8.5,7.93a0.44,0.44,0,0,1-.35.62l-6.68,1.16a0.5,0.5,0,0,1-.62-0.31,3,3,0,0,0-2.5-2.14,2.51,2.51,0,0,0-2.93,1.12c-0.47.79-.77,1.88-1.42,4.68a17.5,17.5,0,0,0-.77,4.87,2.67,2.67,0,0,0,2.38,2.32c1.4,0.33,2.5,0,3-.78a2.28,2.28,0,0,0,.28-0.67,0.23,0.23,0,0,0-.17-0.33l-2-.47a0.38,0.38,0,0,1-.3-0.48l1.19-5.1a0.38,0.38,0,0,1,.48-0.3l9.85,2.3a0.38,0.38,0,0,1,.3.48l-0.43,1.83a20.13,20.13,0,0,1-2.22,6.18c-2.54,4.21-7,5.69-11.94,4.53-4.75-1.11-8.3-4.19-8.71-9A21.39,21.39,0,0,1,366.57,44.07Z" transform="translate(-23.71 1)" fill="#fef0ed"/><path d="M394.58,37a0.38,0.38,0,0,1,.48-0.3l7.4,1.72a0.38,0.38,0,0,1,.3.48l-2,8.76a0.21,0.21,0,0,0,.18.29l5.49,1.28a0.21,0.21,0,0,0,.29-0.18l2-8.76a0.38,0.38,0,0,1,.48-0.3l7.4,1.72a0.38,0.38,0,0,1,.3.48l-6,25.71a0.38,0.38,0,0,1-.48.3L403,66.52a0.38,0.38,0,0,1-.3-0.48l2.15-9.23a0.21,0.21,0,0,0-.18-0.29l-5.49-1.28a0.21,0.21,0,0,0-.29.18l-2.15,9.23a0.38,0.38,0,0,1-.48.3l-7.4-1.72a0.38,0.38,0,0,1-.3-0.48Z" transform="translate(-23.71 1)" fill="#fef0ed"/><path d="M420.05,70.49a0.38,0.38,0,0,1-.3-0.48l4.34-18.62a0.21,0.21,0,0,0-.18-0.29l-6.27-1.46a0.38,0.38,0,0,1-.3-0.48l1.51-6.47a0.38,0.38,0,0,1,.48-0.3l21.19,4.94a0.38,0.38,0,0,1,.3.48l-1.51,6.47a0.38,0.38,0,0,1-.48.3l-6.27-1.46a0.21,0.21,0,0,0-.29.18l-4.34,18.62a0.38,0.38,0,0,1-.48.3Z" transform="translate(-23.71 1)" fill="#fef0ed"/><path d="M118.71,65.34a0.55,0.55,0,0,1-.21-0.69l2.94-5.86a0.32,0.32,0,0,1,.5-0.16,10.71,10.71,0,0,0,7.07,1c2.06-.5,2.87-1.4,2.62-2.45-0.17-.7-0.74-1-2.83-0.79l-1.45.14c-6.27.62-10.15-1.28-11.41-6.49-1.22-5,2-9.37,8.26-10.9a17.14,17.14,0,0,1,10.72.61,0.43,0.43,0,0,1,.24.64l-2.29,5.82a0.4,0.4,0,0,1-.52.25,10.88,10.88,0,0,0-6.17-.52c-1.55.38-2.1,1.17-1.91,2s0.91,1,2.88.82l1.45-.15c6.46-.67,10.11,1.29,11.38,6.54,1.22,5-1.83,9.58-9.21,11.37C126.22,67.63,121.23,66.91,118.71,65.34Z" transform="translate(-23.71 1)" fill="#00cdbd"/><path d="M139.68,36.29a0.38,0.38,0,0,1,.29-0.48L147.36,34a0.38,0.38,0,0,1,.48.29L150,43.05a0.21,0.21,0,0,0,.29.18l5.48-1.33a0.21,0.21,0,0,0,.18-0.29l-2.12-8.74a0.38,0.38,0,0,1,.29-0.48l7.38-1.79a0.38,0.38,0,0,1,.48.29l6.23,25.65a0.38,0.38,0,0,1-.29.48l-7.38,1.79a0.38,0.38,0,0,1-.48-0.29l-2.24-9.21a0.21,0.21,0,0,0-.29-0.18L152,50.46a0.21,0.21,0,0,0-.18.29L154.08,60a0.38,0.38,0,0,1-.29.48l-7.38,1.79a0.38,0.38,0,0,1-.48-0.3Z" transform="translate(-23.71 1)" fill="#00cdbd"/><path d="M166.93,29.67a0.38,0.38,0,0,1,.29-0.48l7.38-1.79a0.38,0.38,0,0,1,.48.29l6.23,25.65a0.38,0.38,0,0,1-.29.48l-7.38,1.79a0.38,0.38,0,0,1-.48-0.29Z" transform="translate(-23.71 1)" fill="#00cdbd"/><path d="M180.07,26.48a0.38,0.38,0,0,1,.29-0.48l7-1.69a0.74,0.74,0,0,1,.76.23L197.53,36l0.19,0-3.16-13a0.38,0.38,0,0,1,.29-0.48l6.57-1.6a0.38,0.38,0,0,1,.48.29l6.23,25.65a0.38,0.38,0,0,1-.29.48l-7,1.69a0.74,0.74,0,0,1-.75-0.23l-9.42-11.5-0.23.06,3.16,13a0.38,0.38,0,0,1-.29.48l-6.57,1.6a0.38,0.38,0,0,1-.48-0.3Z" transform="translate(-23.71 1)" fill="#00cdbd"/><path d="M220.29,44.28a0.38,0.38,0,0,1-.48-0.3l-2.3-9.48L205.38,20.37a0.28,0.28,0,0,1,.17-0.49l7.34-1.78a0.71,0.71,0,0,1,.76.23l6.05,7.3,0.12,0,1.91-9.23a0.67,0.67,0,0,1,.57-0.55L229.57,14a0.28,0.28,0,0,1,.38.36l-4.28,18.12L228,42a0.38,0.38,0,0,1-.29.48Z" transform="translate(-23.71 1)" fill="#00cdbd"/><path d="M313.68,18.28a0.38,0.38,0,0,1,.48-0.3l11.33,2.64c6.08,1.42,8.17,4.94,7.2,9.11A6.34,6.34,0,0,1,328,34.68l0,0.08a6.53,6.53,0,0,1,2.39,7c-1.19,5.1-5.65,6.61-11.06,5.35L308,44.47a0.38,0.38,0,0,1-.3-0.48Zm3.66,22.21,1.71,0.4c1.91,0.44,2.95-.13,3.37-2,0.38-1.64-.26-2.77-2.17-3.21l-1.71-.4a0.21,0.21,0,0,0-.29.18l-1.1,4.71A0.21,0.21,0,0,0,317.33,40.49ZM321,30.54c1.91,0.44,2.94.07,3.34-1.65s-0.28-2.49-2.27-3l-1.29-.3a0.21,0.21,0,0,0-.29.18l-1,4.13a0.21,0.21,0,0,0,.18.29Z" transform="translate(-23.71 1)" fill="#00cdbd"/><path d="M345.38,53.18a0.54,0.54,0,0,1-.49-0.53l-1.47-9-1.36-.32a0.21,0.21,0,0,0-.29.18l-1.87,8a0.38,0.38,0,0,1-.48.3l-7.36-1.71a0.38,0.38,0,0,1-.3-0.48l6-25.71a0.38,0.38,0,0,1,.48-0.3l11.06,2.58c6.82,1.59,9.33,6.12,8.13,11.3A8.39,8.39,0,0,1,351.72,44l2.18,10.73a0.3,0.3,0,0,1-.37.37Zm3.83-17.5c0.33-1.4-.37-2.47-2.12-2.88l-2.45-.57a0.21,0.21,0,0,0-.29.18l-0.94,4.05a0.21,0.21,0,0,0,.18.29L346,37.32C347.79,37.73,348.89,37.08,349.22,35.68Z" transform="translate(-23.71 1)" fill="#00cdbd"/><path d="M362.49,29.65a0.38,0.38,0,0,1,.48-0.3l7.4,1.72a0.38,0.38,0,0,1,.3.48l-6,25.71a0.38,0.38,0,0,1-.48.3l-7.4-1.72a0.38,0.38,0,0,1-.3-0.48Z" transform="translate(-23.71 1)" fill="#00cdbd"/><path d="M370.56,45.08A21.39,21.39,0,0,1,373,38.15c2.48-4.1,7-5.3,11.78-4.2s7.64,3.87,8.5,7.93a0.44,0.44,0,0,1-.35.62l-6.68,1.16a0.5,0.5,0,0,1-.62-0.31,3,3,0,0,0-2.5-2.14,2.51,2.51,0,0,0-2.93,1.12c-0.47.79-.77,1.88-1.42,4.68a17.44,17.44,0,0,0-.77,4.87,2.66,2.66,0,0,0,2.38,2.32c1.4,0.33,2.5,0,3-.78a2.28,2.28,0,0,0,.28-0.67,0.23,0.23,0,0,0-.17-0.33l-2-.47a0.38,0.38,0,0,1-.3-0.48l1.19-5.1a0.38,0.38,0,0,1,.48-0.3l9.85,2.3a0.38,0.38,0,0,1,.3.48l-0.43,1.83a20.13,20.13,0,0,1-2.22,6.18c-2.54,4.21-7,5.69-11.94,4.53-4.75-1.11-8.3-4.19-8.71-9A21.39,21.39,0,0,1,370.56,45.08Z" transform="translate(-23.71 1)" fill="#00cdbd"/><path d="M398.56,38.06a0.38,0.38,0,0,1,.48-0.3l7.4,1.72a0.38,0.38,0,0,1,.3.48l-2,8.76a0.21,0.21,0,0,0,.18.29l5.49,1.28a0.21,0.21,0,0,0,.29-0.18l2-8.76a0.38,0.38,0,0,1,.48-0.3l7.4,1.72a0.38,0.38,0,0,1,.3.48l-6,25.71a0.38,0.38,0,0,1-.48.3L407,67.54a0.38,0.38,0,0,1-.3-0.48l2.15-9.23a0.21,0.21,0,0,0-.18-0.29l-5.49-1.28a0.21,0.21,0,0,0-.29.18l-2.15,9.23a0.38,0.38,0,0,1-.48.3l-7.4-1.72a0.38,0.38,0,0,1-.3-0.48Z" transform="translate(-23.71 1)" fill="#00cdbd"/><path d="M424,71.5a0.38,0.38,0,0,1-.3-0.48l4.34-18.62a0.21,0.21,0,0,0-.18-0.29l-6.27-1.46a0.38,0.38,0,0,1-.3-0.48l1.51-6.47a0.38,0.38,0,0,1,.48-0.3l21.19,4.94a0.38,0.38,0,0,1,.3.48l-1.51,6.47a0.38,0.38,0,0,1-.48.3l-6.27-1.46a0.21,0.21,0,0,0-.29.18l-4.34,18.62a0.38,0.38,0,0,1-.48.3Z" transform="translate(-23.71 1)" fill="#00cdbd"/><path d="M287.2,37.76l2.54-2.47c3.79-3.33,9.27-8.39,12.49-11.62,0.1-.1,0-0.21-0.24-0.32l0.15-.14-1-.15c-2.6-.7-8.93-1.5-11.39-1.88-5.15-.79-8.33-2-10.56-4L273.8,6.24c-0.2-.66-0.62-1.49-0.83-2.2,0.2-.36.63-0.59,0.83-0.95a2.72,2.72,0,0,0-2.45-4c-1.75-.13-4,1-3.68,3.23,0.06,0.39.73,1,.8,1.4a20.19,20.19,0,0,0-2.25,5.69,18.58,18.58,0,0,1-.54,1.94L262.41,18a12.45,12.45,0,0,1-.93,1.17c-2.26,2.45-7.83.78-11,1.27l-10.76,1.65c-2.08.32-.85,2.13,0.49,3.08q3.2,2.27,6.53,4.75l8.08,7.88c0.09,1.06-.07,2.39-0.12,4.37,0,0.16,0,.36,0,0.58l-1.26,7.35c-0.83,3.35-2.5,5.93-3.5,9.25-0.63,2.11.7,3.4,2.55,2.31a91.65,91.65,0,0,0,10-7,28.66,28.66,0,0,1,5.07-3.08l0.07-.12,1.81-1a3.22,3.22,0,0,1,1,.93L271,51.83c3.21,2.22,17.14,8,21,8.58,1.75,0.25-3.26-13-4.25-16.12l-0.31-1L286.68,39A3.16,3.16,0,0,1,287.2,37.76Z" transform="translate(-23.71 1)" fill="#e64d61"/><line x1="63.86" y1="29" x2="108.53" y2="35" fill="#e64d61" stroke="#e64d61" stroke-linecap="round" stroke-miterlimit="10" stroke-width="2"/><line x1="99.86" y1="11.67" x2="148.53" y2="24.33" fill="#e64d61" stroke="#e64d61" stroke-linecap="round" stroke-miterlimit="10" stroke-width="2"/><line x1="149.86" y1="6.33" x2="176.53" y2="17" fill="#e64d61" stroke="#e64d61" stroke-linecap="round" stroke-miterlimit="10" stroke-width="2"/><line x1="184.53" y1="2.33" x2="205.19" y2="13.67" fill="#e64d61" stroke="#e64d61" stroke-linecap="round" stroke-miterlimit="10" stroke-width="2"/><line x1="211.19" y1="1" x2="229.19" y2="12.33" fill="#e64d61" stroke="#e64d61" stroke-linecap="round" stroke-miterlimit="10" stroke-width="2"/><line x1="267.86" y1="12.33" x2="285.86" y2="1" fill="#e64d61" stroke="#e64d61" stroke-linecap="round" stroke-miterlimit="10" stroke-width="2"/><line x1="289.19" y1="13" x2="314.53" y2="3.67" fill="#e64d61" stroke="#e64d61" stroke-linecap="round" stroke-miterlimit="10" stroke-width="2"/><line x1="318.53" y1="15.67" x2="347.86" y2="6.33" fill="#e64d61" stroke="#e64d61" stroke-linecap="round" stroke-miterlimit="10" stroke-width="2"/><line x1="355.19" y1="23.67" x2="395.86" y2="12.33" fill="#e64d61" stroke="#e64d61" stroke-linecap="round" stroke-miterlimit="10" stroke-width="2"/><line x1="391.86" y1="36.33" x2="429.86" y2="31" fill="#e64d61" stroke="#e64d61" stroke-linecap="round" stroke-miterlimit="10" stroke-width="2"/><line x1="178.53" y1="56.33" x2="93.86" y2="85" fill="#e64d61" stroke="#e64d61" stroke-linecap="round" stroke-miterlimit="10" stroke-width="2"/><line x1="203.19" y1="53" x2="137.19" y2="85" fill="#e64d61" stroke="#e64d61" stroke-linecap="round" stroke-miterlimit="10" stroke-width="2"/><line x1="179.19" y1="80.33" x2="220.53" y2="53" fill="#e64d61" stroke="#e64d61" stroke-linecap="round" stroke-miterlimit="10" stroke-width="2"/><line x1="222.53" y1="59" x2="208.53" y2="73" fill="#e64d61" stroke="#e64d61" stroke-linecap="round" stroke-miterlimit="10" stroke-width="2"/><line x1="269.86" y1="57.67" x2="283.19" y2="70.33" fill="#e64d61" stroke="#e64d61" stroke-linecap="round" stroke-miterlimit="10" stroke-width="2"/><line x1="275.19" y1="52.33" x2="317.19" y2="82.33" fill="#e64d61" stroke="#e64d61" stroke-linecap="round" stroke-miterlimit="10" stroke-width="2"/><line x1="284.53" y1="52.33" x2="355.86" y2="85" fill="#e64d61" stroke="#e64d61" stroke-linecap="round" stroke-miterlimit="10" stroke-width="2"/><line x1="317.19" y1="57" x2="404.53" y2="88.33" fill="#e64d61" stroke="#e64d61" stroke-linecap="round" stroke-miterlimit="10" stroke-width="2"/><path d="M267.23,4.5c-1.29,2.73-.71,1.43-2,4.17a34.47,34.47,0,0,1-4.33,7c-4.54,5.62-14.54,4.77-21.33,5.33-1,.08-2.5,1.68-1.71,2.41,2.68,2.48,5.42,4.91,8.27,7.22s8.18,4.78,8,8.74c-0.15,2.81-2.32,6.26-3.31,8.93l-4,10.91c-0.51,1.37,1.84,2,2.34.6l5.15-13.89c1-2.56,3.55-6.58,2.51-9.32-0.81-2.13-3.69-3.51-5.43-4.84-3.43-2.62-6.7-5.39-9.88-8.26,3.85-.32,7.12-0.68,11-1,2.57-.22,6.31-0.09,8.46-1.68,2.31-1.71,3.27-5.1,4.39-7.45,1.94-4.1,1.72-4.4,3.16-8.7C268.73,3.67,267.85,3.18,267.23,4.5Z" transform="translate(-23.71 1)" fill="#fef0ed" stroke="#fef0ed" stroke-miterlimit="10"/></svg>