<svg xmlns="http://www.w3.org/2000/svg" viewBox="0 0 835.33 181.23"><title>wreaths</title><g style="isolation:isolate"><g id="Layer_1" data-name="Layer 1"><path d="M262.82,140.2c1.35-2.42-1.52-4.62-3.45-3.6q0.94-2.19,1.68-4.48c0.56-1.75-.92-3.09-2.49-3.27a2.75,2.75,0,0,1-1.84-1.24,38,38,0,0,0,.7-20.8c-0.5-2-2.89-2.3-4.31-1.14a10.72,10.72,0,0,0-1.63,1.65l-1.79-7.71a2.59,2.59,0,0,0-3.17-1.8l-1,.4L245.29,90a2.65,2.65,0,0,0-2.58-2.58c-6.37-.63-11.77-7.23-16.26-11.26q-7.77-7-15.52-14a2.61,2.61,0,0,0-4.31,1.14c-1.42,4.6-11.13-1-13.74-1.72-3.19-.84-6.48-0.86-9,0.64l-1.41-.06c-3.22-2-7.61-1.69-11.61-.85A10.39,10.39,0,0,1,167,58.2a2.57,2.57,0,0,0-3.13-.4q-6.58,4.89-13.59,9.15a2.41,2.41,0,0,0-1.18,1.62c-1.22.53-2.43,1.09-3.61,1.69a8.06,8.06,0,0,0-4.2.35,11.47,11.47,0,0,0-3.8,2.61c-1.05,1-2,2.13-3.39,2.57a21.24,21.24,0,0,1-3.24.23c-3.06.43-5,2.34-6.27,5.08-0.54,1.18-.92,3.27-1.66,4.87a2.54,2.54,0,0,0-1.42.69L108.75,98.4c-1.78,1.65-.13,4.47,1.9,4.43l0,0.06a1.74,1.74,0,0,1-1,.8c-0.5.32-1.09,0.54-1.61,0.82a11.1,11.1,0,0,0-3.43,2.61,10.41,10.41,0,0,0-2.15,6.39c-0.17,4,2.67,10.79-1,13.72-1.4,1.13-.69,3.2.52,4.05l1.79,1.26c0,0.44-.06.89-0.08,1.34a23.91,23.91,0,0,0-5,12.08c-0.28,2.18,2.34,2.89,3.88,2.23,1.11-.48,2.59,12.51,2.72,13.62l1.95,16.48a2.66,2.66,0,0,0,1.89,2.49,12.05,12.05,0,0,1,10.07,10.17c0.4,3.24,5.52,3.32,5.16,0a0.23,0.23,0,0,1,.1-0.2q1.1,1.16,2.25,2.27l0,0.22c0.21,2.26-.46,4.51-0.39,6.77,0.11,3.41,1.35,7,4.69,8.46,1.38,0.6,3.45.27,3.79-1.54l0-.19a19.46,19.46,0,0,0,5.5,4.4,2.61,2.61,0,0,0,3.88-2.23c0-1.4,1-2,2.23-2.07q2,1,4,1.79l0.27,0.33a2.91,2.91,0,0,0,1.16,1.87c0.6,1.18,1.06,2.44,1.49,3.53,0.83,2.14,4.42,2.75,5,0a8.35,8.35,0,0,0,.17-1.87c4.81,1.95,9,5.67,13.87,7.53,5.54,2.14,11.79,2.31,16.4-1.86a2.38,2.38,0,0,0,.73-2,110.16,110.16,0,0,0,15.42-3.27,5.18,5.18,0,0,0,6.88,2.44,4.61,4.61,0,0,0,2.14-2.5c8.47-1.27,16-7.59,17.89-16.3a2.61,2.61,0,0,0-.33-1.85,2.08,2.08,0,0,0,1.88-.32,53,53,0,0,0,4.57-3.68l3.79-3.07a2.08,2.08,0,0,0,.82-1.67,50.48,50.48,0,0,0,4.64-6.38,11,11,0,0,0,4.59-9.74,40.55,40.55,0,0,0,4-9.22c2.09-2,2.69-5.84-.74-6.66,0.72-1.43,1.58-2.81,2.36-4.2ZM186.89,90.36a3.08,3.08,0,0,0,2.55,1.9l0.13,0a20.87,20.87,0,0,0,3.21,4.32,2.81,2.81,0,0,0,1.79,3.91,19.44,19.44,0,0,0,8.45.14c2.43-.38,6-1.41,8.3.19s1.06,4.84,1.15,7.11a8,8,0,0,0,2.32,5.64,2.91,2.91,0,0,0,4.49-.57,6.14,6.14,0,0,1,.57-0.91,23.1,23.1,0,0,0,1.18,4.24,3,3,0,0,0,2.76,2.07l2.78,0.06c0,0.3.06,0.61,0.09,0.91l0,0.29c-0.82,1.59-2.38,4.16-2.55,4.73a9.89,9.89,0,0,0,.71,7c0.07,0.16.36,0.63,0.77,1.29a40.36,40.36,0,0,1-4,9.77c-0.81,1.42-.18,3.86,1.71,4.14L225.8,147a2.94,2.94,0,0,0,2,2.06,2.76,2.76,0,0,0-.31.39l-7.84,12.14-0.42.1a2.82,2.82,0,0,0-2,2,6,6,0,0,0-.25,2.06l-3.74,5.79-0.17.06c-3.66,1.51-5.45,4.51-6.84,8-0.19.47-.37,1-0.55,1.45l-0.19,0c-3.6-.57-7.45,1.88-10.37,3.62a23.5,23.5,0,0,1-4.91,2.6c-2.07.63-3.08-.17-4.57-1.46-2.45-2.11-5.07-3.41-8.28-2-1.67.73-3.31,2.9-5,4.05a6.41,6.41,0,0,0-3.27-2.77c-2.6-1-4.83-.11-7.14.75a27.5,27.5,0,0,1-7-7.79,2.91,2.91,0,0,0-3.23-1.29,7.93,7.93,0,0,1-3.59.77c-2-.29-1-0.62-0.41-2.21a5.91,5.91,0,0,0-.4-5.8c-2.54-3.53-8.89-2.3-10.89-5.73-0.73-1.26-.54-3-0.91-4.39a11.89,11.89,0,0,0-1.7-3.53c-0.7-1-2.08-2.17-2.45-3.34-0.53-1.65.68-1.75,1.83-2.91,3.74-3.79.76-8.11-2.86-10.59q1.74-4.1,3.25-8.29a15.71,15.71,0,0,0,3.25-3.45c1.45-2.36,2.2-5.48,1.11-8.12a6,6,0,0,0-2.36-2.8c-0.17-.11-0.8-0.31-1.28-0.51q0.57-1.06,1.19-2.09l0.11-.07c4.32-2.88,8.76-5.59,13.14-8.38,2.54-1.62,1-5.21-1.3-5.32a52.47,52.47,0,0,1,4.34-3.15,6.36,6.36,0,0,1,4,2.35,2.89,2.89,0,0,0,3.46.44l13.22-8.43a17.43,17.43,0,0,0,3.66,5.4,2.94,2.94,0,0,0,4,0Zm-28,6.7-0.22-.18c0.55-.27,1.11-0.51,1.67-0.76ZM209.6,68l0.72,0.65-1-.43Zm-36.78,146.6-1.17-.58,1.21,0.11A2.65,2.65,0,0,0,172.82,214.57Z" transform="translate(-25.99 -40.27)" fill="#00cdbd"/><path d="M131.87,165.38c-3.32,0-3.33,5.16,0,5.16S135.19,165.38,131.87,165.38Z" transform="translate(-25.99 -40.27)" fill="#f99da0"/><path d="M125.42,160.22c-3.32,0-3.33,5.16,0,5.16S128.74,160.22,125.42,160.22Z" transform="translate(-25.99 -40.27)" fill="#f99da0"/><path d="M124.13,166.67c-3.32,0-3.33,5.16,0,5.16S127.45,166.67,124.13,166.67Z" transform="translate(-25.99 -40.27)" fill="#f99da0"/><path d="M241.53,121.52c-3.32,0-3.33,5.16,0,5.16S244.86,121.52,241.53,121.52Z" transform="translate(-25.99 -40.27)" fill="#f99da0"/><path d="M237.66,128c-3.32,0-3.33,5.16,0,5.16S241,128,237.66,128Z" transform="translate(-25.99 -40.27)" fill="#f99da0"/><path d="M246.69,128c-3.32,0-3.33,5.16,0,5.16S250,128,246.69,128Z" transform="translate(-25.99 -40.27)" fill="#f99da0"/><path d="M217,191.19c-2.76-1.84-5.63,2.45-2.86,4.29S219.82,193,217,191.19Z" transform="translate(-25.99 -40.27)" fill="#f99da0"/><path d="M210.61,196.2c-2.76-1.84-5.63,2.45-2.86,4.29S213.38,198,210.61,196.2Z" transform="translate(-25.99 -40.27)" fill="#f99da0"/><path d="M218.84,200.14c-2.76-1.84-5.63,2.45-2.86,4.29S221.61,202,218.84,200.14Z" transform="translate(-25.99 -40.27)" fill="#f99da0"/><path d="M218,200.57c-2.76-1.84-5.63,2.45-2.86,4.29S220.75,202.41,218,200.57Z" transform="translate(-25.99 -40.27)" fill="#e64d61" style="mix-blend-mode:darken"/><path d="M239.45,128c-2.76-1.84-5.63,2.45-2.86,4.29S242.21,129.82,239.45,128Z" transform="translate(-25.99 -40.27)" fill="#e64d61" style="mix-blend-mode:darken"/><path d="M243.1,122.17c-2.76-1.84-5.63,2.45-2.86,4.29S245.87,124,243.1,122.17Z" transform="translate(-25.99 -40.27)" fill="#e64d61" style="mix-blend-mode:darken"/><path d="M248.69,128.62c-2.76-1.84-5.63,2.45-2.86,4.29S251.46,130.46,248.69,128.62Z" transform="translate(-25.99 -40.27)" fill="#e64d61" style="mix-blend-mode:darken"/><path d="M132.8,165.39c-2.76-1.84-5.63,2.45-2.86,4.29S135.56,167.23,132.8,165.39Z" transform="translate(-25.99 -40.27)" fill="#e64d61" style="mix-blend-mode:darken"/><path d="M126.56,160c-2.76-1.84-5.63,2.45-2.86,4.29S129.33,161.86,126.56,160Z" transform="translate(-25.99 -40.27)" fill="#e64d61" style="mix-blend-mode:darken"/><path d="M126.13,167.32c-2.76-1.84-5.63,2.45-2.86,4.29S128.9,169.17,126.13,167.32Z" transform="translate(-25.99 -40.27)" fill="#e64d61" style="mix-blend-mode:darken"/><path d="M210.42,196.57c-2.76-1.84-5.63,2.45-2.86,4.29S213.19,198.41,210.42,196.57Z" transform="translate(-25.99 -40.27)" fill="#e64d61" style="mix-blend-mode:darken"/><path d="M217.3,191c-2.76-1.84-5.63,2.45-2.86,4.29S220.07,192.82,217.3,191Z" transform="translate(-25.99 -40.27)" fill="#e64d61" style="mix-blend-mode:darken"/><path d="M205.68,127c-3.82-2.59-6.18-6.77-8.34-10.74a100.15,100.15,0,0,1-6.07-13.53c-2.07-5.65-3.76-11.42-5.31-17.24,2.28,1.73,26.48,19.43,29.25,26.89,0.84,2.28,5.32,1.94,4.43-.6-6.92-19.93-8.86-38.63-.47-62.5,0.6-1.71-2.55-3.16-3.85-1.6-7,8.39-26.28,17.19-33.25,25.58a2.49,2.49,0,0,0-.39-0.27c-11-6-28.75-13.9-36.44-23.81-0.92-1.18-4-.78-3.55.46,5.88,17.05,5.88,48.66-.36,62.64-0.82,1.83,2.41,2.92,3.85,1.6,4.76-4.34,28-22.92,31.53-27.12C173.44,99.9,164,109,156,120.08a2.18,2.18,0,0,0,0,2.28c3.1,4.22,6.16,8.46,7.6,13.56,0.66,2.34,3.54,1.93,4.35,0,4.36-10.4,11.53-34.59,13.76-45.58,0.81,5,1.75,26.71,2.95,31.66,0.78,3.22,1.6,6.42,2.44,9.62,0.51,2,.88,4.14,2.79,5.22,2.09,1.18,4.26.16,6.18-.83,3.21-1.66,6.38-3.41,9.57-5.11A2.28,2.28,0,0,0,205.68,127Z" transform="translate(-25.99 -40.27)" fill="#e64d61"/><path d="M187.32,73.56a3.57,3.57,0,0,0-.89-2.57h0c-1.37-2.56-4.74-4.9-8.16-3.46a4.78,4.78,0,0,0-2.94,4.68c-0.63,2.8-.61,5.7,1.6,8.06,2,2.13,6,3.27,8.37.9A8.59,8.59,0,0,0,187.32,73.56Z" transform="translate(-25.99 -40.27)" fill="#e64d61"/><path d="M534.32,136.47c1.35-2.42-1.52-4.62-3.45-3.6q0.94-2.19,1.68-4.48c0.56-1.75-.92-3.09-2.49-3.27a2.75,2.75,0,0,1-1.84-1.24,38,38,0,0,0,.7-20.8c-0.5-2-2.89-2.3-4.31-1.14a10.72,10.72,0,0,0-1.63,1.65l-1.79-7.71a2.59,2.59,0,0,0-3.17-1.8l-1,.4-0.2-8.17a2.65,2.65,0,0,0-2.58-2.58c-6.37-.63-11.77-7.23-16.26-11.26q-7.77-7-15.52-14a2.61,2.61,0,0,0-4.31,1.14c-1.42,4.6-11.13-1-13.74-1.72-3.19-.84-6.48-0.86-9,0.64L454,58.5c-3.22-2-7.61-1.69-11.61-.85a10.39,10.39,0,0,1-3.92-3.18,2.57,2.57,0,0,0-3.13-.4q-6.58,4.89-13.59,9.15a2.41,2.41,0,0,0-1.18,1.62c-1.22.53-2.43,1.09-3.61,1.69a8.06,8.06,0,0,0-4.2.35,11.47,11.47,0,0,0-3.8,2.61c-1.05,1-2,2.13-3.39,2.57a21.24,21.24,0,0,1-3.24.23c-3.06.43-5,2.34-6.27,5.08-0.54,1.18-.92,3.27-1.66,4.87a2.54,2.54,0,0,0-1.42.69L380.24,94.67c-1.78,1.65-.13,4.47,1.9,4.43l0,0.06a1.74,1.74,0,0,1-1,.8c-0.5.32-1.09,0.54-1.61,0.82a11.1,11.1,0,0,0-3.43,2.61,10.41,10.41,0,0,0-2.15,6.39c-0.17,4,2.67,10.79-1,13.72-1.4,1.13-.69,3.2.52,4.05l1.79,1.26c0,0.44-.06.89-0.08,1.34a23.91,23.91,0,0,0-5,12.08c-0.28,2.18,2.34,2.89,3.88,2.23,1.11-.48,2.59,12.51,2.72,13.62l1.95,16.48A2.66,2.66,0,0,0,380.6,177a12.05,12.05,0,0,1,10.07,10.17c0.4,3.24,5.52,3.32,5.16,0a0.23,0.23,0,0,1,.1-0.2q1.1,1.16,2.25,2.27l0,0.22c0.21,2.26-.46,4.51-0.39,6.77,0.11,3.41,1.35,7,4.69,8.46,1.38,0.6,3.45.27,3.79-1.54l0-.19a19.46,19.46,0,0,0,5.5,4.4,2.61,2.61,0,0,0,3.88-2.23c0-1.4,1-2,2.23-2.07q2,1,4,1.79l0.27,0.33a2.91,2.91,0,0,0,1.16,1.87c0.6,1.18,1.06,2.44,1.49,3.53,0.83,2.14,4.42,2.75,5,0a8.35,8.35,0,0,0,.17-1.87c4.81,1.95,9,5.67,13.87,7.53,5.54,2.14,11.79,2.31,16.4-1.86a2.38,2.38,0,0,0,.73-2,110.16,110.16,0,0,0,15.42-3.27,5.18,5.18,0,0,0,6.88,2.44,4.61,4.61,0,0,0,2.14-2.5c8.47-1.27,16-7.59,17.89-16.3A2.61,2.61,0,0,0,503,191a2.08,2.08,0,0,0,1.88-.32,53,53,0,0,0,4.57-3.68l3.79-3.07a2.08,2.08,0,0,0,.82-1.67,50.48,50.48,0,0,0,4.64-6.38,11,11,0,0,0,4.59-9.74,40.55,40.55,0,0,0,4-9.22c2.09-2,2.69-5.84-.74-6.66,0.72-1.43,1.58-2.81,2.36-4.2ZM458.39,86.62a3.08,3.08,0,0,0,2.55,1.9l0.13,0a20.87,20.87,0,0,0,3.21,4.32,2.81,2.81,0,0,0,1.79,3.91,19.44,19.44,0,0,0,8.45.14c2.43-.38,6-1.41,8.3.19s1.06,4.84,1.15,7.11a8,8,0,0,0,2.32,5.64,2.91,2.91,0,0,0,4.49-.57,6.14,6.14,0,0,1,.57-0.91,23.1,23.1,0,0,0,1.18,4.24,3,3,0,0,0,2.76,2.07l2.78,0.06c0,0.3.06,0.61,0.09,0.91l0,0.29c-0.82,1.59-2.38,4.16-2.55,4.73a9.89,9.89,0,0,0,.71,7c0.07,0.16.36,0.63,0.77,1.29a40.36,40.36,0,0,1-4,9.77c-0.81,1.42-.18,3.86,1.71,4.14l2.53,0.37a2.94,2.94,0,0,0,2,2.06,2.76,2.76,0,0,0-.31.39l-7.84,12.14-0.42.1a2.82,2.82,0,0,0-2,2,6,6,0,0,0-.25,2.06l-3.74,5.79-0.17.06c-3.66,1.51-5.45,4.51-6.84,8-0.19.47-.37,1-0.55,1.45l-0.19,0c-3.6-.57-7.45,1.88-10.37,3.62a23.5,23.5,0,0,1-4.91,2.6c-2.07.63-3.08-.17-4.57-1.46-2.45-2.11-5.07-3.41-8.28-2-1.67.73-3.31,2.9-5,4.05a6.41,6.41,0,0,0-3.27-2.77c-2.6-1-4.83-.11-7.14.75a27.5,27.5,0,0,1-7-7.79,2.91,2.91,0,0,0-3.23-1.29,7.93,7.93,0,0,1-3.59.77c-2-.29-1-0.62-0.41-2.21a5.91,5.91,0,0,0-.4-5.8c-2.54-3.53-8.89-2.3-10.89-5.73-0.73-1.26-.54-3-0.91-4.39a11.89,11.89,0,0,0-1.7-3.53c-0.7-1-2.08-2.17-2.45-3.34-0.53-1.65.68-1.75,1.83-2.91,3.74-3.79.76-8.11-2.86-10.59q1.74-4.1,3.25-8.29a15.71,15.71,0,0,0,3.25-3.45c1.45-2.36,2.2-5.48,1.11-8.12a6,6,0,0,0-2.36-2.8c-0.17-.11-0.8-0.31-1.28-0.51q0.57-1.06,1.19-2.09l0.11-.07c4.32-2.88,8.76-5.59,13.14-8.38,2.54-1.62,1-5.21-1.3-5.32A52.47,52.47,0,0,1,423.32,93a6.36,6.36,0,0,1,4,2.35,2.89,2.89,0,0,0,3.46.44L444,87.32a17.43,17.43,0,0,0,3.66,5.4,2.94,2.94,0,0,0,4,0Zm-28,6.7-0.22-.18c0.55-.27,1.11-0.51,1.67-0.76Zm50.66-29.08,0.72,0.65-1-.43Zm-36.78,146.6-1.17-.58,1.21,0.11A2.65,2.65,0,0,0,444.32,210.84Z" transform="translate(-25.99 -40.27)" fill="#00cdbd"/><path d="M403.36,161.65c-3.32,0-3.33,5.16,0,5.16S406.69,161.65,403.36,161.65Z" transform="translate(-25.99 -40.27)" fill="#f99da0"/><path d="M396.91,156.49c-3.32,0-3.33,5.16,0,5.16S400.24,156.49,396.91,156.49Z" transform="translate(-25.99 -40.27)" fill="#f99da0"/><path d="M395.62,162.94c-3.32,0-3.33,5.16,0,5.16S398.95,162.94,395.62,162.94Z" transform="translate(-25.99 -40.27)" fill="#f99da0"/><path d="M513,117.78c-3.32,0-3.33,5.16,0,5.16S516.35,117.78,513,117.78Z" transform="translate(-25.99 -40.27)" fill="#f99da0"/><path d="M509.15,124.23c-3.32,0-3.33,5.16,0,5.16S512.48,124.23,509.15,124.23Z" transform="translate(-25.99 -40.27)" fill="#f99da0"/><path d="M518.18,124.23c-3.32,0-3.33,5.16,0,5.16S521.51,124.23,518.18,124.23Z" transform="translate(-25.99 -40.27)" fill="#f99da0"/><path d="M488.54,187.46c-2.76-1.84-5.63,2.45-2.86,4.29S491.31,189.3,488.54,187.46Z" transform="translate(-25.99 -40.27)" fill="#f99da0"/><path d="M482.1,192.47c-2.76-1.84-5.63,2.45-2.86,4.29S484.87,194.31,482.1,192.47Z" transform="translate(-25.99 -40.27)" fill="#f99da0"/><path d="M490.33,196.4c-2.76-1.84-5.63,2.45-2.86,4.29S493.1,198.25,490.33,196.4Z" transform="translate(-25.99 -40.27)" fill="#f99da0"/><path d="M489.47,196.83c-2.76-1.84-5.63,2.45-2.86,4.29S492.24,198.68,489.47,196.83Z" transform="translate(-25.99 -40.27)" fill="#e64d61" style="mix-blend-mode:darken"/><path d="M510.94,124.24c-2.76-1.84-5.63,2.45-2.86,4.29S513.71,126.08,510.94,124.24Z" transform="translate(-25.99 -40.27)" fill="#e64d61" style="mix-blend-mode:darken"/><path d="M514.6,118.43c-2.76-1.84-5.63,2.45-2.86,4.29S517.36,120.28,514.6,118.43Z" transform="translate(-25.99 -40.27)" fill="#e64d61" style="mix-blend-mode:darken"/><path d="M520.19,124.88c-2.76-1.84-5.63,2.45-2.86,4.29S523,126.73,520.19,124.88Z" transform="translate(-25.99 -40.27)" fill="#e64d61" style="mix-blend-mode:darken"/><path d="M404.29,161.65c-2.76-1.84-5.63,2.45-2.86,4.29S407.06,163.5,404.29,161.65Z" transform="translate(-25.99 -40.27)" fill="#e64d61" style="mix-blend-mode:darken"/><path d="M398.05,156.28c-2.76-1.84-5.63,2.45-2.86,4.29S400.82,158.12,398.05,156.28Z" transform="translate(-25.99 -40.27)" fill="#e64d61" style="mix-blend-mode:darken"/><path d="M397.62,163.59c-2.76-1.84-5.63,2.45-2.86,4.29S400.39,165.43,397.62,163.59Z" transform="translate(-25.99 -40.27)" fill="#e64d61" style="mix-blend-mode:darken"/><path d="M481.91,192.83c-2.76-1.84-5.63,2.45-2.86,4.29S484.68,194.68,481.91,192.83Z" transform="translate(-25.99 -40.27)" fill="#e64d61" style="mix-blend-mode:darken"/><path d="M488.79,187.24c-2.76-1.84-5.63,2.45-2.86,4.29S491.56,189.08,488.79,187.24Z" transform="translate(-25.99 -40.27)" fill="#e64d61" style="mix-blend-mode:darken"/><path d="M491.13,108c-6.92-19.93-8.86-38.63-.47-62.5,0.6-1.71-2.55-3.16-3.85-1.6-7,8.39-26.28,17.19-33.25,25.58a2.49,2.49,0,0,0-.39-0.27c-3.08-1.67-15.45-9.66-17.2-9.13-7.6-4.29-15-9.18-19.25-14.69-0.92-1.18-4-.78-3.55.46,2.36,6.85,5,10.41,5.46,19.87-20.42,11.87-46.81,32.4-68,43-30,15-52.07,14.89-91-13-13.53-9.69-28.08-21.36-40.87-32.07-3.54-3-18.88,3.8-16.39,5.88,25.22,21.12,86.39,61.84,118.27,58.19,35-4,47.25-18.06,76-38,6.84-4.75,13.43-7.47,20.9-11-0.08,11.65-1.63,22.88-4.72,29.79-0.82,1.83,2.41,2.92,3.85,1.6,4.76-4.34,28-22.92,31.53-27.12-3.27,13.15-12.72,22.26-20.67,33.33a2.18,2.18,0,0,0,0,2.28c3.1,4.22,6.16,8.46,7.6,13.56,0.66,2.34,3.54,1.93,4.35,0,4.36-10.4,11.53-34.59,13.76-45.58,0.81,5,1.75,26.71,2.95,31.66,0.78,3.22,1.6,6.42,2.44,9.62,0.51,2,.88,4.14,2.79,5.22,2.09,1.18,4.26.16,6.18-.83,3.21-1.66,6.38-3.41,9.57-5.11a2.28,2.28,0,0,0,0-3.9c-3.82-2.59-6.18-6.77-8.34-10.74A100.12,100.12,0,0,1,462.76,99c-2.07-5.65-3.76-11.42-5.31-17.24,2.28,1.73,26.48,19.43,29.25,26.89C487.54,110.92,492,110.58,491.13,108Z" transform="translate(-25.99 -40.27)" fill="#e64d61"/><path d="M458.82,69.83a3.57,3.57,0,0,0-.89-2.57h0c-1.37-2.56-4.74-4.9-8.16-3.46a4.78,4.78,0,0,0-2.94,4.68c-0.63,2.8-.61,5.7,1.6,8.06,2,2.13,6,3.27,8.37.9A8.59,8.59,0,0,0,458.82,69.83Z" transform="translate(-25.99 -40.27)" fill="#e64d61"/><path d="M805.66,133.47c1.35-2.42-1.52-4.62-3.45-3.6q0.94-2.19,1.68-4.48c0.56-1.75-.92-3.09-2.49-3.27a2.75,2.75,0,0,1-1.84-1.24,38,38,0,0,0,.7-20.8c-0.5-2-2.89-2.3-4.31-1.14a10.72,10.72,0,0,0-1.63,1.65l-1.79-7.71a2.59,2.59,0,0,0-3.17-1.8l-1,.4-0.2-8.17a2.65,2.65,0,0,0-2.58-2.58c-6.37-.63-11.77-7.23-16.26-11.26q-7.77-7-15.52-14a2.61,2.61,0,0,0-4.31,1.14c-1.42,4.6-11.13-1-13.74-1.72-3.19-.84-6.48-0.86-9,0.64l-1.41-.06c-3.22-2-7.61-1.69-11.61-.85a10.39,10.39,0,0,1-3.92-3.18,2.57,2.57,0,0,0-3.13-.4q-6.58,4.89-13.59,9.15a2.41,2.41,0,0,0-1.18,1.62c-1.22.53-2.43,1.09-3.61,1.69a8.06,8.06,0,0,0-4.2.35,11.47,11.47,0,0,0-3.8,2.61c-1.05,1-2,2.13-3.39,2.57a21.24,21.24,0,0,1-3.24.23c-3.06.43-5,2.34-6.27,5.08-0.54,1.18-.92,3.27-1.66,4.87a2.54,2.54,0,0,0-1.42.69L651.59,91.67c-1.78,1.65-.13,4.47,1.9,4.43l0,0.06a1.74,1.74,0,0,1-1,.8c-0.5.32-1.09,0.54-1.61,0.82a11.1,11.1,0,0,0-3.43,2.61,10.41,10.41,0,0,0-2.15,6.39c-0.17,4,2.67,10.79-1,13.72-1.4,1.13-.69,3.2.52,4.05l1.79,1.26c0,0.44-.06.89-0.08,1.34a23.91,23.91,0,0,0-5,12.08c-0.28,2.18,2.34,2.89,3.88,2.23,1.11-.48,2.59,12.51,2.72,13.62l1.95,16.48a2.66,2.66,0,0,0,1.89,2.49A12.05,12.05,0,0,1,662,184.21c0.4,3.24,5.52,3.32,5.16,0a0.23,0.23,0,0,1,.1-0.2q1.1,1.16,2.25,2.27l0,0.22c0.21,2.26-.46,4.51-0.39,6.77,0.11,3.41,1.35,7,4.69,8.46,1.38,0.6,3.45.27,3.79-1.54l0-.19a19.46,19.46,0,0,0,5.5,4.4,2.61,2.61,0,0,0,3.88-2.23c0-1.4,1-2,2.23-2.07q2,1,4,1.79l0.27,0.33a2.91,2.91,0,0,0,1.16,1.87c0.6,1.18,1.06,2.44,1.49,3.53,0.83,2.14,4.42,2.75,5,0a8.35,8.35,0,0,0,.17-1.87c4.81,1.95,9,5.67,13.87,7.53,5.54,2.14,11.79,2.31,16.4-1.86a2.38,2.38,0,0,0,.73-2,110.16,110.16,0,0,0,15.42-3.27,5.18,5.18,0,0,0,6.88,2.44,4.61,4.61,0,0,0,2.14-2.5c8.47-1.27,16-7.59,17.89-16.3a2.61,2.61,0,0,0-.33-1.85,2.08,2.08,0,0,0,1.88-.32,53,53,0,0,0,4.57-3.68l3.79-3.07a2.08,2.08,0,0,0,.82-1.67,50.48,50.48,0,0,0,4.64-6.38,11,11,0,0,0,4.59-9.74,40.55,40.55,0,0,0,4-9.22c2.09-2,2.69-5.84-.74-6.66,0.72-1.43,1.58-2.81,2.36-4.2ZM729.73,83.62a3.08,3.08,0,0,0,2.55,1.9l0.13,0a20.87,20.87,0,0,0,3.21,4.32,2.81,2.81,0,0,0,1.79,3.91,19.44,19.44,0,0,0,8.45.14c2.43-.38,6-1.41,8.3.19s1.06,4.84,1.15,7.11a8,8,0,0,0,2.32,5.64,2.91,2.91,0,0,0,4.49-.57,6.14,6.14,0,0,1,.57-0.91,23.1,23.1,0,0,0,1.18,4.24,3,3,0,0,0,2.76,2.07l2.78,0.06c0,0.3.06,0.61,0.09,0.91l0,0.29c-0.82,1.59-2.38,4.16-2.55,4.73a9.89,9.89,0,0,0,.71,7c0.07,0.16.36,0.63,0.77,1.29a40.36,40.36,0,0,1-4,9.77c-0.81,1.42-.18,3.86,1.71,4.14l2.53,0.37a2.94,2.94,0,0,0,2,2.06,2.76,2.76,0,0,0-.31.39l-7.84,12.14-0.42.1a2.82,2.82,0,0,0-2,2,6,6,0,0,0-.25,2.06l-3.74,5.79-0.17.06c-3.66,1.51-5.45,4.51-6.84,8-0.19.47-.37,1-0.55,1.45l-0.19,0c-3.6-.57-7.45,1.88-10.37,3.62a23.5,23.5,0,0,1-4.91,2.6c-2.07.63-3.08-.17-4.57-1.46-2.45-2.11-5.07-3.41-8.28-2-1.67.73-3.31,2.9-5,4.05a6.41,6.41,0,0,0-3.27-2.77c-2.6-1-4.83-.11-7.14.75a27.5,27.5,0,0,1-7-7.79,2.91,2.91,0,0,0-3.23-1.29,7.93,7.93,0,0,1-3.59.77c-2-.29-1-0.62-0.41-2.21a5.91,5.91,0,0,0-.4-5.8c-2.54-3.53-8.89-2.3-10.89-5.73-0.73-1.26-.54-3-0.91-4.39a11.89,11.89,0,0,0-1.7-3.53c-0.7-1-2.08-2.17-2.45-3.34-0.53-1.65.68-1.75,1.83-2.91,3.74-3.79.76-8.11-2.86-10.59q1.74-4.1,3.25-8.29a15.71,15.71,0,0,0,3.25-3.45c1.45-2.36,2.2-5.48,1.11-8.12a6,6,0,0,0-2.36-2.8c-0.17-.11-0.8-0.31-1.28-0.51q0.57-1.06,1.19-2.09l0.11-.07c4.32-2.88,8.76-5.59,13.14-8.38,2.54-1.62,1-5.21-1.3-5.32A52.47,52.47,0,0,1,694.67,90a6.36,6.36,0,0,1,4,2.35,2.89,2.89,0,0,0,3.46.44l13.22-8.43a17.43,17.43,0,0,0,3.66,5.4,2.94,2.94,0,0,0,4,0Zm-28,6.7-0.22-.18c0.55-.27,1.11-0.51,1.67-0.76Zm50.66-29.08,0.72,0.65-1-.43Z" transform="translate(-25.99 -40.27)" fill="#00cdbd"/><path d="M674.71,158.65c-3.32,0-3.33,5.16,0,5.16S678,158.65,674.71,158.65Z" transform="translate(-25.99 -40.27)" fill="#f99da0"/><path d="M668.26,153.49c-3.32,0-3.33,5.16,0,5.16S671.58,153.49,668.26,153.49Z" transform="translate(-25.99 -40.27)" fill="#f99da0"/><path d="M667,159.94c-3.32,0-3.33,5.16,0,5.16S670.29,159.94,667,159.94Z" transform="translate(-25.99 -40.27)" fill="#f99da0"/><path d="M784.37,114.78c-3.32,0-3.33,5.16,0,5.16S787.69,114.78,784.37,114.78Z" transform="translate(-25.99 -40.27)" fill="#f99da0"/><path d="M780.5,121.23c-3.32,0-3.33,5.16,0,5.16S783.82,121.23,780.5,121.23Z" transform="translate(-25.99 -40.27)" fill="#f99da0"/><path d="M789.53,121.23c-3.32,0-3.33,5.16,0,5.16S792.86,121.23,789.53,121.23Z" transform="translate(-25.99 -40.27)" fill="#f99da0"/><path d="M759.89,184.46c-2.76-1.84-5.63,2.45-2.86,4.29S762.66,186.3,759.89,184.46Z" transform="translate(-25.99 -40.27)" fill="#f99da0"/><path d="M753.45,189.47c-2.76-1.84-5.63,2.45-2.86,4.29S756.22,191.31,753.45,189.47Z" transform="translate(-25.99 -40.27)" fill="#f99da0"/><path d="M761.68,193.4c-2.76-1.84-5.63,2.45-2.86,4.29S764.45,195.25,761.68,193.4Z" transform="translate(-25.99 -40.27)" fill="#f99da0"/><path d="M760.82,193.83c-2.76-1.84-5.63,2.45-2.86,4.29S763.59,195.68,760.82,193.83Z" transform="translate(-25.99 -40.27)" fill="#e64d61" style="mix-blend-mode:darken"/><path d="M782.29,121.24c-2.76-1.84-5.63,2.45-2.86,4.29S785.05,123.08,782.29,121.24Z" transform="translate(-25.99 -40.27)" fill="#e64d61" style="mix-blend-mode:darken"/><path d="M785.94,115.43c-2.76-1.84-5.63,2.45-2.86,4.29S788.71,117.28,785.94,115.43Z" transform="translate(-25.99 -40.27)" fill="#e64d61" style="mix-blend-mode:darken"/><path d="M791.53,121.88c-2.76-1.84-5.63,2.45-2.86,4.29S794.3,123.73,791.53,121.88Z" transform="translate(-25.99 -40.27)" fill="#e64d61" style="mix-blend-mode:darken"/><path d="M675.63,158.65c-2.76-1.84-5.63,2.45-2.86,4.29S678.4,160.5,675.63,158.65Z" transform="translate(-25.99 -40.27)" fill="#e64d61" style="mix-blend-mode:darken"/><path d="M669.4,153.28c-2.76-1.84-5.63,2.45-2.86,4.29S672.17,155.12,669.4,153.28Z" transform="translate(-25.99 -40.27)" fill="#e64d61" style="mix-blend-mode:darken"/><path d="M669,160.59c-2.76-1.84-5.63,2.45-2.86,4.29S671.74,162.43,669,160.59Z" transform="translate(-25.99 -40.27)" fill="#e64d61" style="mix-blend-mode:darken"/><path d="M753.26,189.83c-2.76-1.84-5.63,2.45-2.86,4.29S756,191.68,753.26,189.83Z" transform="translate(-25.99 -40.27)" fill="#e64d61" style="mix-blend-mode:darken"/><path d="M760.14,184.24c-2.76-1.84-5.63,2.45-2.86,4.29S762.91,186.08,760.14,184.24Z" transform="translate(-25.99 -40.27)" fill="#e64d61" style="mix-blend-mode:darken"/><path d="M859.44,57.33c-3.2-2.23-9.56-1-12.4,1.3-8.39,6.89-16.94,14.15-26.71,19C809.61,83,798.82,83.55,787,82.41a170.72,170.72,0,0,1-30.47-5.52c-0.53-10.64,1-21.79,5.44-34.36,0.6-1.71-2.55-3.16-3.85-1.6-6,7.23-21.18,14.77-29.71,22.09a8.07,8.07,0,0,0-1-1c0.92-1.74-1-4.31-3.28-4.47-7-.5-5.75,2.75-6.5,5.25s-6.5-3.75-9-4.92c-8-4.46-16-9.59-20.53-15.4-0.92-1.18-4-.78-3.55.46,2.14,6.21,3.5,14.36,4.06,22.88-77.95,51-78.95,96-181.95,27-16.39-11-19.88-16.21-38-24-7.81-3.36-13.3,2.8-4,9,147,98,138.24,62.63,202.75,14.25,7-5.25,16.25-12.25,22.92-20.25-0.37,10.18-3.41,27.64-6.14,33.77-0.82,1.83,2.41,2.92,3.85,1.6,4.76-4.34,28-22.92,31.53-27.12-3.27,13.15-12.72,22.26-20.67,33.33a2.18,2.18,0,0,0,0,2.28c3.1,4.22,6.16,8.46,7.6,13.56,0.66,2.34,3.54,1.93,4.35,0,4.36-10.4,11.53-34.59,13.76-45.58,0.81,5,1.75,26.71,2.95,31.66,0.78,3.22,1.6,6.42,2.44,9.62,0.51,2,.88,4.14,2.79,5.22,2.09,1.18,4.26.16,6.18-.83,3.21-1.66,6.38-3.41,9.57-5.11a2.28,2.28,0,0,0,0-3.9c-3.82-2.59-6.18-6.77-8.34-10.74A100.15,100.15,0,0,1,734.11,96c-1.71-4.67-3.16-9.42-4.48-14.21q3.34,1.48,6.77,2.76c8.07,6.3,19.77,16.05,21.64,21.11,0.84,2.28,5.32,1.94,4.43-.6a119.61,119.61,0,0,1-4.07-14.32,208.93,208.93,0,0,0,26,3.47c14.18,1.05,28.07-.57,41.08-6.54,12.11-5.56,22.57-13.87,32.81-22.27C860.9,63.2,863,59.8,859.44,57.33Z" transform="translate(-25.99 -40.27)" fill="#e64d61"/><path d="M172.14,67.27C164,63.66,155.39,58.15,146,48.9c-0.45-.45-2.12-0.25-2.12-0.25,7.47,9.24,30.88,22.13,31.88,21.63S174.39,68.27,172.14,67.27Z" transform="translate(-25.99 -40.27)" fill="#fef0ed"/><path d="M213.26,48.77C201.17,59.93,195,60.6,188.39,67.27c-1.5,1.46-2.95,2.35-2.67,2.83,0.58,1,1.5-.17,3.33-1.83,8.76-8,21.21-13,27.83-21.12C217.14,46.84,214.89,47.27,213.26,48.77Z" transform="translate(-25.99 -40.27)" fill="#fef0ed"/><path d="M166.31,137.44c-0.11.21,2.34-.14,2.67-0.33,4.79-2.8,12.75-37.08,12.75-46.83C181.72,90.08,173.22,124.83,166.31,137.44Z" transform="translate(-25.99 -40.27)" fill="#fef0ed"/><path d="M171.94,69.56c-11.19,0-20.19,6.88-31.11,8.5C100,84.1,57.14,76.67,38,59.77c-5.31-4.68-16.75-2.52-9.8,3.61C49.85,82.49,94.4,87,100.26,87.52c1.68,0.15,8.12.63,10.25,0.63,7.38,0,15.56.06,22.12-1.37,5.41-1.18,10.24-3.22,15.48-5.14,4.3-1.58,8.26-2.24,14.86-4.52,3.44-1.19,6.89-1.13,9.92-3.57C175.07,71.77,175.23,69.56,171.94,69.56Z" transform="translate(-25.99 -40.27)" fill="#e64d61"/><path d="M165.07,183.94c-5.18.54-8.25-6.63-12.95-7.94a7.08,7.08,0,0,0-3.53-.11,8.13,8.13,0,0,0-5.7-9.35c-1.55-.49-3.95-0.27-5.09-1.57s-0.65-3.36-1.25-4.92c-1-2.56-4.79-4.77-4-7.84,0.63-2.36,3.29-3.06,3.27-5.78,0-2.55-2.51-4.39-3.28-6.68-2.54-7.47,8.52-12.47,5.62-20.11a6.12,6.12,0,0,0-1.19-2.5c-1.65-2.44-.93-4.57,3.81-5.94,1.7-.47,1.79-1.79.06-1.31-2.42.67-5.37,1.89-6.88,4.08a3.32,3.32,0,0,0-.93,2.17c0,1.48,1,2.31,2.19,4,2.91,7.26-6.81,11.77-5.93,18.87,0.37,3,3.45,5,3.46,8,0,2.76-3.2,3.84-3.21,6.67,0,1.7,1.24,3,2.16,4.25a12.16,12.16,0,0,1,2.32,4.75c0.28,1.27.08,2.32,1,3.33,1.22,1.28,3.25,1.19,4.8,1.64,4.51,1.31,7,5.15,5.54,9.78-0.29.93,2,.28,2.31,0.12,3.81-2.21,8.34,4.78,11,6.46a8.24,8.24,0,0,0,5.88,1.26C165.93,185.18,167.1,183.73,165.07,183.94Z" transform="translate(-25.99 -40.27)" fill="#fef0ed"/><path d="M445.84,182.65c-4.9-2.56-10.69-1.55-15.51-4-3.92-2-3.89-6.52-8.05-7.82A10.92,10.92,0,0,0,421,171c-2.49-.59-1.75-1.88-1.94-4.13-0.12-1.39-.16-2.45-1.18-3.53s-2.66-1.39-4.07-1.72c-1.15-.26-2.45-0.21-3.48-0.83-2-1.21-1.5-3.22-1.88-5.14-0.48-2.41-1.47-2.81-2.46-4.87-1.59-3.31,1.06-4.82,2.07-7.66a4.18,4.18,0,0,0-.36-3.64c-0.6-1.22-1.85-2-2.49-3.2-1.64-3-.71-5.16.81-7.75,2.09-3.56,6.46-7.63,4.41-12.25-0.23-.53-0.91-1-1.09-1.51q-2-1.05.11-3.05a2.7,2.7,0,0,1,2-2.83c1.2-1.15,2.09-1.4,2.82-3s-2.25-1.39-2.76-.28c-1.35,3-8.59,3.61-6.87,8.19,0.37,1,1.1,1.06,1.63,1.84,2,3,2,4.58.53,7.46s-4,5-5,8.06a6.88,6.88,0,0,0,.08,5.22c0.56,1.27,1.86,2.07,2.42,3.27,2,4.34.24,3.94-1.33,6.14-0.87,1.23-1.49,2.39-1.07,4a8.06,8.06,0,0,0,1.43,2.28,10.22,10.22,0,0,1,2.14,6.08c0.38,3.67,2.35,4.52,5.76,5.25,2.58,0.55,3.21.34,4.3,2.75,0.68,1.51.3,2.53,0.6,4a3.51,3.51,0,0,0,2.27,3c2,0.7,3.13-.62,4.75,1.59,1.23,1.69,1.58,3.29,3.36,4.63,5,3.72,11.75,2.14,17.09,4.93C444.65,184.82,447.22,183.37,445.84,182.65Z" transform="translate(-25.99 -40.27)" fill="#fef0ed"/><path d="M733,179.6c-1.86,1.29-6-3.16-8.12-3.56a7.85,7.85,0,0,0-4.34.54,19.19,19.19,0,0,1-15.94-.81c-3-1.51-2.77-1.76-5-4-1.11-1.11-2.35-2.7-4-2.73-0.84,0-4.42,2.49-4.81,2a21.33,21.33,0,0,0,.92-4.7c-0.35-2.39-1.2-4.5-3.37-5.52-2.67-1.26-6.5-1.45-8.25-4.25-1.4-2.23-.49-3.82-1.93-6.07-0.8-1.25-2.68-1.94-2.87-3.62-0.21-1.85,1.91-3.35,2.91-4.65,0.88-1.13,1.82-2.38,1.67-3.9-0.33-3.27-4.36-4.34-4.49-8s3-6.62,5-9.4c2.68-3.71,4.58-9.92-1.11-11.91-0.68-.24-3.27.85-2.37,1.16,9.59,3.35-3.42,14.32-4.23,19.4-0.77,4.8,2.46,4.63,4,8.33,1.37,3.34-2.22,5-3.52,7.49s-0.21,3.15,1.41,5.13c2.22,2.72.58,5.56,2.35,8.25,1.59,2.41,4.67,2.09,7.1,2.83a6.67,6.67,0,0,1,3.51,10.5c-0.07.09-.25,0.32,0,0.42a4.42,4.42,0,0,0,3.42.31c0.82-.21,1.56-0.82,2.36-1,2.91-.69,6.32,2.59,8.14,4.47,6.5,6.75,4.29-1.31,8,2.75,5.73,6.26,10.95-1.25,16-.25,3.71,0.74,6.39,3.4,9.89,1C736.48,178.9,733.6,179.21,733,179.6Z" transform="translate(-25.99 -40.27)" fill="#fef0ed"/><path d="M526.69,101.37c-4.53,1.23-7.68-13.09-9.09-15.72-2.16-4-5.35-6.31-9.41-8.22-5-2.37-9.27-4.07-12.38-8.92-2-3.12-3.52-6.22-7.32-7.24-1.21-.33-3.42,1.44-1.68,1.91,4.91,1.33,6.16,7.66,9.74,10.78,4.06,3.54,9.6,4.49,13.91,7.61,5.75,4.15,6.21,11.39,9,17.34,1.58,3.37,3.93,5.44,7.77,4.4C529,102.81,528.48,100.89,526.69,101.37Z" transform="translate(-25.99 -40.27)" fill="#fef0ed"/><path d="M163.25,73.09a15.69,15.69,0,0,1-11-4.41c-0.53-.5-3.13.6-2.73,1a16.87,16.87,0,0,0,11.81,4.58C161.95,74.23,164.62,73.09,163.25,73.09Z" transform="translate(-25.99 -40.27)" fill="#ffdcdc"/><path d="M159.31,79.92a44.94,44.94,0,0,0-10,5.15c-1.61,1.11.73,2.23,1.94,1.4A39,39,0,0,1,159.86,82C161.58,81.36,161.07,79.27,159.31,79.92Z" transform="translate(-25.99 -40.27)" fill="#ffdcdc"/><path d="M158.8,92.37a2,2,0,0,0-2.07.21l-7.34,4.66a0.81,0.81,0,0,0-.19,1.37,2,2,0,0,0,2.07-.21l7.34-4.66A0.81,0.81,0,0,0,158.8,92.37Z" transform="translate(-25.99 -40.27)" fill="#ffdcdc"/><path d="M206.11,68.05l-10.67,6.66c-1.66,1,.84,1.54,1.82.93L207.93,69C209.59,67.94,207.09,67.45,206.11,68.05Z" transform="translate(-25.99 -40.27)" fill="#ffdcdc"/><path d="M207.9,82.23l-10-1.72c-0.84-.14-3.39,1.2-1.8,1.47l10,1.72C206.93,83.84,209.48,82.5,207.9,82.23Z" transform="translate(-25.99 -40.27)" fill="#ffdcdc"/><path d="M208.82,93.72A19.48,19.48,0,0,1,201,89.27c-0.68-.63-3.38.46-2.7,1.09A20.53,20.53,0,0,0,206.49,95a2.64,2.64,0,0,0,2-.3C208.81,94.55,209.51,93.93,208.82,93.72Z" transform="translate(-25.99 -40.27)" fill="#ffdcdc"/><path d="M438.84,69.77a52,52,0,0,1-11.17-5.86c-0.72-.5-3.27.66-2.72,1a53.81,53.81,0,0,0,11.53,6C437.19,71.27,439.82,70.15,438.84,69.77Z" transform="translate(-25.99 -40.27)" fill="#fdb7b8"/><path d="M432.33,75l-8,3.37c-1.85.78-.19,2,1.2,1.41l8-3.37C435.38,75.62,433.73,74.39,432.33,75Z" transform="translate(-25.99 -40.27)" fill="#fdb7b8"/><path d="M435.64,80.52a2.91,2.91,0,0,0-1.93.73l-10.59,9.42c-0.53.47,0.47,0.58,0.72,0.6a2.91,2.91,0,0,0,1.93-.73l10.59-9.42C436.89,80.64,435.89,80.53,435.64,80.52Z" transform="translate(-25.99 -40.27)" fill="#fdb7b8"/><path d="M476.55,61.05a2.68,2.68,0,0,0-2,.55L466,67.76c-0.54.39-.24,0.78,0.25,0.93a2.68,2.68,0,0,0,2-.55L476.8,62C477.34,61.6,477,61.21,476.55,61.05Z" transform="translate(-25.99 -40.27)" fill="#fdb7b8"/><path d="M477.2,73.07a28.32,28.32,0,0,0-9.76.61c-1.74.41-1.39,1.72,0.35,1.31a22.11,22.11,0,0,1,7.61-.44,2.6,2.6,0,0,0,2-.55C477.78,73.61,477.9,73.15,477.2,73.07Z" transform="translate(-25.99 -40.27)" fill="#fdb7b8"/><path d="M477.36,85.67l-8.15-5.09c-1.13-.7-3.64.83-2.22,1.71l8.15,5.09C476.27,88.08,478.78,86.55,477.36,85.67Z" transform="translate(-25.99 -40.27)" fill="#fdb7b8"/><path d="M703.05,63.23l-7.29-5.4c-0.62-.46-3.08.71-2.74,1l7.29,5.4C700.93,64.65,703.4,63.49,703.05,63.23Z" transform="translate(-25.99 -40.27)" fill="#ffdcdc"/><path d="M700.89,70.11l-6.67,2c-0.26.08-1.45,0.39-1.33,0.83s1.36,0.11,1.57.05l6.67-2c0.26-.08,1.45-0.39,1.33-0.83S701.09,70,700.89,70.11Z" transform="translate(-25.99 -40.27)" fill="#ffdcdc"/><path d="M700.46,78.74a28.83,28.83,0,0,1-7.78,7.08,0.83,0.83,0,0,0-.18,1.4,2,2,0,0,0,2.07-.2,30.87,30.87,0,0,0,8.29-7.52C704,78.06,701.21,77.76,700.46,78.74Z" transform="translate(-25.99 -40.27)" fill="#ffdcdc"/><path d="M746.53,58.26a2.22,2.22,0,0,0-2,.55A19.24,19.24,0,0,1,737.69,63a1,1,0,0,0-.73,1.31c0.37,0.58,1.46.29,1.94,0.11a22.79,22.79,0,0,0,8-5A0.67,0.67,0,0,0,746.53,58.26Z" transform="translate(-25.99 -40.27)" fill="#ffdcdc"/><path d="M745.52,69.34a23.79,23.79,0,0,1-6.94.52,3.28,3.28,0,0,0-2,.55c-0.37.33-.47,0.57,0.16,0.61a31,31,0,0,0,9.06-.81c0.23-.05,1.49-0.42,1.33-0.82S745.77,69.28,745.52,69.34Z" transform="translate(-25.99 -40.27)" fill="#ffdcdc"/><path d="M746.76,81.07l-6.69-4.63c-0.84-.58-3.49.63-2.29,1.47l6.69,4.63C745.31,83.12,748,81.9,746.76,81.07Z" transform="translate(-25.99 -40.27)" fill="#ffdcdc"/></g></g></svg>